%TF.GenerationSoftware,KiCad,Pcbnew,8.0.5*%
%TF.CreationDate,2024-10-31T00:03:13+01:00*%
%TF.ProjectId,HotPlate_Soldering,486f7450-6c61-4746-955f-536f6c646572,rev?*%
%TF.SameCoordinates,Original*%
%TF.FileFunction,Copper,L2,Bot*%
%TF.FilePolarity,Positive*%
%FSLAX46Y46*%
G04 Gerber Fmt 4.6, Leading zero omitted, Abs format (unit mm)*
G04 Created by KiCad (PCBNEW 8.0.5) date 2024-10-31 00:03:13*
%MOMM*%
%LPD*%
G01*
G04 APERTURE LIST*
%TA.AperFunction,ComponentPad*%
%ADD10O,2.400000X2.400000*%
%TD*%
%TA.AperFunction,ComponentPad*%
%ADD11C,2.400000*%
%TD*%
%TA.AperFunction,ComponentPad*%
%ADD12O,1.700000X2.000000*%
%TD*%
%TA.AperFunction,ComponentPad*%
%ADD13R,1.700000X2.000000*%
%TD*%
%TA.AperFunction,ComponentPad*%
%ADD14C,5.600000*%
%TD*%
%TA.AperFunction,ComponentPad*%
%ADD15R,2.000000X2.000000*%
%TD*%
%TA.AperFunction,ComponentPad*%
%ADD16O,2.000000X2.000000*%
%TD*%
%TA.AperFunction,ComponentPad*%
%ADD17O,2.000000X1.905000*%
%TD*%
%TA.AperFunction,ComponentPad*%
%ADD18R,2.000000X1.905000*%
%TD*%
%TA.AperFunction,ComponentPad*%
%ADD19C,1.800000*%
%TD*%
%TA.AperFunction,ComponentPad*%
%ADD20R,1.800000X1.800000*%
%TD*%
%TA.AperFunction,ComponentPad*%
%ADD21O,1.700000X1.700000*%
%TD*%
%TA.AperFunction,ComponentPad*%
%ADD22R,1.700000X1.700000*%
%TD*%
%TA.AperFunction,ComponentPad*%
%ADD23C,1.905000*%
%TD*%
%TA.AperFunction,ComponentPad*%
%ADD24C,2.800000*%
%TD*%
%TA.AperFunction,ComponentPad*%
%ADD25R,2.800000X2.800000*%
%TD*%
%TA.AperFunction,ComponentPad*%
%ADD26O,1.600000X1.600000*%
%TD*%
%TA.AperFunction,ComponentPad*%
%ADD27R,1.600000X1.600000*%
%TD*%
%TA.AperFunction,ViaPad*%
%ADD28C,0.800000*%
%TD*%
%TA.AperFunction,Conductor*%
%ADD29C,0.250000*%
%TD*%
%TA.AperFunction,Conductor*%
%ADD30C,1.500000*%
%TD*%
G04 APERTURE END LIST*
D10*
%TO.P,R1,2*%
%TO.N,Net-(D1-Pad2)*%
X96480000Y-111025000D03*
D11*
%TO.P,R1,1*%
%TO.N,NEUT*%
X124420000Y-111025000D03*
%TD*%
D12*
%TO.P,PS1,4,+Vout*%
%TO.N,+5V*%
X164725000Y-112250000D03*
%TO.P,PS1,3,-Vout*%
%TO.N,GND*%
X164725000Y-130250000D03*
%TO.P,PS1,2,AC/N*%
%TO.N,NEUT*%
X131125000Y-118250000D03*
D13*
%TO.P,PS1,1,AC/L*%
%TO.N,LINE*%
X131125000Y-124250000D03*
%TD*%
D14*
%TO.P,REF\u002A\u002A,1*%
%TO.N,N/C*%
X74500000Y-88575062D03*
%TD*%
D15*
%TO.P,D1,1,+*%
%TO.N,Net-(D1-+)*%
X121825000Y-125645000D03*
D16*
%TO.P,D1,2*%
%TO.N,Net-(D1-Pad2)*%
X121825000Y-120565000D03*
%TO.P,D1,3,-*%
%TO.N,GNDD*%
X116745000Y-120565000D03*
%TO.P,D1,4*%
%TO.N,LINE*%
X116745000Y-125645000D03*
%TD*%
D14*
%TO.P,,1*%
%TO.N,N/C*%
X164500000Y-88575000D03*
%TD*%
D17*
%TO.P,Q1,3,G*%
%TO.N,Net-(Q1-G)*%
X106500000Y-92380000D03*
%TO.P,Q1,2,A2*%
%TO.N,LINE*%
X106500000Y-89840000D03*
D18*
%TO.P,Q1,1,A1*%
%TO.N,Net-(J3-Pin_2)*%
X106500000Y-87300000D03*
%TD*%
D19*
%TO.P,D2,2,A*%
%TO.N,LED_1*%
X116026191Y-138589187D03*
D20*
%TO.P,D2,1,K*%
%TO.N,Net-(D2-K)*%
X116026191Y-136049187D03*
%TD*%
D21*
%TO.P,J1,2,Pin_2*%
%TO.N,Net-(J1-Pin_2)*%
X90190000Y-86225000D03*
D22*
%TO.P,J1,1,Pin_1*%
%TO.N,+3.3V*%
X87650000Y-86225000D03*
%TD*%
D21*
%TO.P,J7,4,Pin_4*%
%TO.N,GND*%
X82455000Y-138750000D03*
%TO.P,J7,3,Pin_3*%
%TO.N,SDA*%
X84995000Y-138750000D03*
%TO.P,J7,2,Pin_2*%
%TO.N,SCL*%
X87535000Y-138750000D03*
D22*
%TO.P,J7,1,Pin_1*%
%TO.N,+5V*%
X90075000Y-138750000D03*
%TD*%
D23*
%TO.P,U2,G,GND*%
%TO.N,GND*%
X75065000Y-105680000D03*
%TO.P,U2,21,GPIO21*%
%TO.N,unconnected-(U2-GPIO21-Pad21)*%
X90305000Y-120920000D03*
%TO.P,U2,20,GPIO20*%
%TO.N,LED_2*%
X87765000Y-120920000D03*
%TO.P,U2,10,GPIO10*%
%TO.N,LED_1*%
X85225000Y-120920000D03*
%TO.P,U2,9,GPIO9*%
%TO.N,SCL*%
X82685000Y-120920000D03*
%TO.P,U2,8,GPIO8*%
%TO.N,SDA*%
X80145000Y-120920000D03*
%TO.P,U2,7,GPIO7*%
%TO.N,Button_2*%
X77605000Y-120920000D03*
%TO.P,U2,6,GPIO6*%
%TO.N,Button_1*%
X75065000Y-120920000D03*
%TO.P,U2,5V,5V*%
%TO.N,+5V*%
X72525000Y-105680000D03*
%TO.P,U2,5,GPIO5*%
%TO.N,Cera_3*%
X72525000Y-120920000D03*
%TO.P,U2,4,GPIO4*%
%TO.N,Cera_2*%
X80145000Y-105680000D03*
%TO.P,U2,3.3,3V3*%
%TO.N,+3.3V*%
X77605000Y-105680000D03*
%TO.P,U2,3,GPIO3*%
%TO.N,Cera_1*%
X82685000Y-105680000D03*
%TO.P,U2,2,GPIO2*%
%TO.N,Zero_Cross_pin*%
X85225000Y-105680000D03*
%TO.P,U2,1,GPIO1*%
%TO.N,NTC_2*%
X87765000Y-105680000D03*
%TO.P,U2,0,GPIO0*%
%TO.N,NTC_1*%
X90305000Y-105680000D03*
%TD*%
D24*
%TO.P,J4,2,Pin_2*%
%TO.N,Net-(J4-Pin_2)*%
X118980000Y-87990000D03*
D25*
%TO.P,J4,1,Pin_1*%
%TO.N,NEUT*%
X113900000Y-87990000D03*
%TD*%
D24*
%TO.P,J6,2,Pin_2*%
%TO.N,NEUT*%
X149920000Y-87990000D03*
D25*
%TO.P,J6,1,Pin_1*%
%TO.N,LINE*%
X155000000Y-87990000D03*
%TD*%
D14*
%TO.P,,1*%
%TO.N,N/C*%
X164500000Y-138550062D03*
%TD*%
%TO.P,,1*%
%TO.N,N/C*%
X74500000Y-138550062D03*
%TD*%
D17*
%TO.P,Q2,3,G*%
%TO.N,Net-(Q2-G)*%
X124500000Y-92380000D03*
%TO.P,Q2,2,A2*%
%TO.N,LINE*%
X124500000Y-89840000D03*
D18*
%TO.P,Q2,1,A1*%
%TO.N,Net-(J4-Pin_2)*%
X124500000Y-87300000D03*
%TD*%
D20*
%TO.P,D3,1,K*%
%TO.N,Net-(D3-K)*%
X126026191Y-136049187D03*
D19*
%TO.P,D3,2,A*%
%TO.N,LED_2*%
X126026191Y-138589187D03*
%TD*%
D24*
%TO.P,J3,2,Pin_2*%
%TO.N,Net-(J3-Pin_2)*%
X100980000Y-87990000D03*
D25*
%TO.P,J3,1,Pin_1*%
%TO.N,NEUT*%
X95900000Y-87990000D03*
%TD*%
D26*
%TO.P,U3,6*%
%TO.N,Net-(R7-Pad1)*%
X95775000Y-93280000D03*
%TO.P,U3,5,NC*%
%TO.N,unconnected-(U3-NC-Pad5)*%
X98315000Y-93280000D03*
%TO.P,U3,4*%
%TO.N,Net-(Q1-G)*%
X100855000Y-93280000D03*
%TO.P,U3,3,NC*%
%TO.N,unconnected-(U3-NC-Pad3)*%
X100855000Y-100900000D03*
%TO.P,U3,2*%
%TO.N,Net-(R6-Pad1)*%
X98315000Y-100900000D03*
D27*
%TO.P,U3,1*%
%TO.N,Cera_1*%
X95775000Y-100900000D03*
%TD*%
D21*
%TO.P,J2,2,Pin_2*%
%TO.N,Net-(J2-Pin_2)*%
X83740000Y-86225000D03*
D22*
%TO.P,J2,1,Pin_1*%
%TO.N,+3.3V*%
X81200000Y-86225000D03*
%TD*%
D17*
%TO.P,Q3,3,G*%
%TO.N,Net-(Q3-G)*%
X142500000Y-92380000D03*
%TO.P,Q3,2,A2*%
%TO.N,LINE*%
X142500000Y-89840000D03*
D18*
%TO.P,Q3,1,A1*%
%TO.N,Net-(J5-Pin_2)*%
X142500000Y-87300000D03*
%TD*%
D26*
%TO.P,U4,6*%
%TO.N,Net-(R9-Pad1)*%
X114150000Y-93280000D03*
%TO.P,U4,5,NC*%
%TO.N,unconnected-(U4-NC-Pad5)*%
X116690000Y-93280000D03*
%TO.P,U4,4*%
%TO.N,Net-(Q2-G)*%
X119230000Y-93280000D03*
%TO.P,U4,3,NC*%
%TO.N,unconnected-(U4-NC-Pad3)*%
X119230000Y-100900000D03*
%TO.P,U4,2*%
%TO.N,Net-(R8-Pad1)*%
X116690000Y-100900000D03*
D27*
%TO.P,U4,1*%
%TO.N,Cera_2*%
X114150000Y-100900000D03*
%TD*%
D24*
%TO.P,J5,2,Pin_2*%
%TO.N,Net-(J5-Pin_2)*%
X136980000Y-87990000D03*
D25*
%TO.P,J5,1,Pin_1*%
%TO.N,NEUT*%
X131900000Y-87990000D03*
%TD*%
D26*
%TO.P,U1,6*%
%TO.N,unconnected-(U1-Pad6)*%
X104180000Y-125550000D03*
%TO.P,U1,5*%
%TO.N,Zero_Cross_pin*%
X104180000Y-123010000D03*
%TO.P,U1,4*%
%TO.N,Net-(R3-Pad2)*%
X104180000Y-120470000D03*
%TO.P,U1,3,NC*%
%TO.N,unconnected-(U1-NC-Pad3)*%
X111800000Y-120470000D03*
%TO.P,U1,2*%
%TO.N,GNDD*%
X111800000Y-123010000D03*
D27*
%TO.P,U1,1*%
%TO.N,Net-(D1-+)*%
X111800000Y-125550000D03*
%TD*%
D26*
%TO.P,U5,6*%
%TO.N,Net-(R13-Pad1)*%
X131825000Y-93275000D03*
%TO.P,U5,5,NC*%
%TO.N,unconnected-(U5-NC-Pad5)*%
X134365000Y-93275000D03*
%TO.P,U5,4*%
%TO.N,Net-(Q3-G)*%
X136905000Y-93275000D03*
%TO.P,U5,3,NC*%
%TO.N,unconnected-(U5-NC-Pad3)*%
X136905000Y-100895000D03*
%TO.P,U5,2*%
%TO.N,Net-(R11-Pad1)*%
X134365000Y-100895000D03*
D27*
%TO.P,U5,1*%
%TO.N,Cera_3*%
X131825000Y-100895000D03*
%TD*%
D28*
%TO.N,GND*%
X125775000Y-98750000D03*
X133191187Y-97797588D03*
X96800000Y-97800000D03*
X108600000Y-98375000D03*
X91400000Y-97100000D03*
X89025000Y-101400000D03*
X86500000Y-89375000D03*
X72879728Y-93413995D03*
X160475000Y-103925000D03*
X167625000Y-99775000D03*
X167725000Y-105475000D03*
X104700000Y-116450000D03*
X132175000Y-106050000D03*
X116775000Y-106075000D03*
X101675000Y-105800000D03*
X75100000Y-101925000D03*
X81275000Y-101175000D03*
X76125000Y-110525000D03*
X86000000Y-113975000D03*
X72500000Y-133900000D03*
X76350000Y-126225000D03*
X81125000Y-126700000D03*
X87225000Y-128825000D03*
X98600000Y-128850000D03*
X96875000Y-137225000D03*
X106575000Y-136600000D03*
X142482045Y-128093914D03*
X148950000Y-119250000D03*
X160500000Y-114675000D03*
X155325000Y-129725000D03*
X154125000Y-137250000D03*
X136250000Y-137325000D03*
X145825000Y-137350000D03*
%TO.N,+3.3V*%
X158525000Y-120125000D03*
X106175000Y-122600000D03*
X158575000Y-105175000D03*
%TD*%
D29*
%TO.N,+3.3V*%
X158525000Y-105225000D02*
X158525000Y-120125000D01*
X158575000Y-105175000D02*
X158525000Y-105225000D01*
X106175000Y-127775000D02*
X106175000Y-122600000D01*
X103800000Y-130150000D02*
X106175000Y-127775000D01*
X133600000Y-130150000D02*
X103800000Y-130150000D01*
X158575000Y-105175000D02*
X133600000Y-130150000D01*
D30*
%TO.N,NEUT*%
X124420000Y-111025000D02*
X124420000Y-111545000D01*
X124420000Y-111545000D02*
X131125000Y-118250000D01*
D29*
%TO.N,Cera_3*%
X128420000Y-104300000D02*
X131825000Y-100895000D01*
X94736396Y-104300000D02*
X128420000Y-104300000D01*
X91311396Y-107725000D02*
X94736396Y-104300000D01*
X72525000Y-117150000D02*
X81950000Y-107725000D01*
X72525000Y-120920000D02*
X72525000Y-117150000D01*
X81950000Y-107725000D02*
X91311396Y-107725000D01*
%TO.N,Cera_2*%
X91125000Y-107275000D02*
X81740000Y-107275000D01*
X94550000Y-103850000D02*
X91125000Y-107275000D01*
X81740000Y-107275000D02*
X80145000Y-105680000D01*
X111200000Y-103850000D02*
X94550000Y-103850000D01*
X114150000Y-100900000D02*
X111200000Y-103850000D01*
%TO.N,Cera_1*%
X82685000Y-105415000D02*
X82685000Y-105680000D01*
X94491658Y-103300000D02*
X84800000Y-103300000D01*
X84800000Y-103300000D02*
X82685000Y-105415000D01*
X95775000Y-102016658D02*
X94491658Y-103300000D01*
X95775000Y-100900000D02*
X95775000Y-102016658D01*
%TD*%
%TA.AperFunction,Conductor*%
%TO.N,NEUT*%
G36*
X145600000Y-91195225D02*
G01*
X143536900Y-91194400D01*
X143469869Y-91174689D01*
X143424135Y-91121866D01*
X143414219Y-91052704D01*
X143443270Y-90989160D01*
X143464058Y-90970087D01*
X143494066Y-90948286D01*
X143655786Y-90786566D01*
X143790217Y-90601538D01*
X143894048Y-90397758D01*
X143964722Y-90180245D01*
X144000500Y-89954354D01*
X144000500Y-89725646D01*
X143964722Y-89499755D01*
X143964721Y-89499751D01*
X143964721Y-89499750D01*
X143894049Y-89282244D01*
X143790216Y-89078461D01*
X143657472Y-88895755D01*
X143633994Y-88829953D01*
X143649819Y-88761899D01*
X143699925Y-88713204D01*
X143714455Y-88706692D01*
X143742331Y-88696296D01*
X143857546Y-88610046D01*
X143943796Y-88494831D01*
X143994091Y-88359983D01*
X144000500Y-88300373D01*
X144000499Y-86299628D01*
X143994091Y-86240017D01*
X143991270Y-86232454D01*
X143943797Y-86105171D01*
X143943793Y-86105164D01*
X143857547Y-85989955D01*
X143857544Y-85989952D01*
X143742335Y-85903706D01*
X143742328Y-85903702D01*
X143607482Y-85853408D01*
X143607483Y-85853408D01*
X143547883Y-85847001D01*
X143547881Y-85847000D01*
X143547873Y-85847000D01*
X143547864Y-85847000D01*
X141452129Y-85847000D01*
X141452123Y-85847001D01*
X141392516Y-85853408D01*
X141257671Y-85903702D01*
X141257664Y-85903706D01*
X141142455Y-85989952D01*
X141142452Y-85989955D01*
X141056206Y-86105164D01*
X141056202Y-86105171D01*
X141005908Y-86240017D01*
X140999501Y-86299616D01*
X140999501Y-86299623D01*
X140999500Y-86299635D01*
X140999500Y-88300370D01*
X140999501Y-88300376D01*
X141005908Y-88359983D01*
X141056202Y-88494828D01*
X141056206Y-88494835D01*
X141142452Y-88610044D01*
X141142455Y-88610047D01*
X141257664Y-88696293D01*
X141257669Y-88696296D01*
X141285539Y-88706690D01*
X141341473Y-88748561D01*
X141365891Y-88814024D01*
X141351040Y-88882298D01*
X141342525Y-88895759D01*
X141209783Y-89078461D01*
X141105950Y-89282244D01*
X141035278Y-89499750D01*
X141035278Y-89499753D01*
X140999500Y-89725646D01*
X140999500Y-89954353D01*
X141035278Y-90180246D01*
X141035278Y-90180249D01*
X141105950Y-90397755D01*
X141105952Y-90397758D01*
X141209783Y-90601538D01*
X141344214Y-90786566D01*
X141505934Y-90948286D01*
X141526039Y-90962893D01*
X141534793Y-90969253D01*
X141577459Y-91024584D01*
X141583437Y-91094197D01*
X141550831Y-91155992D01*
X141489992Y-91190349D01*
X141461857Y-91193571D01*
X125546792Y-91187213D01*
X125479761Y-91167502D01*
X125434027Y-91114679D01*
X125424111Y-91045517D01*
X125453162Y-90981973D01*
X125473955Y-90962897D01*
X125494066Y-90948286D01*
X125655786Y-90786566D01*
X125790217Y-90601538D01*
X125894048Y-90397758D01*
X125964722Y-90180245D01*
X126000500Y-89954354D01*
X126000500Y-89725646D01*
X125964722Y-89499755D01*
X125964721Y-89499751D01*
X125964721Y-89499750D01*
X125894049Y-89282244D01*
X125790216Y-89078461D01*
X125657472Y-88895755D01*
X125633994Y-88829953D01*
X125649819Y-88761899D01*
X125699925Y-88713204D01*
X125714455Y-88706692D01*
X125742331Y-88696296D01*
X125857546Y-88610046D01*
X125943796Y-88494831D01*
X125994091Y-88359983D01*
X126000500Y-88300373D01*
X126000499Y-86542155D01*
X130000000Y-86542155D01*
X130000000Y-87740000D01*
X131057586Y-87740000D01*
X131025000Y-87903820D01*
X131025000Y-88076180D01*
X131057586Y-88240000D01*
X130000000Y-88240000D01*
X130000000Y-89437844D01*
X130006401Y-89497372D01*
X130006403Y-89497379D01*
X130056645Y-89632086D01*
X130056649Y-89632093D01*
X130142809Y-89747187D01*
X130142812Y-89747190D01*
X130257906Y-89833350D01*
X130257913Y-89833354D01*
X130392620Y-89883596D01*
X130392627Y-89883598D01*
X130452155Y-89889999D01*
X130452172Y-89890000D01*
X131650000Y-89890000D01*
X131650000Y-88832413D01*
X131813820Y-88865000D01*
X131986180Y-88865000D01*
X132150000Y-88832413D01*
X132150000Y-89890000D01*
X133347828Y-89890000D01*
X133347844Y-89889999D01*
X133407372Y-89883598D01*
X133407379Y-89883596D01*
X133542086Y-89833354D01*
X133542093Y-89833350D01*
X133657187Y-89747190D01*
X133657190Y-89747187D01*
X133743350Y-89632093D01*
X133743354Y-89632086D01*
X133793596Y-89497379D01*
X133793598Y-89497372D01*
X133799999Y-89437844D01*
X133800000Y-89437827D01*
X133800000Y-88240000D01*
X132742414Y-88240000D01*
X132775000Y-88076180D01*
X132775000Y-87989998D01*
X135074645Y-87989998D01*
X135074645Y-87990001D01*
X135094039Y-88261160D01*
X135094040Y-88261167D01*
X135144870Y-88494831D01*
X135151825Y-88526801D01*
X135215044Y-88696296D01*
X135246830Y-88781519D01*
X135377109Y-89020107D01*
X135377110Y-89020108D01*
X135377113Y-89020113D01*
X135540029Y-89237742D01*
X135540033Y-89237746D01*
X135540038Y-89237752D01*
X135732247Y-89429961D01*
X135732253Y-89429966D01*
X135732258Y-89429971D01*
X135949887Y-89592887D01*
X135949891Y-89592889D01*
X135949892Y-89592890D01*
X136188481Y-89723169D01*
X136188480Y-89723169D01*
X136188484Y-89723170D01*
X136188487Y-89723172D01*
X136443199Y-89818175D01*
X136708840Y-89875961D01*
X136960605Y-89893967D01*
X136979999Y-89895355D01*
X136980000Y-89895355D01*
X136980001Y-89895355D01*
X136998100Y-89894060D01*
X137251160Y-89875961D01*
X137516801Y-89818175D01*
X137771513Y-89723172D01*
X137771517Y-89723169D01*
X137771519Y-89723169D01*
X137976357Y-89611319D01*
X138010113Y-89592887D01*
X138227742Y-89429971D01*
X138419971Y-89237742D01*
X138582887Y-89020113D01*
X138713172Y-88781513D01*
X138808175Y-88526801D01*
X138865961Y-88261160D01*
X138885355Y-87990000D01*
X138865961Y-87718840D01*
X138808175Y-87453199D01*
X138713172Y-87198487D01*
X138713170Y-87198484D01*
X138713169Y-87198480D01*
X138582890Y-86959892D01*
X138582889Y-86959891D01*
X138582887Y-86959887D01*
X138419971Y-86742258D01*
X138419966Y-86742253D01*
X138419961Y-86742247D01*
X138227752Y-86550038D01*
X138227746Y-86550033D01*
X138227742Y-86550029D01*
X138010113Y-86387113D01*
X138010108Y-86387110D01*
X138010107Y-86387109D01*
X137771518Y-86256830D01*
X137771519Y-86256830D01*
X137707116Y-86232809D01*
X137516801Y-86161825D01*
X137516794Y-86161823D01*
X137516793Y-86161823D01*
X137251167Y-86104040D01*
X137251160Y-86104039D01*
X136980001Y-86084645D01*
X136979999Y-86084645D01*
X136708839Y-86104039D01*
X136708832Y-86104040D01*
X136443206Y-86161823D01*
X136443202Y-86161824D01*
X136443199Y-86161825D01*
X136315843Y-86209326D01*
X136188480Y-86256830D01*
X135949892Y-86387109D01*
X135949891Y-86387110D01*
X135732259Y-86550028D01*
X135732247Y-86550038D01*
X135540038Y-86742247D01*
X135540028Y-86742259D01*
X135377110Y-86959891D01*
X135377109Y-86959892D01*
X135246830Y-87198480D01*
X135205108Y-87310343D01*
X135151825Y-87453199D01*
X135151824Y-87453202D01*
X135151823Y-87453206D01*
X135094040Y-87718832D01*
X135094039Y-87718839D01*
X135074645Y-87989998D01*
X132775000Y-87989998D01*
X132775000Y-87903820D01*
X132742414Y-87740000D01*
X133800000Y-87740000D01*
X133800000Y-86542172D01*
X133799999Y-86542155D01*
X133793598Y-86482627D01*
X133793596Y-86482620D01*
X133743354Y-86347913D01*
X133743350Y-86347906D01*
X133657190Y-86232812D01*
X133657187Y-86232809D01*
X133542093Y-86146649D01*
X133542086Y-86146645D01*
X133407379Y-86096403D01*
X133407372Y-86096401D01*
X133347844Y-86090000D01*
X132150000Y-86090000D01*
X132150000Y-87147586D01*
X131986180Y-87115000D01*
X131813820Y-87115000D01*
X131650000Y-87147586D01*
X131650000Y-86090000D01*
X130452155Y-86090000D01*
X130392627Y-86096401D01*
X130392620Y-86096403D01*
X130257913Y-86146645D01*
X130257906Y-86146649D01*
X130142812Y-86232809D01*
X130142809Y-86232812D01*
X130056649Y-86347906D01*
X130056645Y-86347913D01*
X130006403Y-86482620D01*
X130006401Y-86482627D01*
X130000000Y-86542155D01*
X126000499Y-86542155D01*
X126000499Y-86299628D01*
X125994091Y-86240017D01*
X125991270Y-86232454D01*
X125943797Y-86105171D01*
X125943793Y-86105164D01*
X125857547Y-85989955D01*
X125857544Y-85989952D01*
X125742335Y-85903706D01*
X125742328Y-85903702D01*
X125607482Y-85853408D01*
X125607483Y-85853408D01*
X125547883Y-85847001D01*
X125547881Y-85847000D01*
X125547873Y-85847000D01*
X125547864Y-85847000D01*
X123452129Y-85847000D01*
X123452123Y-85847001D01*
X123392516Y-85853408D01*
X123257671Y-85903702D01*
X123257664Y-85903706D01*
X123142455Y-85989952D01*
X123142452Y-85989955D01*
X123056206Y-86105164D01*
X123056202Y-86105171D01*
X123005908Y-86240017D01*
X122999501Y-86299616D01*
X122999501Y-86299623D01*
X122999500Y-86299635D01*
X122999500Y-88300370D01*
X122999501Y-88300376D01*
X123005908Y-88359983D01*
X123056202Y-88494828D01*
X123056206Y-88494835D01*
X123142452Y-88610044D01*
X123142455Y-88610047D01*
X123257664Y-88696293D01*
X123257669Y-88696296D01*
X123285539Y-88706690D01*
X123341473Y-88748561D01*
X123365891Y-88814024D01*
X123351040Y-88882298D01*
X123342525Y-88895759D01*
X123209783Y-89078461D01*
X123105950Y-89282244D01*
X123035278Y-89499750D01*
X123035278Y-89499753D01*
X122999500Y-89725646D01*
X122999500Y-89954353D01*
X123035278Y-90180246D01*
X123035278Y-90180249D01*
X123105950Y-90397755D01*
X123105952Y-90397758D01*
X123209783Y-90601538D01*
X123344214Y-90786566D01*
X123505934Y-90948286D01*
X123524890Y-90962058D01*
X123567556Y-91017387D01*
X123573535Y-91087000D01*
X123540930Y-91148795D01*
X123480092Y-91183153D01*
X123451955Y-91186376D01*
X107556686Y-91180025D01*
X107489655Y-91160314D01*
X107443921Y-91107491D01*
X107434005Y-91038329D01*
X107463056Y-90974785D01*
X107483851Y-90955707D01*
X107494066Y-90948286D01*
X107655786Y-90786566D01*
X107790217Y-90601538D01*
X107894048Y-90397758D01*
X107964722Y-90180245D01*
X108000500Y-89954354D01*
X108000500Y-89725646D01*
X107964722Y-89499755D01*
X107964721Y-89499751D01*
X107964721Y-89499750D01*
X107894049Y-89282244D01*
X107790216Y-89078461D01*
X107657472Y-88895755D01*
X107633994Y-88829953D01*
X107649819Y-88761899D01*
X107699925Y-88713204D01*
X107714455Y-88706692D01*
X107742331Y-88696296D01*
X107857546Y-88610046D01*
X107943796Y-88494831D01*
X107994091Y-88359983D01*
X108000500Y-88300373D01*
X108000499Y-86542155D01*
X112000000Y-86542155D01*
X112000000Y-87740000D01*
X113057586Y-87740000D01*
X113025000Y-87903820D01*
X113025000Y-88076180D01*
X113057586Y-88240000D01*
X112000000Y-88240000D01*
X112000000Y-89437844D01*
X112006401Y-89497372D01*
X112006403Y-89497379D01*
X112056645Y-89632086D01*
X112056649Y-89632093D01*
X112142809Y-89747187D01*
X112142812Y-89747190D01*
X112257906Y-89833350D01*
X112257913Y-89833354D01*
X112392620Y-89883596D01*
X112392627Y-89883598D01*
X112452155Y-89889999D01*
X112452172Y-89890000D01*
X113650000Y-89890000D01*
X113650000Y-88832413D01*
X113813820Y-88865000D01*
X113986180Y-88865000D01*
X114150000Y-88832413D01*
X114150000Y-89890000D01*
X115347828Y-89890000D01*
X115347844Y-89889999D01*
X115407372Y-89883598D01*
X115407379Y-89883596D01*
X115542086Y-89833354D01*
X115542093Y-89833350D01*
X115657187Y-89747190D01*
X115657190Y-89747187D01*
X115743350Y-89632093D01*
X115743354Y-89632086D01*
X115793596Y-89497379D01*
X115793598Y-89497372D01*
X115799999Y-89437844D01*
X115800000Y-89437827D01*
X115800000Y-88240000D01*
X114742414Y-88240000D01*
X114775000Y-88076180D01*
X114775000Y-87989998D01*
X117074645Y-87989998D01*
X117074645Y-87990001D01*
X117094039Y-88261160D01*
X117094040Y-88261167D01*
X117144870Y-88494831D01*
X117151825Y-88526801D01*
X117215044Y-88696296D01*
X117246830Y-88781519D01*
X117377109Y-89020107D01*
X117377110Y-89020108D01*
X117377113Y-89020113D01*
X117540029Y-89237742D01*
X117540033Y-89237746D01*
X117540038Y-89237752D01*
X117732247Y-89429961D01*
X117732253Y-89429966D01*
X117732258Y-89429971D01*
X117949887Y-89592887D01*
X117949891Y-89592889D01*
X117949892Y-89592890D01*
X118188481Y-89723169D01*
X118188480Y-89723169D01*
X118188484Y-89723170D01*
X118188487Y-89723172D01*
X118443199Y-89818175D01*
X118708840Y-89875961D01*
X118960605Y-89893967D01*
X118979999Y-89895355D01*
X118980000Y-89895355D01*
X118980001Y-89895355D01*
X118998100Y-89894060D01*
X119251160Y-89875961D01*
X119516801Y-89818175D01*
X119771513Y-89723172D01*
X119771517Y-89723169D01*
X119771519Y-89723169D01*
X119976357Y-89611319D01*
X120010113Y-89592887D01*
X120227742Y-89429971D01*
X120419971Y-89237742D01*
X120582887Y-89020113D01*
X120713172Y-88781513D01*
X120808175Y-88526801D01*
X120865961Y-88261160D01*
X120885355Y-87990000D01*
X120865961Y-87718840D01*
X120808175Y-87453199D01*
X120713172Y-87198487D01*
X120713170Y-87198484D01*
X120713169Y-87198480D01*
X120582890Y-86959892D01*
X120582889Y-86959891D01*
X120582887Y-86959887D01*
X120419971Y-86742258D01*
X120419966Y-86742253D01*
X120419961Y-86742247D01*
X120227752Y-86550038D01*
X120227746Y-86550033D01*
X120227742Y-86550029D01*
X120010113Y-86387113D01*
X120010108Y-86387110D01*
X120010107Y-86387109D01*
X119771518Y-86256830D01*
X119771519Y-86256830D01*
X119707116Y-86232809D01*
X119516801Y-86161825D01*
X119516794Y-86161823D01*
X119516793Y-86161823D01*
X119251167Y-86104040D01*
X119251160Y-86104039D01*
X118980001Y-86084645D01*
X118979999Y-86084645D01*
X118708839Y-86104039D01*
X118708832Y-86104040D01*
X118443206Y-86161823D01*
X118443202Y-86161824D01*
X118443199Y-86161825D01*
X118315843Y-86209326D01*
X118188480Y-86256830D01*
X117949892Y-86387109D01*
X117949891Y-86387110D01*
X117732259Y-86550028D01*
X117732247Y-86550038D01*
X117540038Y-86742247D01*
X117540028Y-86742259D01*
X117377110Y-86959891D01*
X117377109Y-86959892D01*
X117246830Y-87198480D01*
X117205108Y-87310343D01*
X117151825Y-87453199D01*
X117151824Y-87453202D01*
X117151823Y-87453206D01*
X117094040Y-87718832D01*
X117094039Y-87718839D01*
X117074645Y-87989998D01*
X114775000Y-87989998D01*
X114775000Y-87903820D01*
X114742414Y-87740000D01*
X115800000Y-87740000D01*
X115800000Y-86542172D01*
X115799999Y-86542155D01*
X115793598Y-86482627D01*
X115793596Y-86482620D01*
X115743354Y-86347913D01*
X115743350Y-86347906D01*
X115657190Y-86232812D01*
X115657187Y-86232809D01*
X115542093Y-86146649D01*
X115542086Y-86146645D01*
X115407379Y-86096403D01*
X115407372Y-86096401D01*
X115347844Y-86090000D01*
X114150000Y-86090000D01*
X114150000Y-87147586D01*
X113986180Y-87115000D01*
X113813820Y-87115000D01*
X113650000Y-87147586D01*
X113650000Y-86090000D01*
X112452155Y-86090000D01*
X112392627Y-86096401D01*
X112392620Y-86096403D01*
X112257913Y-86146645D01*
X112257906Y-86146649D01*
X112142812Y-86232809D01*
X112142809Y-86232812D01*
X112056649Y-86347906D01*
X112056645Y-86347913D01*
X112006403Y-86482620D01*
X112006401Y-86482627D01*
X112000000Y-86542155D01*
X108000499Y-86542155D01*
X108000499Y-86299628D01*
X107994091Y-86240017D01*
X107991270Y-86232454D01*
X107943797Y-86105171D01*
X107943793Y-86105164D01*
X107857547Y-85989955D01*
X107857544Y-85989952D01*
X107742335Y-85903706D01*
X107742328Y-85903702D01*
X107607482Y-85853408D01*
X107607483Y-85853408D01*
X107547883Y-85847001D01*
X107547881Y-85847000D01*
X107547873Y-85847000D01*
X107547864Y-85847000D01*
X105452129Y-85847000D01*
X105452123Y-85847001D01*
X105392516Y-85853408D01*
X105257671Y-85903702D01*
X105257664Y-85903706D01*
X105142455Y-85989952D01*
X105142452Y-85989955D01*
X105056206Y-86105164D01*
X105056202Y-86105171D01*
X105005908Y-86240017D01*
X104999501Y-86299616D01*
X104999501Y-86299623D01*
X104999500Y-86299635D01*
X104999500Y-88300370D01*
X104999501Y-88300376D01*
X105005908Y-88359983D01*
X105056202Y-88494828D01*
X105056206Y-88494835D01*
X105142452Y-88610044D01*
X105142455Y-88610047D01*
X105257664Y-88696293D01*
X105257669Y-88696296D01*
X105285539Y-88706690D01*
X105341473Y-88748561D01*
X105365891Y-88814024D01*
X105351040Y-88882298D01*
X105342525Y-88895759D01*
X105209783Y-89078461D01*
X105105950Y-89282244D01*
X105035278Y-89499750D01*
X105035278Y-89499753D01*
X104999500Y-89725646D01*
X104999500Y-89954353D01*
X105035278Y-90180246D01*
X105035278Y-90180249D01*
X105105950Y-90397755D01*
X105105952Y-90397758D01*
X105209783Y-90601538D01*
X105344214Y-90786566D01*
X105505934Y-90948286D01*
X105514986Y-90954863D01*
X105557652Y-91010190D01*
X105563633Y-91079804D01*
X105531028Y-91141599D01*
X105470190Y-91175958D01*
X105442052Y-91179181D01*
X95026332Y-91175020D01*
X94959301Y-91155309D01*
X94938701Y-91138701D01*
X93411319Y-89611319D01*
X93377834Y-89549996D01*
X93375000Y-89523638D01*
X93375000Y-86542155D01*
X94000000Y-86542155D01*
X94000000Y-87740000D01*
X95057586Y-87740000D01*
X95025000Y-87903820D01*
X95025000Y-88076180D01*
X95057586Y-88240000D01*
X94000000Y-88240000D01*
X94000000Y-89437844D01*
X94006401Y-89497372D01*
X94006403Y-89497379D01*
X94056645Y-89632086D01*
X94056649Y-89632093D01*
X94142809Y-89747187D01*
X94142812Y-89747190D01*
X94257906Y-89833350D01*
X94257913Y-89833354D01*
X94392620Y-89883596D01*
X94392627Y-89883598D01*
X94452155Y-89889999D01*
X94452172Y-89890000D01*
X95650000Y-89890000D01*
X95650000Y-88832413D01*
X95813820Y-88865000D01*
X95986180Y-88865000D01*
X96150000Y-88832413D01*
X96150000Y-89890000D01*
X97347828Y-89890000D01*
X97347844Y-89889999D01*
X97407372Y-89883598D01*
X97407379Y-89883596D01*
X97542086Y-89833354D01*
X97542093Y-89833350D01*
X97657187Y-89747190D01*
X97657190Y-89747187D01*
X97743350Y-89632093D01*
X97743354Y-89632086D01*
X97793596Y-89497379D01*
X97793598Y-89497372D01*
X97799999Y-89437844D01*
X97800000Y-89437827D01*
X97800000Y-88240000D01*
X96742414Y-88240000D01*
X96775000Y-88076180D01*
X96775000Y-87989998D01*
X99074645Y-87989998D01*
X99074645Y-87990001D01*
X99094039Y-88261160D01*
X99094040Y-88261167D01*
X99144870Y-88494831D01*
X99151825Y-88526801D01*
X99215044Y-88696296D01*
X99246830Y-88781519D01*
X99377109Y-89020107D01*
X99377110Y-89020108D01*
X99377113Y-89020113D01*
X99540029Y-89237742D01*
X99540033Y-89237746D01*
X99540038Y-89237752D01*
X99732247Y-89429961D01*
X99732253Y-89429966D01*
X99732258Y-89429971D01*
X99949887Y-89592887D01*
X99949891Y-89592889D01*
X99949892Y-89592890D01*
X100188481Y-89723169D01*
X100188480Y-89723169D01*
X100188484Y-89723170D01*
X100188487Y-89723172D01*
X100443199Y-89818175D01*
X100708840Y-89875961D01*
X100960605Y-89893967D01*
X100979999Y-89895355D01*
X100980000Y-89895355D01*
X100980001Y-89895355D01*
X100998100Y-89894060D01*
X101251160Y-89875961D01*
X101516801Y-89818175D01*
X101771513Y-89723172D01*
X101771517Y-89723169D01*
X101771519Y-89723169D01*
X101976357Y-89611319D01*
X102010113Y-89592887D01*
X102227742Y-89429971D01*
X102419971Y-89237742D01*
X102582887Y-89020113D01*
X102713172Y-88781513D01*
X102808175Y-88526801D01*
X102865961Y-88261160D01*
X102885355Y-87990000D01*
X102865961Y-87718840D01*
X102808175Y-87453199D01*
X102713172Y-87198487D01*
X102713170Y-87198484D01*
X102713169Y-87198480D01*
X102582890Y-86959892D01*
X102582889Y-86959891D01*
X102582887Y-86959887D01*
X102419971Y-86742258D01*
X102419966Y-86742253D01*
X102419961Y-86742247D01*
X102227752Y-86550038D01*
X102227746Y-86550033D01*
X102227742Y-86550029D01*
X102010113Y-86387113D01*
X102010108Y-86387110D01*
X102010107Y-86387109D01*
X101771518Y-86256830D01*
X101771519Y-86256830D01*
X101707116Y-86232809D01*
X101516801Y-86161825D01*
X101516794Y-86161823D01*
X101516793Y-86161823D01*
X101251167Y-86104040D01*
X101251160Y-86104039D01*
X100980001Y-86084645D01*
X100979999Y-86084645D01*
X100708839Y-86104039D01*
X100708832Y-86104040D01*
X100443206Y-86161823D01*
X100443202Y-86161824D01*
X100443199Y-86161825D01*
X100315843Y-86209326D01*
X100188480Y-86256830D01*
X99949892Y-86387109D01*
X99949891Y-86387110D01*
X99732259Y-86550028D01*
X99732247Y-86550038D01*
X99540038Y-86742247D01*
X99540028Y-86742259D01*
X99377110Y-86959891D01*
X99377109Y-86959892D01*
X99246830Y-87198480D01*
X99205108Y-87310343D01*
X99151825Y-87453199D01*
X99151824Y-87453202D01*
X99151823Y-87453206D01*
X99094040Y-87718832D01*
X99094039Y-87718839D01*
X99074645Y-87989998D01*
X96775000Y-87989998D01*
X96775000Y-87903820D01*
X96742414Y-87740000D01*
X97800000Y-87740000D01*
X97800000Y-86542172D01*
X97799999Y-86542155D01*
X97793598Y-86482627D01*
X97793596Y-86482620D01*
X97743354Y-86347913D01*
X97743350Y-86347906D01*
X97657190Y-86232812D01*
X97657187Y-86232809D01*
X97542093Y-86146649D01*
X97542086Y-86146645D01*
X97407379Y-86096403D01*
X97407372Y-86096401D01*
X97347844Y-86090000D01*
X96150000Y-86090000D01*
X96150000Y-87147586D01*
X95986180Y-87115000D01*
X95813820Y-87115000D01*
X95650000Y-87147586D01*
X95650000Y-86090000D01*
X94452155Y-86090000D01*
X94392627Y-86096401D01*
X94392620Y-86096403D01*
X94257913Y-86146645D01*
X94257906Y-86146649D01*
X94142812Y-86232809D01*
X94142809Y-86232812D01*
X94056649Y-86347906D01*
X94056645Y-86347913D01*
X94006403Y-86482620D01*
X94006401Y-86482627D01*
X94000000Y-86542155D01*
X93375000Y-86542155D01*
X93375000Y-83699000D01*
X93394685Y-83631961D01*
X93447489Y-83586206D01*
X93499000Y-83575000D01*
X145600000Y-83575000D01*
X145600000Y-91195225D01*
G37*
%TD.AperFunction*%
%TD*%
%TA.AperFunction,Conductor*%
%TO.N,NEUT*%
G36*
X164500641Y-83575006D02*
G01*
X164713481Y-83577328D01*
X164722916Y-83577792D01*
X164800788Y-83584605D01*
X164967052Y-83599151D01*
X164969938Y-83599437D01*
X165037012Y-83606889D01*
X165215839Y-83626759D01*
X165223634Y-83627879D01*
X165577387Y-83690255D01*
X165587926Y-83692591D01*
X165999033Y-83802747D01*
X166009322Y-83805992D01*
X166093710Y-83836706D01*
X166096443Y-83837738D01*
X166527026Y-84006227D01*
X166534236Y-84009315D01*
X166601244Y-84040561D01*
X166634491Y-84056065D01*
X166639245Y-84058407D01*
X166969352Y-84230063D01*
X166974100Y-84232667D01*
X167133514Y-84324704D01*
X167183089Y-84353327D01*
X167192212Y-84359139D01*
X167316469Y-84446144D01*
X167324054Y-84451901D01*
X167895318Y-84921154D01*
X167904291Y-84929291D01*
X168276627Y-85301627D01*
X168283936Y-85309602D01*
X168410926Y-85460943D01*
X168416839Y-85468575D01*
X168719346Y-85892085D01*
X168729352Y-85908705D01*
X169146057Y-86742115D01*
X169152785Y-86758357D01*
X169326796Y-87280392D01*
X169328934Y-87287510D01*
X169382405Y-87487062D01*
X169384746Y-87497624D01*
X169421222Y-87704493D01*
X169422425Y-87713044D01*
X169497867Y-88429751D01*
X169498541Y-88441378D01*
X169499993Y-88574357D01*
X169500000Y-88575711D01*
X169500000Y-97376000D01*
X169480315Y-97443039D01*
X169427511Y-97488794D01*
X169376000Y-97500000D01*
X154749999Y-97500000D01*
X152000000Y-100249999D01*
X152000000Y-110448638D01*
X151980315Y-110515677D01*
X151963681Y-110536319D01*
X133036319Y-129463681D01*
X132974996Y-129497166D01*
X132948638Y-129500000D01*
X130550923Y-129500000D01*
X130483884Y-129480315D01*
X130463775Y-129464211D01*
X128461852Y-127486408D01*
X128427996Y-127425289D01*
X128425000Y-127398197D01*
X128425000Y-123202135D01*
X129774500Y-123202135D01*
X129774500Y-125297870D01*
X129774501Y-125297876D01*
X129780908Y-125357483D01*
X129831202Y-125492328D01*
X129831206Y-125492335D01*
X129917452Y-125607544D01*
X129917455Y-125607547D01*
X130032664Y-125693793D01*
X130032671Y-125693797D01*
X130167517Y-125744091D01*
X130167516Y-125744091D01*
X130174444Y-125744835D01*
X130227127Y-125750500D01*
X132022872Y-125750499D01*
X132082483Y-125744091D01*
X132217331Y-125693796D01*
X132332546Y-125607546D01*
X132418796Y-125492331D01*
X132469091Y-125357483D01*
X132475500Y-125297873D01*
X132475499Y-123202128D01*
X132469091Y-123142517D01*
X132418796Y-123007669D01*
X132418795Y-123007668D01*
X132418793Y-123007664D01*
X132332547Y-122892455D01*
X132332544Y-122892452D01*
X132217335Y-122806206D01*
X132217328Y-122806202D01*
X132082482Y-122755908D01*
X132082483Y-122755908D01*
X132022883Y-122749501D01*
X132022881Y-122749500D01*
X132022873Y-122749500D01*
X132022864Y-122749500D01*
X130227129Y-122749500D01*
X130227123Y-122749501D01*
X130167516Y-122755908D01*
X130032671Y-122806202D01*
X130032664Y-122806206D01*
X129917455Y-122892452D01*
X129917452Y-122892455D01*
X129831206Y-123007664D01*
X129831202Y-123007671D01*
X129780908Y-123142517D01*
X129774501Y-123202116D01*
X129774501Y-123202123D01*
X129774500Y-123202135D01*
X128425000Y-123202135D01*
X128425000Y-117993753D01*
X129775000Y-117993753D01*
X129775000Y-118000000D01*
X130691988Y-118000000D01*
X130659075Y-118057007D01*
X130625000Y-118184174D01*
X130625000Y-118315826D01*
X130659075Y-118442993D01*
X130691988Y-118500000D01*
X129775000Y-118500000D01*
X129775000Y-118506246D01*
X129808242Y-118716127D01*
X129808242Y-118716130D01*
X129873904Y-118918217D01*
X129970379Y-119107557D01*
X130095272Y-119279459D01*
X130095276Y-119279464D01*
X130245535Y-119429723D01*
X130245540Y-119429727D01*
X130417442Y-119554620D01*
X130606782Y-119651095D01*
X130808871Y-119716757D01*
X130875000Y-119727231D01*
X130875000Y-118683012D01*
X130932007Y-118715925D01*
X131059174Y-118750000D01*
X131190826Y-118750000D01*
X131317993Y-118715925D01*
X131375000Y-118683012D01*
X131375000Y-119727230D01*
X131441126Y-119716757D01*
X131441129Y-119716757D01*
X131643217Y-119651095D01*
X131832557Y-119554620D01*
X132004459Y-119429727D01*
X132004464Y-119429723D01*
X132154723Y-119279464D01*
X132154727Y-119279459D01*
X132279620Y-119107557D01*
X132376095Y-118918217D01*
X132441757Y-118716130D01*
X132441757Y-118716127D01*
X132475000Y-118506246D01*
X132475000Y-118500000D01*
X131558012Y-118500000D01*
X131590925Y-118442993D01*
X131625000Y-118315826D01*
X131625000Y-118184174D01*
X131590925Y-118057007D01*
X131558012Y-118000000D01*
X132475000Y-118000000D01*
X132475000Y-117993753D01*
X132441757Y-117783872D01*
X132441757Y-117783869D01*
X132376095Y-117581782D01*
X132279620Y-117392442D01*
X132154727Y-117220540D01*
X132154723Y-117220535D01*
X132004464Y-117070276D01*
X132004459Y-117070272D01*
X131832557Y-116945379D01*
X131643215Y-116848903D01*
X131441124Y-116783241D01*
X131375000Y-116772768D01*
X131375000Y-117816988D01*
X131317993Y-117784075D01*
X131190826Y-117750000D01*
X131059174Y-117750000D01*
X130932007Y-117784075D01*
X130875000Y-117816988D01*
X130875000Y-116772768D01*
X130874999Y-116772768D01*
X130808875Y-116783241D01*
X130606784Y-116848903D01*
X130417442Y-116945379D01*
X130245540Y-117070272D01*
X130245535Y-117070276D01*
X130095276Y-117220535D01*
X130095272Y-117220540D01*
X129970379Y-117392442D01*
X129873904Y-117581782D01*
X129808242Y-117783869D01*
X129808242Y-117783872D01*
X129775000Y-117993753D01*
X128425000Y-117993753D01*
X128425000Y-114450773D01*
X128444685Y-114383734D01*
X128460609Y-114363807D01*
X140625000Y-102000000D01*
X140649600Y-98678894D01*
X140669781Y-98612005D01*
X140689675Y-98588530D01*
X141248351Y-98075000D01*
X147397520Y-98075000D01*
X147417299Y-98320023D01*
X147417300Y-98320027D01*
X147476128Y-98558701D01*
X147476129Y-98558704D01*
X147572483Y-98784856D01*
X147703867Y-98992622D01*
X147703870Y-98992626D01*
X147866875Y-99176621D01*
X147866877Y-99176623D01*
X148057292Y-99332092D01*
X148057294Y-99332093D01*
X148057301Y-99332098D01*
X148270178Y-99455002D01*
X148270180Y-99455003D01*
X148500028Y-99542173D01*
X148594449Y-99561448D01*
X148740875Y-99591342D01*
X148740880Y-99591342D01*
X148740883Y-99591343D01*
X148814569Y-99594312D01*
X148986498Y-99601242D01*
X148986499Y-99601242D01*
X148986500Y-99601241D01*
X148986505Y-99601242D01*
X149195673Y-99575844D01*
X149230536Y-99571611D01*
X149297090Y-99552332D01*
X149466652Y-99503219D01*
X149688740Y-99397837D01*
X149891048Y-99258194D01*
X150068336Y-99087907D01*
X150216011Y-98891386D01*
X150330251Y-98673721D01*
X150408095Y-98440550D01*
X150447527Y-98197911D01*
X150450000Y-98075000D01*
X150447527Y-97952089D01*
X150447526Y-97952082D01*
X150447526Y-97952079D01*
X150408095Y-97709450D01*
X150408095Y-97709449D01*
X150330251Y-97476280D01*
X150330250Y-97476276D01*
X150271923Y-97365144D01*
X150216011Y-97258614D01*
X150216008Y-97258610D01*
X150216007Y-97258608D01*
X150068334Y-97062090D01*
X149891053Y-96891810D01*
X149891049Y-96891807D01*
X149688743Y-96752164D01*
X149568265Y-96694997D01*
X149466652Y-96646781D01*
X149466649Y-96646780D01*
X149466646Y-96646779D01*
X149230536Y-96578388D01*
X148986498Y-96548757D01*
X148740886Y-96558656D01*
X148740875Y-96558657D01*
X148500030Y-96607826D01*
X148270178Y-96694997D01*
X148057301Y-96817901D01*
X148057294Y-96817906D01*
X147866879Y-96973374D01*
X147866875Y-96973378D01*
X147703870Y-97157373D01*
X147572481Y-97365147D01*
X147476128Y-97591298D01*
X147417300Y-97829972D01*
X147417299Y-97829976D01*
X147397520Y-98075000D01*
X141248351Y-98075000D01*
X145600000Y-94075000D01*
X145600000Y-91195225D01*
X145600000Y-87989998D01*
X148015147Y-87989998D01*
X148015147Y-87990001D01*
X148034536Y-88261090D01*
X148034537Y-88261097D01*
X148092305Y-88526654D01*
X148187285Y-88781306D01*
X148187287Y-88781310D01*
X148317532Y-89019835D01*
X148317537Y-89019843D01*
X148411321Y-89145123D01*
X148411322Y-89145124D01*
X149147546Y-88408900D01*
X149240343Y-88547780D01*
X149362220Y-88669657D01*
X149501098Y-88762452D01*
X148764874Y-89498676D01*
X148890163Y-89592466D01*
X148890164Y-89592467D01*
X149128689Y-89722712D01*
X149128693Y-89722714D01*
X149383345Y-89817694D01*
X149648902Y-89875462D01*
X149648909Y-89875463D01*
X149919999Y-89894853D01*
X149920001Y-89894853D01*
X150191090Y-89875463D01*
X150191097Y-89875462D01*
X150456654Y-89817694D01*
X150711306Y-89722714D01*
X150711310Y-89722712D01*
X150949844Y-89592462D01*
X151075123Y-89498677D01*
X151075124Y-89498676D01*
X150338900Y-88762453D01*
X150477780Y-88669657D01*
X150599657Y-88547780D01*
X150692452Y-88408900D01*
X151428676Y-89145124D01*
X151428677Y-89145123D01*
X151522462Y-89019844D01*
X151652712Y-88781310D01*
X151652714Y-88781306D01*
X151747694Y-88526654D01*
X151805462Y-88261097D01*
X151805463Y-88261090D01*
X151824853Y-87990001D01*
X151824853Y-87989998D01*
X151805463Y-87718909D01*
X151805462Y-87718902D01*
X151747694Y-87453345D01*
X151652714Y-87198693D01*
X151652712Y-87198689D01*
X151522467Y-86960164D01*
X151522466Y-86960163D01*
X151428676Y-86834874D01*
X150692452Y-87571098D01*
X150599657Y-87432220D01*
X150477780Y-87310343D01*
X150338900Y-87217546D01*
X151014311Y-86542135D01*
X153099500Y-86542135D01*
X153099500Y-89437870D01*
X153099501Y-89437876D01*
X153105908Y-89497483D01*
X153156202Y-89632328D01*
X153156206Y-89632335D01*
X153242452Y-89747544D01*
X153242455Y-89747547D01*
X153357664Y-89833793D01*
X153357671Y-89833797D01*
X153492517Y-89884091D01*
X153492516Y-89884091D01*
X153499444Y-89884835D01*
X153552127Y-89890500D01*
X156447872Y-89890499D01*
X156507483Y-89884091D01*
X156642331Y-89833796D01*
X156757546Y-89747546D01*
X156843796Y-89632331D01*
X156894091Y-89497483D01*
X156900500Y-89437873D01*
X156900500Y-88574997D01*
X161194652Y-88574997D01*
X161194652Y-88575002D01*
X161214028Y-88932368D01*
X161214029Y-88932385D01*
X161271926Y-89285539D01*
X161271932Y-89285565D01*
X161367672Y-89630392D01*
X161367674Y-89630399D01*
X161500142Y-89962870D01*
X161500151Y-89962888D01*
X161667784Y-90279077D01*
X161667787Y-90279082D01*
X161667789Y-90279085D01*
X161748251Y-90397758D01*
X161868634Y-90575309D01*
X161868641Y-90575319D01*
X161890912Y-90601538D01*
X162100332Y-90848086D01*
X162360163Y-91094211D01*
X162645081Y-91310800D01*
X162951747Y-91495315D01*
X162951749Y-91495316D01*
X162951751Y-91495317D01*
X162951755Y-91495319D01*
X163217926Y-91618462D01*
X163276565Y-91645591D01*
X163615726Y-91759868D01*
X163965254Y-91836805D01*
X164321052Y-91875500D01*
X164321058Y-91875500D01*
X164678942Y-91875500D01*
X164678948Y-91875500D01*
X165034746Y-91836805D01*
X165384274Y-91759868D01*
X165723435Y-91645591D01*
X166048253Y-91495315D01*
X166354919Y-91310800D01*
X166639837Y-91094211D01*
X166899668Y-90848086D01*
X167131365Y-90575311D01*
X167332211Y-90279085D01*
X167499853Y-89962880D01*
X167632324Y-89630403D01*
X167728071Y-89285552D01*
X167762022Y-89078462D01*
X167785970Y-88932385D01*
X167785970Y-88932382D01*
X167785972Y-88932371D01*
X167803694Y-88605488D01*
X167805348Y-88575002D01*
X167805348Y-88574997D01*
X167792799Y-88343553D01*
X167785972Y-88217629D01*
X167748654Y-87990001D01*
X167728073Y-87864460D01*
X167728072Y-87864459D01*
X167728071Y-87864448D01*
X167632324Y-87519597D01*
X167499853Y-87187120D01*
X167379528Y-86960164D01*
X167332215Y-86870922D01*
X167332213Y-86870919D01*
X167332211Y-86870915D01*
X167131365Y-86574689D01*
X167131361Y-86574684D01*
X167131358Y-86574680D01*
X166899668Y-86301914D01*
X166826338Y-86232452D01*
X166639837Y-86055789D01*
X166639830Y-86055783D01*
X166639827Y-86055781D01*
X166572245Y-86004407D01*
X166354919Y-85839200D01*
X166048253Y-85654685D01*
X166048252Y-85654684D01*
X166048248Y-85654682D01*
X166048244Y-85654680D01*
X165723447Y-85504414D01*
X165723441Y-85504411D01*
X165723435Y-85504409D01*
X165553854Y-85447270D01*
X165384273Y-85390131D01*
X165034744Y-85313194D01*
X164678949Y-85274500D01*
X164678948Y-85274500D01*
X164321052Y-85274500D01*
X164321050Y-85274500D01*
X163965255Y-85313194D01*
X163615726Y-85390131D01*
X163405567Y-85460943D01*
X163276565Y-85504409D01*
X163276563Y-85504410D01*
X163276552Y-85504414D01*
X162951755Y-85654680D01*
X162951751Y-85654682D01*
X162723367Y-85792096D01*
X162645081Y-85839200D01*
X162575512Y-85892085D01*
X162360172Y-86055781D01*
X162360163Y-86055789D01*
X162100331Y-86301914D01*
X161868641Y-86574680D01*
X161868634Y-86574690D01*
X161667790Y-86870913D01*
X161667784Y-86870922D01*
X161500151Y-87187111D01*
X161500142Y-87187129D01*
X161367674Y-87519600D01*
X161367672Y-87519607D01*
X161271932Y-87864434D01*
X161271926Y-87864460D01*
X161214029Y-88217614D01*
X161214028Y-88217631D01*
X161194652Y-88574997D01*
X156900500Y-88574997D01*
X156900499Y-86542128D01*
X156894091Y-86482517D01*
X156893645Y-86481322D01*
X156843797Y-86347671D01*
X156843793Y-86347664D01*
X156757547Y-86232455D01*
X156757544Y-86232452D01*
X156642335Y-86146206D01*
X156642328Y-86146202D01*
X156507482Y-86095908D01*
X156507483Y-86095908D01*
X156447883Y-86089501D01*
X156447881Y-86089500D01*
X156447873Y-86089500D01*
X156447864Y-86089500D01*
X153552129Y-86089500D01*
X153552123Y-86089501D01*
X153492516Y-86095908D01*
X153357671Y-86146202D01*
X153357664Y-86146206D01*
X153242455Y-86232452D01*
X153242452Y-86232455D01*
X153156206Y-86347664D01*
X153156202Y-86347671D01*
X153105908Y-86482517D01*
X153099501Y-86542116D01*
X153099501Y-86542123D01*
X153099500Y-86542135D01*
X151014311Y-86542135D01*
X151075124Y-86481322D01*
X151075123Y-86481321D01*
X150949843Y-86387537D01*
X150949835Y-86387532D01*
X150711310Y-86257287D01*
X150711306Y-86257285D01*
X150456654Y-86162305D01*
X150191097Y-86104537D01*
X150191090Y-86104536D01*
X149920001Y-86085147D01*
X149919999Y-86085147D01*
X149648909Y-86104536D01*
X149648902Y-86104537D01*
X149383345Y-86162305D01*
X149128693Y-86257285D01*
X149128689Y-86257287D01*
X148890164Y-86387532D01*
X148890156Y-86387537D01*
X148764875Y-86481321D01*
X148764874Y-86481322D01*
X149501099Y-87217546D01*
X149362220Y-87310343D01*
X149240343Y-87432220D01*
X149147547Y-87571099D01*
X148411322Y-86834874D01*
X148411321Y-86834875D01*
X148317537Y-86960156D01*
X148317532Y-86960164D01*
X148187287Y-87198689D01*
X148187285Y-87198693D01*
X148092305Y-87453345D01*
X148034537Y-87718902D01*
X148034536Y-87718909D01*
X148015147Y-87989998D01*
X145600000Y-87989998D01*
X145600000Y-83575000D01*
X164499290Y-83575000D01*
X164500641Y-83575006D01*
G37*
%TD.AperFunction*%
%TD*%
%TA.AperFunction,Conductor*%
%TO.N,GND*%
G36*
X92518039Y-83594685D02*
G01*
X92563794Y-83647489D01*
X92575000Y-83699000D01*
X92575000Y-97000000D01*
X138276000Y-97000000D01*
X138343039Y-97019685D01*
X138388794Y-97072489D01*
X138400000Y-97124000D01*
X138400000Y-100507793D01*
X138380315Y-100574832D01*
X138327511Y-100620587D01*
X138258353Y-100630531D01*
X138194797Y-100601506D01*
X138157023Y-100542728D01*
X138156225Y-100539886D01*
X138131741Y-100448511D01*
X138131738Y-100448502D01*
X138096002Y-100371866D01*
X138035568Y-100242266D01*
X137905047Y-100055861D01*
X137905045Y-100055858D01*
X137744141Y-99894954D01*
X137557734Y-99764432D01*
X137557732Y-99764431D01*
X137351497Y-99668261D01*
X137351488Y-99668258D01*
X137131697Y-99609366D01*
X137131693Y-99609365D01*
X137131692Y-99609365D01*
X137131691Y-99609364D01*
X137131686Y-99609364D01*
X136905002Y-99589532D01*
X136904998Y-99589532D01*
X136678313Y-99609364D01*
X136678302Y-99609366D01*
X136458511Y-99668258D01*
X136458502Y-99668261D01*
X136252267Y-99764431D01*
X136252265Y-99764432D01*
X136065858Y-99894954D01*
X135904954Y-100055858D01*
X135774432Y-100242265D01*
X135774431Y-100242267D01*
X135747382Y-100300275D01*
X135701209Y-100352714D01*
X135634016Y-100371866D01*
X135567135Y-100351650D01*
X135522618Y-100300275D01*
X135497900Y-100247267D01*
X135495568Y-100242266D01*
X135365047Y-100055861D01*
X135365045Y-100055858D01*
X135204141Y-99894954D01*
X135017734Y-99764432D01*
X135017732Y-99764431D01*
X134811497Y-99668261D01*
X134811488Y-99668258D01*
X134591697Y-99609366D01*
X134591693Y-99609365D01*
X134591692Y-99609365D01*
X134591691Y-99609364D01*
X134591686Y-99609364D01*
X134365002Y-99589532D01*
X134364998Y-99589532D01*
X134138313Y-99609364D01*
X134138302Y-99609366D01*
X133918511Y-99668258D01*
X133918502Y-99668261D01*
X133712267Y-99764431D01*
X133712265Y-99764432D01*
X133525858Y-99894954D01*
X133364954Y-100055858D01*
X133347725Y-100080464D01*
X133293147Y-100124088D01*
X133223648Y-100131280D01*
X133161294Y-100099757D01*
X133125882Y-100039526D01*
X133122861Y-100022591D01*
X133119091Y-99987516D01*
X133068797Y-99852671D01*
X133068793Y-99852664D01*
X132982547Y-99737455D01*
X132982544Y-99737452D01*
X132867335Y-99651206D01*
X132867328Y-99651202D01*
X132732482Y-99600908D01*
X132732483Y-99600908D01*
X132672883Y-99594501D01*
X132672881Y-99594500D01*
X132672873Y-99594500D01*
X132672864Y-99594500D01*
X130977129Y-99594500D01*
X130977123Y-99594501D01*
X130917516Y-99600908D01*
X130782671Y-99651202D01*
X130782664Y-99651206D01*
X130667455Y-99737452D01*
X130667452Y-99737455D01*
X130581206Y-99852664D01*
X130581202Y-99852671D01*
X130530908Y-99987517D01*
X130524501Y-100047116D01*
X130524500Y-100047135D01*
X130524500Y-101259547D01*
X130504815Y-101326586D01*
X130488181Y-101347228D01*
X128197229Y-103638181D01*
X128135906Y-103671666D01*
X128109548Y-103674500D01*
X112559452Y-103674500D01*
X112492413Y-103654815D01*
X112446658Y-103602011D01*
X112436714Y-103532853D01*
X112465739Y-103469297D01*
X112471771Y-103462819D01*
X113697771Y-102236818D01*
X113759094Y-102203333D01*
X113785452Y-102200499D01*
X114997871Y-102200499D01*
X114997872Y-102200499D01*
X115057483Y-102194091D01*
X115192331Y-102143796D01*
X115307546Y-102057546D01*
X115393796Y-101942331D01*
X115444091Y-101807483D01*
X115447862Y-101772401D01*
X115474599Y-101707855D01*
X115531990Y-101668006D01*
X115601816Y-101665511D01*
X115661905Y-101701163D01*
X115672725Y-101714535D01*
X115686453Y-101734141D01*
X115689956Y-101739143D01*
X115850858Y-101900045D01*
X115850861Y-101900047D01*
X116037266Y-102030568D01*
X116243504Y-102126739D01*
X116243509Y-102126740D01*
X116243511Y-102126741D01*
X116288505Y-102138797D01*
X116463308Y-102185635D01*
X116608447Y-102198333D01*
X116689998Y-102205468D01*
X116690000Y-102205468D01*
X116690002Y-102205468D01*
X116747150Y-102200468D01*
X116916692Y-102185635D01*
X117136496Y-102126739D01*
X117342734Y-102030568D01*
X117529139Y-101900047D01*
X117690047Y-101739139D01*
X117820568Y-101552734D01*
X117847618Y-101494724D01*
X117893790Y-101442285D01*
X117960983Y-101423133D01*
X118027865Y-101443348D01*
X118072382Y-101494725D01*
X118099429Y-101552728D01*
X118099432Y-101552734D01*
X118229954Y-101739141D01*
X118390858Y-101900045D01*
X118390861Y-101900047D01*
X118577266Y-102030568D01*
X118783504Y-102126739D01*
X118783509Y-102126740D01*
X118783511Y-102126741D01*
X118828505Y-102138797D01*
X119003308Y-102185635D01*
X119148447Y-102198333D01*
X119229998Y-102205468D01*
X119230000Y-102205468D01*
X119230002Y-102205468D01*
X119287150Y-102200468D01*
X119456692Y-102185635D01*
X119676496Y-102126739D01*
X119882734Y-102030568D01*
X120069139Y-101900047D01*
X120230047Y-101739139D01*
X120360568Y-101552734D01*
X120456739Y-101346496D01*
X120515635Y-101126692D01*
X120535468Y-100900000D01*
X120515635Y-100673308D01*
X120456739Y-100453504D01*
X120360568Y-100247266D01*
X120230047Y-100060861D01*
X120230045Y-100060858D01*
X120069141Y-99899954D01*
X119882734Y-99769432D01*
X119882732Y-99769431D01*
X119676497Y-99673261D01*
X119676488Y-99673258D01*
X119456697Y-99614366D01*
X119456693Y-99614365D01*
X119456692Y-99614365D01*
X119456691Y-99614364D01*
X119456686Y-99614364D01*
X119230002Y-99594532D01*
X119229998Y-99594532D01*
X119003313Y-99614364D01*
X119003302Y-99614366D01*
X118783511Y-99673258D01*
X118783502Y-99673261D01*
X118577267Y-99769431D01*
X118577265Y-99769432D01*
X118390858Y-99899954D01*
X118229954Y-100060858D01*
X118099432Y-100247265D01*
X118099431Y-100247267D01*
X118072382Y-100305275D01*
X118026209Y-100357714D01*
X117959016Y-100376866D01*
X117892135Y-100356650D01*
X117847618Y-100305275D01*
X117820568Y-100247266D01*
X117690047Y-100060861D01*
X117690045Y-100060858D01*
X117529141Y-99899954D01*
X117342734Y-99769432D01*
X117342732Y-99769431D01*
X117136497Y-99673261D01*
X117136488Y-99673258D01*
X116916697Y-99614366D01*
X116916693Y-99614365D01*
X116916692Y-99614365D01*
X116916691Y-99614364D01*
X116916686Y-99614364D01*
X116690002Y-99594532D01*
X116689998Y-99594532D01*
X116463313Y-99614364D01*
X116463302Y-99614366D01*
X116243511Y-99673258D01*
X116243502Y-99673261D01*
X116037267Y-99769431D01*
X116037265Y-99769432D01*
X115850858Y-99899954D01*
X115689954Y-100060858D01*
X115672725Y-100085464D01*
X115618147Y-100129088D01*
X115548648Y-100136280D01*
X115486294Y-100104757D01*
X115450882Y-100044526D01*
X115447861Y-100027591D01*
X115444091Y-99992516D01*
X115393797Y-99857671D01*
X115393793Y-99857664D01*
X115307547Y-99742455D01*
X115307544Y-99742452D01*
X115192335Y-99656206D01*
X115192328Y-99656202D01*
X115057482Y-99605908D01*
X115057483Y-99605908D01*
X114997883Y-99599501D01*
X114997881Y-99599500D01*
X114997873Y-99599500D01*
X114997864Y-99599500D01*
X113302129Y-99599500D01*
X113302123Y-99599501D01*
X113242516Y-99605908D01*
X113107671Y-99656202D01*
X113107664Y-99656206D01*
X112992455Y-99742452D01*
X112992452Y-99742455D01*
X112906206Y-99857664D01*
X112906202Y-99857671D01*
X112855908Y-99992517D01*
X112849501Y-100052116D01*
X112849500Y-100052135D01*
X112849500Y-101264547D01*
X112829815Y-101331586D01*
X112813181Y-101352228D01*
X110977229Y-103188181D01*
X110915906Y-103221666D01*
X110889548Y-103224500D01*
X95751111Y-103224500D01*
X95684072Y-103204815D01*
X95638317Y-103152011D01*
X95628373Y-103082853D01*
X95657398Y-103019297D01*
X95663430Y-103012819D01*
X96260855Y-102415394D01*
X96260855Y-102415393D01*
X96260858Y-102415391D01*
X96329312Y-102312943D01*
X96329315Y-102312936D01*
X96344181Y-102277047D01*
X96388022Y-102222643D01*
X96454316Y-102200578D01*
X96458742Y-102200499D01*
X96622871Y-102200499D01*
X96622872Y-102200499D01*
X96682483Y-102194091D01*
X96817331Y-102143796D01*
X96932546Y-102057546D01*
X97018796Y-101942331D01*
X97069091Y-101807483D01*
X97072862Y-101772401D01*
X97099599Y-101707855D01*
X97156990Y-101668006D01*
X97226816Y-101665511D01*
X97286905Y-101701163D01*
X97297725Y-101714535D01*
X97311453Y-101734141D01*
X97314956Y-101739143D01*
X97475858Y-101900045D01*
X97475861Y-101900047D01*
X97662266Y-102030568D01*
X97868504Y-102126739D01*
X97868509Y-102126740D01*
X97868511Y-102126741D01*
X97913505Y-102138797D01*
X98088308Y-102185635D01*
X98233447Y-102198333D01*
X98314998Y-102205468D01*
X98315000Y-102205468D01*
X98315002Y-102205468D01*
X98372150Y-102200468D01*
X98541692Y-102185635D01*
X98761496Y-102126739D01*
X98967734Y-102030568D01*
X99154139Y-101900047D01*
X99315047Y-101739139D01*
X99445568Y-101552734D01*
X99472618Y-101494724D01*
X99518790Y-101442285D01*
X99585983Y-101423133D01*
X99652865Y-101443348D01*
X99697382Y-101494725D01*
X99724429Y-101552728D01*
X99724432Y-101552734D01*
X99854954Y-101739141D01*
X100015858Y-101900045D01*
X100015861Y-101900047D01*
X100202266Y-102030568D01*
X100408504Y-102126739D01*
X100408509Y-102126740D01*
X100408511Y-102126741D01*
X100453505Y-102138797D01*
X100628308Y-102185635D01*
X100773447Y-102198333D01*
X100854998Y-102205468D01*
X100855000Y-102205468D01*
X100855002Y-102205468D01*
X100912150Y-102200468D01*
X101081692Y-102185635D01*
X101301496Y-102126739D01*
X101507734Y-102030568D01*
X101694139Y-101900047D01*
X101855047Y-101739139D01*
X101985568Y-101552734D01*
X102081739Y-101346496D01*
X102140635Y-101126692D01*
X102160468Y-100900000D01*
X102140635Y-100673308D01*
X102081739Y-100453504D01*
X101985568Y-100247266D01*
X101855047Y-100060861D01*
X101855045Y-100060858D01*
X101694141Y-99899954D01*
X101507734Y-99769432D01*
X101507732Y-99769431D01*
X101301497Y-99673261D01*
X101301488Y-99673258D01*
X101081697Y-99614366D01*
X101081693Y-99614365D01*
X101081692Y-99614365D01*
X101081691Y-99614364D01*
X101081686Y-99614364D01*
X100855002Y-99594532D01*
X100854998Y-99594532D01*
X100628313Y-99614364D01*
X100628302Y-99614366D01*
X100408511Y-99673258D01*
X100408502Y-99673261D01*
X100202267Y-99769431D01*
X100202265Y-99769432D01*
X100015858Y-99899954D01*
X99854954Y-100060858D01*
X99724432Y-100247265D01*
X99724431Y-100247267D01*
X99697382Y-100305275D01*
X99651209Y-100357714D01*
X99584016Y-100376866D01*
X99517135Y-100356650D01*
X99472618Y-100305275D01*
X99445568Y-100247266D01*
X99315047Y-100060861D01*
X99315045Y-100060858D01*
X99154141Y-99899954D01*
X98967734Y-99769432D01*
X98967732Y-99769431D01*
X98761497Y-99673261D01*
X98761488Y-99673258D01*
X98541697Y-99614366D01*
X98541693Y-99614365D01*
X98541692Y-99614365D01*
X98541691Y-99614364D01*
X98541686Y-99614364D01*
X98315002Y-99594532D01*
X98314998Y-99594532D01*
X98088313Y-99614364D01*
X98088302Y-99614366D01*
X97868511Y-99673258D01*
X97868502Y-99673261D01*
X97662267Y-99769431D01*
X97662265Y-99769432D01*
X97475858Y-99899954D01*
X97314954Y-100060858D01*
X97297725Y-100085464D01*
X97243147Y-100129088D01*
X97173648Y-100136280D01*
X97111294Y-100104757D01*
X97075882Y-100044526D01*
X97072861Y-100027591D01*
X97069091Y-99992516D01*
X97018797Y-99857671D01*
X97018793Y-99857664D01*
X96932547Y-99742455D01*
X96932544Y-99742452D01*
X96817335Y-99656206D01*
X96817328Y-99656202D01*
X96682482Y-99605908D01*
X96682483Y-99605908D01*
X96622883Y-99599501D01*
X96622881Y-99599500D01*
X96622873Y-99599500D01*
X96622864Y-99599500D01*
X94927129Y-99599500D01*
X94927123Y-99599501D01*
X94867516Y-99605908D01*
X94732671Y-99656202D01*
X94732664Y-99656206D01*
X94617455Y-99742452D01*
X94617452Y-99742455D01*
X94531206Y-99857664D01*
X94531202Y-99857671D01*
X94480908Y-99992517D01*
X94474501Y-100052116D01*
X94474500Y-100052135D01*
X94474500Y-101747870D01*
X94474501Y-101747876D01*
X94480908Y-101807483D01*
X94531202Y-101942328D01*
X94531206Y-101942335D01*
X94617452Y-102057544D01*
X94617453Y-102057544D01*
X94617454Y-102057546D01*
X94635610Y-102071137D01*
X94677481Y-102127069D01*
X94682466Y-102196761D01*
X94648982Y-102258084D01*
X94648981Y-102258085D01*
X94268887Y-102638181D01*
X94207564Y-102671666D01*
X94181206Y-102674500D01*
X84867741Y-102674500D01*
X84867721Y-102674499D01*
X84861607Y-102674499D01*
X84738394Y-102674499D01*
X84637597Y-102694548D01*
X84637592Y-102694548D01*
X84617549Y-102698536D01*
X84617547Y-102698536D01*
X84570397Y-102718067D01*
X84503719Y-102745685D01*
X84503717Y-102745686D01*
X84401266Y-102814141D01*
X83007370Y-104208037D01*
X82946047Y-104241522D01*
X82899280Y-104242665D01*
X82805399Y-104227000D01*
X82564601Y-104227000D01*
X82517098Y-104234926D01*
X82327083Y-104266634D01*
X82099343Y-104344818D01*
X82099334Y-104344821D01*
X81887558Y-104459429D01*
X81753456Y-104563805D01*
X81697537Y-104607329D01*
X81534449Y-104784490D01*
X81518808Y-104808431D01*
X81465661Y-104853787D01*
X81396430Y-104863210D01*
X81333094Y-104833707D01*
X81311192Y-104808431D01*
X81295551Y-104784490D01*
X81132463Y-104607329D01*
X80982020Y-104490235D01*
X80942441Y-104459429D01*
X80730665Y-104344821D01*
X80730656Y-104344818D01*
X80502916Y-104266634D01*
X80324777Y-104236908D01*
X80265399Y-104227000D01*
X80024601Y-104227000D01*
X79977098Y-104234926D01*
X79787083Y-104266634D01*
X79559343Y-104344818D01*
X79559334Y-104344821D01*
X79347558Y-104459429D01*
X79213456Y-104563805D01*
X79157537Y-104607329D01*
X78994449Y-104784490D01*
X78978808Y-104808431D01*
X78925661Y-104853787D01*
X78856430Y-104863210D01*
X78793094Y-104833707D01*
X78771192Y-104808431D01*
X78755551Y-104784490D01*
X78592463Y-104607329D01*
X78442020Y-104490235D01*
X78402441Y-104459429D01*
X78190665Y-104344821D01*
X78190656Y-104344818D01*
X77962916Y-104266634D01*
X77784777Y-104236908D01*
X77725399Y-104227000D01*
X77484601Y-104227000D01*
X77437098Y-104234926D01*
X77247083Y-104266634D01*
X77019343Y-104344818D01*
X77019334Y-104344821D01*
X76807558Y-104459429D01*
X76673456Y-104563805D01*
X76617537Y-104607329D01*
X76617534Y-104607331D01*
X76617534Y-104607332D01*
X76454450Y-104784488D01*
X76454446Y-104784494D01*
X76438507Y-104808889D01*
X76385359Y-104854244D01*
X76316127Y-104863665D01*
X76280782Y-104847199D01*
X76254117Y-104844434D01*
X75654560Y-105443991D01*
X75627729Y-105379215D01*
X75558236Y-105275211D01*
X75469789Y-105186764D01*
X75365785Y-105117271D01*
X75301007Y-105090438D01*
X75901208Y-104490237D01*
X75901208Y-104490236D01*
X75862166Y-104459849D01*
X75862161Y-104459846D01*
X75650468Y-104345284D01*
X75650454Y-104345278D01*
X75422792Y-104267120D01*
X75185358Y-104227500D01*
X74944642Y-104227500D01*
X74707207Y-104267120D01*
X74479545Y-104345278D01*
X74479531Y-104345284D01*
X74267837Y-104459846D01*
X74267826Y-104459853D01*
X74228791Y-104490235D01*
X74228791Y-104490237D01*
X74828992Y-105090438D01*
X74764215Y-105117271D01*
X74660211Y-105186764D01*
X74571764Y-105275211D01*
X74502271Y-105379215D01*
X74475439Y-105443992D01*
X73875881Y-104844434D01*
X73854900Y-104846610D01*
X73845958Y-104854242D01*
X73776727Y-104863664D01*
X73713392Y-104834162D01*
X73691490Y-104808885D01*
X73675554Y-104784494D01*
X73675552Y-104784492D01*
X73675551Y-104784490D01*
X73512463Y-104607329D01*
X73362020Y-104490235D01*
X73322441Y-104459429D01*
X73110665Y-104344821D01*
X73110656Y-104344818D01*
X72882916Y-104266634D01*
X72704777Y-104236908D01*
X72645399Y-104227000D01*
X72404601Y-104227000D01*
X72357098Y-104234926D01*
X72167083Y-104266634D01*
X71939343Y-104344818D01*
X71939334Y-104344821D01*
X71727558Y-104459429D01*
X71593456Y-104563805D01*
X71537537Y-104607329D01*
X71537534Y-104607331D01*
X71537534Y-104607332D01*
X71374449Y-104784490D01*
X71242743Y-104986081D01*
X71146017Y-105206594D01*
X71086904Y-105440027D01*
X71067020Y-105679994D01*
X71067020Y-105680005D01*
X71086904Y-105919972D01*
X71086904Y-105919975D01*
X71086905Y-105919976D01*
X71146017Y-106153405D01*
X71242745Y-106373922D01*
X71374449Y-106575510D01*
X71537537Y-106752671D01*
X71687974Y-106869760D01*
X71727022Y-106900153D01*
X71727561Y-106900572D01*
X71837635Y-106960141D01*
X71938478Y-107014715D01*
X71939336Y-107015179D01*
X72057598Y-107055778D01*
X72167083Y-107093365D01*
X72167085Y-107093365D01*
X72167087Y-107093366D01*
X72404601Y-107133000D01*
X72404602Y-107133000D01*
X72645398Y-107133000D01*
X72645399Y-107133000D01*
X72882913Y-107093366D01*
X73110664Y-107015179D01*
X73322439Y-106900572D01*
X73512463Y-106752671D01*
X73675551Y-106575510D01*
X73691490Y-106551114D01*
X73744633Y-106505758D01*
X73813864Y-106496333D01*
X73849216Y-106512799D01*
X73875880Y-106515564D01*
X74475438Y-105916006D01*
X74502271Y-105980785D01*
X74571764Y-106084789D01*
X74660211Y-106173236D01*
X74764215Y-106242729D01*
X74828991Y-106269560D01*
X74228790Y-106869761D01*
X74228791Y-106869762D01*
X74267832Y-106900149D01*
X74267838Y-106900153D01*
X74479531Y-107014715D01*
X74479545Y-107014721D01*
X74707207Y-107092879D01*
X74944642Y-107132500D01*
X75185358Y-107132500D01*
X75422792Y-107092879D01*
X75650454Y-107014721D01*
X75650468Y-107014715D01*
X75862160Y-106900154D01*
X75862168Y-106900149D01*
X75901207Y-106869762D01*
X75901208Y-106869760D01*
X75301008Y-106269560D01*
X75365785Y-106242729D01*
X75469789Y-106173236D01*
X75558236Y-106084789D01*
X75627729Y-105980785D01*
X75654560Y-105916007D01*
X76254118Y-106515564D01*
X76275094Y-106513388D01*
X76284037Y-106505757D01*
X76353268Y-106496333D01*
X76416604Y-106525834D01*
X76438510Y-106551114D01*
X76454446Y-106575507D01*
X76454448Y-106575509D01*
X76454449Y-106575510D01*
X76617537Y-106752671D01*
X76767974Y-106869760D01*
X76807022Y-106900153D01*
X76807561Y-106900572D01*
X76917635Y-106960141D01*
X77018478Y-107014715D01*
X77019336Y-107015179D01*
X77137598Y-107055778D01*
X77247083Y-107093365D01*
X77247085Y-107093365D01*
X77247087Y-107093366D01*
X77484601Y-107133000D01*
X77484602Y-107133000D01*
X77725398Y-107133000D01*
X77725399Y-107133000D01*
X77962913Y-107093366D01*
X78190664Y-107015179D01*
X78402439Y-106900572D01*
X78592463Y-106752671D01*
X78755551Y-106575510D01*
X78771190Y-106551571D01*
X78824336Y-106506214D01*
X78893567Y-106496790D01*
X78956904Y-106526291D01*
X78978808Y-106551570D01*
X78994449Y-106575510D01*
X79157537Y-106752671D01*
X79307974Y-106869760D01*
X79347022Y-106900153D01*
X79347561Y-106900572D01*
X79457635Y-106960141D01*
X79558478Y-107014715D01*
X79559336Y-107015179D01*
X79677598Y-107055778D01*
X79787083Y-107093365D01*
X79787085Y-107093365D01*
X79787087Y-107093366D01*
X80024601Y-107133000D01*
X80024602Y-107133000D01*
X80265398Y-107133000D01*
X80265399Y-107133000D01*
X80502913Y-107093366D01*
X80556900Y-107074831D01*
X80626694Y-107071681D01*
X80684841Y-107104432D01*
X81097728Y-107517319D01*
X81131213Y-107578642D01*
X81126229Y-107648334D01*
X81097728Y-107692681D01*
X72126270Y-116664139D01*
X72126267Y-116664142D01*
X72082703Y-116707705D01*
X72039140Y-116751268D01*
X72018103Y-116782753D01*
X71970686Y-116853716D01*
X71970685Y-116853718D01*
X71937347Y-116934207D01*
X71932898Y-116944949D01*
X71923537Y-116967545D01*
X71923535Y-116967553D01*
X71899500Y-117088389D01*
X71899500Y-119532490D01*
X71879815Y-119599529D01*
X71834518Y-119641544D01*
X71727567Y-119699423D01*
X71727558Y-119699429D01*
X71653949Y-119756722D01*
X71537537Y-119847329D01*
X71537534Y-119847331D01*
X71537534Y-119847332D01*
X71374449Y-120024490D01*
X71242743Y-120226081D01*
X71146017Y-120446594D01*
X71086904Y-120680027D01*
X71067020Y-120919994D01*
X71067020Y-120920005D01*
X71086904Y-121159972D01*
X71146017Y-121393405D01*
X71179634Y-121470045D01*
X71242745Y-121613922D01*
X71374449Y-121815510D01*
X71537537Y-121992671D01*
X71727561Y-122140572D01*
X71939336Y-122255179D01*
X72057598Y-122295778D01*
X72167083Y-122333365D01*
X72167085Y-122333365D01*
X72167087Y-122333366D01*
X72404601Y-122373000D01*
X72404602Y-122373000D01*
X72645398Y-122373000D01*
X72645399Y-122373000D01*
X72882913Y-122333366D01*
X73110664Y-122255179D01*
X73322439Y-122140572D01*
X73512463Y-121992671D01*
X73675551Y-121815510D01*
X73691190Y-121791571D01*
X73744336Y-121746214D01*
X73813567Y-121736790D01*
X73876904Y-121766291D01*
X73898808Y-121791570D01*
X73914449Y-121815510D01*
X74077537Y-121992671D01*
X74267561Y-122140572D01*
X74479336Y-122255179D01*
X74597598Y-122295778D01*
X74707083Y-122333365D01*
X74707085Y-122333365D01*
X74707087Y-122333366D01*
X74944601Y-122373000D01*
X74944602Y-122373000D01*
X75185398Y-122373000D01*
X75185399Y-122373000D01*
X75422913Y-122333366D01*
X75650664Y-122255179D01*
X75862439Y-122140572D01*
X76052463Y-121992671D01*
X76215551Y-121815510D01*
X76231190Y-121791571D01*
X76284336Y-121746214D01*
X76353567Y-121736790D01*
X76416904Y-121766291D01*
X76438808Y-121791570D01*
X76454449Y-121815510D01*
X76617537Y-121992671D01*
X76807561Y-122140572D01*
X77019336Y-122255179D01*
X77137598Y-122295778D01*
X77247083Y-122333365D01*
X77247085Y-122333365D01*
X77247087Y-122333366D01*
X77484601Y-122373000D01*
X77484602Y-122373000D01*
X77725398Y-122373000D01*
X77725399Y-122373000D01*
X77962913Y-122333366D01*
X78190664Y-122255179D01*
X78402439Y-122140572D01*
X78592463Y-121992671D01*
X78755551Y-121815510D01*
X78771190Y-121791571D01*
X78824336Y-121746214D01*
X78893567Y-121736790D01*
X78956904Y-121766291D01*
X78978808Y-121791570D01*
X78994449Y-121815510D01*
X79157537Y-121992671D01*
X79347561Y-122140572D01*
X79559336Y-122255179D01*
X79677598Y-122295778D01*
X79787083Y-122333365D01*
X79787085Y-122333365D01*
X79787087Y-122333366D01*
X80024601Y-122373000D01*
X80024602Y-122373000D01*
X80265398Y-122373000D01*
X80265399Y-122373000D01*
X80502913Y-122333366D01*
X80730664Y-122255179D01*
X80942439Y-122140572D01*
X81132463Y-121992671D01*
X81295551Y-121815510D01*
X81311190Y-121791571D01*
X81364336Y-121746214D01*
X81433567Y-121736790D01*
X81496904Y-121766291D01*
X81518808Y-121791570D01*
X81534449Y-121815510D01*
X81697537Y-121992671D01*
X81887561Y-122140572D01*
X82099336Y-122255179D01*
X82217598Y-122295778D01*
X82327083Y-122333365D01*
X82327085Y-122333365D01*
X82327087Y-122333366D01*
X82564601Y-122373000D01*
X82564602Y-122373000D01*
X82805398Y-122373000D01*
X82805399Y-122373000D01*
X83042913Y-122333366D01*
X83270664Y-122255179D01*
X83482439Y-122140572D01*
X83672463Y-121992671D01*
X83835551Y-121815510D01*
X83851190Y-121791571D01*
X83904336Y-121746214D01*
X83973567Y-121736790D01*
X84036904Y-121766291D01*
X84058808Y-121791570D01*
X84074449Y-121815510D01*
X84237537Y-121992671D01*
X84427561Y-122140572D01*
X84639336Y-122255179D01*
X84757598Y-122295778D01*
X84867083Y-122333365D01*
X84867085Y-122333365D01*
X84867087Y-122333366D01*
X85104601Y-122373000D01*
X85104602Y-122373000D01*
X85345398Y-122373000D01*
X85345399Y-122373000D01*
X85582913Y-122333366D01*
X85810664Y-122255179D01*
X86022439Y-122140572D01*
X86212463Y-121992671D01*
X86375551Y-121815510D01*
X86391190Y-121791571D01*
X86444336Y-121746214D01*
X86513567Y-121736790D01*
X86576904Y-121766291D01*
X86598808Y-121791570D01*
X86614449Y-121815510D01*
X86777537Y-121992671D01*
X86967561Y-122140572D01*
X87179336Y-122255179D01*
X87297598Y-122295778D01*
X87407083Y-122333365D01*
X87407085Y-122333365D01*
X87407087Y-122333366D01*
X87644601Y-122373000D01*
X87644602Y-122373000D01*
X87885398Y-122373000D01*
X87885399Y-122373000D01*
X88122913Y-122333366D01*
X88350664Y-122255179D01*
X88562439Y-122140572D01*
X88752463Y-121992671D01*
X88915551Y-121815510D01*
X88931190Y-121791571D01*
X88984336Y-121746214D01*
X89053567Y-121736790D01*
X89116904Y-121766291D01*
X89138808Y-121791570D01*
X89154449Y-121815510D01*
X89317537Y-121992671D01*
X89507561Y-122140572D01*
X89719336Y-122255179D01*
X89837598Y-122295778D01*
X89947083Y-122333365D01*
X89947085Y-122333365D01*
X89947087Y-122333366D01*
X90184601Y-122373000D01*
X90184602Y-122373000D01*
X90425398Y-122373000D01*
X90425399Y-122373000D01*
X90662913Y-122333366D01*
X90890664Y-122255179D01*
X91102439Y-122140572D01*
X91292463Y-121992671D01*
X91455551Y-121815510D01*
X91587255Y-121613922D01*
X91683983Y-121393405D01*
X91743095Y-121159976D01*
X91757499Y-120986144D01*
X91762980Y-120920005D01*
X91762980Y-120919994D01*
X91749723Y-120760016D01*
X91743095Y-120680024D01*
X91683983Y-120446595D01*
X91587255Y-120226078D01*
X91455551Y-120024490D01*
X91292463Y-119847329D01*
X91125332Y-119717246D01*
X91102441Y-119699429D01*
X90890665Y-119584821D01*
X90890656Y-119584818D01*
X90662916Y-119506634D01*
X90443095Y-119469953D01*
X90425399Y-119467000D01*
X90184601Y-119467000D01*
X90166905Y-119469953D01*
X89947083Y-119506634D01*
X89719343Y-119584818D01*
X89719334Y-119584821D01*
X89507558Y-119699429D01*
X89433949Y-119756722D01*
X89317537Y-119847329D01*
X89317534Y-119847331D01*
X89317534Y-119847332D01*
X89235228Y-119936740D01*
X89154449Y-120024490D01*
X89138808Y-120048431D01*
X89085661Y-120093787D01*
X89016430Y-120103210D01*
X88953094Y-120073707D01*
X88931192Y-120048431D01*
X88915551Y-120024490D01*
X88752463Y-119847329D01*
X88585332Y-119717246D01*
X88562441Y-119699429D01*
X88350665Y-119584821D01*
X88350656Y-119584818D01*
X88122916Y-119506634D01*
X87903095Y-119469953D01*
X87885399Y-119467000D01*
X87644601Y-119467000D01*
X87626905Y-119469953D01*
X87407083Y-119506634D01*
X87179343Y-119584818D01*
X87179334Y-119584821D01*
X86967558Y-119699429D01*
X86893949Y-119756722D01*
X86777537Y-119847329D01*
X86777534Y-119847331D01*
X86777534Y-119847332D01*
X86695228Y-119936740D01*
X86614449Y-120024490D01*
X86598808Y-120048431D01*
X86545661Y-120093787D01*
X86476430Y-120103210D01*
X86413094Y-120073707D01*
X86391192Y-120048431D01*
X86375551Y-120024490D01*
X86212463Y-119847329D01*
X86045332Y-119717246D01*
X86022441Y-119699429D01*
X85810665Y-119584821D01*
X85810656Y-119584818D01*
X85582916Y-119506634D01*
X85363095Y-119469953D01*
X85345399Y-119467000D01*
X85104601Y-119467000D01*
X85086905Y-119469953D01*
X84867083Y-119506634D01*
X84639343Y-119584818D01*
X84639334Y-119584821D01*
X84427558Y-119699429D01*
X84353949Y-119756722D01*
X84237537Y-119847329D01*
X84237534Y-119847331D01*
X84237534Y-119847332D01*
X84155228Y-119936740D01*
X84074449Y-120024490D01*
X84058808Y-120048431D01*
X84005661Y-120093787D01*
X83936430Y-120103210D01*
X83873094Y-120073707D01*
X83851192Y-120048431D01*
X83835551Y-120024490D01*
X83672463Y-119847329D01*
X83505332Y-119717246D01*
X83482441Y-119699429D01*
X83270665Y-119584821D01*
X83270656Y-119584818D01*
X83042916Y-119506634D01*
X82823095Y-119469953D01*
X82805399Y-119467000D01*
X82564601Y-119467000D01*
X82546905Y-119469953D01*
X82327083Y-119506634D01*
X82099343Y-119584818D01*
X82099334Y-119584821D01*
X81887558Y-119699429D01*
X81813949Y-119756722D01*
X81697537Y-119847329D01*
X81697534Y-119847331D01*
X81697534Y-119847332D01*
X81615228Y-119936740D01*
X81534449Y-120024490D01*
X81518808Y-120048431D01*
X81465661Y-120093787D01*
X81396430Y-120103210D01*
X81333094Y-120073707D01*
X81311192Y-120048431D01*
X81295551Y-120024490D01*
X81132463Y-119847329D01*
X80965332Y-119717246D01*
X80942441Y-119699429D01*
X80730665Y-119584821D01*
X80730656Y-119584818D01*
X80502916Y-119506634D01*
X80283095Y-119469953D01*
X80265399Y-119467000D01*
X80024601Y-119467000D01*
X80006905Y-119469953D01*
X79787083Y-119506634D01*
X79559343Y-119584818D01*
X79559334Y-119584821D01*
X79347558Y-119699429D01*
X79273949Y-119756722D01*
X79157537Y-119847329D01*
X79157534Y-119847331D01*
X79157534Y-119847332D01*
X79075228Y-119936740D01*
X78994449Y-120024490D01*
X78978808Y-120048431D01*
X78925661Y-120093787D01*
X78856430Y-120103210D01*
X78793094Y-120073707D01*
X78771192Y-120048431D01*
X78755551Y-120024490D01*
X78592463Y-119847329D01*
X78425332Y-119717246D01*
X78402441Y-119699429D01*
X78190665Y-119584821D01*
X78190656Y-119584818D01*
X77962916Y-119506634D01*
X77743095Y-119469953D01*
X77725399Y-119467000D01*
X77484601Y-119467000D01*
X77466905Y-119469953D01*
X77247083Y-119506634D01*
X77019343Y-119584818D01*
X77019334Y-119584821D01*
X76807558Y-119699429D01*
X76733949Y-119756722D01*
X76617537Y-119847329D01*
X76617534Y-119847331D01*
X76617534Y-119847332D01*
X76535228Y-119936740D01*
X76454449Y-120024490D01*
X76438808Y-120048431D01*
X76385661Y-120093787D01*
X76316430Y-120103210D01*
X76253094Y-120073707D01*
X76231192Y-120048431D01*
X76215551Y-120024490D01*
X76052463Y-119847329D01*
X75885332Y-119717246D01*
X75862441Y-119699429D01*
X75650665Y-119584821D01*
X75650656Y-119584818D01*
X75422916Y-119506634D01*
X75203095Y-119469953D01*
X75185399Y-119467000D01*
X74944601Y-119467000D01*
X74926905Y-119469953D01*
X74707083Y-119506634D01*
X74479343Y-119584818D01*
X74479334Y-119584821D01*
X74267558Y-119699429D01*
X74193949Y-119756722D01*
X74077537Y-119847329D01*
X74077534Y-119847331D01*
X74077534Y-119847332D01*
X73995228Y-119936740D01*
X73914449Y-120024490D01*
X73898808Y-120048431D01*
X73845661Y-120093787D01*
X73776430Y-120103210D01*
X73713094Y-120073707D01*
X73691192Y-120048431D01*
X73675551Y-120024490D01*
X73512463Y-119847329D01*
X73345332Y-119717246D01*
X73322441Y-119699429D01*
X73322432Y-119699423D01*
X73215482Y-119641544D01*
X73165891Y-119592325D01*
X73150500Y-119532490D01*
X73150500Y-117460452D01*
X73170185Y-117393413D01*
X73186819Y-117372771D01*
X79534595Y-111024995D01*
X94774732Y-111024995D01*
X94774732Y-111025004D01*
X94793777Y-111279154D01*
X94827894Y-111428631D01*
X94850492Y-111527637D01*
X94943607Y-111764888D01*
X95071041Y-111985612D01*
X95229950Y-112184877D01*
X95416783Y-112358232D01*
X95627366Y-112501805D01*
X95627371Y-112501807D01*
X95627372Y-112501808D01*
X95627373Y-112501809D01*
X95737320Y-112554756D01*
X95856992Y-112612387D01*
X95856993Y-112612387D01*
X95856996Y-112612389D01*
X96100542Y-112687513D01*
X96352565Y-112725500D01*
X96607435Y-112725500D01*
X96859458Y-112687513D01*
X97103004Y-112612389D01*
X97332634Y-112501805D01*
X97543217Y-112358232D01*
X97730050Y-112184877D01*
X97888959Y-111985612D01*
X98016393Y-111764888D01*
X98109508Y-111527637D01*
X98166222Y-111279157D01*
X98185268Y-111025000D01*
X98179269Y-110944951D01*
X98171663Y-110843459D01*
X98166222Y-110770843D01*
X98109508Y-110522363D01*
X98016393Y-110285112D01*
X97888959Y-110064388D01*
X97730050Y-109865123D01*
X97543217Y-109691768D01*
X97332634Y-109548195D01*
X97332630Y-109548193D01*
X97332627Y-109548191D01*
X97332626Y-109548190D01*
X97103006Y-109437612D01*
X97103008Y-109437612D01*
X96859466Y-109362489D01*
X96859462Y-109362488D01*
X96859458Y-109362487D01*
X96738231Y-109344214D01*
X96607440Y-109324500D01*
X96607435Y-109324500D01*
X96352565Y-109324500D01*
X96352559Y-109324500D01*
X96195609Y-109348157D01*
X96100542Y-109362487D01*
X96100539Y-109362488D01*
X96100533Y-109362489D01*
X95856992Y-109437612D01*
X95627373Y-109548190D01*
X95627372Y-109548191D01*
X95416782Y-109691768D01*
X95229952Y-109865121D01*
X95229950Y-109865123D01*
X95071041Y-110064388D01*
X94943608Y-110285109D01*
X94850492Y-110522362D01*
X94850490Y-110522369D01*
X94793777Y-110770845D01*
X94774732Y-111024995D01*
X79534595Y-111024995D01*
X82172771Y-108386819D01*
X82234094Y-108353334D01*
X82260452Y-108350500D01*
X91373003Y-108350500D01*
X91433425Y-108338481D01*
X91493848Y-108326463D01*
X91493851Y-108326461D01*
X91493854Y-108326461D01*
X91527183Y-108312654D01*
X91527182Y-108312654D01*
X91527188Y-108312652D01*
X91607682Y-108279312D01*
X91658905Y-108245084D01*
X91710129Y-108210858D01*
X91797254Y-108123733D01*
X91797254Y-108123731D01*
X91807462Y-108113524D01*
X91807463Y-108113521D01*
X94959168Y-104961819D01*
X95020491Y-104928334D01*
X95046849Y-104925500D01*
X128481607Y-104925500D01*
X128542029Y-104913481D01*
X128602452Y-104901463D01*
X128602455Y-104901461D01*
X128602458Y-104901461D01*
X128635787Y-104887654D01*
X128635786Y-104887654D01*
X128635792Y-104887652D01*
X128716286Y-104854312D01*
X128767509Y-104820084D01*
X128818733Y-104785858D01*
X128905858Y-104698733D01*
X128905859Y-104698731D01*
X128912925Y-104691665D01*
X128912928Y-104691661D01*
X131372771Y-102231818D01*
X131434094Y-102198333D01*
X131460452Y-102195499D01*
X132672871Y-102195499D01*
X132672872Y-102195499D01*
X132732483Y-102189091D01*
X132867331Y-102138796D01*
X132982546Y-102052546D01*
X133068796Y-101937331D01*
X133119091Y-101802483D01*
X133122862Y-101767401D01*
X133149599Y-101702855D01*
X133206990Y-101663006D01*
X133276816Y-101660511D01*
X133336905Y-101696163D01*
X133347726Y-101709536D01*
X133364956Y-101734143D01*
X133525858Y-101895045D01*
X133525861Y-101895047D01*
X133712266Y-102025568D01*
X133918504Y-102121739D01*
X133918509Y-102121740D01*
X133918511Y-102121741D01*
X133937164Y-102126739D01*
X134138308Y-102180635D01*
X134292111Y-102194091D01*
X134364998Y-102200468D01*
X134365000Y-102200468D01*
X134365002Y-102200468D01*
X134437889Y-102194091D01*
X134591692Y-102180635D01*
X134811496Y-102121739D01*
X135017734Y-102025568D01*
X135204139Y-101895047D01*
X135365047Y-101734139D01*
X135495568Y-101547734D01*
X135522618Y-101489724D01*
X135568790Y-101437285D01*
X135635983Y-101418133D01*
X135702865Y-101438348D01*
X135747381Y-101489724D01*
X135761517Y-101520038D01*
X135774429Y-101547728D01*
X135774432Y-101547734D01*
X135904954Y-101734141D01*
X136065858Y-101895045D01*
X136065861Y-101895047D01*
X136252266Y-102025568D01*
X136458504Y-102121739D01*
X136458509Y-102121740D01*
X136458511Y-102121741D01*
X136477164Y-102126739D01*
X136678308Y-102180635D01*
X136832111Y-102194091D01*
X136904998Y-102200468D01*
X136905000Y-102200468D01*
X136905002Y-102200468D01*
X136977889Y-102194091D01*
X137131692Y-102180635D01*
X137351496Y-102121739D01*
X137557734Y-102025568D01*
X137744139Y-101895047D01*
X137905047Y-101734139D01*
X138035568Y-101547734D01*
X138131739Y-101341496D01*
X138156225Y-101250113D01*
X138192590Y-101190452D01*
X138255437Y-101159923D01*
X138324812Y-101168218D01*
X138378690Y-101212703D01*
X138399965Y-101279255D01*
X138400000Y-101282206D01*
X138400000Y-102424797D01*
X138380315Y-102491836D01*
X138365075Y-102511062D01*
X128425385Y-112774602D01*
X128424629Y-112775376D01*
X128013086Y-113192970D01*
X127952009Y-113226902D01*
X127882282Y-113222426D01*
X127837086Y-113193612D01*
X126120564Y-111477090D01*
X126087079Y-111415767D01*
X126087353Y-111361821D01*
X126106222Y-111279157D01*
X126125268Y-111025000D01*
X126119269Y-110944951D01*
X126111663Y-110843459D01*
X126106222Y-110770843D01*
X126049508Y-110522363D01*
X125956393Y-110285112D01*
X125828959Y-110064388D01*
X125670050Y-109865123D01*
X125483217Y-109691768D01*
X125272634Y-109548195D01*
X125272630Y-109548193D01*
X125272627Y-109548191D01*
X125272626Y-109548190D01*
X125043006Y-109437612D01*
X125043008Y-109437612D01*
X124799466Y-109362489D01*
X124799462Y-109362488D01*
X124799458Y-109362487D01*
X124678231Y-109344214D01*
X124547440Y-109324500D01*
X124547435Y-109324500D01*
X124292565Y-109324500D01*
X124292559Y-109324500D01*
X124135609Y-109348157D01*
X124040542Y-109362487D01*
X124040539Y-109362488D01*
X124040533Y-109362489D01*
X123796992Y-109437612D01*
X123567373Y-109548190D01*
X123567372Y-109548191D01*
X123356782Y-109691768D01*
X123169952Y-109865121D01*
X123169950Y-109865123D01*
X123011041Y-110064388D01*
X122883608Y-110285109D01*
X122790492Y-110522362D01*
X122790490Y-110522369D01*
X122733777Y-110770845D01*
X122714732Y-111024995D01*
X122714732Y-111025004D01*
X122733777Y-111279154D01*
X122767894Y-111428631D01*
X122790492Y-111527637D01*
X122883607Y-111764888D01*
X123011041Y-111985612D01*
X123169950Y-112184877D01*
X123356783Y-112358232D01*
X123567366Y-112501805D01*
X123567371Y-112501807D01*
X123567372Y-112501808D01*
X123567373Y-112501809D01*
X123627402Y-112530717D01*
X123661282Y-112554756D01*
X126688681Y-115582155D01*
X126722166Y-115643478D01*
X126725000Y-115669836D01*
X126725000Y-127675000D01*
X126724999Y-127675000D01*
X128429680Y-129311036D01*
X128464418Y-129371658D01*
X128460866Y-129441438D01*
X128420153Y-129498220D01*
X128355204Y-129523976D01*
X128343819Y-129524500D01*
X105609452Y-129524500D01*
X105542413Y-129504815D01*
X105496658Y-129452011D01*
X105486714Y-129382853D01*
X105515739Y-129319297D01*
X105521771Y-129312819D01*
X105764318Y-129070272D01*
X106573729Y-128260860D01*
X106573733Y-128260858D01*
X106660858Y-128173733D01*
X106729311Y-128071286D01*
X106776463Y-127957452D01*
X106800500Y-127836606D01*
X106800500Y-123298687D01*
X106820185Y-123231648D01*
X106832350Y-123215715D01*
X106850891Y-123195122D01*
X106907533Y-123132216D01*
X107002179Y-122968284D01*
X107060674Y-122788256D01*
X107080460Y-122600000D01*
X107060674Y-122411744D01*
X107002179Y-122231716D01*
X106907533Y-122067784D01*
X106780871Y-121927112D01*
X106780870Y-121927111D01*
X106627734Y-121815851D01*
X106627729Y-121815848D01*
X106454807Y-121738857D01*
X106454802Y-121738855D01*
X106309001Y-121707865D01*
X106269646Y-121699500D01*
X106080354Y-121699500D01*
X106047897Y-121706398D01*
X105895197Y-121738855D01*
X105895192Y-121738857D01*
X105722270Y-121815848D01*
X105722265Y-121815851D01*
X105569129Y-121927111D01*
X105442465Y-122067785D01*
X105388578Y-122161122D01*
X105338011Y-122209338D01*
X105269404Y-122222561D01*
X105204539Y-122196593D01*
X105183856Y-122174728D01*
X105183526Y-122175006D01*
X105180048Y-122170861D01*
X105019141Y-122009954D01*
X104832734Y-121879432D01*
X104832728Y-121879429D01*
X104774725Y-121852382D01*
X104722285Y-121806210D01*
X104703133Y-121739017D01*
X104723348Y-121672135D01*
X104774725Y-121627618D01*
X104832734Y-121600568D01*
X105019139Y-121470047D01*
X105180047Y-121309139D01*
X105310568Y-121122734D01*
X105406739Y-120916496D01*
X105465635Y-120696692D01*
X105485468Y-120470000D01*
X105485468Y-120469998D01*
X110494532Y-120469998D01*
X110494532Y-120470001D01*
X110514364Y-120696686D01*
X110514366Y-120696697D01*
X110573258Y-120916488D01*
X110573261Y-120916497D01*
X110669431Y-121122732D01*
X110669432Y-121122734D01*
X110799954Y-121309141D01*
X110960858Y-121470045D01*
X110960861Y-121470047D01*
X111147266Y-121600568D01*
X111175904Y-121613922D01*
X111205275Y-121627618D01*
X111257714Y-121673791D01*
X111276866Y-121740984D01*
X111256650Y-121807865D01*
X111205275Y-121852382D01*
X111147267Y-121879431D01*
X111147265Y-121879432D01*
X110960858Y-122009954D01*
X110799954Y-122170858D01*
X110669432Y-122357265D01*
X110669431Y-122357267D01*
X110573261Y-122563502D01*
X110573258Y-122563511D01*
X110514366Y-122783302D01*
X110514364Y-122783313D01*
X110494532Y-123009998D01*
X110494532Y-123010001D01*
X110514364Y-123236686D01*
X110514366Y-123236697D01*
X110573258Y-123456488D01*
X110573261Y-123456497D01*
X110669431Y-123662732D01*
X110669432Y-123662734D01*
X110799954Y-123849141D01*
X110960858Y-124010045D01*
X110985462Y-124027273D01*
X111029087Y-124081849D01*
X111036281Y-124151348D01*
X111004758Y-124213703D01*
X110944529Y-124249117D01*
X110927593Y-124252138D01*
X110892516Y-124255908D01*
X110757671Y-124306202D01*
X110757664Y-124306206D01*
X110642455Y-124392452D01*
X110642452Y-124392455D01*
X110556206Y-124507664D01*
X110556202Y-124507671D01*
X110505908Y-124642517D01*
X110499501Y-124702116D01*
X110499501Y-124702123D01*
X110499500Y-124702135D01*
X110499500Y-126397870D01*
X110499501Y-126397876D01*
X110505908Y-126457483D01*
X110556202Y-126592328D01*
X110556206Y-126592335D01*
X110642452Y-126707544D01*
X110642455Y-126707547D01*
X110757664Y-126793793D01*
X110757671Y-126793797D01*
X110892517Y-126844091D01*
X110892516Y-126844091D01*
X110899444Y-126844835D01*
X110952127Y-126850500D01*
X112647872Y-126850499D01*
X112707483Y-126844091D01*
X112842331Y-126793796D01*
X112957546Y-126707546D01*
X113043796Y-126592331D01*
X113094091Y-126457483D01*
X113100500Y-126397873D01*
X113100500Y-125644994D01*
X115239357Y-125644994D01*
X115239357Y-125645005D01*
X115259890Y-125892812D01*
X115259892Y-125892824D01*
X115320936Y-126133881D01*
X115420826Y-126361606D01*
X115556833Y-126569782D01*
X115556836Y-126569785D01*
X115725256Y-126752738D01*
X115921491Y-126905474D01*
X116140190Y-127023828D01*
X116375386Y-127104571D01*
X116620665Y-127145500D01*
X116869335Y-127145500D01*
X117114614Y-127104571D01*
X117349810Y-127023828D01*
X117568509Y-126905474D01*
X117764744Y-126752738D01*
X117933164Y-126569785D01*
X118069173Y-126361607D01*
X118169063Y-126133881D01*
X118230108Y-125892821D01*
X118230109Y-125892812D01*
X118250643Y-125645005D01*
X118250643Y-125644994D01*
X118230109Y-125397187D01*
X118230107Y-125397175D01*
X118169063Y-125156118D01*
X118069173Y-124928393D01*
X117933166Y-124720217D01*
X117861637Y-124642516D01*
X117819861Y-124597135D01*
X120324500Y-124597135D01*
X120324500Y-126692870D01*
X120324501Y-126692876D01*
X120330908Y-126752483D01*
X120381202Y-126887328D01*
X120381206Y-126887335D01*
X120467452Y-127002544D01*
X120467455Y-127002547D01*
X120582664Y-127088793D01*
X120582671Y-127088797D01*
X120717517Y-127139091D01*
X120717516Y-127139091D01*
X120724444Y-127139835D01*
X120777127Y-127145500D01*
X122872872Y-127145499D01*
X122932483Y-127139091D01*
X123067331Y-127088796D01*
X123182546Y-127002546D01*
X123268796Y-126887331D01*
X123319091Y-126752483D01*
X123325500Y-126692873D01*
X123325499Y-124597128D01*
X123319091Y-124537517D01*
X123307959Y-124507671D01*
X123268797Y-124402671D01*
X123268793Y-124402664D01*
X123182547Y-124287455D01*
X123182544Y-124287452D01*
X123067335Y-124201206D01*
X123067328Y-124201202D01*
X122932482Y-124150908D01*
X122932483Y-124150908D01*
X122872883Y-124144501D01*
X122872881Y-124144500D01*
X122872873Y-124144500D01*
X122872864Y-124144500D01*
X120777129Y-124144500D01*
X120777123Y-124144501D01*
X120717516Y-124150908D01*
X120582671Y-124201202D01*
X120582664Y-124201206D01*
X120467455Y-124287452D01*
X120467452Y-124287455D01*
X120381206Y-124402664D01*
X120381202Y-124402671D01*
X120330908Y-124537517D01*
X120324501Y-124597116D01*
X120324501Y-124597123D01*
X120324500Y-124597135D01*
X117819861Y-124597135D01*
X117764744Y-124537262D01*
X117568509Y-124384526D01*
X117568507Y-124384525D01*
X117568506Y-124384524D01*
X117349811Y-124266172D01*
X117349802Y-124266169D01*
X117114616Y-124185429D01*
X116869335Y-124144500D01*
X116620665Y-124144500D01*
X116375383Y-124185429D01*
X116140197Y-124266169D01*
X116140188Y-124266172D01*
X115921493Y-124384524D01*
X115725257Y-124537261D01*
X115556833Y-124720217D01*
X115420826Y-124928393D01*
X115320936Y-125156118D01*
X115259892Y-125397175D01*
X115259890Y-125397187D01*
X115239357Y-125644994D01*
X113100500Y-125644994D01*
X113100499Y-124702128D01*
X113094091Y-124642517D01*
X113077162Y-124597129D01*
X113043797Y-124507671D01*
X113043793Y-124507664D01*
X112957547Y-124392455D01*
X112957544Y-124392452D01*
X112842335Y-124306206D01*
X112842328Y-124306202D01*
X112707482Y-124255908D01*
X112707483Y-124255908D01*
X112672404Y-124252137D01*
X112607853Y-124225399D01*
X112568005Y-124168006D01*
X112565512Y-124098181D01*
X112601165Y-124038092D01*
X112614539Y-124027272D01*
X112639140Y-124010046D01*
X112800045Y-123849141D01*
X112800047Y-123849139D01*
X112930568Y-123662734D01*
X113026739Y-123456496D01*
X113085635Y-123236692D01*
X113105468Y-123010000D01*
X113085635Y-122783308D01*
X113026739Y-122563504D01*
X112930568Y-122357266D01*
X112800047Y-122170861D01*
X112800045Y-122170858D01*
X112639141Y-122009954D01*
X112452734Y-121879432D01*
X112452728Y-121879429D01*
X112394725Y-121852382D01*
X112342285Y-121806210D01*
X112323133Y-121739017D01*
X112343348Y-121672135D01*
X112394725Y-121627618D01*
X112452734Y-121600568D01*
X112639139Y-121470047D01*
X112800047Y-121309139D01*
X112930568Y-121122734D01*
X113026739Y-120916496D01*
X113085635Y-120696692D01*
X113097157Y-120564994D01*
X115239357Y-120564994D01*
X115239357Y-120565005D01*
X115259890Y-120812812D01*
X115259892Y-120812824D01*
X115320936Y-121053881D01*
X115420826Y-121281606D01*
X115556833Y-121489782D01*
X115556836Y-121489785D01*
X115725256Y-121672738D01*
X115921491Y-121825474D01*
X115921493Y-121825475D01*
X116109301Y-121927112D01*
X116140190Y-121943828D01*
X116375386Y-122024571D01*
X116620665Y-122065500D01*
X116869335Y-122065500D01*
X117114614Y-122024571D01*
X117349810Y-121943828D01*
X117568509Y-121825474D01*
X117764744Y-121672738D01*
X117933164Y-121489785D01*
X118069173Y-121281607D01*
X118169063Y-121053881D01*
X118230108Y-120812821D01*
X118230109Y-120812812D01*
X118250643Y-120565005D01*
X118250643Y-120564994D01*
X120319357Y-120564994D01*
X120319357Y-120565005D01*
X120339890Y-120812812D01*
X120339892Y-120812824D01*
X120400936Y-121053881D01*
X120500826Y-121281606D01*
X120636833Y-121489782D01*
X120636836Y-121489785D01*
X120805256Y-121672738D01*
X121001491Y-121825474D01*
X121001493Y-121825475D01*
X121189301Y-121927112D01*
X121220190Y-121943828D01*
X121455386Y-122024571D01*
X121700665Y-122065500D01*
X121949335Y-122065500D01*
X122194614Y-122024571D01*
X122429810Y-121943828D01*
X122648509Y-121825474D01*
X122844744Y-121672738D01*
X123013164Y-121489785D01*
X123149173Y-121281607D01*
X123249063Y-121053881D01*
X123310108Y-120812821D01*
X123310109Y-120812812D01*
X123330643Y-120565005D01*
X123330643Y-120564994D01*
X123310109Y-120317187D01*
X123310107Y-120317175D01*
X123249063Y-120076118D01*
X123149173Y-119848393D01*
X123013166Y-119640217D01*
X122913996Y-119532490D01*
X122844744Y-119457262D01*
X122648509Y-119304526D01*
X122648507Y-119304525D01*
X122648506Y-119304524D01*
X122429811Y-119186172D01*
X122429802Y-119186169D01*
X122194616Y-119105429D01*
X121949335Y-119064500D01*
X121700665Y-119064500D01*
X121455383Y-119105429D01*
X121220197Y-119186169D01*
X121220188Y-119186172D01*
X121001493Y-119304524D01*
X120805257Y-119457261D01*
X120636833Y-119640217D01*
X120500826Y-119848393D01*
X120400936Y-120076118D01*
X120339892Y-120317175D01*
X120339890Y-120317187D01*
X120319357Y-120564994D01*
X118250643Y-120564994D01*
X118230109Y-120317187D01*
X118230107Y-120317175D01*
X118169063Y-120076118D01*
X118069173Y-119848393D01*
X117933166Y-119640217D01*
X117833996Y-119532490D01*
X117764744Y-119457262D01*
X117568509Y-119304526D01*
X117568507Y-119304525D01*
X117568506Y-119304524D01*
X117349811Y-119186172D01*
X117349802Y-119186169D01*
X117114616Y-119105429D01*
X116869335Y-119064500D01*
X116620665Y-119064500D01*
X116375383Y-119105429D01*
X116140197Y-119186169D01*
X116140188Y-119186172D01*
X115921493Y-119304524D01*
X115725257Y-119457261D01*
X115556833Y-119640217D01*
X115420826Y-119848393D01*
X115320936Y-120076118D01*
X115259892Y-120317175D01*
X115259890Y-120317187D01*
X115239357Y-120564994D01*
X113097157Y-120564994D01*
X113105468Y-120470000D01*
X113085635Y-120243308D01*
X113026739Y-120023504D01*
X112930568Y-119817266D01*
X112800047Y-119630861D01*
X112800045Y-119630858D01*
X112639141Y-119469954D01*
X112452734Y-119339432D01*
X112452732Y-119339431D01*
X112246497Y-119243261D01*
X112246488Y-119243258D01*
X112026697Y-119184366D01*
X112026693Y-119184365D01*
X112026692Y-119184365D01*
X112026691Y-119184364D01*
X112026686Y-119184364D01*
X111800002Y-119164532D01*
X111799998Y-119164532D01*
X111573313Y-119184364D01*
X111573302Y-119184366D01*
X111353511Y-119243258D01*
X111353502Y-119243261D01*
X111147267Y-119339431D01*
X111147265Y-119339432D01*
X110960858Y-119469954D01*
X110799954Y-119630858D01*
X110669432Y-119817265D01*
X110669431Y-119817267D01*
X110573261Y-120023502D01*
X110573258Y-120023511D01*
X110514366Y-120243302D01*
X110514364Y-120243313D01*
X110494532Y-120469998D01*
X105485468Y-120469998D01*
X105465635Y-120243308D01*
X105406739Y-120023504D01*
X105310568Y-119817266D01*
X105180047Y-119630861D01*
X105180045Y-119630858D01*
X105019141Y-119469954D01*
X104832734Y-119339432D01*
X104832732Y-119339431D01*
X104626497Y-119243261D01*
X104626488Y-119243258D01*
X104406697Y-119184366D01*
X104406693Y-119184365D01*
X104406692Y-119184365D01*
X104406691Y-119184364D01*
X104406686Y-119184364D01*
X104180002Y-119164532D01*
X104179998Y-119164532D01*
X103953313Y-119184364D01*
X103953302Y-119184366D01*
X103733511Y-119243258D01*
X103733502Y-119243261D01*
X103527267Y-119339431D01*
X103527265Y-119339432D01*
X103340858Y-119469954D01*
X103179954Y-119630858D01*
X103049432Y-119817265D01*
X103049431Y-119817267D01*
X102953261Y-120023502D01*
X102953258Y-120023511D01*
X102894366Y-120243302D01*
X102894364Y-120243313D01*
X102874532Y-120469998D01*
X102874532Y-120470001D01*
X102894364Y-120696686D01*
X102894366Y-120696697D01*
X102953258Y-120916488D01*
X102953261Y-120916497D01*
X103049431Y-121122732D01*
X103049432Y-121122734D01*
X103179954Y-121309141D01*
X103340858Y-121470045D01*
X103340861Y-121470047D01*
X103527266Y-121600568D01*
X103555904Y-121613922D01*
X103585275Y-121627618D01*
X103637714Y-121673791D01*
X103656866Y-121740984D01*
X103636650Y-121807865D01*
X103585275Y-121852382D01*
X103527267Y-121879431D01*
X103527265Y-121879432D01*
X103340858Y-122009954D01*
X103179954Y-122170858D01*
X103049432Y-122357265D01*
X103049431Y-122357267D01*
X102953261Y-122563502D01*
X102953258Y-122563511D01*
X102894366Y-122783302D01*
X102894364Y-122783313D01*
X102874532Y-123009998D01*
X102874532Y-123010001D01*
X102894364Y-123236686D01*
X102894366Y-123236697D01*
X102953258Y-123456488D01*
X102953261Y-123456497D01*
X103049431Y-123662732D01*
X103049432Y-123662734D01*
X103179954Y-123849141D01*
X103340858Y-124010045D01*
X103380914Y-124038092D01*
X103527266Y-124140568D01*
X103550384Y-124151348D01*
X103585275Y-124167618D01*
X103637714Y-124213791D01*
X103656866Y-124280984D01*
X103636650Y-124347865D01*
X103585275Y-124392381D01*
X103585118Y-124392455D01*
X103527267Y-124419431D01*
X103527265Y-124419432D01*
X103340858Y-124549954D01*
X103179954Y-124710858D01*
X103049432Y-124897265D01*
X103049431Y-124897267D01*
X102953261Y-125103502D01*
X102953258Y-125103511D01*
X102894366Y-125323302D01*
X102894364Y-125323313D01*
X102874532Y-125549998D01*
X102874532Y-125550001D01*
X102894364Y-125776686D01*
X102894366Y-125776697D01*
X102953258Y-125996488D01*
X102953261Y-125996497D01*
X103049431Y-126202732D01*
X103049432Y-126202734D01*
X103179954Y-126389141D01*
X103340858Y-126550045D01*
X103340861Y-126550047D01*
X103527266Y-126680568D01*
X103733504Y-126776739D01*
X103953308Y-126835635D01*
X104115230Y-126849801D01*
X104179998Y-126855468D01*
X104180000Y-126855468D01*
X104180002Y-126855468D01*
X104236807Y-126850498D01*
X104406692Y-126835635D01*
X104626496Y-126776739D01*
X104832734Y-126680568D01*
X105019139Y-126550047D01*
X105180047Y-126389139D01*
X105310568Y-126202734D01*
X105313117Y-126197265D01*
X105359287Y-126144827D01*
X105426480Y-126125673D01*
X105493362Y-126145886D01*
X105538698Y-126199050D01*
X105549500Y-126249669D01*
X105549500Y-127464547D01*
X105529815Y-127531586D01*
X105513181Y-127552228D01*
X103314144Y-129751264D01*
X103314138Y-129751272D01*
X103245690Y-129853708D01*
X103245688Y-129853713D01*
X103198540Y-129967538D01*
X103198535Y-129967555D01*
X103174500Y-130088388D01*
X103174500Y-130211611D01*
X103198535Y-130332444D01*
X103198540Y-130332461D01*
X103245685Y-130446280D01*
X103245690Y-130446289D01*
X103279914Y-130497507D01*
X103279915Y-130497509D01*
X103314141Y-130548733D01*
X103401264Y-130635856D01*
X103401267Y-130635858D01*
X103452490Y-130670084D01*
X103503714Y-130704312D01*
X103584207Y-130737652D01*
X103617548Y-130751463D01*
X103677971Y-130763481D01*
X103738393Y-130775500D01*
X129905715Y-130775500D01*
X129972754Y-130795185D01*
X129991575Y-130810035D01*
X130450000Y-131250000D01*
X133599999Y-131250000D01*
X133600000Y-131250000D01*
X134176142Y-130670083D01*
X135760840Y-129075000D01*
X147397520Y-129075000D01*
X147417299Y-129320023D01*
X147417300Y-129320027D01*
X147476128Y-129558701D01*
X147572063Y-129783872D01*
X147572483Y-129784856D01*
X147688005Y-129967538D01*
X147703870Y-129992626D01*
X147866875Y-130176621D01*
X147866879Y-130176625D01*
X147936771Y-130233689D01*
X148057292Y-130332092D01*
X148057294Y-130332093D01*
X148057301Y-130332098D01*
X148255071Y-130446280D01*
X148270180Y-130455003D01*
X148500028Y-130542173D01*
X148594449Y-130561448D01*
X148740875Y-130591342D01*
X148740880Y-130591342D01*
X148740883Y-130591343D01*
X148814569Y-130594312D01*
X148986498Y-130601242D01*
X148986499Y-130601242D01*
X148986500Y-130601241D01*
X148986505Y-130601242D01*
X149195673Y-130575844D01*
X149230536Y-130571611D01*
X149309519Y-130548733D01*
X149466652Y-130503219D01*
X149688740Y-130397837D01*
X149891048Y-130258194D01*
X150068336Y-130087907D01*
X150139088Y-129993753D01*
X163375000Y-129993753D01*
X163375000Y-130000000D01*
X164291988Y-130000000D01*
X164259075Y-130057007D01*
X164225000Y-130184174D01*
X164225000Y-130315826D01*
X164259075Y-130442993D01*
X164291988Y-130500000D01*
X163375000Y-130500000D01*
X163375000Y-130506246D01*
X163408242Y-130716127D01*
X163408242Y-130716130D01*
X163473904Y-130918217D01*
X163570379Y-131107557D01*
X163695272Y-131279459D01*
X163695276Y-131279464D01*
X163845535Y-131429723D01*
X163845540Y-131429727D01*
X164017442Y-131554620D01*
X164206782Y-131651095D01*
X164408871Y-131716757D01*
X164475000Y-131727231D01*
X164475000Y-130683012D01*
X164532007Y-130715925D01*
X164659174Y-130750000D01*
X164790826Y-130750000D01*
X164917993Y-130715925D01*
X164975000Y-130683012D01*
X164975000Y-131727230D01*
X165041126Y-131716757D01*
X165041129Y-131716757D01*
X165243217Y-131651095D01*
X165432557Y-131554620D01*
X165604459Y-131429727D01*
X165604464Y-131429723D01*
X165754723Y-131279464D01*
X165754727Y-131279459D01*
X165879620Y-131107557D01*
X165976095Y-130918217D01*
X166041757Y-130716130D01*
X166041757Y-130716127D01*
X166075000Y-130506246D01*
X166075000Y-130500000D01*
X165158012Y-130500000D01*
X165190925Y-130442993D01*
X165225000Y-130315826D01*
X165225000Y-130184174D01*
X165190925Y-130057007D01*
X165158012Y-130000000D01*
X166075000Y-130000000D01*
X166075000Y-129993753D01*
X166041757Y-129783872D01*
X166041757Y-129783869D01*
X165976095Y-129581782D01*
X165879620Y-129392442D01*
X165754727Y-129220540D01*
X165754723Y-129220535D01*
X165604464Y-129070276D01*
X165604459Y-129070272D01*
X165432557Y-128945379D01*
X165243215Y-128848903D01*
X165041124Y-128783241D01*
X164975000Y-128772768D01*
X164975000Y-129816988D01*
X164917993Y-129784075D01*
X164790826Y-129750000D01*
X164659174Y-129750000D01*
X164532007Y-129784075D01*
X164475000Y-129816988D01*
X164475000Y-128772768D01*
X164474999Y-128772768D01*
X164408875Y-128783241D01*
X164206784Y-128848903D01*
X164017442Y-128945379D01*
X163845540Y-129070272D01*
X163845535Y-129070276D01*
X163695276Y-129220535D01*
X163695272Y-129220540D01*
X163570379Y-129392442D01*
X163473904Y-129581782D01*
X163408242Y-129783869D01*
X163408242Y-129783872D01*
X163375000Y-129993753D01*
X150139088Y-129993753D01*
X150216011Y-129891386D01*
X150330251Y-129673721D01*
X150408095Y-129440550D01*
X150429143Y-129311036D01*
X150447526Y-129197920D01*
X150447526Y-129197917D01*
X150447527Y-129197911D01*
X150450000Y-129075000D01*
X150447527Y-128952089D01*
X150447526Y-128952082D01*
X150447526Y-128952079D01*
X150408095Y-128709450D01*
X150408095Y-128709449D01*
X150330251Y-128476280D01*
X150330250Y-128476276D01*
X150271923Y-128365144D01*
X150216011Y-128258614D01*
X150216008Y-128258610D01*
X150216007Y-128258608D01*
X150068334Y-128062090D01*
X149891053Y-127891810D01*
X149891049Y-127891807D01*
X149688743Y-127752164D01*
X149526122Y-127675000D01*
X149466652Y-127646781D01*
X149466649Y-127646780D01*
X149466646Y-127646779D01*
X149230536Y-127578388D01*
X148986498Y-127548757D01*
X148740886Y-127558656D01*
X148740875Y-127558657D01*
X148500030Y-127607826D01*
X148270178Y-127694997D01*
X148057301Y-127817901D01*
X148057294Y-127817906D01*
X147866879Y-127973374D01*
X147866875Y-127973378D01*
X147703870Y-128157373D01*
X147572481Y-128365147D01*
X147476128Y-128591298D01*
X147417300Y-128829972D01*
X147417299Y-128829976D01*
X147397520Y-129075000D01*
X135760840Y-129075000D01*
X152675000Y-112050000D01*
X152675000Y-112010951D01*
X152694685Y-111943912D01*
X152711315Y-111923274D01*
X157687821Y-106946768D01*
X157749142Y-106913285D01*
X157818834Y-106918269D01*
X157874767Y-106960141D01*
X157899184Y-107025605D01*
X157899500Y-107034451D01*
X157899500Y-119426312D01*
X157879815Y-119493351D01*
X157867650Y-119509284D01*
X157792466Y-119592784D01*
X157697821Y-119756715D01*
X157697818Y-119756722D01*
X157639327Y-119936740D01*
X157639326Y-119936744D01*
X157619540Y-120125000D01*
X157639326Y-120313256D01*
X157639327Y-120313259D01*
X157697818Y-120493277D01*
X157697821Y-120493284D01*
X157792467Y-120657216D01*
X157919129Y-120797888D01*
X158072265Y-120909148D01*
X158072270Y-120909151D01*
X158245192Y-120986142D01*
X158245197Y-120986144D01*
X158430354Y-121025500D01*
X158430355Y-121025500D01*
X158619644Y-121025500D01*
X158619646Y-121025500D01*
X158804803Y-120986144D01*
X158977730Y-120909151D01*
X159130871Y-120797888D01*
X159257533Y-120657216D01*
X159352179Y-120493284D01*
X159410674Y-120313256D01*
X159430460Y-120125000D01*
X159410674Y-119936744D01*
X159352179Y-119756716D01*
X159257533Y-119592784D01*
X159223558Y-119555051D01*
X159182350Y-119509284D01*
X159152120Y-119446292D01*
X159150500Y-119426312D01*
X159150500Y-111993713D01*
X163374500Y-111993713D01*
X163374500Y-112506286D01*
X163403203Y-112687513D01*
X163407754Y-112716243D01*
X163410761Y-112725499D01*
X163473444Y-112918414D01*
X163569951Y-113107820D01*
X163694890Y-113279786D01*
X163845213Y-113430109D01*
X164017179Y-113555048D01*
X164017181Y-113555049D01*
X164017184Y-113555051D01*
X164206588Y-113651557D01*
X164408757Y-113717246D01*
X164618713Y-113750500D01*
X164618714Y-113750500D01*
X164831286Y-113750500D01*
X164831287Y-113750500D01*
X165041243Y-113717246D01*
X165243412Y-113651557D01*
X165432816Y-113555051D01*
X165454789Y-113539086D01*
X165604786Y-113430109D01*
X165604788Y-113430106D01*
X165604792Y-113430104D01*
X165755104Y-113279792D01*
X165755106Y-113279788D01*
X165755109Y-113279786D01*
X165880048Y-113107820D01*
X165880047Y-113107820D01*
X165880051Y-113107816D01*
X165976557Y-112918412D01*
X166042246Y-112716243D01*
X166075500Y-112506287D01*
X166075500Y-111993713D01*
X166042246Y-111783757D01*
X165976557Y-111581588D01*
X165880051Y-111392184D01*
X165880049Y-111392181D01*
X165880048Y-111392179D01*
X165755109Y-111220213D01*
X165604786Y-111069890D01*
X165432820Y-110944951D01*
X165243414Y-110848444D01*
X165243413Y-110848443D01*
X165243412Y-110848443D01*
X165041243Y-110782754D01*
X165041241Y-110782753D01*
X165041240Y-110782753D01*
X164879957Y-110757208D01*
X164831287Y-110749500D01*
X164618713Y-110749500D01*
X164570042Y-110757208D01*
X164408760Y-110782753D01*
X164206585Y-110848444D01*
X164017179Y-110944951D01*
X163845213Y-111069890D01*
X163694890Y-111220213D01*
X163569951Y-111392179D01*
X163473444Y-111581585D01*
X163407753Y-111783760D01*
X163374500Y-111993713D01*
X159150500Y-111993713D01*
X159150500Y-105929217D01*
X159170185Y-105862178D01*
X159182350Y-105846245D01*
X159307533Y-105707216D01*
X159402179Y-105543284D01*
X159460674Y-105363256D01*
X159480460Y-105175000D01*
X159460674Y-104986744D01*
X159402179Y-104806716D01*
X159307533Y-104642784D01*
X159180871Y-104502112D01*
X159180870Y-104502111D01*
X159027734Y-104390851D01*
X159027729Y-104390848D01*
X158854807Y-104313857D01*
X158854802Y-104313855D01*
X158709001Y-104282865D01*
X158669646Y-104274500D01*
X158480354Y-104274500D01*
X158447897Y-104281398D01*
X158295197Y-104313855D01*
X158295192Y-104313857D01*
X158122270Y-104390848D01*
X158122265Y-104390851D01*
X157969129Y-104502111D01*
X157842466Y-104642785D01*
X157747821Y-104806715D01*
X157747818Y-104806722D01*
X157695637Y-104967320D01*
X157689326Y-104986744D01*
X157671679Y-105154649D01*
X157645094Y-105219263D01*
X157636039Y-105229368D01*
X152886681Y-109978727D01*
X152825358Y-110012212D01*
X152755666Y-110007228D01*
X152699733Y-109965356D01*
X152675316Y-109899892D01*
X152675000Y-109891046D01*
X152675000Y-100751731D01*
X152694685Y-100684692D01*
X152711765Y-100663606D01*
X152833877Y-100542728D01*
X155076771Y-98322489D01*
X155113759Y-98285875D01*
X155175251Y-98252702D01*
X155200994Y-98250000D01*
X169376000Y-98250000D01*
X169443039Y-98269685D01*
X169488794Y-98322489D01*
X169500000Y-98374000D01*
X169500000Y-138573988D01*
X169499985Y-138575948D01*
X169498692Y-138657724D01*
X169498026Y-138668745D01*
X169415950Y-139448469D01*
X169414650Y-139457563D01*
X169380120Y-139648427D01*
X169377741Y-139658944D01*
X169306333Y-139921069D01*
X169305733Y-139923197D01*
X169252030Y-140107321D01*
X169249346Y-140115464D01*
X169204752Y-140236519D01*
X169198288Y-140251100D01*
X168654842Y-141290736D01*
X168643674Y-141308322D01*
X168180970Y-141917144D01*
X168167865Y-141931810D01*
X167631552Y-142443745D01*
X167617607Y-142455236D01*
X167118979Y-142808430D01*
X167109126Y-142814733D01*
X166936740Y-142913877D01*
X166925642Y-142919538D01*
X166306827Y-143196939D01*
X166292857Y-143202216D01*
X165583362Y-143422404D01*
X165566354Y-143426394D01*
X164932441Y-143528638D01*
X164923469Y-143529751D01*
X164722221Y-143547301D01*
X164712788Y-143547763D01*
X164508240Y-143549973D01*
X164506388Y-143549993D01*
X164505050Y-143550000D01*
X74495035Y-143550000D01*
X74493681Y-143549993D01*
X74492402Y-143549979D01*
X74425031Y-143549242D01*
X74411376Y-143548337D01*
X73410019Y-143426221D01*
X73390310Y-143422173D01*
X72809683Y-143252824D01*
X72790903Y-143245649D01*
X72227152Y-142976029D01*
X72222900Y-142973894D01*
X71758275Y-142729355D01*
X71742473Y-142719454D01*
X71347628Y-142428515D01*
X71341489Y-142423685D01*
X71234978Y-142334311D01*
X71227003Y-142327003D01*
X70878125Y-141978125D01*
X70872101Y-141971655D01*
X70666939Y-141734930D01*
X70554202Y-141604848D01*
X70546324Y-141594749D01*
X70340000Y-141300000D01*
X70211393Y-141116277D01*
X70205593Y-141107170D01*
X70185084Y-141071646D01*
X70182882Y-141067666D01*
X70118535Y-140946122D01*
X69989981Y-140703298D01*
X69987195Y-140697696D01*
X69966736Y-140653821D01*
X69963987Y-140647469D01*
X69826060Y-140302650D01*
X69824073Y-140297335D01*
X69695749Y-139928404D01*
X69693092Y-139919760D01*
X69617595Y-139638000D01*
X69615254Y-139627440D01*
X69614189Y-139621402D01*
X69545389Y-139231218D01*
X69544266Y-139223402D01*
X69534695Y-139137259D01*
X69534418Y-139134467D01*
X69502792Y-138772977D01*
X69502328Y-138763533D01*
X69501294Y-138668745D01*
X69500007Y-138550703D01*
X69500004Y-138550059D01*
X71194652Y-138550059D01*
X71194652Y-138550064D01*
X71214028Y-138907430D01*
X71214029Y-138907447D01*
X71271926Y-139260601D01*
X71271932Y-139260627D01*
X71367672Y-139605454D01*
X71367674Y-139605461D01*
X71500142Y-139937932D01*
X71500151Y-139937950D01*
X71667784Y-140254139D01*
X71667790Y-140254148D01*
X71868634Y-140550371D01*
X71868641Y-140550381D01*
X72100331Y-140823147D01*
X72100332Y-140823148D01*
X72360163Y-141069273D01*
X72360170Y-141069278D01*
X72360172Y-141069280D01*
X72387051Y-141089713D01*
X72645081Y-141285862D01*
X72951747Y-141470377D01*
X72951749Y-141470378D01*
X72951751Y-141470379D01*
X72951755Y-141470381D01*
X73220574Y-141594749D01*
X73276565Y-141620653D01*
X73615726Y-141734930D01*
X73965254Y-141811867D01*
X74321052Y-141850562D01*
X74321058Y-141850562D01*
X74678942Y-141850562D01*
X74678948Y-141850562D01*
X75034746Y-141811867D01*
X75384274Y-141734930D01*
X75723435Y-141620653D01*
X76048253Y-141470377D01*
X76354919Y-141285862D01*
X76639837Y-141069273D01*
X76899668Y-140823148D01*
X77131365Y-140550373D01*
X77332211Y-140254147D01*
X77499853Y-139937942D01*
X77632324Y-139605465D01*
X77728071Y-139260614D01*
X77763339Y-139045487D01*
X77785970Y-138907447D01*
X77785970Y-138907444D01*
X77785972Y-138907433D01*
X77804051Y-138573988D01*
X77805348Y-138550064D01*
X77805348Y-138550059D01*
X77802634Y-138499999D01*
X81124364Y-138499999D01*
X81124364Y-138500000D01*
X82021988Y-138500000D01*
X81989075Y-138557007D01*
X81955000Y-138684174D01*
X81955000Y-138815826D01*
X81989075Y-138942993D01*
X82021988Y-139000000D01*
X81124364Y-139000000D01*
X81181567Y-139213486D01*
X81181570Y-139213492D01*
X81281399Y-139427578D01*
X81416894Y-139621082D01*
X81583917Y-139788105D01*
X81777421Y-139923600D01*
X81991507Y-140023429D01*
X81991516Y-140023433D01*
X82205000Y-140080634D01*
X82205000Y-139183012D01*
X82262007Y-139215925D01*
X82389174Y-139250000D01*
X82520826Y-139250000D01*
X82647993Y-139215925D01*
X82705000Y-139183012D01*
X82705000Y-140080633D01*
X82918483Y-140023433D01*
X82918492Y-140023429D01*
X83132578Y-139923600D01*
X83326082Y-139788105D01*
X83493105Y-139621082D01*
X83623119Y-139435405D01*
X83677696Y-139391781D01*
X83747195Y-139384588D01*
X83809549Y-139416110D01*
X83826269Y-139435405D01*
X83956505Y-139621401D01*
X84123599Y-139788495D01*
X84220384Y-139856265D01*
X84317165Y-139924032D01*
X84317167Y-139924033D01*
X84317170Y-139924035D01*
X84531337Y-140023903D01*
X84759592Y-140085063D01*
X84936034Y-140100500D01*
X84994999Y-140105659D01*
X84995000Y-140105659D01*
X84995001Y-140105659D01*
X85053966Y-140100500D01*
X85230408Y-140085063D01*
X85458663Y-140023903D01*
X85672830Y-139924035D01*
X85866401Y-139788495D01*
X86033495Y-139621401D01*
X86163425Y-139435842D01*
X86218002Y-139392217D01*
X86287500Y-139385023D01*
X86349855Y-139416546D01*
X86366575Y-139435842D01*
X86496281Y-139621082D01*
X86496505Y-139621401D01*
X86663599Y-139788495D01*
X86760384Y-139856265D01*
X86857165Y-139924032D01*
X86857167Y-139924033D01*
X86857170Y-139924035D01*
X87071337Y-140023903D01*
X87299592Y-140085063D01*
X87476034Y-140100500D01*
X87534999Y-140105659D01*
X87535000Y-140105659D01*
X87535001Y-140105659D01*
X87593966Y-140100500D01*
X87770408Y-140085063D01*
X87998663Y-140023903D01*
X88212830Y-139924035D01*
X88406401Y-139788495D01*
X88528329Y-139666566D01*
X88589648Y-139633084D01*
X88659340Y-139638068D01*
X88715274Y-139679939D01*
X88732189Y-139710917D01*
X88781202Y-139842328D01*
X88781206Y-139842335D01*
X88867452Y-139957544D01*
X88867455Y-139957547D01*
X88982664Y-140043793D01*
X88982671Y-140043797D01*
X89117517Y-140094091D01*
X89117516Y-140094091D01*
X89124444Y-140094835D01*
X89177127Y-140100500D01*
X90972872Y-140100499D01*
X91032483Y-140094091D01*
X91167331Y-140043796D01*
X91282546Y-139957546D01*
X91368796Y-139842331D01*
X91419091Y-139707483D01*
X91425500Y-139647873D01*
X91425499Y-138589180D01*
X114620891Y-138589180D01*
X114620891Y-138589193D01*
X114640055Y-138820484D01*
X114640057Y-138820495D01*
X114697033Y-139045487D01*
X114790266Y-139258035D01*
X114917207Y-139452334D01*
X114917210Y-139452338D01*
X114917212Y-139452340D01*
X115074407Y-139623100D01*
X115074410Y-139623102D01*
X115074413Y-139623105D01*
X115257556Y-139765651D01*
X115257562Y-139765655D01*
X115257565Y-139765657D01*
X115461688Y-139876123D01*
X115575678Y-139915255D01*
X115681206Y-139951484D01*
X115681208Y-139951484D01*
X115681210Y-139951485D01*
X115910142Y-139989687D01*
X115910143Y-139989687D01*
X116142239Y-139989687D01*
X116142240Y-139989687D01*
X116371172Y-139951485D01*
X116590694Y-139876123D01*
X116794817Y-139765657D01*
X116977975Y-139623100D01*
X117135170Y-139452340D01*
X117262115Y-139258036D01*
X117355348Y-139045487D01*
X117412325Y-138820492D01*
X117418166Y-138750000D01*
X117431491Y-138589193D01*
X117431491Y-138589180D01*
X124620891Y-138589180D01*
X124620891Y-138589193D01*
X124640055Y-138820484D01*
X124640057Y-138820495D01*
X124697033Y-139045487D01*
X124790266Y-139258035D01*
X124917207Y-139452334D01*
X124917210Y-139452338D01*
X124917212Y-139452340D01*
X125074407Y-139623100D01*
X125074410Y-139623102D01*
X125074413Y-139623105D01*
X125257556Y-139765651D01*
X125257562Y-139765655D01*
X125257565Y-139765657D01*
X125461688Y-139876123D01*
X125575678Y-139915255D01*
X125681206Y-139951484D01*
X125681208Y-139951484D01*
X125681210Y-139951485D01*
X125910142Y-139989687D01*
X125910143Y-139989687D01*
X126142239Y-139989687D01*
X126142240Y-139989687D01*
X126371172Y-139951485D01*
X126590694Y-139876123D01*
X126794817Y-139765657D01*
X126977975Y-139623100D01*
X127135170Y-139452340D01*
X127262115Y-139258036D01*
X127355348Y-139045487D01*
X127412325Y-138820492D01*
X127418166Y-138750000D01*
X127431491Y-138589193D01*
X127431491Y-138589180D01*
X127428249Y-138550059D01*
X161194652Y-138550059D01*
X161194652Y-138550064D01*
X161214028Y-138907430D01*
X161214029Y-138907447D01*
X161271926Y-139260601D01*
X161271932Y-139260627D01*
X161367672Y-139605454D01*
X161367674Y-139605461D01*
X161500142Y-139937932D01*
X161500151Y-139937950D01*
X161667784Y-140254139D01*
X161667790Y-140254148D01*
X161868634Y-140550371D01*
X161868641Y-140550381D01*
X162100331Y-140823147D01*
X162100332Y-140823148D01*
X162360163Y-141069273D01*
X162360170Y-141069278D01*
X162360172Y-141069280D01*
X162387051Y-141089713D01*
X162645081Y-141285862D01*
X162951747Y-141470377D01*
X162951749Y-141470378D01*
X162951751Y-141470379D01*
X162951755Y-141470381D01*
X163220574Y-141594749D01*
X163276565Y-141620653D01*
X163615726Y-141734930D01*
X163965254Y-141811867D01*
X164321052Y-141850562D01*
X164321058Y-141850562D01*
X164678942Y-141850562D01*
X164678948Y-141850562D01*
X165034746Y-141811867D01*
X165384274Y-141734930D01*
X165723435Y-141620653D01*
X166048253Y-141470377D01*
X166354919Y-141285862D01*
X166639837Y-141069273D01*
X166899668Y-140823148D01*
X167131365Y-140550373D01*
X167332211Y-140254147D01*
X167499853Y-139937942D01*
X167632324Y-139605465D01*
X167728071Y-139260614D01*
X167763339Y-139045487D01*
X167785970Y-138907447D01*
X167785970Y-138907444D01*
X167785972Y-138907433D01*
X167804051Y-138573988D01*
X167805348Y-138550064D01*
X167805348Y-138550059D01*
X167799543Y-138442993D01*
X167785972Y-138192691D01*
X167776167Y-138132886D01*
X167728073Y-137839522D01*
X167728072Y-137839521D01*
X167728071Y-137839510D01*
X167654899Y-137575967D01*
X167632327Y-137494669D01*
X167632325Y-137494662D01*
X167624928Y-137476098D01*
X167557448Y-137306734D01*
X167499857Y-137162191D01*
X167499848Y-137162173D01*
X167332215Y-136845984D01*
X167332213Y-136845981D01*
X167332211Y-136845977D01*
X167131365Y-136549751D01*
X167131361Y-136549746D01*
X167131358Y-136549742D01*
X166899668Y-136276976D01*
X166639837Y-136030851D01*
X166639830Y-136030845D01*
X166639827Y-136030843D01*
X166572245Y-135979469D01*
X166354919Y-135814262D01*
X166048253Y-135629747D01*
X166048252Y-135629746D01*
X166048248Y-135629744D01*
X166048244Y-135629742D01*
X165723447Y-135479476D01*
X165723441Y-135479473D01*
X165723435Y-135479471D01*
X165553854Y-135422332D01*
X165384273Y-135365193D01*
X165034744Y-135288256D01*
X164678949Y-135249562D01*
X164678948Y-135249562D01*
X164321052Y-135249562D01*
X164321050Y-135249562D01*
X163965255Y-135288256D01*
X163615726Y-135365193D01*
X163359970Y-135451368D01*
X163276565Y-135479471D01*
X163276563Y-135479472D01*
X163276552Y-135479476D01*
X162951755Y-135629742D01*
X162951751Y-135629744D01*
X162723367Y-135767158D01*
X162645081Y-135814262D01*
X162556768Y-135881395D01*
X162360172Y-136030843D01*
X162360163Y-136030851D01*
X162100331Y-136276976D01*
X161868641Y-136549742D01*
X161868634Y-136549752D01*
X161667790Y-136845975D01*
X161667784Y-136845984D01*
X161500151Y-137162173D01*
X161500142Y-137162191D01*
X161367674Y-137494662D01*
X161367672Y-137494669D01*
X161271932Y-137839496D01*
X161271926Y-137839522D01*
X161214029Y-138192676D01*
X161214028Y-138192689D01*
X161214028Y-138192691D01*
X161208941Y-138286513D01*
X161194652Y-138550059D01*
X127428249Y-138550059D01*
X127412326Y-138357889D01*
X127412324Y-138357878D01*
X127355348Y-138132886D01*
X127262115Y-137920338D01*
X127135174Y-137726039D01*
X127135171Y-137726036D01*
X127135170Y-137726034D01*
X127040386Y-137623071D01*
X127009466Y-137560419D01*
X127017326Y-137490993D01*
X127061474Y-137436838D01*
X127088286Y-137422909D01*
X127168517Y-137392985D01*
X127168517Y-137392984D01*
X127168522Y-137392983D01*
X127283737Y-137306733D01*
X127369987Y-137191518D01*
X127420282Y-137056670D01*
X127426691Y-136997060D01*
X127426690Y-135101315D01*
X127420282Y-135041704D01*
X127369987Y-134906856D01*
X127369986Y-134906855D01*
X127369984Y-134906851D01*
X127283738Y-134791642D01*
X127283735Y-134791639D01*
X127168526Y-134705393D01*
X127168519Y-134705389D01*
X127033673Y-134655095D01*
X127033674Y-134655095D01*
X126974074Y-134648688D01*
X126974072Y-134648687D01*
X126974064Y-134648687D01*
X126974055Y-134648687D01*
X125078320Y-134648687D01*
X125078314Y-134648688D01*
X125018707Y-134655095D01*
X124883862Y-134705389D01*
X124883855Y-134705393D01*
X124768646Y-134791639D01*
X124768643Y-134791642D01*
X124682397Y-134906851D01*
X124682393Y-134906858D01*
X124632099Y-135041704D01*
X124625692Y-135101303D01*
X124625692Y-135101310D01*
X124625691Y-135101322D01*
X124625691Y-136997057D01*
X124625692Y-136997063D01*
X124632099Y-137056670D01*
X124682393Y-137191515D01*
X124682397Y-137191522D01*
X124768643Y-137306731D01*
X124768646Y-137306734D01*
X124883855Y-137392980D01*
X124883864Y-137392985D01*
X124964095Y-137422909D01*
X125020029Y-137464780D01*
X125044447Y-137530244D01*
X125029596Y-137598517D01*
X125011993Y-137623073D01*
X124917210Y-137726036D01*
X124790266Y-137920338D01*
X124697033Y-138132886D01*
X124640057Y-138357878D01*
X124640055Y-138357889D01*
X124620891Y-138589180D01*
X117431491Y-138589180D01*
X117412326Y-138357889D01*
X117412324Y-138357878D01*
X117355348Y-138132886D01*
X117262115Y-137920338D01*
X117135174Y-137726039D01*
X117135171Y-137726036D01*
X117135170Y-137726034D01*
X117040386Y-137623071D01*
X117009466Y-137560419D01*
X117017326Y-137490993D01*
X117061474Y-137436838D01*
X117088286Y-137422909D01*
X117168517Y-137392985D01*
X117168517Y-137392984D01*
X117168522Y-137392983D01*
X117283737Y-137306733D01*
X117369987Y-137191518D01*
X117420282Y-137056670D01*
X117426691Y-136997060D01*
X117426690Y-135101315D01*
X117420282Y-135041704D01*
X117369987Y-134906856D01*
X117369986Y-134906855D01*
X117369984Y-134906851D01*
X117283738Y-134791642D01*
X117283735Y-134791639D01*
X117168526Y-134705393D01*
X117168519Y-134705389D01*
X117033673Y-134655095D01*
X117033674Y-134655095D01*
X116974074Y-134648688D01*
X116974072Y-134648687D01*
X116974064Y-134648687D01*
X116974055Y-134648687D01*
X115078320Y-134648687D01*
X115078314Y-134648688D01*
X115018707Y-134655095D01*
X114883862Y-134705389D01*
X114883855Y-134705393D01*
X114768646Y-134791639D01*
X114768643Y-134791642D01*
X114682397Y-134906851D01*
X114682393Y-134906858D01*
X114632099Y-135041704D01*
X114625692Y-135101303D01*
X114625692Y-135101310D01*
X114625691Y-135101322D01*
X114625691Y-136997057D01*
X114625692Y-136997063D01*
X114632099Y-137056670D01*
X114682393Y-137191515D01*
X114682397Y-137191522D01*
X114768643Y-137306731D01*
X114768646Y-137306734D01*
X114883855Y-137392980D01*
X114883864Y-137392985D01*
X114964095Y-137422909D01*
X115020029Y-137464780D01*
X115044447Y-137530244D01*
X115029596Y-137598517D01*
X115011993Y-137623073D01*
X114917210Y-137726036D01*
X114790266Y-137920338D01*
X114697033Y-138132886D01*
X114640057Y-138357878D01*
X114640055Y-138357889D01*
X114620891Y-138589180D01*
X91425499Y-138589180D01*
X91425499Y-137852128D01*
X91419091Y-137792517D01*
X91417810Y-137789083D01*
X91368797Y-137657671D01*
X91368793Y-137657664D01*
X91282547Y-137542455D01*
X91282544Y-137542452D01*
X91167335Y-137456206D01*
X91167328Y-137456202D01*
X91032482Y-137405908D01*
X91032483Y-137405908D01*
X90972883Y-137399501D01*
X90972881Y-137399500D01*
X90972873Y-137399500D01*
X90972864Y-137399500D01*
X89177129Y-137399500D01*
X89177123Y-137399501D01*
X89117516Y-137405908D01*
X88982671Y-137456202D01*
X88982664Y-137456206D01*
X88867455Y-137542452D01*
X88867452Y-137542455D01*
X88781206Y-137657664D01*
X88781203Y-137657669D01*
X88732189Y-137789083D01*
X88690317Y-137845016D01*
X88624853Y-137869433D01*
X88556580Y-137854581D01*
X88528326Y-137833430D01*
X88406402Y-137711506D01*
X88406395Y-137711501D01*
X88212834Y-137575967D01*
X88212830Y-137575965D01*
X88212828Y-137575964D01*
X87998663Y-137476097D01*
X87998659Y-137476096D01*
X87998655Y-137476094D01*
X87770413Y-137414938D01*
X87770403Y-137414936D01*
X87535001Y-137394341D01*
X87534999Y-137394341D01*
X87299596Y-137414936D01*
X87299586Y-137414938D01*
X87071344Y-137476094D01*
X87071335Y-137476098D01*
X86857171Y-137575964D01*
X86857169Y-137575965D01*
X86663597Y-137711505D01*
X86496505Y-137878597D01*
X86366575Y-138064158D01*
X86311998Y-138107783D01*
X86242500Y-138114977D01*
X86180145Y-138083454D01*
X86163425Y-138064158D01*
X86033494Y-137878597D01*
X85866402Y-137711506D01*
X85866395Y-137711501D01*
X85672834Y-137575967D01*
X85672830Y-137575965D01*
X85672828Y-137575964D01*
X85458663Y-137476097D01*
X85458659Y-137476096D01*
X85458655Y-137476094D01*
X85230413Y-137414938D01*
X85230403Y-137414936D01*
X84995001Y-137394341D01*
X84994999Y-137394341D01*
X84759596Y-137414936D01*
X84759586Y-137414938D01*
X84531344Y-137476094D01*
X84531335Y-137476098D01*
X84317171Y-137575964D01*
X84317169Y-137575965D01*
X84123597Y-137711505D01*
X83956508Y-137878594D01*
X83826269Y-138064595D01*
X83771692Y-138108219D01*
X83702193Y-138115412D01*
X83639839Y-138083890D01*
X83623119Y-138064594D01*
X83493113Y-137878926D01*
X83493108Y-137878920D01*
X83326082Y-137711894D01*
X83132578Y-137576399D01*
X82918492Y-137476570D01*
X82918486Y-137476567D01*
X82705000Y-137419364D01*
X82705000Y-138316988D01*
X82647993Y-138284075D01*
X82520826Y-138250000D01*
X82389174Y-138250000D01*
X82262007Y-138284075D01*
X82205000Y-138316988D01*
X82205000Y-137419364D01*
X82204999Y-137419364D01*
X81991513Y-137476567D01*
X81991507Y-137476570D01*
X81777422Y-137576399D01*
X81777420Y-137576400D01*
X81583926Y-137711886D01*
X81583920Y-137711891D01*
X81416891Y-137878920D01*
X81416886Y-137878926D01*
X81281400Y-138072420D01*
X81281399Y-138072422D01*
X81181570Y-138286507D01*
X81181567Y-138286513D01*
X81124364Y-138499999D01*
X77802634Y-138499999D01*
X77799543Y-138442993D01*
X77785972Y-138192691D01*
X77776167Y-138132886D01*
X77728073Y-137839522D01*
X77728072Y-137839521D01*
X77728071Y-137839510D01*
X77654899Y-137575967D01*
X77632327Y-137494669D01*
X77632325Y-137494662D01*
X77624928Y-137476098D01*
X77557448Y-137306734D01*
X77499857Y-137162191D01*
X77499848Y-137162173D01*
X77332215Y-136845984D01*
X77332213Y-136845981D01*
X77332211Y-136845977D01*
X77131365Y-136549751D01*
X77131361Y-136549746D01*
X77131358Y-136549742D01*
X76899668Y-136276976D01*
X76639837Y-136030851D01*
X76639830Y-136030845D01*
X76639827Y-136030843D01*
X76572245Y-135979469D01*
X76354919Y-135814262D01*
X76048253Y-135629747D01*
X76048252Y-135629746D01*
X76048248Y-135629744D01*
X76048244Y-135629742D01*
X75723447Y-135479476D01*
X75723441Y-135479473D01*
X75723435Y-135479471D01*
X75553854Y-135422332D01*
X75384273Y-135365193D01*
X75034744Y-135288256D01*
X74678949Y-135249562D01*
X74678948Y-135249562D01*
X74321052Y-135249562D01*
X74321050Y-135249562D01*
X73965255Y-135288256D01*
X73615726Y-135365193D01*
X73359970Y-135451368D01*
X73276565Y-135479471D01*
X73276563Y-135479472D01*
X73276552Y-135479476D01*
X72951755Y-135629742D01*
X72951751Y-135629744D01*
X72723367Y-135767158D01*
X72645081Y-135814262D01*
X72556768Y-135881395D01*
X72360172Y-136030843D01*
X72360163Y-136030851D01*
X72100331Y-136276976D01*
X71868641Y-136549742D01*
X71868634Y-136549752D01*
X71667790Y-136845975D01*
X71667784Y-136845984D01*
X71500151Y-137162173D01*
X71500142Y-137162191D01*
X71367674Y-137494662D01*
X71367672Y-137494669D01*
X71271932Y-137839496D01*
X71271926Y-137839522D01*
X71214029Y-138192676D01*
X71214028Y-138192689D01*
X71214028Y-138192691D01*
X71208941Y-138286513D01*
X71194652Y-138550059D01*
X69500004Y-138550059D01*
X69500000Y-138549351D01*
X69500000Y-129075000D01*
X72397520Y-129075000D01*
X72417299Y-129320023D01*
X72417300Y-129320027D01*
X72476128Y-129558701D01*
X72572063Y-129783872D01*
X72572483Y-129784856D01*
X72688005Y-129967538D01*
X72703870Y-129992626D01*
X72866875Y-130176621D01*
X72866879Y-130176625D01*
X72936771Y-130233689D01*
X73057292Y-130332092D01*
X73057294Y-130332093D01*
X73057301Y-130332098D01*
X73255071Y-130446280D01*
X73270180Y-130455003D01*
X73500028Y-130542173D01*
X73594449Y-130561448D01*
X73740875Y-130591342D01*
X73740880Y-130591342D01*
X73740883Y-130591343D01*
X73814569Y-130594312D01*
X73986498Y-130601242D01*
X73986499Y-130601242D01*
X73986500Y-130601241D01*
X73986505Y-130601242D01*
X74195673Y-130575844D01*
X74230536Y-130571611D01*
X74309519Y-130548733D01*
X74466652Y-130503219D01*
X74688740Y-130397837D01*
X74891048Y-130258194D01*
X75068336Y-130087907D01*
X75216011Y-129891386D01*
X75330251Y-129673721D01*
X75408095Y-129440550D01*
X75429143Y-129311036D01*
X75447526Y-129197920D01*
X75447526Y-129197917D01*
X75447527Y-129197911D01*
X75450000Y-129075000D01*
X75447527Y-128952089D01*
X75447526Y-128952082D01*
X75447526Y-128952079D01*
X75408095Y-128709450D01*
X75408095Y-128709449D01*
X75330251Y-128476280D01*
X75330250Y-128476276D01*
X75271923Y-128365144D01*
X75216011Y-128258614D01*
X75216008Y-128258610D01*
X75216007Y-128258608D01*
X75068334Y-128062090D01*
X74891053Y-127891810D01*
X74891049Y-127891807D01*
X74688743Y-127752164D01*
X74526122Y-127675000D01*
X74466652Y-127646781D01*
X74466649Y-127646780D01*
X74466646Y-127646779D01*
X74230536Y-127578388D01*
X73986498Y-127548757D01*
X73740886Y-127558656D01*
X73740875Y-127558657D01*
X73500030Y-127607826D01*
X73270178Y-127694997D01*
X73057301Y-127817901D01*
X73057294Y-127817906D01*
X72866879Y-127973374D01*
X72866875Y-127973378D01*
X72703870Y-128157373D01*
X72572481Y-128365147D01*
X72476128Y-128591298D01*
X72417300Y-128829972D01*
X72417299Y-128829976D01*
X72397520Y-129075000D01*
X69500000Y-129075000D01*
X69500000Y-98075000D01*
X72397520Y-98075000D01*
X72417299Y-98320023D01*
X72417300Y-98320027D01*
X72476128Y-98558701D01*
X72476129Y-98558704D01*
X72572483Y-98784856D01*
X72703867Y-98992622D01*
X72703870Y-98992626D01*
X72866875Y-99176621D01*
X72866877Y-99176623D01*
X73057292Y-99332092D01*
X73057294Y-99332093D01*
X73057301Y-99332098D01*
X73270178Y-99455002D01*
X73270180Y-99455003D01*
X73500028Y-99542173D01*
X73594449Y-99561448D01*
X73740875Y-99591342D01*
X73740880Y-99591342D01*
X73740883Y-99591343D01*
X73814569Y-99594312D01*
X73986498Y-99601242D01*
X73986499Y-99601242D01*
X73986500Y-99601241D01*
X73986505Y-99601242D01*
X74195673Y-99575844D01*
X74230536Y-99571611D01*
X74297090Y-99552332D01*
X74466652Y-99503219D01*
X74688740Y-99397837D01*
X74891048Y-99258194D01*
X75068336Y-99087907D01*
X75216011Y-98891386D01*
X75330251Y-98673721D01*
X75408095Y-98440550D01*
X75418910Y-98374000D01*
X75447526Y-98197920D01*
X75447526Y-98197917D01*
X75447527Y-98197911D01*
X75450000Y-98075000D01*
X75447527Y-97952089D01*
X75447526Y-97952082D01*
X75447526Y-97952079D01*
X75408095Y-97709450D01*
X75408095Y-97709449D01*
X75330251Y-97476280D01*
X75330250Y-97476276D01*
X75271923Y-97365144D01*
X75216011Y-97258614D01*
X75216008Y-97258610D01*
X75216007Y-97258608D01*
X75068334Y-97062090D01*
X74891053Y-96891810D01*
X74891049Y-96891807D01*
X74688743Y-96752164D01*
X74568265Y-96694997D01*
X74466652Y-96646781D01*
X74466649Y-96646780D01*
X74466646Y-96646779D01*
X74230536Y-96578388D01*
X73986498Y-96548757D01*
X73740886Y-96558656D01*
X73740875Y-96558657D01*
X73500030Y-96607826D01*
X73270178Y-96694997D01*
X73057301Y-96817901D01*
X73057294Y-96817906D01*
X72866879Y-96973374D01*
X72866875Y-96973378D01*
X72703870Y-97157373D01*
X72572481Y-97365147D01*
X72476128Y-97591298D01*
X72417300Y-97829972D01*
X72417299Y-97829976D01*
X72397520Y-98075000D01*
X69500000Y-98075000D01*
X69500000Y-88575059D01*
X71194652Y-88575059D01*
X71194652Y-88575064D01*
X71214028Y-88932430D01*
X71214029Y-88932447D01*
X71271926Y-89285601D01*
X71271932Y-89285627D01*
X71367672Y-89630454D01*
X71367674Y-89630461D01*
X71500142Y-89962932D01*
X71500151Y-89962950D01*
X71667784Y-90279139D01*
X71667787Y-90279144D01*
X71667789Y-90279147D01*
X71748209Y-90397758D01*
X71868634Y-90575371D01*
X71868641Y-90575381D01*
X72048024Y-90786566D01*
X72100332Y-90848148D01*
X72360163Y-91094273D01*
X72360170Y-91094278D01*
X72360172Y-91094280D01*
X72387051Y-91114713D01*
X72645081Y-91310862D01*
X72951747Y-91495377D01*
X72951749Y-91495378D01*
X72951751Y-91495379D01*
X72951755Y-91495381D01*
X73217792Y-91618462D01*
X73276565Y-91645653D01*
X73615726Y-91759930D01*
X73965254Y-91836867D01*
X74321052Y-91875562D01*
X74321058Y-91875562D01*
X74678942Y-91875562D01*
X74678948Y-91875562D01*
X75034746Y-91836867D01*
X75384274Y-91759930D01*
X75723435Y-91645653D01*
X76048253Y-91495377D01*
X76354919Y-91310862D01*
X76639837Y-91094273D01*
X76899668Y-90848148D01*
X77131365Y-90575373D01*
X77332211Y-90279147D01*
X77499853Y-89962942D01*
X77632324Y-89630465D01*
X77728071Y-89285614D01*
X77785972Y-88932433D01*
X77805348Y-88575062D01*
X77785972Y-88217691D01*
X77734913Y-87906247D01*
X77728073Y-87864522D01*
X77728072Y-87864521D01*
X77728071Y-87864510D01*
X77687626Y-87718840D01*
X77632327Y-87519669D01*
X77632325Y-87519662D01*
X77631980Y-87518797D01*
X77530258Y-87263493D01*
X77499857Y-87187191D01*
X77499848Y-87187173D01*
X77451720Y-87096395D01*
X77349101Y-86902834D01*
X77332215Y-86870984D01*
X77332213Y-86870981D01*
X77332211Y-86870977D01*
X77131365Y-86574751D01*
X77131361Y-86574746D01*
X77131358Y-86574742D01*
X76899668Y-86301976D01*
X76852006Y-86256828D01*
X76639837Y-86055851D01*
X76639830Y-86055845D01*
X76639827Y-86055843D01*
X76494254Y-85945182D01*
X76354919Y-85839262D01*
X76048253Y-85654747D01*
X76048252Y-85654746D01*
X76048248Y-85654744D01*
X76048244Y-85654742D01*
X75723447Y-85504476D01*
X75723441Y-85504473D01*
X75723435Y-85504471D01*
X75553854Y-85447332D01*
X75384273Y-85390193D01*
X75097797Y-85327135D01*
X79849500Y-85327135D01*
X79849500Y-87122870D01*
X79849501Y-87122876D01*
X79855908Y-87182483D01*
X79906202Y-87317328D01*
X79906206Y-87317335D01*
X79992452Y-87432544D01*
X79992455Y-87432547D01*
X80107664Y-87518793D01*
X80107671Y-87518797D01*
X80242517Y-87569091D01*
X80242516Y-87569091D01*
X80249444Y-87569835D01*
X80302127Y-87575500D01*
X82097872Y-87575499D01*
X82157483Y-87569091D01*
X82292331Y-87518796D01*
X82407546Y-87432546D01*
X82493796Y-87317331D01*
X82542810Y-87185916D01*
X82584681Y-87129984D01*
X82650145Y-87105566D01*
X82718418Y-87120417D01*
X82746673Y-87141569D01*
X82868599Y-87263495D01*
X82965384Y-87331265D01*
X83062165Y-87399032D01*
X83062167Y-87399033D01*
X83062170Y-87399035D01*
X83276337Y-87498903D01*
X83504592Y-87560063D01*
X83681034Y-87575500D01*
X83739999Y-87580659D01*
X83740000Y-87580659D01*
X83740001Y-87580659D01*
X83798966Y-87575500D01*
X83975408Y-87560063D01*
X84203663Y-87498903D01*
X84417830Y-87399035D01*
X84611401Y-87263495D01*
X84778495Y-87096401D01*
X84914035Y-86902830D01*
X85013903Y-86688663D01*
X85075063Y-86460408D01*
X85095659Y-86225000D01*
X85075063Y-85989592D01*
X85013903Y-85761337D01*
X84914035Y-85547171D01*
X84884137Y-85504471D01*
X84778494Y-85353597D01*
X84752032Y-85327135D01*
X86299500Y-85327135D01*
X86299500Y-87122870D01*
X86299501Y-87122876D01*
X86305908Y-87182483D01*
X86356202Y-87317328D01*
X86356206Y-87317335D01*
X86442452Y-87432544D01*
X86442455Y-87432547D01*
X86557664Y-87518793D01*
X86557671Y-87518797D01*
X86692517Y-87569091D01*
X86692516Y-87569091D01*
X86699444Y-87569835D01*
X86752127Y-87575500D01*
X88547872Y-87575499D01*
X88607483Y-87569091D01*
X88742331Y-87518796D01*
X88857546Y-87432546D01*
X88943796Y-87317331D01*
X88992810Y-87185916D01*
X89034681Y-87129984D01*
X89100145Y-87105566D01*
X89168418Y-87120417D01*
X89196673Y-87141569D01*
X89318599Y-87263495D01*
X89415384Y-87331265D01*
X89512165Y-87399032D01*
X89512167Y-87399033D01*
X89512170Y-87399035D01*
X89726337Y-87498903D01*
X89954592Y-87560063D01*
X90131034Y-87575500D01*
X90189999Y-87580659D01*
X90190000Y-87580659D01*
X90190001Y-87580659D01*
X90248966Y-87575500D01*
X90425408Y-87560063D01*
X90653663Y-87498903D01*
X90867830Y-87399035D01*
X91061401Y-87263495D01*
X91228495Y-87096401D01*
X91364035Y-86902830D01*
X91463903Y-86688663D01*
X91525063Y-86460408D01*
X91545659Y-86225000D01*
X91525063Y-85989592D01*
X91463903Y-85761337D01*
X91364035Y-85547171D01*
X91334137Y-85504471D01*
X91228494Y-85353597D01*
X91061402Y-85186506D01*
X91061395Y-85186501D01*
X90867834Y-85050967D01*
X90867830Y-85050965D01*
X90867828Y-85050964D01*
X90653663Y-84951097D01*
X90653659Y-84951096D01*
X90653655Y-84951094D01*
X90425413Y-84889938D01*
X90425403Y-84889936D01*
X90190001Y-84869341D01*
X90189999Y-84869341D01*
X89954596Y-84889936D01*
X89954586Y-84889938D01*
X89726344Y-84951094D01*
X89726335Y-84951098D01*
X89512171Y-85050964D01*
X89512169Y-85050965D01*
X89318600Y-85186503D01*
X89196673Y-85308430D01*
X89135350Y-85341914D01*
X89065658Y-85336930D01*
X89009725Y-85295058D01*
X88992810Y-85264081D01*
X88943797Y-85132671D01*
X88943793Y-85132664D01*
X88857547Y-85017455D01*
X88857544Y-85017452D01*
X88742335Y-84931206D01*
X88742328Y-84931202D01*
X88607482Y-84880908D01*
X88607483Y-84880908D01*
X88547883Y-84874501D01*
X88547881Y-84874500D01*
X88547873Y-84874500D01*
X88547864Y-84874500D01*
X86752129Y-84874500D01*
X86752123Y-84874501D01*
X86692516Y-84880908D01*
X86557671Y-84931202D01*
X86557664Y-84931206D01*
X86442455Y-85017452D01*
X86442452Y-85017455D01*
X86356206Y-85132664D01*
X86356202Y-85132671D01*
X86305908Y-85267517D01*
X86299501Y-85327116D01*
X86299500Y-85327135D01*
X84752032Y-85327135D01*
X84611402Y-85186506D01*
X84611395Y-85186501D01*
X84417834Y-85050967D01*
X84417830Y-85050965D01*
X84417828Y-85050964D01*
X84203663Y-84951097D01*
X84203659Y-84951096D01*
X84203655Y-84951094D01*
X83975413Y-84889938D01*
X83975403Y-84889936D01*
X83740001Y-84869341D01*
X83739999Y-84869341D01*
X83504596Y-84889936D01*
X83504586Y-84889938D01*
X83276344Y-84951094D01*
X83276335Y-84951098D01*
X83062171Y-85050964D01*
X83062169Y-85050965D01*
X82868600Y-85186503D01*
X82746673Y-85308430D01*
X82685350Y-85341914D01*
X82615658Y-85336930D01*
X82559725Y-85295058D01*
X82542810Y-85264081D01*
X82493797Y-85132671D01*
X82493793Y-85132664D01*
X82407547Y-85017455D01*
X82407544Y-85017452D01*
X82292335Y-84931206D01*
X82292328Y-84931202D01*
X82157482Y-84880908D01*
X82157483Y-84880908D01*
X82097883Y-84874501D01*
X82097881Y-84874500D01*
X82097873Y-84874500D01*
X82097864Y-84874500D01*
X80302129Y-84874500D01*
X80302123Y-84874501D01*
X80242516Y-84880908D01*
X80107671Y-84931202D01*
X80107664Y-84931206D01*
X79992455Y-85017452D01*
X79992452Y-85017455D01*
X79906206Y-85132664D01*
X79906202Y-85132671D01*
X79855908Y-85267517D01*
X79849501Y-85327116D01*
X79849500Y-85327135D01*
X75097797Y-85327135D01*
X75034744Y-85313256D01*
X74678949Y-85274562D01*
X74678948Y-85274562D01*
X74321052Y-85274562D01*
X74321050Y-85274562D01*
X73965255Y-85313256D01*
X73615726Y-85390193D01*
X73359970Y-85476368D01*
X73276565Y-85504471D01*
X73276563Y-85504472D01*
X73276552Y-85504476D01*
X72951755Y-85654742D01*
X72951751Y-85654744D01*
X72755849Y-85772615D01*
X72645081Y-85839262D01*
X72560309Y-85903704D01*
X72360172Y-86055843D01*
X72360163Y-86055851D01*
X72100331Y-86301976D01*
X71868641Y-86574742D01*
X71868634Y-86574752D01*
X71667790Y-86870975D01*
X71667784Y-86870984D01*
X71500151Y-87187173D01*
X71500142Y-87187191D01*
X71367674Y-87519662D01*
X71367672Y-87519669D01*
X71271932Y-87864496D01*
X71271926Y-87864522D01*
X71214029Y-88217676D01*
X71214028Y-88217693D01*
X71194652Y-88575059D01*
X69500000Y-88575059D01*
X69500000Y-88554119D01*
X69500275Y-88545871D01*
X69542916Y-87906247D01*
X69544619Y-87892446D01*
X69610605Y-87527715D01*
X69611560Y-87522972D01*
X69632282Y-87429725D01*
X69633681Y-87424068D01*
X69640502Y-87399032D01*
X69733740Y-87056783D01*
X69737017Y-87046535D01*
X69773084Y-86948627D01*
X69774840Y-86944133D01*
X69997468Y-86406116D01*
X70003170Y-86394184D01*
X70248081Y-85945182D01*
X70249725Y-85942267D01*
X70286857Y-85878446D01*
X70292667Y-85869389D01*
X70357104Y-85777958D01*
X70361092Y-85772615D01*
X70671494Y-85379439D01*
X70678890Y-85370904D01*
X71146538Y-84878644D01*
X71153741Y-84871652D01*
X71376575Y-84672273D01*
X71379722Y-84669554D01*
X71458835Y-84603471D01*
X71467375Y-84596946D01*
X71815392Y-84354270D01*
X71824452Y-84348521D01*
X72192244Y-84136994D01*
X72201782Y-84132047D01*
X72492524Y-83996963D01*
X72502636Y-83992797D01*
X73105696Y-83775025D01*
X73115794Y-83771860D01*
X73209263Y-83746899D01*
X73261426Y-83732969D01*
X73269101Y-83731179D01*
X73429997Y-83699000D01*
X73794052Y-83626189D01*
X73806024Y-83624397D01*
X74235285Y-83581471D01*
X74236353Y-83581371D01*
X74277800Y-83577757D01*
X74287204Y-83577298D01*
X74499352Y-83575007D01*
X74500691Y-83575000D01*
X92451000Y-83575000D01*
X92518039Y-83594685D01*
G37*
%TD.AperFunction*%
%TD*%
M02*
