%TF.GenerationSoftware,KiCad,Pcbnew,8.0.5*%
%TF.CreationDate,2024-10-31T00:03:13+01:00*%
%TF.ProjectId,HotPlate_Soldering,486f7450-6c61-4746-955f-536f6c646572,rev?*%
%TF.SameCoordinates,Original*%
%TF.FileFunction,Soldermask,Top*%
%TF.FilePolarity,Negative*%
%FSLAX46Y46*%
G04 Gerber Fmt 4.6, Leading zero omitted, Abs format (unit mm)*
G04 Created by KiCad (PCBNEW 8.0.5) date 2024-10-31 00:03:13*
%MOMM*%
%LPD*%
G01*
G04 APERTURE LIST*
G04 Aperture macros list*
%AMRoundRect*
0 Rectangle with rounded corners*
0 $1 Rounding radius*
0 $2 $3 $4 $5 $6 $7 $8 $9 X,Y pos of 4 corners*
0 Add a 4 corners polygon primitive as box body*
4,1,4,$2,$3,$4,$5,$6,$7,$8,$9,$2,$3,0*
0 Add four circle primitives for the rounded corners*
1,1,$1+$1,$2,$3*
1,1,$1+$1,$4,$5*
1,1,$1+$1,$6,$7*
1,1,$1+$1,$8,$9*
0 Add four rect primitives between the rounded corners*
20,1,$1+$1,$2,$3,$4,$5,0*
20,1,$1+$1,$4,$5,$6,$7,0*
20,1,$1+$1,$6,$7,$8,$9,0*
20,1,$1+$1,$8,$9,$2,$3,0*%
G04 Aperture macros list end*
%ADD10RoundRect,0.250000X-0.450000X0.262500X-0.450000X-0.262500X0.450000X-0.262500X0.450000X0.262500X0*%
%ADD11RoundRect,0.250000X0.450000X-0.262500X0.450000X0.262500X-0.450000X0.262500X-0.450000X-0.262500X0*%
%ADD12O,2.400000X2.400000*%
%ADD13C,2.400000*%
%ADD14O,1.700000X2.000000*%
%ADD15R,1.700000X2.000000*%
%ADD16RoundRect,0.250000X0.337500X0.475000X-0.337500X0.475000X-0.337500X-0.475000X0.337500X-0.475000X0*%
%ADD17RoundRect,0.250000X-0.262500X-0.450000X0.262500X-0.450000X0.262500X0.450000X-0.262500X0.450000X0*%
%ADD18RoundRect,0.250000X0.475000X-0.337500X0.475000X0.337500X-0.475000X0.337500X-0.475000X-0.337500X0*%
%ADD19RoundRect,0.250000X-0.337500X-0.475000X0.337500X-0.475000X0.337500X0.475000X-0.337500X0.475000X0*%
%ADD20C,5.600000*%
%ADD21R,2.000000X2.000000*%
%ADD22O,2.000000X2.000000*%
%ADD23O,2.000000X1.905000*%
%ADD24R,2.000000X1.905000*%
%ADD25C,1.800000*%
%ADD26R,1.800000X1.800000*%
%ADD27O,1.700000X1.700000*%
%ADD28R,1.700000X1.700000*%
%ADD29C,2.109000*%
%ADD30RoundRect,0.250000X0.450000X-0.350000X0.450000X0.350000X-0.450000X0.350000X-0.450000X-0.350000X0*%
%ADD31C,2.800000*%
%ADD32R,2.800000X2.800000*%
%ADD33R,1.550000X1.300000*%
%ADD34O,1.600000X1.600000*%
%ADD35R,1.600000X1.600000*%
G04 APERTURE END LIST*
D10*
%TO.C,R3*%
X101675000Y-117137500D03*
X101675000Y-118962500D03*
%TD*%
D11*
%TO.C,R2*%
X101700000Y-120737500D03*
X101700000Y-122562500D03*
%TD*%
D12*
%TO.C,R1*%
X96480000Y-111025000D03*
D13*
X124420000Y-111025000D03*
%TD*%
D14*
%TO.C,PS1*%
X164725000Y-112250000D03*
X164725000Y-130250000D03*
X131125000Y-118250000D03*
D15*
X131125000Y-124250000D03*
%TD*%
D16*
%TO.C,C6*%
X87187500Y-97200000D03*
X89262500Y-97200000D03*
%TD*%
D17*
%TO.C,R17*%
X161350000Y-127300000D03*
X159525000Y-127300000D03*
%TD*%
D18*
%TO.C,C2*%
X153937500Y-121362500D03*
X153937500Y-123437500D03*
%TD*%
D19*
%TO.C,C1*%
X84187500Y-97175000D03*
X82112500Y-97175000D03*
%TD*%
D20*
%TO.C,REF\u002A\u002A*%
X74500000Y-88575062D03*
%TD*%
D21*
%TO.C,D1*%
X121825000Y-125645000D03*
D22*
X121825000Y-120565000D03*
X116745000Y-120565000D03*
X116745000Y-125645000D03*
%TD*%
D11*
%TO.C,R9*%
X122050000Y-99387500D03*
X122050000Y-101212500D03*
%TD*%
D20*
%TO.C,*%
X164500000Y-88575000D03*
%TD*%
D23*
%TO.C,Q1*%
X106500000Y-92380000D03*
X106500000Y-89840000D03*
D24*
X106500000Y-87300000D03*
%TD*%
D10*
%TO.C,R6*%
X92775000Y-101237500D03*
X92775000Y-99412500D03*
%TD*%
D25*
%TO.C,D2*%
X116026191Y-138589187D03*
D26*
X116026191Y-136049187D03*
%TD*%
D27*
%TO.C,J1*%
X90190000Y-86225000D03*
D28*
X87650000Y-86225000D03*
%TD*%
D27*
%TO.C,J7*%
X82455000Y-138750000D03*
X84995000Y-138750000D03*
X87535000Y-138750000D03*
D28*
X90075000Y-138750000D03*
%TD*%
D11*
%TO.C,R13*%
X139695000Y-99417500D03*
X139695000Y-101242500D03*
%TD*%
D29*
%TO.C,U2*%
X75065000Y-105680000D03*
X90305000Y-120920000D03*
X87765000Y-120920000D03*
X85225000Y-120920000D03*
X82685000Y-120920000D03*
X80145000Y-120920000D03*
X77605000Y-120920000D03*
X75065000Y-120920000D03*
X72525000Y-105680000D03*
X72525000Y-120920000D03*
X80145000Y-105680000D03*
X77605000Y-105680000D03*
X82685000Y-105680000D03*
X85225000Y-105680000D03*
X87765000Y-105680000D03*
X90305000Y-105680000D03*
%TD*%
D30*
%TO.C,R19*%
X111501191Y-136349187D03*
X111501191Y-138349187D03*
%TD*%
D31*
%TO.C,J4*%
X118980000Y-87990000D03*
D32*
X113900000Y-87990000D03*
%TD*%
D31*
%TO.C,J6*%
X149920000Y-87990000D03*
D32*
X155000000Y-87990000D03*
%TD*%
D20*
%TO.C,*%
X164500000Y-138550062D03*
%TD*%
%TO.C,*%
X74500000Y-138550062D03*
%TD*%
D17*
%TO.C,R21*%
X161362500Y-99025000D03*
X159537500Y-99025000D03*
%TD*%
D33*
%TO.C,SW1*%
X164455000Y-106175000D03*
X156495000Y-106175000D03*
X164455000Y-101675000D03*
X156495000Y-101675000D03*
%TD*%
D23*
%TO.C,Q2*%
X124500000Y-92380000D03*
X124500000Y-89840000D03*
D24*
X124500000Y-87300000D03*
%TD*%
D30*
%TO.C,R20*%
X121551191Y-138274187D03*
X121551191Y-136274187D03*
%TD*%
D10*
%TO.C,R5*%
X81716668Y-94687500D03*
X81716668Y-92862500D03*
%TD*%
D26*
%TO.C,D3*%
X126026191Y-136049187D03*
D25*
X126026191Y-138589187D03*
%TD*%
D31*
%TO.C,J3*%
X100980000Y-87990000D03*
D32*
X95900000Y-87990000D03*
%TD*%
D34*
%TO.C,U3*%
X95775000Y-93280000D03*
X98315000Y-93280000D03*
X100855000Y-93280000D03*
X100855000Y-100900000D03*
X98315000Y-100900000D03*
D35*
X95775000Y-100900000D03*
%TD*%
D27*
%TO.C,J2*%
X83740000Y-86225000D03*
D28*
X81200000Y-86225000D03*
%TD*%
D10*
%TO.C,R8*%
X111275000Y-101237500D03*
X111275000Y-99412500D03*
%TD*%
D33*
%TO.C,SW3*%
X164417500Y-124675000D03*
X156457500Y-124675000D03*
X164417500Y-120175000D03*
X156457500Y-120175000D03*
%TD*%
D23*
%TO.C,Q3*%
X142500000Y-92380000D03*
X142500000Y-89840000D03*
D24*
X142500000Y-87300000D03*
%TD*%
D10*
%TO.C,R11*%
X128995000Y-101242500D03*
X128995000Y-99417500D03*
%TD*%
D34*
%TO.C,U4*%
X114150000Y-93280000D03*
X116690000Y-93280000D03*
X119230000Y-93280000D03*
X119230000Y-100900000D03*
X116690000Y-100900000D03*
D35*
X114150000Y-100900000D03*
%TD*%
D31*
%TO.C,J5*%
X136980000Y-87990000D03*
D32*
X131900000Y-87990000D03*
%TD*%
D10*
%TO.C,R4*%
X87050000Y-94687500D03*
X87050000Y-92862500D03*
%TD*%
D11*
%TO.C,R15*%
X89716668Y-92862500D03*
X89716668Y-94687500D03*
%TD*%
D18*
%TO.C,C7*%
X153900000Y-102887500D03*
X153900000Y-104962500D03*
%TD*%
D34*
%TO.C,U1*%
X104180000Y-125550000D03*
X104180000Y-123010000D03*
X104180000Y-120470000D03*
X111800000Y-120470000D03*
X111800000Y-123010000D03*
D35*
X111800000Y-125550000D03*
%TD*%
D11*
%TO.C,R7*%
X103750000Y-99412500D03*
X103750000Y-101237500D03*
%TD*%
D34*
%TO.C,U5*%
X131825000Y-93275000D03*
X134365000Y-93275000D03*
X136905000Y-93275000D03*
X136905000Y-100895000D03*
X134365000Y-100895000D03*
D35*
X131825000Y-100895000D03*
%TD*%
D11*
%TO.C,R16*%
X84383334Y-92862500D03*
X84383334Y-94687500D03*
%TD*%
M02*
