%TF.GenerationSoftware,KiCad,Pcbnew,8.0.5*%
%TF.CreationDate,2024-10-31T00:03:13+01:00*%
%TF.ProjectId,HotPlate_Soldering,486f7450-6c61-4746-955f-536f6c646572,rev?*%
%TF.SameCoordinates,Original*%
%TF.FileFunction,Copper,L1,Top*%
%TF.FilePolarity,Positive*%
%FSLAX46Y46*%
G04 Gerber Fmt 4.6, Leading zero omitted, Abs format (unit mm)*
G04 Created by KiCad (PCBNEW 8.0.5) date 2024-10-31 00:03:13*
%MOMM*%
%LPD*%
G01*
G04 APERTURE LIST*
G04 Aperture macros list*
%AMRoundRect*
0 Rectangle with rounded corners*
0 $1 Rounding radius*
0 $2 $3 $4 $5 $6 $7 $8 $9 X,Y pos of 4 corners*
0 Add a 4 corners polygon primitive as box body*
4,1,4,$2,$3,$4,$5,$6,$7,$8,$9,$2,$3,0*
0 Add four circle primitives for the rounded corners*
1,1,$1+$1,$2,$3*
1,1,$1+$1,$4,$5*
1,1,$1+$1,$6,$7*
1,1,$1+$1,$8,$9*
0 Add four rect primitives between the rounded corners*
20,1,$1+$1,$2,$3,$4,$5,0*
20,1,$1+$1,$4,$5,$6,$7,0*
20,1,$1+$1,$6,$7,$8,$9,0*
20,1,$1+$1,$8,$9,$2,$3,0*%
G04 Aperture macros list end*
%TA.AperFunction,SMDPad,CuDef*%
%ADD10RoundRect,0.250000X-0.450000X0.262500X-0.450000X-0.262500X0.450000X-0.262500X0.450000X0.262500X0*%
%TD*%
%TA.AperFunction,SMDPad,CuDef*%
%ADD11RoundRect,0.250000X0.450000X-0.262500X0.450000X0.262500X-0.450000X0.262500X-0.450000X-0.262500X0*%
%TD*%
%TA.AperFunction,ComponentPad*%
%ADD12O,2.400000X2.400000*%
%TD*%
%TA.AperFunction,ComponentPad*%
%ADD13C,2.400000*%
%TD*%
%TA.AperFunction,ComponentPad*%
%ADD14O,1.700000X2.000000*%
%TD*%
%TA.AperFunction,ComponentPad*%
%ADD15R,1.700000X2.000000*%
%TD*%
%TA.AperFunction,SMDPad,CuDef*%
%ADD16RoundRect,0.250000X0.337500X0.475000X-0.337500X0.475000X-0.337500X-0.475000X0.337500X-0.475000X0*%
%TD*%
%TA.AperFunction,SMDPad,CuDef*%
%ADD17RoundRect,0.250000X-0.262500X-0.450000X0.262500X-0.450000X0.262500X0.450000X-0.262500X0.450000X0*%
%TD*%
%TA.AperFunction,SMDPad,CuDef*%
%ADD18RoundRect,0.250000X0.475000X-0.337500X0.475000X0.337500X-0.475000X0.337500X-0.475000X-0.337500X0*%
%TD*%
%TA.AperFunction,SMDPad,CuDef*%
%ADD19RoundRect,0.250000X-0.337500X-0.475000X0.337500X-0.475000X0.337500X0.475000X-0.337500X0.475000X0*%
%TD*%
%TA.AperFunction,ComponentPad*%
%ADD20C,5.600000*%
%TD*%
%TA.AperFunction,ComponentPad*%
%ADD21R,2.000000X2.000000*%
%TD*%
%TA.AperFunction,ComponentPad*%
%ADD22O,2.000000X2.000000*%
%TD*%
%TA.AperFunction,ComponentPad*%
%ADD23O,2.000000X1.905000*%
%TD*%
%TA.AperFunction,ComponentPad*%
%ADD24R,2.000000X1.905000*%
%TD*%
%TA.AperFunction,ComponentPad*%
%ADD25C,1.800000*%
%TD*%
%TA.AperFunction,ComponentPad*%
%ADD26R,1.800000X1.800000*%
%TD*%
%TA.AperFunction,ComponentPad*%
%ADD27O,1.700000X1.700000*%
%TD*%
%TA.AperFunction,ComponentPad*%
%ADD28R,1.700000X1.700000*%
%TD*%
%TA.AperFunction,ComponentPad*%
%ADD29C,1.905000*%
%TD*%
%TA.AperFunction,SMDPad,CuDef*%
%ADD30RoundRect,0.250000X0.450000X-0.350000X0.450000X0.350000X-0.450000X0.350000X-0.450000X-0.350000X0*%
%TD*%
%TA.AperFunction,ComponentPad*%
%ADD31C,2.800000*%
%TD*%
%TA.AperFunction,ComponentPad*%
%ADD32R,2.800000X2.800000*%
%TD*%
%TA.AperFunction,SMDPad,CuDef*%
%ADD33R,1.550000X1.300000*%
%TD*%
%TA.AperFunction,ComponentPad*%
%ADD34O,1.600000X1.600000*%
%TD*%
%TA.AperFunction,ComponentPad*%
%ADD35R,1.600000X1.600000*%
%TD*%
%TA.AperFunction,ViaPad*%
%ADD36C,0.800000*%
%TD*%
%TA.AperFunction,Conductor*%
%ADD37C,0.400000*%
%TD*%
%TA.AperFunction,Conductor*%
%ADD38C,0.250000*%
%TD*%
%TA.AperFunction,Conductor*%
%ADD39C,1.000000*%
%TD*%
%TA.AperFunction,Conductor*%
%ADD40C,1.500000*%
%TD*%
%TA.AperFunction,Conductor*%
%ADD41C,0.500000*%
%TD*%
G04 APERTURE END LIST*
D10*
%TO.P,R3,1*%
%TO.N,GND*%
X101675000Y-117137500D03*
%TO.P,R3,2*%
%TO.N,Net-(R3-Pad2)*%
X101675000Y-118962500D03*
%TD*%
D11*
%TO.P,R2,2*%
%TO.N,+3.3V*%
X101700000Y-120737500D03*
%TO.P,R2,1*%
%TO.N,Zero_Cross_pin*%
X101700000Y-122562500D03*
%TD*%
D12*
%TO.P,R1,2*%
%TO.N,Net-(D1-Pad2)*%
X96480000Y-111025000D03*
D13*
%TO.P,R1,1*%
%TO.N,NEUT*%
X124420000Y-111025000D03*
%TD*%
D14*
%TO.P,PS1,4,+Vout*%
%TO.N,+5V*%
X164725000Y-112250000D03*
%TO.P,PS1,3,-Vout*%
%TO.N,GND*%
X164725000Y-130250000D03*
%TO.P,PS1,2,AC/N*%
%TO.N,NEUT*%
X131125000Y-118250000D03*
D15*
%TO.P,PS1,1,AC/L*%
%TO.N,LINE*%
X131125000Y-124250000D03*
%TD*%
D16*
%TO.P,C6,2*%
%TO.N,NTC_1*%
X87187500Y-97200000D03*
%TO.P,C6,1*%
%TO.N,GND*%
X89262500Y-97200000D03*
%TD*%
D17*
%TO.P,R17,2*%
%TO.N,GND*%
X161350000Y-127300000D03*
%TO.P,R17,1*%
%TO.N,Button_2*%
X159525000Y-127300000D03*
%TD*%
D18*
%TO.P,C2,2*%
%TO.N,+3.3V*%
X153937500Y-121362500D03*
%TO.P,C2,1*%
%TO.N,Button_2*%
X153937500Y-123437500D03*
%TD*%
D19*
%TO.P,C1,2*%
%TO.N,NTC_2*%
X84187500Y-97175000D03*
%TO.P,C1,1*%
%TO.N,GND*%
X82112500Y-97175000D03*
%TD*%
D20*
%TO.P,REF\u002A\u002A,1*%
%TO.N,N/C*%
X74500000Y-88575062D03*
%TD*%
D21*
%TO.P,D1,1,+*%
%TO.N,Net-(D1-+)*%
X121825000Y-125645000D03*
D22*
%TO.P,D1,2*%
%TO.N,Net-(D1-Pad2)*%
X121825000Y-120565000D03*
%TO.P,D1,3,-*%
%TO.N,GNDD*%
X116745000Y-120565000D03*
%TO.P,D1,4*%
%TO.N,LINE*%
X116745000Y-125645000D03*
%TD*%
D11*
%TO.P,R9,2*%
%TO.N,LINE*%
X122050000Y-99387500D03*
%TO.P,R9,1*%
%TO.N,Net-(R9-Pad1)*%
X122050000Y-101212500D03*
%TD*%
D20*
%TO.P,,1*%
%TO.N,N/C*%
X164500000Y-88575000D03*
%TD*%
D23*
%TO.P,Q1,3,G*%
%TO.N,Net-(Q1-G)*%
X106500000Y-92380000D03*
%TO.P,Q1,2,A2*%
%TO.N,LINE*%
X106500000Y-89840000D03*
D24*
%TO.P,Q1,1,A1*%
%TO.N,Net-(J3-Pin_2)*%
X106500000Y-87300000D03*
%TD*%
D10*
%TO.P,R6,2*%
%TO.N,GND*%
X92775000Y-101237500D03*
%TO.P,R6,1*%
%TO.N,Net-(R6-Pad1)*%
X92775000Y-99412500D03*
%TD*%
D25*
%TO.P,D2,2,A*%
%TO.N,LED_1*%
X116026191Y-138589187D03*
D26*
%TO.P,D2,1,K*%
%TO.N,Net-(D2-K)*%
X116026191Y-136049187D03*
%TD*%
D27*
%TO.P,J1,2,Pin_2*%
%TO.N,Net-(J1-Pin_2)*%
X90190000Y-86225000D03*
D28*
%TO.P,J1,1,Pin_1*%
%TO.N,+3.3V*%
X87650000Y-86225000D03*
%TD*%
D27*
%TO.P,J7,4,Pin_4*%
%TO.N,GND*%
X82455000Y-138750000D03*
%TO.P,J7,3,Pin_3*%
%TO.N,SDA*%
X84995000Y-138750000D03*
%TO.P,J7,2,Pin_2*%
%TO.N,SCL*%
X87535000Y-138750000D03*
D28*
%TO.P,J7,1,Pin_1*%
%TO.N,+5V*%
X90075000Y-138750000D03*
%TD*%
D11*
%TO.P,R13,2*%
%TO.N,LINE*%
X139695000Y-99417500D03*
%TO.P,R13,1*%
%TO.N,Net-(R13-Pad1)*%
X139695000Y-101242500D03*
%TD*%
D29*
%TO.P,U2,G,GND*%
%TO.N,GND*%
X75065000Y-105680000D03*
%TO.P,U2,21,GPIO21*%
%TO.N,unconnected-(U2-GPIO21-Pad21)*%
X90305000Y-120920000D03*
%TO.P,U2,20,GPIO20*%
%TO.N,LED_2*%
X87765000Y-120920000D03*
%TO.P,U2,10,GPIO10*%
%TO.N,LED_1*%
X85225000Y-120920000D03*
%TO.P,U2,9,GPIO9*%
%TO.N,SCL*%
X82685000Y-120920000D03*
%TO.P,U2,8,GPIO8*%
%TO.N,SDA*%
X80145000Y-120920000D03*
%TO.P,U2,7,GPIO7*%
%TO.N,Button_2*%
X77605000Y-120920000D03*
%TO.P,U2,6,GPIO6*%
%TO.N,Button_1*%
X75065000Y-120920000D03*
%TO.P,U2,5V,5V*%
%TO.N,+5V*%
X72525000Y-105680000D03*
%TO.P,U2,5,GPIO5*%
%TO.N,Cera_3*%
X72525000Y-120920000D03*
%TO.P,U2,4,GPIO4*%
%TO.N,Cera_2*%
X80145000Y-105680000D03*
%TO.P,U2,3.3,3V3*%
%TO.N,+3.3V*%
X77605000Y-105680000D03*
%TO.P,U2,3,GPIO3*%
%TO.N,Cera_1*%
X82685000Y-105680000D03*
%TO.P,U2,2,GPIO2*%
%TO.N,Zero_Cross_pin*%
X85225000Y-105680000D03*
%TO.P,U2,1,GPIO1*%
%TO.N,NTC_2*%
X87765000Y-105680000D03*
%TO.P,U2,0,GPIO0*%
%TO.N,NTC_1*%
X90305000Y-105680000D03*
%TD*%
D30*
%TO.P,R19,2*%
%TO.N,Net-(D2-K)*%
X111501191Y-136349187D03*
%TO.P,R19,1*%
%TO.N,GND*%
X111501191Y-138349187D03*
%TD*%
D31*
%TO.P,J4,2,Pin_2*%
%TO.N,Net-(J4-Pin_2)*%
X118980000Y-87990000D03*
D32*
%TO.P,J4,1,Pin_1*%
%TO.N,NEUT*%
X113900000Y-87990000D03*
%TD*%
D31*
%TO.P,J6,2,Pin_2*%
%TO.N,NEUT*%
X149920000Y-87990000D03*
D32*
%TO.P,J6,1,Pin_1*%
%TO.N,LINE*%
X155000000Y-87990000D03*
%TD*%
D20*
%TO.P,,1*%
%TO.N,N/C*%
X164500000Y-138550062D03*
%TD*%
%TO.P,,1*%
%TO.N,N/C*%
X74500000Y-138550062D03*
%TD*%
D17*
%TO.P,R21,2*%
%TO.N,GND*%
X161362500Y-99025000D03*
%TO.P,R21,1*%
%TO.N,Button_1*%
X159537500Y-99025000D03*
%TD*%
D33*
%TO.P,SW1,2,2*%
%TO.N,Button_1*%
X164455000Y-106175000D03*
X156495000Y-106175000D03*
%TO.P,SW1,1,1*%
%TO.N,+3.3V*%
X164455000Y-101675000D03*
X156495000Y-101675000D03*
%TD*%
D23*
%TO.P,Q2,3,G*%
%TO.N,Net-(Q2-G)*%
X124500000Y-92380000D03*
%TO.P,Q2,2,A2*%
%TO.N,LINE*%
X124500000Y-89840000D03*
D24*
%TO.P,Q2,1,A1*%
%TO.N,Net-(J4-Pin_2)*%
X124500000Y-87300000D03*
%TD*%
D30*
%TO.P,R20,1*%
%TO.N,GND*%
X121551191Y-138274187D03*
%TO.P,R20,2*%
%TO.N,Net-(D3-K)*%
X121551191Y-136274187D03*
%TD*%
D10*
%TO.P,R5,2*%
%TO.N,GND*%
X81716668Y-94687500D03*
%TO.P,R5,1*%
%TO.N,Net-(J2-Pin_2)*%
X81716668Y-92862500D03*
%TD*%
D26*
%TO.P,D3,1,K*%
%TO.N,Net-(D3-K)*%
X126026191Y-136049187D03*
D25*
%TO.P,D3,2,A*%
%TO.N,LED_2*%
X126026191Y-138589187D03*
%TD*%
D31*
%TO.P,J3,2,Pin_2*%
%TO.N,Net-(J3-Pin_2)*%
X100980000Y-87990000D03*
D32*
%TO.P,J3,1,Pin_1*%
%TO.N,NEUT*%
X95900000Y-87990000D03*
%TD*%
D34*
%TO.P,U3,6*%
%TO.N,Net-(R7-Pad1)*%
X95775000Y-93280000D03*
%TO.P,U3,5,NC*%
%TO.N,unconnected-(U3-NC-Pad5)*%
X98315000Y-93280000D03*
%TO.P,U3,4*%
%TO.N,Net-(Q1-G)*%
X100855000Y-93280000D03*
%TO.P,U3,3,NC*%
%TO.N,unconnected-(U3-NC-Pad3)*%
X100855000Y-100900000D03*
%TO.P,U3,2*%
%TO.N,Net-(R6-Pad1)*%
X98315000Y-100900000D03*
D35*
%TO.P,U3,1*%
%TO.N,Cera_1*%
X95775000Y-100900000D03*
%TD*%
D27*
%TO.P,J2,2,Pin_2*%
%TO.N,Net-(J2-Pin_2)*%
X83740000Y-86225000D03*
D28*
%TO.P,J2,1,Pin_1*%
%TO.N,+3.3V*%
X81200000Y-86225000D03*
%TD*%
D10*
%TO.P,R8,2*%
%TO.N,GND*%
X111275000Y-101237500D03*
%TO.P,R8,1*%
%TO.N,Net-(R8-Pad1)*%
X111275000Y-99412500D03*
%TD*%
D33*
%TO.P,SW3,2,2*%
%TO.N,Button_2*%
X164417500Y-124675000D03*
X156457500Y-124675000D03*
%TO.P,SW3,1,1*%
%TO.N,+3.3V*%
X164417500Y-120175000D03*
X156457500Y-120175000D03*
%TD*%
D23*
%TO.P,Q3,3,G*%
%TO.N,Net-(Q3-G)*%
X142500000Y-92380000D03*
%TO.P,Q3,2,A2*%
%TO.N,LINE*%
X142500000Y-89840000D03*
D24*
%TO.P,Q3,1,A1*%
%TO.N,Net-(J5-Pin_2)*%
X142500000Y-87300000D03*
%TD*%
D10*
%TO.P,R11,2*%
%TO.N,GND*%
X128995000Y-101242500D03*
%TO.P,R11,1*%
%TO.N,Net-(R11-Pad1)*%
X128995000Y-99417500D03*
%TD*%
D34*
%TO.P,U4,6*%
%TO.N,Net-(R9-Pad1)*%
X114150000Y-93280000D03*
%TO.P,U4,5,NC*%
%TO.N,unconnected-(U4-NC-Pad5)*%
X116690000Y-93280000D03*
%TO.P,U4,4*%
%TO.N,Net-(Q2-G)*%
X119230000Y-93280000D03*
%TO.P,U4,3,NC*%
%TO.N,unconnected-(U4-NC-Pad3)*%
X119230000Y-100900000D03*
%TO.P,U4,2*%
%TO.N,Net-(R8-Pad1)*%
X116690000Y-100900000D03*
D35*
%TO.P,U4,1*%
%TO.N,Cera_2*%
X114150000Y-100900000D03*
%TD*%
D31*
%TO.P,J5,2,Pin_2*%
%TO.N,Net-(J5-Pin_2)*%
X136980000Y-87990000D03*
D32*
%TO.P,J5,1,Pin_1*%
%TO.N,NEUT*%
X131900000Y-87990000D03*
%TD*%
D10*
%TO.P,R4,2*%
%TO.N,GND*%
X87050000Y-94687500D03*
%TO.P,R4,1*%
%TO.N,Net-(J1-Pin_2)*%
X87050000Y-92862500D03*
%TD*%
D11*
%TO.P,R15,2*%
%TO.N,Net-(J1-Pin_2)*%
X89716668Y-92862500D03*
%TO.P,R15,1*%
%TO.N,NTC_1*%
X89716668Y-94687500D03*
%TD*%
D18*
%TO.P,C7,2*%
%TO.N,+3.3V*%
X153900000Y-102887500D03*
%TO.P,C7,1*%
%TO.N,Button_1*%
X153900000Y-104962500D03*
%TD*%
D34*
%TO.P,U1,6*%
%TO.N,unconnected-(U1-Pad6)*%
X104180000Y-125550000D03*
%TO.P,U1,5*%
%TO.N,Zero_Cross_pin*%
X104180000Y-123010000D03*
%TO.P,U1,4*%
%TO.N,Net-(R3-Pad2)*%
X104180000Y-120470000D03*
%TO.P,U1,3,NC*%
%TO.N,unconnected-(U1-NC-Pad3)*%
X111800000Y-120470000D03*
%TO.P,U1,2*%
%TO.N,GNDD*%
X111800000Y-123010000D03*
D35*
%TO.P,U1,1*%
%TO.N,Net-(D1-+)*%
X111800000Y-125550000D03*
%TD*%
D11*
%TO.P,R7,2*%
%TO.N,LINE*%
X103750000Y-99412500D03*
%TO.P,R7,1*%
%TO.N,Net-(R7-Pad1)*%
X103750000Y-101237500D03*
%TD*%
D34*
%TO.P,U5,6*%
%TO.N,Net-(R13-Pad1)*%
X131825000Y-93275000D03*
%TO.P,U5,5,NC*%
%TO.N,unconnected-(U5-NC-Pad5)*%
X134365000Y-93275000D03*
%TO.P,U5,4*%
%TO.N,Net-(Q3-G)*%
X136905000Y-93275000D03*
%TO.P,U5,3,NC*%
%TO.N,unconnected-(U5-NC-Pad3)*%
X136905000Y-100895000D03*
%TO.P,U5,2*%
%TO.N,Net-(R11-Pad1)*%
X134365000Y-100895000D03*
D35*
%TO.P,U5,1*%
%TO.N,Cera_3*%
X131825000Y-100895000D03*
%TD*%
D11*
%TO.P,R16,2*%
%TO.N,Net-(J2-Pin_2)*%
X84383334Y-92862500D03*
%TO.P,R16,1*%
%TO.N,NTC_2*%
X84383334Y-94687500D03*
%TD*%
D36*
%TO.N,GND*%
X125775000Y-98750000D03*
X133191187Y-97797588D03*
X96800000Y-97800000D03*
X108600000Y-98375000D03*
X91400000Y-97100000D03*
X89025000Y-101400000D03*
X86500000Y-89375000D03*
X72879728Y-93413995D03*
X160475000Y-103925000D03*
X167625000Y-99775000D03*
X167725000Y-105475000D03*
X104700000Y-116450000D03*
X132175000Y-106050000D03*
X116775000Y-106075000D03*
X101675000Y-105800000D03*
X75100000Y-101925000D03*
X81275000Y-101175000D03*
X76125000Y-110525000D03*
X86000000Y-113975000D03*
X72500000Y-133900000D03*
X76350000Y-126225000D03*
X81125000Y-126700000D03*
X87225000Y-128825000D03*
X98600000Y-128850000D03*
X96875000Y-137225000D03*
X106575000Y-136600000D03*
X142482045Y-128093914D03*
X148950000Y-119250000D03*
X160500000Y-114675000D03*
X155325000Y-129725000D03*
X154125000Y-137250000D03*
X136250000Y-137325000D03*
X145825000Y-137350000D03*
%TO.N,+3.3V*%
X158525000Y-120125000D03*
X106175000Y-122600000D03*
X158575000Y-105175000D03*
%TD*%
D37*
%TO.N,Net-(R3-Pad2)*%
X103182500Y-120470000D02*
X101675000Y-118962500D01*
X104180000Y-120470000D02*
X103182500Y-120470000D01*
%TO.N,GND*%
X161362500Y-99025000D02*
X166875000Y-99025000D01*
X166875000Y-99025000D02*
X167625000Y-99775000D01*
X91300000Y-97200000D02*
X91400000Y-97100000D01*
X89262500Y-97200000D02*
X91300000Y-97200000D01*
%TO.N,LED_2*%
X116950000Y-133525000D02*
X100370000Y-133525000D01*
X118225000Y-134800000D02*
X116950000Y-133525000D01*
X118964187Y-139889187D02*
X118225000Y-139150000D01*
X124726191Y-139889187D02*
X118964187Y-139889187D01*
X126026191Y-138589187D02*
X124726191Y-139889187D01*
X118225000Y-139150000D02*
X118225000Y-134800000D01*
X100370000Y-133525000D02*
X87765000Y-120920000D01*
%TO.N,LED_1*%
X104305000Y-140000000D02*
X114615378Y-140000000D01*
X114615378Y-140000000D02*
X116026191Y-138589187D01*
X85225000Y-120920000D02*
X104305000Y-140000000D01*
%TO.N,Net-(D3-K)*%
X125801191Y-136274187D02*
X126026191Y-136049187D01*
X121551191Y-136274187D02*
X125801191Y-136274187D01*
%TO.N,Net-(D2-K)*%
X115726191Y-136349187D02*
X116026191Y-136049187D01*
X111501191Y-136349187D02*
X115726191Y-136349187D01*
%TO.N,+3.3V*%
X158575000Y-120175000D02*
X158525000Y-120125000D01*
X164417500Y-120175000D02*
X158575000Y-120175000D01*
D38*
X156275000Y-120175000D02*
X155087500Y-121362500D01*
X155087500Y-121362500D02*
X153937500Y-121362500D01*
X156457500Y-120175000D02*
X156275000Y-120175000D01*
X156507500Y-120125000D02*
X156457500Y-120175000D01*
X158525000Y-120125000D02*
X156507500Y-120125000D01*
X102557500Y-121595000D02*
X101700000Y-120737500D01*
X105170000Y-121595000D02*
X102557500Y-121595000D01*
X106175000Y-122600000D02*
X105170000Y-121595000D01*
%TO.N,Zero_Cross_pin*%
X85225000Y-106087500D02*
X85225000Y-105680000D01*
X101700000Y-122562500D02*
X85225000Y-106087500D01*
X103732500Y-122562500D02*
X104180000Y-123010000D01*
X101700000Y-122562500D02*
X103732500Y-122562500D01*
%TO.N,+3.3V*%
X156287500Y-102887500D02*
X158575000Y-105175000D01*
X153900000Y-102887500D02*
X156287500Y-102887500D01*
D39*
%TO.N,+5V*%
X167375000Y-114900000D02*
X164725000Y-112250000D01*
X167375000Y-130125000D02*
X167375000Y-114900000D01*
X92825000Y-141500000D02*
X156000000Y-141500000D01*
X156000000Y-141500000D02*
X167375000Y-130125000D01*
X90075000Y-138750000D02*
X92825000Y-141500000D01*
X87400000Y-141425000D02*
X90075000Y-138750000D01*
X79025000Y-139225000D02*
X81225000Y-141425000D01*
X79025000Y-137051102D02*
X79025000Y-139225000D01*
X70700000Y-128726102D02*
X79025000Y-137051102D01*
X81225000Y-141425000D02*
X87400000Y-141425000D01*
X70700000Y-107505000D02*
X70700000Y-128726102D01*
X72525000Y-105680000D02*
X70700000Y-107505000D01*
D40*
%TO.N,Net-(D1-+)*%
X111800000Y-126975000D02*
X111800000Y-125550000D01*
X112825000Y-128000000D02*
X111800000Y-126975000D01*
X119470000Y-128000000D02*
X112825000Y-128000000D01*
X121825000Y-125645000D02*
X119470000Y-128000000D01*
%TO.N,GNDD*%
X114245000Y-120565000D02*
X111800000Y-123010000D01*
X116745000Y-120565000D02*
X114245000Y-120565000D01*
%TO.N,Net-(D1-Pad2)*%
X117425000Y-111025000D02*
X121825000Y-115425000D01*
X96480000Y-111025000D02*
X117425000Y-111025000D01*
X121825000Y-115425000D02*
X121825000Y-120565000D01*
%TO.N,LINE*%
X118695000Y-123695000D02*
X116745000Y-125645000D01*
X131125000Y-124250000D02*
X130570000Y-123695000D01*
X130570000Y-123695000D02*
X118695000Y-123695000D01*
D38*
%TO.N,Button_2*%
X91613604Y-118550000D02*
X79975000Y-118550000D01*
X103638604Y-130575000D02*
X91613604Y-118550000D01*
X133561396Y-130575000D02*
X103638604Y-130575000D01*
X139461396Y-124675000D02*
X133561396Y-130575000D01*
X156457500Y-124675000D02*
X139461396Y-124675000D01*
X79975000Y-118550000D02*
X77605000Y-120920000D01*
%TO.N,Button_1*%
X133375000Y-130125000D02*
X156495000Y-107005000D01*
X103825000Y-130125000D02*
X133375000Y-130125000D01*
X77885000Y-118100000D02*
X91800000Y-118100000D01*
X156495000Y-107005000D02*
X156495000Y-106175000D01*
X91800000Y-118100000D02*
X103825000Y-130125000D01*
X75065000Y-120920000D02*
X77885000Y-118100000D01*
D40*
%TO.N,LINE*%
X143415000Y-89840000D02*
X142500000Y-89840000D01*
X144900000Y-94200000D02*
X144900000Y-91325000D01*
X139695000Y-99405000D02*
X144900000Y-94200000D01*
X139695000Y-99417500D02*
X139695000Y-99405000D01*
X144900000Y-91325000D02*
X143415000Y-89840000D01*
X126900000Y-91425000D02*
X125315000Y-89840000D01*
X122050000Y-99275000D02*
X126900000Y-94425000D01*
X125315000Y-89840000D02*
X124500000Y-89840000D01*
X122050000Y-99387500D02*
X122050000Y-99275000D01*
X126900000Y-94425000D02*
X126900000Y-91425000D01*
X108825000Y-91125000D02*
X107540000Y-89840000D01*
X108825000Y-94325000D02*
X108825000Y-91125000D01*
X107540000Y-89840000D02*
X106500000Y-89840000D01*
X103750000Y-99400000D02*
X108825000Y-94325000D01*
X103750000Y-99412500D02*
X103750000Y-99400000D01*
D41*
%TO.N,Net-(R13-Pad1)*%
X132225000Y-93675000D02*
X131825000Y-93275000D01*
X132425000Y-94625000D02*
X132225000Y-94425000D01*
X132425000Y-94647233D02*
X132425000Y-94625000D01*
X139020267Y-101242500D02*
X132425000Y-94647233D01*
X139695000Y-101242500D02*
X139020267Y-101242500D01*
X132225000Y-94425000D02*
X132225000Y-93675000D01*
%TO.N,Net-(R9-Pad1)*%
X114675000Y-93805000D02*
X114150000Y-93280000D01*
X114697767Y-94600000D02*
X114675000Y-94600000D01*
X121310267Y-101212500D02*
X114697767Y-94600000D01*
X114675000Y-94600000D02*
X114675000Y-93805000D01*
X122050000Y-101212500D02*
X121310267Y-101212500D01*
%TO.N,Net-(R7-Pad1)*%
X96025000Y-93530000D02*
X95775000Y-93280000D01*
X96025000Y-94302233D02*
X96025000Y-93530000D01*
X102960267Y-101237500D02*
X96025000Y-94302233D01*
X103750000Y-101237500D02*
X102960267Y-101237500D01*
D37*
%TO.N,+3.3V*%
X86400000Y-84975000D02*
X87650000Y-86225000D01*
X82450000Y-84975000D02*
X86400000Y-84975000D01*
X81200000Y-86225000D02*
X82450000Y-84975000D01*
X77605000Y-91970000D02*
X81200000Y-88375000D01*
X81200000Y-88375000D02*
X81200000Y-86225000D01*
X77605000Y-105680000D02*
X77605000Y-91970000D01*
D38*
%TO.N,Button_2*%
X162150000Y-124675000D02*
X164417500Y-124675000D01*
X159525000Y-127300000D02*
X162150000Y-124675000D01*
X156900000Y-124675000D02*
X156457500Y-124675000D01*
X159525000Y-127300000D02*
X156900000Y-124675000D01*
X155220000Y-123437500D02*
X156457500Y-124675000D01*
X153937500Y-123437500D02*
X155220000Y-123437500D01*
%TO.N,SDA*%
X80145000Y-120920000D02*
X80145000Y-133900000D01*
X80145000Y-133900000D02*
X84995000Y-138750000D01*
%TO.N,SCL*%
X82685000Y-133900000D02*
X87535000Y-138750000D01*
X82685000Y-120920000D02*
X82685000Y-133900000D01*
D39*
%TO.N,Net-(Q3-G)*%
X137800000Y-92380000D02*
X136905000Y-93275000D01*
X142500000Y-92380000D02*
X137800000Y-92380000D01*
%TO.N,Net-(Q2-G)*%
X120130000Y-92380000D02*
X119230000Y-93280000D01*
X124500000Y-92380000D02*
X120130000Y-92380000D01*
%TO.N,Net-(Q1-G)*%
X101755000Y-92380000D02*
X100855000Y-93280000D01*
X106500000Y-92380000D02*
X101755000Y-92380000D01*
D40*
%TO.N,Net-(J5-Pin_2)*%
X137670000Y-87300000D02*
X136980000Y-87990000D01*
X142500000Y-87300000D02*
X137670000Y-87300000D01*
%TO.N,Net-(J4-Pin_2)*%
X119670000Y-87300000D02*
X118980000Y-87990000D01*
X124500000Y-87300000D02*
X119670000Y-87300000D01*
%TO.N,Net-(J3-Pin_2)*%
X101670000Y-87300000D02*
X100980000Y-87990000D01*
X106500000Y-87300000D02*
X101670000Y-87300000D01*
D38*
%TO.N,Net-(R11-Pad1)*%
X132887500Y-99417500D02*
X134365000Y-100895000D01*
X128995000Y-99417500D02*
X132887500Y-99417500D01*
%TO.N,Net-(R8-Pad1)*%
X115202500Y-99412500D02*
X116690000Y-100900000D01*
X111275000Y-99412500D02*
X115202500Y-99412500D01*
%TO.N,Net-(R6-Pad1)*%
X96827500Y-99412500D02*
X98315000Y-100900000D01*
X92775000Y-99412500D02*
X96827500Y-99412500D01*
%TO.N,Net-(J2-Pin_2)*%
X84383334Y-86868334D02*
X83740000Y-86225000D01*
X84383334Y-92862500D02*
X84383334Y-86868334D01*
X84383334Y-92862500D02*
X81716668Y-92862500D01*
%TO.N,Net-(J1-Pin_2)*%
X89716668Y-86698332D02*
X90190000Y-86225000D01*
X89716668Y-92862500D02*
X89716668Y-86698332D01*
X87050000Y-92862500D02*
X89716668Y-92862500D01*
%TO.N,NTC_1*%
X87204168Y-97200000D02*
X89716668Y-94687500D01*
X87187500Y-97200000D02*
X87204168Y-97200000D01*
%TO.N,NTC_2*%
X84187500Y-94883334D02*
X84383334Y-94687500D01*
X84187500Y-97175000D02*
X84187500Y-94883334D01*
X87765000Y-100752500D02*
X84187500Y-97175000D01*
X87765000Y-105680000D02*
X87765000Y-100752500D01*
%TO.N,NTC_1*%
X90305000Y-100317500D02*
X87187500Y-97200000D01*
X90305000Y-105680000D02*
X90305000Y-100317500D01*
%TO.N,+3.3V*%
X155282500Y-102887500D02*
X156495000Y-101675000D01*
X153900000Y-102887500D02*
X155282500Y-102887500D01*
X156495000Y-101675000D02*
X164455000Y-101675000D01*
%TO.N,Button_1*%
X166425000Y-101200000D02*
X166425000Y-104205000D01*
X159537500Y-99025000D02*
X160587500Y-100075000D01*
X160587500Y-100075000D02*
X165300000Y-100075000D01*
X165300000Y-100075000D02*
X166425000Y-101200000D01*
X166425000Y-104205000D02*
X164455000Y-106175000D01*
X164455000Y-106175000D02*
X156495000Y-106175000D01*
X156495000Y-106175000D02*
X155112500Y-106175000D01*
X155112500Y-106175000D02*
X153900000Y-104962500D01*
%TO.N,+3.3V*%
X106175000Y-122600000D02*
X106175000Y-122605991D01*
X104555991Y-124225000D02*
X101550000Y-124225000D01*
X106175000Y-122605991D02*
X104555991Y-124225000D01*
X101550000Y-124225000D02*
X84925000Y-107600000D01*
X84925000Y-107600000D02*
X79525000Y-107600000D01*
X79525000Y-107600000D02*
X77605000Y-105680000D01*
%TD*%
%TA.AperFunction,Conductor*%
%TO.N,LINE*%
G36*
X145600000Y-91200000D02*
G01*
X143528393Y-91200000D01*
X143461354Y-91180315D01*
X143415599Y-91127511D01*
X143405655Y-91058353D01*
X143434680Y-90994797D01*
X143455508Y-90975682D01*
X143493736Y-90947907D01*
X143493742Y-90947902D01*
X143655402Y-90786242D01*
X143789788Y-90601276D01*
X143893582Y-90397570D01*
X143964234Y-90180128D01*
X143978509Y-90090000D01*
X142990748Y-90090000D01*
X143012518Y-90052292D01*
X143050000Y-89912409D01*
X143050000Y-89767591D01*
X143012518Y-89627708D01*
X142990748Y-89590000D01*
X143978509Y-89590000D01*
X143964234Y-89499871D01*
X143893582Y-89282429D01*
X143789788Y-89078723D01*
X143656988Y-88895940D01*
X143633508Y-88830133D01*
X143649333Y-88762079D01*
X143699439Y-88713384D01*
X143713966Y-88706875D01*
X143742331Y-88696296D01*
X143857546Y-88610046D01*
X143943796Y-88494831D01*
X143994091Y-88359983D01*
X144000500Y-88300373D01*
X144000499Y-86299628D01*
X143994091Y-86240017D01*
X143991270Y-86232454D01*
X143943797Y-86105171D01*
X143943793Y-86105164D01*
X143857547Y-85989955D01*
X143857544Y-85989952D01*
X143742335Y-85903706D01*
X143742328Y-85903702D01*
X143607482Y-85853408D01*
X143607483Y-85853408D01*
X143547883Y-85847001D01*
X143547881Y-85847000D01*
X143547873Y-85847000D01*
X143547864Y-85847000D01*
X141452129Y-85847000D01*
X141452123Y-85847001D01*
X141392516Y-85853408D01*
X141257671Y-85903702D01*
X141257664Y-85903706D01*
X141142455Y-85989952D01*
X141142454Y-85989953D01*
X141135076Y-85999810D01*
X141079143Y-86041682D01*
X141035809Y-86049500D01*
X137571578Y-86049500D01*
X137377176Y-86080290D01*
X137377175Y-86080290D01*
X137329106Y-86095909D01*
X137329101Y-86095911D01*
X137314757Y-86100571D01*
X137255713Y-86103530D01*
X137255550Y-86104670D01*
X137251160Y-86104039D01*
X136980001Y-86084645D01*
X136979999Y-86084645D01*
X136708839Y-86104039D01*
X136708832Y-86104040D01*
X136443206Y-86161823D01*
X136443202Y-86161824D01*
X136443199Y-86161825D01*
X136315843Y-86209326D01*
X136188480Y-86256830D01*
X135949892Y-86387109D01*
X135949891Y-86387110D01*
X135732259Y-86550028D01*
X135732247Y-86550038D01*
X135540038Y-86742247D01*
X135540028Y-86742259D01*
X135377110Y-86959891D01*
X135377109Y-86959892D01*
X135246830Y-87198480D01*
X135205108Y-87310343D01*
X135151825Y-87453199D01*
X135151824Y-87453202D01*
X135151823Y-87453206D01*
X135094040Y-87718832D01*
X135094039Y-87718839D01*
X135074645Y-87989998D01*
X135074645Y-87990001D01*
X135094039Y-88261160D01*
X135094040Y-88261167D01*
X135144870Y-88494831D01*
X135151825Y-88526801D01*
X135215043Y-88696295D01*
X135246830Y-88781519D01*
X135377109Y-89020107D01*
X135377110Y-89020108D01*
X135377113Y-89020113D01*
X135540029Y-89237742D01*
X135540033Y-89237746D01*
X135540038Y-89237752D01*
X135732247Y-89429961D01*
X135732253Y-89429966D01*
X135732258Y-89429971D01*
X135949887Y-89592887D01*
X135949891Y-89592889D01*
X135949892Y-89592890D01*
X136188481Y-89723169D01*
X136188480Y-89723169D01*
X136188484Y-89723170D01*
X136188487Y-89723172D01*
X136443199Y-89818175D01*
X136708840Y-89875961D01*
X136960605Y-89893967D01*
X136979999Y-89895355D01*
X136980000Y-89895355D01*
X136980001Y-89895355D01*
X136998100Y-89894060D01*
X137251160Y-89875961D01*
X137516801Y-89818175D01*
X137771513Y-89723172D01*
X137771517Y-89723169D01*
X137771519Y-89723169D01*
X137976357Y-89611319D01*
X138010113Y-89592887D01*
X138227742Y-89429971D01*
X138419971Y-89237742D01*
X138582887Y-89020113D01*
X138713172Y-88781513D01*
X138769249Y-88631166D01*
X138811121Y-88575232D01*
X138876586Y-88550816D01*
X138885431Y-88550500D01*
X141035809Y-88550500D01*
X141102848Y-88570185D01*
X141135076Y-88600190D01*
X141142454Y-88610046D01*
X141142455Y-88610047D01*
X141257664Y-88696293D01*
X141257667Y-88696295D01*
X141257668Y-88696295D01*
X141257669Y-88696296D01*
X141286025Y-88706872D01*
X141341958Y-88748742D01*
X141366376Y-88814206D01*
X141351525Y-88882479D01*
X141343010Y-88895939D01*
X141210213Y-89078719D01*
X141106417Y-89282429D01*
X141035765Y-89499871D01*
X141021491Y-89590000D01*
X142009252Y-89590000D01*
X141987482Y-89627708D01*
X141950000Y-89767591D01*
X141950000Y-89912409D01*
X141987482Y-90052292D01*
X142009252Y-90090000D01*
X141021491Y-90090000D01*
X141035765Y-90180128D01*
X141106417Y-90397570D01*
X141210211Y-90601276D01*
X141344597Y-90786242D01*
X141506257Y-90947902D01*
X141506263Y-90947907D01*
X141544492Y-90975682D01*
X141587158Y-91031011D01*
X141593137Y-91100625D01*
X141560532Y-91162420D01*
X141499693Y-91196777D01*
X141471607Y-91200000D01*
X139625000Y-91200000D01*
X125541779Y-91190212D01*
X125474753Y-91170481D01*
X125429035Y-91117645D01*
X125419139Y-91048480D01*
X125448209Y-90984944D01*
X125468980Y-90965894D01*
X125493736Y-90947907D01*
X125493742Y-90947902D01*
X125655402Y-90786242D01*
X125789788Y-90601276D01*
X125893582Y-90397570D01*
X125964234Y-90180128D01*
X125978509Y-90090000D01*
X124990748Y-90090000D01*
X125012518Y-90052292D01*
X125050000Y-89912409D01*
X125050000Y-89767591D01*
X125012518Y-89627708D01*
X124990748Y-89590000D01*
X125978509Y-89590000D01*
X125964234Y-89499871D01*
X125893582Y-89282429D01*
X125789788Y-89078723D01*
X125656988Y-88895940D01*
X125633508Y-88830133D01*
X125649333Y-88762079D01*
X125699439Y-88713384D01*
X125713966Y-88706875D01*
X125742331Y-88696296D01*
X125857546Y-88610046D01*
X125943796Y-88494831D01*
X125994091Y-88359983D01*
X126000500Y-88300373D01*
X126000499Y-86542135D01*
X129999500Y-86542135D01*
X129999500Y-89437870D01*
X129999501Y-89437876D01*
X130005908Y-89497483D01*
X130056202Y-89632328D01*
X130056206Y-89632335D01*
X130142452Y-89747544D01*
X130142455Y-89747547D01*
X130257664Y-89833793D01*
X130257671Y-89833797D01*
X130392517Y-89884091D01*
X130392516Y-89884091D01*
X130399444Y-89884835D01*
X130452127Y-89890500D01*
X133347872Y-89890499D01*
X133407483Y-89884091D01*
X133542331Y-89833796D01*
X133657546Y-89747546D01*
X133743796Y-89632331D01*
X133794091Y-89497483D01*
X133800500Y-89437873D01*
X133800499Y-86542128D01*
X133794091Y-86482517D01*
X133743884Y-86347906D01*
X133743797Y-86347671D01*
X133743793Y-86347664D01*
X133657547Y-86232455D01*
X133657544Y-86232452D01*
X133542335Y-86146206D01*
X133542328Y-86146202D01*
X133407482Y-86095908D01*
X133407483Y-86095908D01*
X133347883Y-86089501D01*
X133347881Y-86089500D01*
X133347873Y-86089500D01*
X133347864Y-86089500D01*
X130452129Y-86089500D01*
X130452123Y-86089501D01*
X130392516Y-86095908D01*
X130257671Y-86146202D01*
X130257664Y-86146206D01*
X130142455Y-86232452D01*
X130142452Y-86232455D01*
X130056206Y-86347664D01*
X130056202Y-86347671D01*
X130005908Y-86482517D01*
X129999501Y-86542116D01*
X129999501Y-86542123D01*
X129999500Y-86542135D01*
X126000499Y-86542135D01*
X126000499Y-86299628D01*
X125994091Y-86240017D01*
X125991270Y-86232454D01*
X125943797Y-86105171D01*
X125943793Y-86105164D01*
X125857547Y-85989955D01*
X125857544Y-85989952D01*
X125742335Y-85903706D01*
X125742328Y-85903702D01*
X125607482Y-85853408D01*
X125607483Y-85853408D01*
X125547883Y-85847001D01*
X125547881Y-85847000D01*
X125547873Y-85847000D01*
X125547864Y-85847000D01*
X123452129Y-85847000D01*
X123452123Y-85847001D01*
X123392516Y-85853408D01*
X123257671Y-85903702D01*
X123257664Y-85903706D01*
X123142455Y-85989952D01*
X123142454Y-85989953D01*
X123135076Y-85999810D01*
X123079143Y-86041682D01*
X123035809Y-86049500D01*
X119571578Y-86049500D01*
X119377176Y-86080290D01*
X119377175Y-86080290D01*
X119329106Y-86095909D01*
X119329101Y-86095911D01*
X119314757Y-86100571D01*
X119255713Y-86103530D01*
X119255550Y-86104670D01*
X119251160Y-86104039D01*
X118980001Y-86084645D01*
X118979999Y-86084645D01*
X118708839Y-86104039D01*
X118708832Y-86104040D01*
X118443206Y-86161823D01*
X118443202Y-86161824D01*
X118443199Y-86161825D01*
X118315843Y-86209326D01*
X118188480Y-86256830D01*
X117949892Y-86387109D01*
X117949891Y-86387110D01*
X117732259Y-86550028D01*
X117732247Y-86550038D01*
X117540038Y-86742247D01*
X117540028Y-86742259D01*
X117377110Y-86959891D01*
X117377109Y-86959892D01*
X117246830Y-87198480D01*
X117205108Y-87310343D01*
X117151825Y-87453199D01*
X117151824Y-87453202D01*
X117151823Y-87453206D01*
X117094040Y-87718832D01*
X117094039Y-87718839D01*
X117074645Y-87989998D01*
X117074645Y-87990001D01*
X117094039Y-88261160D01*
X117094040Y-88261167D01*
X117144870Y-88494831D01*
X117151825Y-88526801D01*
X117215043Y-88696295D01*
X117246830Y-88781519D01*
X117377109Y-89020107D01*
X117377110Y-89020108D01*
X117377113Y-89020113D01*
X117540029Y-89237742D01*
X117540033Y-89237746D01*
X117540038Y-89237752D01*
X117732247Y-89429961D01*
X117732253Y-89429966D01*
X117732258Y-89429971D01*
X117949887Y-89592887D01*
X117949891Y-89592889D01*
X117949892Y-89592890D01*
X118188481Y-89723169D01*
X118188480Y-89723169D01*
X118188484Y-89723170D01*
X118188487Y-89723172D01*
X118443199Y-89818175D01*
X118708840Y-89875961D01*
X118960605Y-89893967D01*
X118979999Y-89895355D01*
X118980000Y-89895355D01*
X118980001Y-89895355D01*
X118998100Y-89894060D01*
X119251160Y-89875961D01*
X119516801Y-89818175D01*
X119771513Y-89723172D01*
X119771517Y-89723169D01*
X119771519Y-89723169D01*
X119976357Y-89611319D01*
X120010113Y-89592887D01*
X120227742Y-89429971D01*
X120419971Y-89237742D01*
X120582887Y-89020113D01*
X120713172Y-88781513D01*
X120769249Y-88631166D01*
X120811121Y-88575232D01*
X120876586Y-88550816D01*
X120885431Y-88550500D01*
X123035809Y-88550500D01*
X123102848Y-88570185D01*
X123135076Y-88600190D01*
X123142454Y-88610046D01*
X123142455Y-88610047D01*
X123257664Y-88696293D01*
X123257667Y-88696295D01*
X123257668Y-88696295D01*
X123257669Y-88696296D01*
X123286025Y-88706872D01*
X123341958Y-88748742D01*
X123366376Y-88814206D01*
X123351525Y-88882479D01*
X123343010Y-88895939D01*
X123210213Y-89078719D01*
X123106417Y-89282429D01*
X123035765Y-89499871D01*
X123021491Y-89590000D01*
X124009252Y-89590000D01*
X123987482Y-89627708D01*
X123950000Y-89767591D01*
X123950000Y-89912409D01*
X123987482Y-90052292D01*
X124009252Y-90090000D01*
X123021491Y-90090000D01*
X123035765Y-90180128D01*
X123106417Y-90397570D01*
X123210211Y-90601276D01*
X123344597Y-90786242D01*
X123506257Y-90947902D01*
X123529026Y-90964445D01*
X123571691Y-91019775D01*
X123577670Y-91089389D01*
X123545064Y-91151184D01*
X123484225Y-91185541D01*
X123456054Y-91188763D01*
X107558979Y-91177715D01*
X107491953Y-91157984D01*
X107446235Y-91105148D01*
X107436339Y-91035983D01*
X107465409Y-90972447D01*
X107486184Y-90953394D01*
X107493739Y-90947905D01*
X107655402Y-90786242D01*
X107789788Y-90601276D01*
X107893582Y-90397570D01*
X107964234Y-90180128D01*
X107978509Y-90090000D01*
X106990748Y-90090000D01*
X107012518Y-90052292D01*
X107050000Y-89912409D01*
X107050000Y-89767591D01*
X107012518Y-89627708D01*
X106990748Y-89590000D01*
X107978509Y-89590000D01*
X107964234Y-89499871D01*
X107893582Y-89282429D01*
X107789788Y-89078723D01*
X107656988Y-88895940D01*
X107633508Y-88830133D01*
X107649333Y-88762079D01*
X107699439Y-88713384D01*
X107713966Y-88706875D01*
X107742331Y-88696296D01*
X107857546Y-88610046D01*
X107943796Y-88494831D01*
X107994091Y-88359983D01*
X108000500Y-88300373D01*
X108000499Y-86542135D01*
X111999500Y-86542135D01*
X111999500Y-89437870D01*
X111999501Y-89437876D01*
X112005908Y-89497483D01*
X112056202Y-89632328D01*
X112056206Y-89632335D01*
X112142452Y-89747544D01*
X112142455Y-89747547D01*
X112257664Y-89833793D01*
X112257671Y-89833797D01*
X112392517Y-89884091D01*
X112392516Y-89884091D01*
X112399444Y-89884835D01*
X112452127Y-89890500D01*
X115347872Y-89890499D01*
X115407483Y-89884091D01*
X115542331Y-89833796D01*
X115657546Y-89747546D01*
X115743796Y-89632331D01*
X115794091Y-89497483D01*
X115800500Y-89437873D01*
X115800499Y-86542128D01*
X115794091Y-86482517D01*
X115743884Y-86347906D01*
X115743797Y-86347671D01*
X115743793Y-86347664D01*
X115657547Y-86232455D01*
X115657544Y-86232452D01*
X115542335Y-86146206D01*
X115542328Y-86146202D01*
X115407482Y-86095908D01*
X115407483Y-86095908D01*
X115347883Y-86089501D01*
X115347881Y-86089500D01*
X115347873Y-86089500D01*
X115347864Y-86089500D01*
X112452129Y-86089500D01*
X112452123Y-86089501D01*
X112392516Y-86095908D01*
X112257671Y-86146202D01*
X112257664Y-86146206D01*
X112142455Y-86232452D01*
X112142452Y-86232455D01*
X112056206Y-86347664D01*
X112056202Y-86347671D01*
X112005908Y-86482517D01*
X111999501Y-86542116D01*
X111999501Y-86542123D01*
X111999500Y-86542135D01*
X108000499Y-86542135D01*
X108000499Y-86299628D01*
X107994091Y-86240017D01*
X107991270Y-86232454D01*
X107943797Y-86105171D01*
X107943793Y-86105164D01*
X107857547Y-85989955D01*
X107857544Y-85989952D01*
X107742335Y-85903706D01*
X107742328Y-85903702D01*
X107607482Y-85853408D01*
X107607483Y-85853408D01*
X107547883Y-85847001D01*
X107547881Y-85847000D01*
X107547873Y-85847000D01*
X107547864Y-85847000D01*
X105452129Y-85847000D01*
X105452123Y-85847001D01*
X105392516Y-85853408D01*
X105257671Y-85903702D01*
X105257664Y-85903706D01*
X105142455Y-85989952D01*
X105142454Y-85989953D01*
X105135076Y-85999810D01*
X105079143Y-86041682D01*
X105035809Y-86049500D01*
X101571578Y-86049500D01*
X101377176Y-86080290D01*
X101377175Y-86080290D01*
X101329106Y-86095909D01*
X101329101Y-86095911D01*
X101314757Y-86100571D01*
X101255713Y-86103530D01*
X101255550Y-86104670D01*
X101251160Y-86104039D01*
X100980001Y-86084645D01*
X100979999Y-86084645D01*
X100708839Y-86104039D01*
X100708832Y-86104040D01*
X100443206Y-86161823D01*
X100443202Y-86161824D01*
X100443199Y-86161825D01*
X100315843Y-86209326D01*
X100188480Y-86256830D01*
X99949892Y-86387109D01*
X99949891Y-86387110D01*
X99732259Y-86550028D01*
X99732247Y-86550038D01*
X99540038Y-86742247D01*
X99540028Y-86742259D01*
X99377110Y-86959891D01*
X99377109Y-86959892D01*
X99246830Y-87198480D01*
X99205108Y-87310343D01*
X99151825Y-87453199D01*
X99151824Y-87453202D01*
X99151823Y-87453206D01*
X99094040Y-87718832D01*
X99094039Y-87718839D01*
X99074645Y-87989998D01*
X99074645Y-87990001D01*
X99094039Y-88261160D01*
X99094040Y-88261167D01*
X99144870Y-88494831D01*
X99151825Y-88526801D01*
X99215043Y-88696295D01*
X99246830Y-88781519D01*
X99377109Y-89020107D01*
X99377110Y-89020108D01*
X99377113Y-89020113D01*
X99540029Y-89237742D01*
X99540033Y-89237746D01*
X99540038Y-89237752D01*
X99732247Y-89429961D01*
X99732253Y-89429966D01*
X99732258Y-89429971D01*
X99949887Y-89592887D01*
X99949891Y-89592889D01*
X99949892Y-89592890D01*
X100188481Y-89723169D01*
X100188480Y-89723169D01*
X100188484Y-89723170D01*
X100188487Y-89723172D01*
X100443199Y-89818175D01*
X100708840Y-89875961D01*
X100960605Y-89893967D01*
X100979999Y-89895355D01*
X100980000Y-89895355D01*
X100980001Y-89895355D01*
X100998100Y-89894060D01*
X101251160Y-89875961D01*
X101516801Y-89818175D01*
X101771513Y-89723172D01*
X101771517Y-89723169D01*
X101771519Y-89723169D01*
X101976357Y-89611319D01*
X102010113Y-89592887D01*
X102227742Y-89429971D01*
X102419971Y-89237742D01*
X102582887Y-89020113D01*
X102713172Y-88781513D01*
X102769249Y-88631166D01*
X102811121Y-88575232D01*
X102876586Y-88550816D01*
X102885431Y-88550500D01*
X105035809Y-88550500D01*
X105102848Y-88570185D01*
X105135076Y-88600190D01*
X105142454Y-88610046D01*
X105142455Y-88610047D01*
X105257664Y-88696293D01*
X105257667Y-88696295D01*
X105257668Y-88696295D01*
X105257669Y-88696296D01*
X105286025Y-88706872D01*
X105341958Y-88748742D01*
X105366376Y-88814206D01*
X105351525Y-88882479D01*
X105343010Y-88895939D01*
X105210213Y-89078719D01*
X105106417Y-89282429D01*
X105035765Y-89499871D01*
X105021491Y-89590000D01*
X106009252Y-89590000D01*
X105987482Y-89627708D01*
X105950000Y-89767591D01*
X105950000Y-89912409D01*
X105987482Y-90052292D01*
X106009252Y-90090000D01*
X105021491Y-90090000D01*
X105035765Y-90180128D01*
X105106417Y-90397570D01*
X105210211Y-90601276D01*
X105344597Y-90786242D01*
X105506257Y-90947902D01*
X105511795Y-90951926D01*
X105554459Y-91007258D01*
X105560435Y-91076871D01*
X105527828Y-91138665D01*
X105466988Y-91173020D01*
X105438820Y-91176242D01*
X103697293Y-91175032D01*
X103650000Y-91175000D01*
X103649957Y-91175000D01*
X95026362Y-91175000D01*
X94959323Y-91155315D01*
X94938681Y-91138681D01*
X93411319Y-89611319D01*
X93377834Y-89549996D01*
X93375000Y-89523638D01*
X93375000Y-86542135D01*
X93999500Y-86542135D01*
X93999500Y-89437870D01*
X93999501Y-89437876D01*
X94005908Y-89497483D01*
X94056202Y-89632328D01*
X94056206Y-89632335D01*
X94142452Y-89747544D01*
X94142455Y-89747547D01*
X94257664Y-89833793D01*
X94257671Y-89833797D01*
X94392517Y-89884091D01*
X94392516Y-89884091D01*
X94399444Y-89884835D01*
X94452127Y-89890500D01*
X97347872Y-89890499D01*
X97407483Y-89884091D01*
X97542331Y-89833796D01*
X97657546Y-89747546D01*
X97743796Y-89632331D01*
X97794091Y-89497483D01*
X97800500Y-89437873D01*
X97800499Y-86542128D01*
X97794091Y-86482517D01*
X97743884Y-86347906D01*
X97743797Y-86347671D01*
X97743793Y-86347664D01*
X97657547Y-86232455D01*
X97657544Y-86232452D01*
X97542335Y-86146206D01*
X97542328Y-86146202D01*
X97407482Y-86095908D01*
X97407483Y-86095908D01*
X97347883Y-86089501D01*
X97347881Y-86089500D01*
X97347873Y-86089500D01*
X97347864Y-86089500D01*
X94452129Y-86089500D01*
X94452123Y-86089501D01*
X94392516Y-86095908D01*
X94257671Y-86146202D01*
X94257664Y-86146206D01*
X94142455Y-86232452D01*
X94142452Y-86232455D01*
X94056206Y-86347664D01*
X94056202Y-86347671D01*
X94005908Y-86482517D01*
X93999501Y-86542116D01*
X93999501Y-86542123D01*
X93999500Y-86542135D01*
X93375000Y-86542135D01*
X93375000Y-83699000D01*
X93394685Y-83631961D01*
X93447489Y-83586206D01*
X93499000Y-83575000D01*
X145600000Y-83575000D01*
X145600000Y-91200000D01*
G37*
%TD.AperFunction*%
%TD*%
%TA.AperFunction,Conductor*%
%TO.N,LINE*%
G36*
X164453249Y-83575171D02*
G01*
X164920070Y-83599740D01*
X164929908Y-83600654D01*
X165264186Y-83645224D01*
X165498722Y-83676496D01*
X165503866Y-83677292D01*
X165577377Y-83690254D01*
X165587939Y-83692595D01*
X165864588Y-83766723D01*
X165873450Y-83769457D01*
X166172499Y-83874124D01*
X166177485Y-83875994D01*
X166672468Y-84073986D01*
X166678815Y-84076733D01*
X166769126Y-84118846D01*
X166804941Y-84135547D01*
X166814528Y-84140538D01*
X167114805Y-84313903D01*
X167116530Y-84314918D01*
X167200328Y-84365197D01*
X167207653Y-84369951D01*
X167393080Y-84499788D01*
X167399419Y-84504535D01*
X167794639Y-84820711D01*
X167804858Y-84829858D01*
X168276627Y-85301627D01*
X168283936Y-85309602D01*
X168465177Y-85525597D01*
X168471762Y-85534179D01*
X168715864Y-85882792D01*
X168721676Y-85891916D01*
X168836209Y-86090293D01*
X168838961Y-86095325D01*
X169030857Y-86466325D01*
X169033100Y-86470888D01*
X169119310Y-86655764D01*
X169123450Y-86665759D01*
X169269003Y-87065664D01*
X169272256Y-87075980D01*
X169302033Y-87187111D01*
X169346541Y-87353215D01*
X169349774Y-87369654D01*
X169498794Y-88540533D01*
X169499779Y-88554829D01*
X169499993Y-88574356D01*
X169500000Y-88575715D01*
X169500000Y-97376000D01*
X169480315Y-97443039D01*
X169427511Y-97488794D01*
X169376000Y-97500000D01*
X154749999Y-97500000D01*
X152000000Y-100249999D01*
X152000000Y-110448638D01*
X151980315Y-110515677D01*
X151963681Y-110536319D01*
X133036819Y-129463181D01*
X132975496Y-129496666D01*
X132949138Y-129499500D01*
X130550417Y-129499500D01*
X130483378Y-129479815D01*
X130463269Y-129463711D01*
X128461852Y-127486407D01*
X128427996Y-127425288D01*
X128425000Y-127398196D01*
X128425000Y-123202155D01*
X129775000Y-123202155D01*
X129775000Y-124000000D01*
X130691988Y-124000000D01*
X130659075Y-124057007D01*
X130625000Y-124184174D01*
X130625000Y-124315826D01*
X130659075Y-124442993D01*
X130691988Y-124500000D01*
X129775000Y-124500000D01*
X129775000Y-125297844D01*
X129781401Y-125357372D01*
X129781403Y-125357379D01*
X129831645Y-125492086D01*
X129831649Y-125492093D01*
X129917809Y-125607187D01*
X129917812Y-125607190D01*
X130032906Y-125693350D01*
X130032913Y-125693354D01*
X130167620Y-125743596D01*
X130167627Y-125743598D01*
X130227155Y-125749999D01*
X130227172Y-125750000D01*
X130875000Y-125750000D01*
X130875000Y-124683012D01*
X130932007Y-124715925D01*
X131059174Y-124750000D01*
X131190826Y-124750000D01*
X131317993Y-124715925D01*
X131375000Y-124683012D01*
X131375000Y-125750000D01*
X132022828Y-125750000D01*
X132022844Y-125749999D01*
X132082372Y-125743598D01*
X132082379Y-125743596D01*
X132217086Y-125693354D01*
X132217093Y-125693350D01*
X132332187Y-125607190D01*
X132332190Y-125607187D01*
X132418350Y-125492093D01*
X132418354Y-125492086D01*
X132468596Y-125357379D01*
X132468598Y-125357372D01*
X132474999Y-125297844D01*
X132475000Y-125297827D01*
X132475000Y-124500000D01*
X131558012Y-124500000D01*
X131590925Y-124442993D01*
X131625000Y-124315826D01*
X131625000Y-124184174D01*
X131590925Y-124057007D01*
X131558012Y-124000000D01*
X132475000Y-124000000D01*
X132475000Y-123202172D01*
X132474999Y-123202155D01*
X132468598Y-123142627D01*
X132468596Y-123142620D01*
X132418354Y-123007913D01*
X132418350Y-123007906D01*
X132332190Y-122892812D01*
X132332187Y-122892809D01*
X132217093Y-122806649D01*
X132217086Y-122806645D01*
X132082379Y-122756403D01*
X132082372Y-122756401D01*
X132022844Y-122750000D01*
X131375000Y-122750000D01*
X131375000Y-123816988D01*
X131317993Y-123784075D01*
X131190826Y-123750000D01*
X131059174Y-123750000D01*
X130932007Y-123784075D01*
X130875000Y-123816988D01*
X130875000Y-122750000D01*
X130227155Y-122750000D01*
X130167627Y-122756401D01*
X130167620Y-122756403D01*
X130032913Y-122806645D01*
X130032906Y-122806649D01*
X129917812Y-122892809D01*
X129917809Y-122892812D01*
X129831649Y-123007906D01*
X129831645Y-123007913D01*
X129781403Y-123142620D01*
X129781401Y-123142627D01*
X129775000Y-123202155D01*
X128425000Y-123202155D01*
X128425000Y-117993713D01*
X129774500Y-117993713D01*
X129774500Y-118506286D01*
X129807753Y-118716239D01*
X129873444Y-118918414D01*
X129969951Y-119107820D01*
X130094890Y-119279786D01*
X130245213Y-119430109D01*
X130417179Y-119555048D01*
X130417181Y-119555049D01*
X130417184Y-119555051D01*
X130606588Y-119651557D01*
X130808757Y-119717246D01*
X131018713Y-119750500D01*
X131018714Y-119750500D01*
X131231286Y-119750500D01*
X131231287Y-119750500D01*
X131441243Y-119717246D01*
X131643412Y-119651557D01*
X131832816Y-119555051D01*
X131943686Y-119474500D01*
X132004786Y-119430109D01*
X132004788Y-119430106D01*
X132004792Y-119430104D01*
X132155104Y-119279792D01*
X132155106Y-119279788D01*
X132155109Y-119279786D01*
X132280048Y-119107820D01*
X132280047Y-119107820D01*
X132280051Y-119107816D01*
X132376557Y-118918412D01*
X132442246Y-118716243D01*
X132475500Y-118506287D01*
X132475500Y-117993713D01*
X132442246Y-117783757D01*
X132376557Y-117581588D01*
X132280051Y-117392184D01*
X132280049Y-117392181D01*
X132280048Y-117392179D01*
X132155109Y-117220213D01*
X132004786Y-117069890D01*
X131832820Y-116944951D01*
X131643414Y-116848444D01*
X131643413Y-116848443D01*
X131643412Y-116848443D01*
X131441243Y-116782754D01*
X131441241Y-116782753D01*
X131441240Y-116782753D01*
X131279957Y-116757208D01*
X131231287Y-116749500D01*
X131018713Y-116749500D01*
X130970042Y-116757208D01*
X130808760Y-116782753D01*
X130606585Y-116848444D01*
X130417179Y-116944951D01*
X130245213Y-117069890D01*
X130094890Y-117220213D01*
X129969951Y-117392179D01*
X129873444Y-117581585D01*
X129807753Y-117783760D01*
X129774500Y-117993713D01*
X128425000Y-117993713D01*
X128425000Y-114450846D01*
X128444685Y-114383807D01*
X128460693Y-114363795D01*
X140450099Y-102202761D01*
X140473298Y-102184285D01*
X140479216Y-102180635D01*
X140613656Y-102097712D01*
X140737712Y-101973656D01*
X140829814Y-101824334D01*
X140884999Y-101657797D01*
X140895500Y-101555009D01*
X140895499Y-100929992D01*
X140884999Y-100827203D01*
X140829814Y-100660666D01*
X140737712Y-100511344D01*
X140686319Y-100459951D01*
X140652834Y-100398628D01*
X140650000Y-100372270D01*
X140650000Y-99499756D01*
X140669685Y-99432717D01*
X140684388Y-99414048D01*
X141965217Y-98075000D01*
X147397520Y-98075000D01*
X147417299Y-98320023D01*
X147417300Y-98320027D01*
X147476128Y-98558701D01*
X147476129Y-98558704D01*
X147572483Y-98784856D01*
X147703867Y-98992622D01*
X147703870Y-98992626D01*
X147866875Y-99176621D01*
X147866877Y-99176623D01*
X148057292Y-99332092D01*
X148057294Y-99332093D01*
X148057301Y-99332098D01*
X148270178Y-99455002D01*
X148270180Y-99455003D01*
X148500028Y-99542173D01*
X148594449Y-99561448D01*
X148740875Y-99591342D01*
X148740880Y-99591342D01*
X148740883Y-99591343D01*
X148814569Y-99594312D01*
X148986498Y-99601242D01*
X148986499Y-99601242D01*
X148986500Y-99601241D01*
X148986505Y-99601242D01*
X149195673Y-99575844D01*
X149230536Y-99571611D01*
X149297090Y-99552332D01*
X149466652Y-99503219D01*
X149688740Y-99397837D01*
X149891048Y-99258194D01*
X150068336Y-99087907D01*
X150216011Y-98891386D01*
X150330251Y-98673721D01*
X150408095Y-98440550D01*
X150447527Y-98197911D01*
X150450000Y-98075000D01*
X150447527Y-97952089D01*
X150447526Y-97952082D01*
X150447526Y-97952079D01*
X150408095Y-97709450D01*
X150408095Y-97709449D01*
X150330251Y-97476280D01*
X150330250Y-97476276D01*
X150271923Y-97365144D01*
X150216011Y-97258614D01*
X150216008Y-97258610D01*
X150216007Y-97258608D01*
X150068334Y-97062090D01*
X149891053Y-96891810D01*
X149891049Y-96891807D01*
X149688743Y-96752164D01*
X149568265Y-96694997D01*
X149466652Y-96646781D01*
X149466649Y-96646780D01*
X149466646Y-96646779D01*
X149230536Y-96578388D01*
X148986498Y-96548757D01*
X148740886Y-96558656D01*
X148740875Y-96558657D01*
X148500030Y-96607826D01*
X148270178Y-96694997D01*
X148057301Y-96817901D01*
X148057294Y-96817906D01*
X147866879Y-96973374D01*
X147866875Y-96973378D01*
X147703870Y-97157373D01*
X147572481Y-97365147D01*
X147476128Y-97591298D01*
X147417300Y-97829972D01*
X147417299Y-97829976D01*
X147397520Y-98075000D01*
X141965217Y-98075000D01*
X145600000Y-94275000D01*
X145600000Y-91200000D01*
X145600000Y-87989998D01*
X148014645Y-87989998D01*
X148014645Y-87990001D01*
X148034039Y-88261160D01*
X148034040Y-88261167D01*
X148042569Y-88300373D01*
X148091825Y-88526801D01*
X148122874Y-88610046D01*
X148186830Y-88781519D01*
X148317109Y-89020107D01*
X148317110Y-89020108D01*
X148317113Y-89020113D01*
X148480029Y-89237742D01*
X148480033Y-89237746D01*
X148480038Y-89237752D01*
X148672247Y-89429961D01*
X148672253Y-89429966D01*
X148672258Y-89429971D01*
X148889887Y-89592887D01*
X148889891Y-89592889D01*
X148889892Y-89592890D01*
X149128481Y-89723169D01*
X149128480Y-89723169D01*
X149128484Y-89723170D01*
X149128487Y-89723172D01*
X149383199Y-89818175D01*
X149648840Y-89875961D01*
X149900605Y-89893967D01*
X149919999Y-89895355D01*
X149920000Y-89895355D01*
X149920001Y-89895355D01*
X149938100Y-89894060D01*
X150191160Y-89875961D01*
X150456801Y-89818175D01*
X150711513Y-89723172D01*
X150711517Y-89723169D01*
X150711519Y-89723169D01*
X150881407Y-89630403D01*
X150950113Y-89592887D01*
X151167742Y-89429971D01*
X151359971Y-89237742D01*
X151522887Y-89020113D01*
X151653172Y-88781513D01*
X151748175Y-88526801D01*
X151805961Y-88261160D01*
X151825355Y-87990000D01*
X151805961Y-87718840D01*
X151748175Y-87453199D01*
X151653172Y-87198487D01*
X151653170Y-87198484D01*
X151653169Y-87198480D01*
X151522890Y-86959892D01*
X151522889Y-86959891D01*
X151522887Y-86959887D01*
X151359971Y-86742258D01*
X151359966Y-86742253D01*
X151359961Y-86742247D01*
X151167752Y-86550038D01*
X151167746Y-86550033D01*
X151167742Y-86550029D01*
X151157224Y-86542155D01*
X153100000Y-86542155D01*
X153100000Y-87740000D01*
X154157586Y-87740000D01*
X154125000Y-87903820D01*
X154125000Y-88076180D01*
X154157586Y-88240000D01*
X153100000Y-88240000D01*
X153100000Y-89437844D01*
X153106401Y-89497372D01*
X153106403Y-89497379D01*
X153156645Y-89632086D01*
X153156649Y-89632093D01*
X153242809Y-89747187D01*
X153242812Y-89747190D01*
X153357906Y-89833350D01*
X153357913Y-89833354D01*
X153492620Y-89883596D01*
X153492627Y-89883598D01*
X153552155Y-89889999D01*
X153552172Y-89890000D01*
X154750000Y-89890000D01*
X154750000Y-88832413D01*
X154913820Y-88865000D01*
X155086180Y-88865000D01*
X155250000Y-88832413D01*
X155250000Y-89890000D01*
X156447828Y-89890000D01*
X156447844Y-89889999D01*
X156507372Y-89883598D01*
X156507379Y-89883596D01*
X156642086Y-89833354D01*
X156642093Y-89833350D01*
X156757187Y-89747190D01*
X156757190Y-89747187D01*
X156843350Y-89632093D01*
X156843354Y-89632086D01*
X156893596Y-89497379D01*
X156893598Y-89497372D01*
X156899999Y-89437844D01*
X156900000Y-89437827D01*
X156900000Y-88574997D01*
X161194652Y-88574997D01*
X161194652Y-88575002D01*
X161214028Y-88932368D01*
X161214029Y-88932385D01*
X161271926Y-89285539D01*
X161271932Y-89285565D01*
X161367672Y-89630392D01*
X161367674Y-89630399D01*
X161500142Y-89962870D01*
X161500151Y-89962888D01*
X161667784Y-90279077D01*
X161667790Y-90279086D01*
X161868634Y-90575309D01*
X161868641Y-90575319D01*
X162100331Y-90848085D01*
X162100332Y-90848086D01*
X162360163Y-91094211D01*
X162645081Y-91310800D01*
X162951747Y-91495315D01*
X162951749Y-91495316D01*
X162951751Y-91495317D01*
X162951755Y-91495319D01*
X163184205Y-91602861D01*
X163276565Y-91645591D01*
X163615726Y-91759868D01*
X163965254Y-91836805D01*
X164321052Y-91875500D01*
X164321058Y-91875500D01*
X164678942Y-91875500D01*
X164678948Y-91875500D01*
X165034746Y-91836805D01*
X165384274Y-91759868D01*
X165723435Y-91645591D01*
X166048253Y-91495315D01*
X166354919Y-91310800D01*
X166639837Y-91094211D01*
X166899668Y-90848086D01*
X167131365Y-90575311D01*
X167332211Y-90279085D01*
X167499853Y-89962880D01*
X167632324Y-89630403D01*
X167728071Y-89285552D01*
X167745891Y-89176848D01*
X167785970Y-88932385D01*
X167785970Y-88932382D01*
X167785972Y-88932371D01*
X167805348Y-88575000D01*
X167785972Y-88217629D01*
X167748654Y-87990001D01*
X167728073Y-87864460D01*
X167728072Y-87864459D01*
X167728071Y-87864448D01*
X167632324Y-87519597D01*
X167504382Y-87198487D01*
X167499857Y-87187129D01*
X167499848Y-87187111D01*
X167332215Y-86870922D01*
X167332213Y-86870919D01*
X167332211Y-86870915D01*
X167131365Y-86574689D01*
X167131361Y-86574684D01*
X167131358Y-86574680D01*
X166899668Y-86301914D01*
X166826718Y-86232812D01*
X166639837Y-86055789D01*
X166639830Y-86055783D01*
X166639827Y-86055781D01*
X166572245Y-86004407D01*
X166354919Y-85839200D01*
X166048253Y-85654685D01*
X166048252Y-85654684D01*
X166048248Y-85654682D01*
X166048244Y-85654680D01*
X165723447Y-85504414D01*
X165723441Y-85504411D01*
X165723435Y-85504409D01*
X165553854Y-85447270D01*
X165384273Y-85390131D01*
X165034744Y-85313194D01*
X164678949Y-85274500D01*
X164678948Y-85274500D01*
X164321052Y-85274500D01*
X164321050Y-85274500D01*
X163965255Y-85313194D01*
X163615726Y-85390131D01*
X163359970Y-85476306D01*
X163276565Y-85504409D01*
X163276563Y-85504410D01*
X163276552Y-85504414D01*
X162951755Y-85654680D01*
X162951751Y-85654682D01*
X162723367Y-85792096D01*
X162645081Y-85839200D01*
X162587737Y-85882792D01*
X162360172Y-86055781D01*
X162360163Y-86055789D01*
X162100331Y-86301914D01*
X161868641Y-86574680D01*
X161868634Y-86574690D01*
X161667790Y-86870913D01*
X161667784Y-86870922D01*
X161500151Y-87187111D01*
X161500142Y-87187129D01*
X161367674Y-87519600D01*
X161367672Y-87519607D01*
X161271932Y-87864434D01*
X161271926Y-87864460D01*
X161214029Y-88217614D01*
X161214028Y-88217627D01*
X161214028Y-88217629D01*
X161209542Y-88300373D01*
X161194652Y-88574997D01*
X156900000Y-88574997D01*
X156900000Y-88240000D01*
X155842414Y-88240000D01*
X155875000Y-88076180D01*
X155875000Y-87903820D01*
X155842414Y-87740000D01*
X156900000Y-87740000D01*
X156900000Y-86542172D01*
X156899999Y-86542155D01*
X156893598Y-86482627D01*
X156893596Y-86482620D01*
X156843354Y-86347913D01*
X156843350Y-86347906D01*
X156757190Y-86232812D01*
X156757187Y-86232809D01*
X156642093Y-86146649D01*
X156642086Y-86146645D01*
X156507379Y-86096403D01*
X156507372Y-86096401D01*
X156447844Y-86090000D01*
X155250000Y-86090000D01*
X155250000Y-87147586D01*
X155086180Y-87115000D01*
X154913820Y-87115000D01*
X154750000Y-87147586D01*
X154750000Y-86090000D01*
X153552155Y-86090000D01*
X153492627Y-86096401D01*
X153492620Y-86096403D01*
X153357913Y-86146645D01*
X153357906Y-86146649D01*
X153242812Y-86232809D01*
X153242809Y-86232812D01*
X153156649Y-86347906D01*
X153156645Y-86347913D01*
X153106403Y-86482620D01*
X153106401Y-86482627D01*
X153100000Y-86542155D01*
X151157224Y-86542155D01*
X150950113Y-86387113D01*
X150950108Y-86387110D01*
X150950107Y-86387109D01*
X150711518Y-86256830D01*
X150711519Y-86256830D01*
X150646164Y-86232454D01*
X150456801Y-86161825D01*
X150456794Y-86161823D01*
X150456793Y-86161823D01*
X150191167Y-86104040D01*
X150191160Y-86104039D01*
X149920001Y-86084645D01*
X149919999Y-86084645D01*
X149648839Y-86104039D01*
X149648832Y-86104040D01*
X149383206Y-86161823D01*
X149383202Y-86161824D01*
X149383199Y-86161825D01*
X149255843Y-86209326D01*
X149128480Y-86256830D01*
X148889892Y-86387109D01*
X148889891Y-86387110D01*
X148672259Y-86550028D01*
X148672247Y-86550038D01*
X148480038Y-86742247D01*
X148480028Y-86742259D01*
X148317110Y-86959891D01*
X148317109Y-86959892D01*
X148186830Y-87198480D01*
X148145108Y-87310343D01*
X148091825Y-87453199D01*
X148091824Y-87453202D01*
X148091823Y-87453206D01*
X148034040Y-87718832D01*
X148034039Y-87718839D01*
X148014645Y-87989998D01*
X145600000Y-87989998D01*
X145600000Y-83575000D01*
X164446732Y-83575000D01*
X164453249Y-83575171D01*
G37*
%TD.AperFunction*%
%TD*%
%TA.AperFunction,Conductor*%
%TO.N,GND*%
G36*
X169443039Y-98269685D02*
G01*
X169488794Y-98322489D01*
X169500000Y-98374000D01*
X169500000Y-138573988D01*
X169499985Y-138575948D01*
X169498692Y-138657724D01*
X169498026Y-138668745D01*
X169415950Y-139448469D01*
X169414650Y-139457563D01*
X169380120Y-139648427D01*
X169377741Y-139658944D01*
X169306333Y-139921069D01*
X169305733Y-139923197D01*
X169252030Y-140107321D01*
X169249346Y-140115464D01*
X169204752Y-140236519D01*
X169198288Y-140251100D01*
X168654842Y-141290736D01*
X168643674Y-141308322D01*
X168180970Y-141917144D01*
X168167865Y-141931810D01*
X167631552Y-142443745D01*
X167617607Y-142455236D01*
X167118979Y-142808430D01*
X167109126Y-142814733D01*
X166936740Y-142913877D01*
X166925642Y-142919538D01*
X166306827Y-143196939D01*
X166292857Y-143202216D01*
X165583362Y-143422404D01*
X165566354Y-143426394D01*
X164932441Y-143528638D01*
X164923469Y-143529751D01*
X164722221Y-143547301D01*
X164712788Y-143547763D01*
X164508240Y-143549973D01*
X164506388Y-143549993D01*
X164505050Y-143550000D01*
X74495035Y-143550000D01*
X74493681Y-143549993D01*
X74492402Y-143549979D01*
X74425031Y-143549242D01*
X74411376Y-143548337D01*
X73410019Y-143426221D01*
X73390310Y-143422173D01*
X72809683Y-143252824D01*
X72790903Y-143245649D01*
X72227152Y-142976029D01*
X72222900Y-142973894D01*
X71758275Y-142729355D01*
X71742473Y-142719454D01*
X71347628Y-142428515D01*
X71341489Y-142423685D01*
X71234978Y-142334311D01*
X71227003Y-142327003D01*
X70878125Y-141978125D01*
X70872101Y-141971655D01*
X70666939Y-141734930D01*
X70554202Y-141604848D01*
X70546324Y-141594749D01*
X70340000Y-141300000D01*
X70211393Y-141116277D01*
X70205593Y-141107170D01*
X70185084Y-141071646D01*
X70182882Y-141067666D01*
X70118535Y-140946122D01*
X69989981Y-140703298D01*
X69987195Y-140697696D01*
X69966736Y-140653821D01*
X69963987Y-140647469D01*
X69872533Y-140418834D01*
X69826060Y-140302650D01*
X69824073Y-140297335D01*
X69695749Y-139928404D01*
X69693092Y-139919760D01*
X69617595Y-139638000D01*
X69615254Y-139627440D01*
X69614189Y-139621402D01*
X69545389Y-139231218D01*
X69544266Y-139223402D01*
X69534695Y-139137259D01*
X69534418Y-139134467D01*
X69502792Y-138772977D01*
X69502328Y-138763533D01*
X69502171Y-138749173D01*
X69500007Y-138550703D01*
X69500000Y-138549351D01*
X69500000Y-129066867D01*
X69519685Y-128999828D01*
X69572489Y-128954073D01*
X69641647Y-128944129D01*
X69705203Y-128973154D01*
X69738561Y-129019415D01*
X69813364Y-129200009D01*
X69813371Y-129200022D01*
X69922860Y-129363883D01*
X69922863Y-129363887D01*
X70066537Y-129507561D01*
X70066559Y-129507581D01*
X75824390Y-135265413D01*
X75857875Y-135326736D01*
X75852891Y-135396428D01*
X75811019Y-135452361D01*
X75745555Y-135476778D01*
X75697116Y-135470603D01*
X75607067Y-135440262D01*
X75384273Y-135365193D01*
X75034744Y-135288256D01*
X74678949Y-135249562D01*
X74678948Y-135249562D01*
X74321052Y-135249562D01*
X74321050Y-135249562D01*
X73965255Y-135288256D01*
X73615726Y-135365193D01*
X73364960Y-135449687D01*
X73276565Y-135479471D01*
X73276563Y-135479472D01*
X73276552Y-135479476D01*
X72951755Y-135629742D01*
X72951751Y-135629744D01*
X72723367Y-135767158D01*
X72645081Y-135814262D01*
X72602816Y-135846391D01*
X72360172Y-136030843D01*
X72360163Y-136030851D01*
X72100331Y-136276976D01*
X71868641Y-136549742D01*
X71868634Y-136549752D01*
X71667790Y-136845975D01*
X71667784Y-136845984D01*
X71500151Y-137162173D01*
X71500142Y-137162191D01*
X71367674Y-137494662D01*
X71367672Y-137494669D01*
X71271932Y-137839496D01*
X71271926Y-137839522D01*
X71214029Y-138192676D01*
X71214028Y-138192689D01*
X71214028Y-138192691D01*
X71208941Y-138286513D01*
X71194652Y-138550059D01*
X71194652Y-138550064D01*
X71195949Y-138573988D01*
X71206949Y-138776877D01*
X71214028Y-138907430D01*
X71214029Y-138907447D01*
X71271926Y-139260601D01*
X71271932Y-139260627D01*
X71367672Y-139605454D01*
X71367674Y-139605461D01*
X71500142Y-139937932D01*
X71500151Y-139937950D01*
X71667784Y-140254139D01*
X71667787Y-140254144D01*
X71667789Y-140254147D01*
X71834142Y-140499500D01*
X71868634Y-140550371D01*
X71868641Y-140550381D01*
X72100331Y-140823147D01*
X72100332Y-140823148D01*
X72360163Y-141069273D01*
X72360170Y-141069278D01*
X72360172Y-141069280D01*
X72387051Y-141089713D01*
X72645081Y-141285862D01*
X72951747Y-141470377D01*
X72951749Y-141470378D01*
X72951751Y-141470379D01*
X72951755Y-141470381D01*
X73220574Y-141594749D01*
X73276565Y-141620653D01*
X73615726Y-141734930D01*
X73965254Y-141811867D01*
X74321052Y-141850562D01*
X74321058Y-141850562D01*
X74678942Y-141850562D01*
X74678948Y-141850562D01*
X75034746Y-141811867D01*
X75384274Y-141734930D01*
X75723435Y-141620653D01*
X76048253Y-141470377D01*
X76354919Y-141285862D01*
X76639837Y-141069273D01*
X76899668Y-140823148D01*
X77131365Y-140550373D01*
X77332211Y-140254147D01*
X77499853Y-139937942D01*
X77632324Y-139605465D01*
X77728071Y-139260614D01*
X77767794Y-139018317D01*
X77778134Y-138955245D01*
X77808404Y-138892273D01*
X77867915Y-138855664D01*
X77937771Y-138857040D01*
X77995794Y-138895965D01*
X78023562Y-138960080D01*
X78024500Y-138975306D01*
X78024500Y-139323544D01*
X78043724Y-139420188D01*
X78062946Y-139516828D01*
X78062948Y-139516832D01*
X78062949Y-139516836D01*
X78085038Y-139570164D01*
X78138366Y-139698911D01*
X78138371Y-139698920D01*
X78247860Y-139862781D01*
X78247863Y-139862785D01*
X78391537Y-140006459D01*
X78391559Y-140006479D01*
X80444735Y-142059655D01*
X80444764Y-142059686D01*
X80587214Y-142202136D01*
X80587218Y-142202139D01*
X80751079Y-142311628D01*
X80751092Y-142311635D01*
X80879833Y-142364961D01*
X80922744Y-142382735D01*
X80933164Y-142387051D01*
X81029812Y-142406275D01*
X81078135Y-142415887D01*
X81126458Y-142425500D01*
X81126459Y-142425500D01*
X87498542Y-142425500D01*
X87517870Y-142421655D01*
X87595188Y-142406275D01*
X87691836Y-142387051D01*
X87745165Y-142364961D01*
X87873914Y-142311632D01*
X88037782Y-142202139D01*
X88177139Y-142062782D01*
X88177139Y-142062780D01*
X88187347Y-142052573D01*
X88187348Y-142052570D01*
X89987322Y-140252597D01*
X90048641Y-140219115D01*
X90118333Y-140224099D01*
X90162679Y-140252599D01*
X92047860Y-142137781D01*
X92047861Y-142137782D01*
X92187218Y-142277139D01*
X92187219Y-142277140D01*
X92351079Y-142386628D01*
X92351092Y-142386635D01*
X92479833Y-142439961D01*
X92488969Y-142443745D01*
X92533164Y-142462051D01*
X92629812Y-142481275D01*
X92678135Y-142490887D01*
X92726458Y-142500500D01*
X92726459Y-142500500D01*
X156098542Y-142500500D01*
X156117870Y-142496655D01*
X156195188Y-142481275D01*
X156291836Y-142462051D01*
X156345165Y-142439961D01*
X156473914Y-142386632D01*
X156637782Y-142277139D01*
X156777139Y-142137782D01*
X156777139Y-142137780D01*
X156787347Y-142127573D01*
X156787349Y-142127570D01*
X161038103Y-137876815D01*
X161099424Y-137843332D01*
X161169116Y-137848316D01*
X161225049Y-137890188D01*
X161249466Y-137955652D01*
X161248149Y-137984558D01*
X161219428Y-138159752D01*
X161214028Y-138192691D01*
X161208941Y-138286513D01*
X161194652Y-138550059D01*
X161194652Y-138550064D01*
X161195949Y-138573988D01*
X161206949Y-138776877D01*
X161214028Y-138907430D01*
X161214029Y-138907447D01*
X161271926Y-139260601D01*
X161271932Y-139260627D01*
X161367672Y-139605454D01*
X161367674Y-139605461D01*
X161500142Y-139937932D01*
X161500151Y-139937950D01*
X161667784Y-140254139D01*
X161667787Y-140254144D01*
X161667789Y-140254147D01*
X161834142Y-140499500D01*
X161868634Y-140550371D01*
X161868641Y-140550381D01*
X162100331Y-140823147D01*
X162100332Y-140823148D01*
X162360163Y-141069273D01*
X162360170Y-141069278D01*
X162360172Y-141069280D01*
X162387051Y-141089713D01*
X162645081Y-141285862D01*
X162951747Y-141470377D01*
X162951749Y-141470378D01*
X162951751Y-141470379D01*
X162951755Y-141470381D01*
X163220574Y-141594749D01*
X163276565Y-141620653D01*
X163615726Y-141734930D01*
X163965254Y-141811867D01*
X164321052Y-141850562D01*
X164321058Y-141850562D01*
X164678942Y-141850562D01*
X164678948Y-141850562D01*
X165034746Y-141811867D01*
X165384274Y-141734930D01*
X165723435Y-141620653D01*
X166048253Y-141470377D01*
X166354919Y-141285862D01*
X166639837Y-141069273D01*
X166899668Y-140823148D01*
X167131365Y-140550373D01*
X167332211Y-140254147D01*
X167499853Y-139937942D01*
X167632324Y-139605465D01*
X167728071Y-139260614D01*
X167770582Y-139001310D01*
X167785970Y-138907447D01*
X167785970Y-138907444D01*
X167785972Y-138907433D01*
X167804051Y-138573988D01*
X167805348Y-138550064D01*
X167805348Y-138550059D01*
X167799543Y-138442993D01*
X167785972Y-138192691D01*
X167785835Y-138191856D01*
X167728073Y-137839522D01*
X167728072Y-137839521D01*
X167728071Y-137839510D01*
X167667978Y-137623073D01*
X167632327Y-137494669D01*
X167632325Y-137494662D01*
X167624928Y-137476098D01*
X167564001Y-137323182D01*
X167499857Y-137162191D01*
X167499848Y-137162173D01*
X167463090Y-137092841D01*
X167412316Y-136997070D01*
X167332215Y-136845984D01*
X167332213Y-136845981D01*
X167332211Y-136845977D01*
X167131365Y-136549751D01*
X167131361Y-136549746D01*
X167131358Y-136549742D01*
X166899668Y-136276976D01*
X166893187Y-136270837D01*
X166639837Y-136030851D01*
X166639830Y-136030845D01*
X166639827Y-136030843D01*
X166532387Y-135949170D01*
X166354919Y-135814262D01*
X166048253Y-135629747D01*
X166048252Y-135629746D01*
X166048248Y-135629744D01*
X166048244Y-135629742D01*
X165723447Y-135479476D01*
X165723441Y-135479473D01*
X165723435Y-135479471D01*
X165553854Y-135422332D01*
X165384273Y-135365193D01*
X165034744Y-135288256D01*
X164678949Y-135249562D01*
X164678948Y-135249562D01*
X164321052Y-135249562D01*
X164321050Y-135249562D01*
X163965254Y-135288256D01*
X163945411Y-135292624D01*
X163875707Y-135287809D01*
X163819672Y-135246073D01*
X163795097Y-135180668D01*
X163809783Y-135112359D01*
X163831074Y-135083845D01*
X168152139Y-130762782D01*
X168155701Y-130757451D01*
X168261632Y-130598914D01*
X168314961Y-130470165D01*
X168337051Y-130416836D01*
X168375500Y-130223540D01*
X168375500Y-130026460D01*
X168375500Y-114801459D01*
X168375500Y-114801456D01*
X168356579Y-114706337D01*
X168337487Y-114610355D01*
X168337051Y-114608164D01*
X168314961Y-114554834D01*
X168292248Y-114499999D01*
X168261635Y-114426092D01*
X168261628Y-114426079D01*
X168152139Y-114262218D01*
X168152136Y-114262214D01*
X168009686Y-114119764D01*
X168009655Y-114119735D01*
X166111819Y-112221899D01*
X166078334Y-112160576D01*
X166075500Y-112134218D01*
X166075500Y-111993713D01*
X166042246Y-111783760D01*
X166042246Y-111783757D01*
X165976557Y-111581588D01*
X165880051Y-111392184D01*
X165880049Y-111392181D01*
X165880048Y-111392179D01*
X165755109Y-111220213D01*
X165604786Y-111069890D01*
X165432820Y-110944951D01*
X165243414Y-110848444D01*
X165243413Y-110848443D01*
X165243412Y-110848443D01*
X165041243Y-110782754D01*
X165041241Y-110782753D01*
X165041240Y-110782753D01*
X164879957Y-110757208D01*
X164831287Y-110749500D01*
X164618713Y-110749500D01*
X164570042Y-110757208D01*
X164408760Y-110782753D01*
X164206585Y-110848444D01*
X164017179Y-110944951D01*
X163845213Y-111069890D01*
X163694890Y-111220213D01*
X163569951Y-111392179D01*
X163473444Y-111581585D01*
X163407753Y-111783760D01*
X163374500Y-111993713D01*
X163374500Y-112506286D01*
X163403203Y-112687513D01*
X163407754Y-112716243D01*
X163410761Y-112725499D01*
X163473444Y-112918414D01*
X163569951Y-113107820D01*
X163694890Y-113279786D01*
X163845213Y-113430109D01*
X164017179Y-113555048D01*
X164017181Y-113555049D01*
X164017184Y-113555051D01*
X164206588Y-113651557D01*
X164408757Y-113717246D01*
X164618713Y-113750500D01*
X164759218Y-113750500D01*
X164826257Y-113770185D01*
X164846899Y-113786819D01*
X166338181Y-115278101D01*
X166371666Y-115339424D01*
X166374500Y-115365782D01*
X166374500Y-129659217D01*
X166354815Y-129726256D01*
X166338185Y-129746893D01*
X166261839Y-129823240D01*
X166248467Y-129836612D01*
X166187143Y-129870096D01*
X166117452Y-129865112D01*
X166061518Y-129823240D01*
X166042855Y-129787248D01*
X165976095Y-129581782D01*
X165879620Y-129392442D01*
X165754727Y-129220540D01*
X165754723Y-129220535D01*
X165604464Y-129070276D01*
X165604459Y-129070272D01*
X165432557Y-128945379D01*
X165243215Y-128848903D01*
X165041124Y-128783241D01*
X164975000Y-128772768D01*
X164975000Y-129816988D01*
X164917993Y-129784075D01*
X164790826Y-129750000D01*
X164659174Y-129750000D01*
X164532007Y-129784075D01*
X164475000Y-129816988D01*
X164475000Y-128772768D01*
X164474999Y-128772768D01*
X164408875Y-128783241D01*
X164206784Y-128848903D01*
X164017442Y-128945379D01*
X163845540Y-129070272D01*
X163845535Y-129070276D01*
X163695276Y-129220535D01*
X163695272Y-129220540D01*
X163570379Y-129392442D01*
X163473904Y-129581782D01*
X163408242Y-129783869D01*
X163408242Y-129783872D01*
X163375000Y-129993753D01*
X163375000Y-130000000D01*
X164291988Y-130000000D01*
X164259075Y-130057007D01*
X164225000Y-130184174D01*
X164225000Y-130315826D01*
X164259075Y-130442993D01*
X164291988Y-130500000D01*
X163375000Y-130500000D01*
X163375000Y-130506246D01*
X163408242Y-130716127D01*
X163408242Y-130716130D01*
X163473904Y-130918217D01*
X163570379Y-131107557D01*
X163695272Y-131279459D01*
X163695276Y-131279464D01*
X163845535Y-131429723D01*
X163845540Y-131429727D01*
X164017442Y-131554620D01*
X164205224Y-131650301D01*
X164256020Y-131698276D01*
X164272815Y-131766097D01*
X164250278Y-131832232D01*
X164236610Y-131848467D01*
X155621899Y-140463181D01*
X155560576Y-140496666D01*
X155534218Y-140499500D01*
X125405897Y-140499500D01*
X125338858Y-140479815D01*
X125293103Y-140427011D01*
X125283159Y-140357853D01*
X125312184Y-140294297D01*
X125318216Y-140287819D01*
X125613228Y-139992806D01*
X125674551Y-139959321D01*
X125721319Y-139958178D01*
X125910142Y-139989687D01*
X125910143Y-139989687D01*
X126142239Y-139989687D01*
X126142240Y-139989687D01*
X126371172Y-139951485D01*
X126590694Y-139876123D01*
X126794817Y-139765657D01*
X126977975Y-139623100D01*
X127135170Y-139452340D01*
X127262115Y-139258036D01*
X127355348Y-139045487D01*
X127412325Y-138820492D01*
X127412712Y-138815826D01*
X127431491Y-138589193D01*
X127431491Y-138589180D01*
X127412326Y-138357889D01*
X127412324Y-138357878D01*
X127355348Y-138132886D01*
X127262115Y-137920338D01*
X127135174Y-137726039D01*
X127135171Y-137726036D01*
X127135170Y-137726034D01*
X127040386Y-137623071D01*
X127009466Y-137560419D01*
X127017326Y-137490993D01*
X127061474Y-137436838D01*
X127088286Y-137422909D01*
X127168517Y-137392985D01*
X127168517Y-137392984D01*
X127168522Y-137392983D01*
X127283737Y-137306733D01*
X127369987Y-137191518D01*
X127420282Y-137056670D01*
X127426691Y-136997060D01*
X127426690Y-135101315D01*
X127420282Y-135041704D01*
X127369987Y-134906856D01*
X127369986Y-134906855D01*
X127369984Y-134906851D01*
X127283738Y-134791642D01*
X127283735Y-134791639D01*
X127168526Y-134705393D01*
X127168519Y-134705389D01*
X127033673Y-134655095D01*
X127033674Y-134655095D01*
X126974074Y-134648688D01*
X126974072Y-134648687D01*
X126974064Y-134648687D01*
X126974055Y-134648687D01*
X125078320Y-134648687D01*
X125078314Y-134648688D01*
X125018707Y-134655095D01*
X124883862Y-134705389D01*
X124883855Y-134705393D01*
X124768646Y-134791639D01*
X124768643Y-134791642D01*
X124682397Y-134906851D01*
X124682393Y-134906858D01*
X124632099Y-135041704D01*
X124625692Y-135101303D01*
X124625692Y-135101310D01*
X124625691Y-135101322D01*
X124625691Y-135449687D01*
X124606006Y-135516726D01*
X124553202Y-135562481D01*
X124501691Y-135573687D01*
X122735989Y-135573687D01*
X122668950Y-135554002D01*
X122630450Y-135514784D01*
X122608672Y-135479476D01*
X122593903Y-135455531D01*
X122469847Y-135331475D01*
X122362743Y-135265413D01*
X122320527Y-135239374D01*
X122320522Y-135239372D01*
X122319053Y-135238885D01*
X122153988Y-135184188D01*
X122153986Y-135184187D01*
X122051201Y-135173687D01*
X121051189Y-135173687D01*
X121051171Y-135173688D01*
X120948394Y-135184187D01*
X120948391Y-135184188D01*
X120781859Y-135239372D01*
X120781854Y-135239374D01*
X120632533Y-135331476D01*
X120508480Y-135455529D01*
X120416378Y-135604850D01*
X120416376Y-135604855D01*
X120408129Y-135629744D01*
X120361192Y-135771390D01*
X120361192Y-135771391D01*
X120361191Y-135771391D01*
X120350691Y-135874170D01*
X120350691Y-136674188D01*
X120350692Y-136674206D01*
X120361191Y-136776983D01*
X120361192Y-136776986D01*
X120386045Y-136851986D01*
X120416377Y-136943521D01*
X120489372Y-137061866D01*
X120508480Y-137092844D01*
X120602495Y-137186859D01*
X120635980Y-137248182D01*
X120630996Y-137317874D01*
X120602496Y-137362221D01*
X120508873Y-137455844D01*
X120416834Y-137605062D01*
X120416832Y-137605067D01*
X120361685Y-137771489D01*
X120361684Y-137771496D01*
X120351191Y-137874200D01*
X120351191Y-138024187D01*
X122751190Y-138024187D01*
X122751190Y-137874215D01*
X122751189Y-137874200D01*
X122740696Y-137771489D01*
X122685549Y-137605067D01*
X122685547Y-137605062D01*
X122593506Y-137455841D01*
X122499886Y-137362221D01*
X122466401Y-137300898D01*
X122471385Y-137231206D01*
X122499882Y-137186863D01*
X122593903Y-137092843D01*
X122630450Y-137033589D01*
X122682398Y-136986866D01*
X122735989Y-136974687D01*
X124515427Y-136974687D01*
X124582466Y-136994372D01*
X124628221Y-137047176D01*
X124631609Y-137055354D01*
X124682393Y-137191515D01*
X124682397Y-137191522D01*
X124768643Y-137306731D01*
X124768646Y-137306734D01*
X124883855Y-137392980D01*
X124883864Y-137392985D01*
X124964095Y-137422909D01*
X125020029Y-137464780D01*
X125044447Y-137530244D01*
X125029596Y-137598517D01*
X125011993Y-137623073D01*
X124917210Y-137726036D01*
X124790266Y-137920338D01*
X124697033Y-138132886D01*
X124640057Y-138357878D01*
X124640055Y-138357889D01*
X124620891Y-138589180D01*
X124620891Y-138589193D01*
X124640056Y-138820488D01*
X124640056Y-138820491D01*
X124640057Y-138820492D01*
X124648006Y-138851884D01*
X124655934Y-138883189D01*
X124653309Y-138953009D01*
X124623409Y-139001310D01*
X124472351Y-139152369D01*
X124411031Y-139185853D01*
X124384672Y-139188687D01*
X122756373Y-139188687D01*
X122689334Y-139169002D01*
X122643579Y-139116198D01*
X122633635Y-139047040D01*
X122650834Y-138999590D01*
X122685547Y-138943311D01*
X122685549Y-138943306D01*
X122740696Y-138776884D01*
X122740697Y-138776877D01*
X122751190Y-138674173D01*
X122751191Y-138674160D01*
X122751191Y-138524187D01*
X120351192Y-138524187D01*
X120351192Y-138674173D01*
X120361685Y-138776884D01*
X120416832Y-138943306D01*
X120416834Y-138943311D01*
X120451548Y-138999590D01*
X120469988Y-139066982D01*
X120449066Y-139133646D01*
X120395424Y-139178416D01*
X120346009Y-139188687D01*
X119305706Y-139188687D01*
X119238667Y-139169002D01*
X119218025Y-139152368D01*
X118961819Y-138896162D01*
X118928334Y-138834839D01*
X118925500Y-138808481D01*
X118925500Y-134731004D01*
X118898581Y-134595677D01*
X118898580Y-134595676D01*
X118898580Y-134595672D01*
X118887127Y-134568021D01*
X118845778Y-134468195D01*
X118845776Y-134468191D01*
X118845775Y-134468189D01*
X118790763Y-134385858D01*
X118790761Y-134385855D01*
X118769116Y-134353459D01*
X118769114Y-134353457D01*
X117396546Y-132980888D01*
X117396545Y-132980887D01*
X117281807Y-132904222D01*
X117154332Y-132851421D01*
X117154322Y-132851418D01*
X117018996Y-132824500D01*
X117018994Y-132824500D01*
X117018993Y-132824500D01*
X100711519Y-132824500D01*
X100644480Y-132804815D01*
X100623838Y-132788181D01*
X90409992Y-122574335D01*
X90376507Y-122513012D01*
X90381491Y-122443320D01*
X90423363Y-122387387D01*
X90477262Y-122364345D01*
X90662913Y-122333366D01*
X90890664Y-122255179D01*
X91102439Y-122140572D01*
X91292463Y-121992671D01*
X91455551Y-121815510D01*
X91587255Y-121613922D01*
X91683983Y-121393405D01*
X91743095Y-121159976D01*
X91751932Y-121053320D01*
X91762980Y-120920005D01*
X91762980Y-120919994D01*
X91745220Y-120705666D01*
X91743095Y-120680024D01*
X91683983Y-120446595D01*
X91587255Y-120226078D01*
X91455551Y-120024490D01*
X91292463Y-119847329D01*
X91102713Y-119699641D01*
X91102441Y-119699429D01*
X90890665Y-119584821D01*
X90890656Y-119584818D01*
X90662916Y-119506634D01*
X90460312Y-119472826D01*
X90425399Y-119467000D01*
X90184601Y-119467000D01*
X90149688Y-119472826D01*
X89947083Y-119506634D01*
X89719343Y-119584818D01*
X89719334Y-119584821D01*
X89507558Y-119699429D01*
X89410698Y-119774819D01*
X89317537Y-119847329D01*
X89317534Y-119847331D01*
X89317534Y-119847332D01*
X89288413Y-119878966D01*
X89154449Y-120024490D01*
X89138808Y-120048431D01*
X89085661Y-120093787D01*
X89016430Y-120103210D01*
X88953094Y-120073707D01*
X88931192Y-120048431D01*
X88915551Y-120024490D01*
X88752463Y-119847329D01*
X88562713Y-119699641D01*
X88562441Y-119699429D01*
X88350665Y-119584821D01*
X88350656Y-119584818D01*
X88122916Y-119506634D01*
X87920312Y-119472826D01*
X87885399Y-119467000D01*
X87644601Y-119467000D01*
X87609688Y-119472826D01*
X87407083Y-119506634D01*
X87179343Y-119584818D01*
X87179334Y-119584821D01*
X86967558Y-119699429D01*
X86870698Y-119774819D01*
X86777537Y-119847329D01*
X86777534Y-119847331D01*
X86777534Y-119847332D01*
X86748413Y-119878966D01*
X86614449Y-120024490D01*
X86598808Y-120048431D01*
X86545661Y-120093787D01*
X86476430Y-120103210D01*
X86413094Y-120073707D01*
X86391192Y-120048431D01*
X86375551Y-120024490D01*
X86212463Y-119847329D01*
X86022713Y-119699641D01*
X86022441Y-119699429D01*
X85810665Y-119584821D01*
X85810656Y-119584818D01*
X85582916Y-119506634D01*
X85380312Y-119472826D01*
X85345399Y-119467000D01*
X85104601Y-119467000D01*
X85069688Y-119472826D01*
X84867083Y-119506634D01*
X84639343Y-119584818D01*
X84639334Y-119584821D01*
X84427558Y-119699429D01*
X84330698Y-119774819D01*
X84237537Y-119847329D01*
X84237534Y-119847331D01*
X84237534Y-119847332D01*
X84208413Y-119878966D01*
X84074449Y-120024490D01*
X84058808Y-120048431D01*
X84005661Y-120093787D01*
X83936430Y-120103210D01*
X83873094Y-120073707D01*
X83851192Y-120048431D01*
X83835551Y-120024490D01*
X83672463Y-119847329D01*
X83482713Y-119699641D01*
X83482441Y-119699429D01*
X83270665Y-119584821D01*
X83270656Y-119584818D01*
X83042916Y-119506634D01*
X82840312Y-119472826D01*
X82805399Y-119467000D01*
X82564601Y-119467000D01*
X82529688Y-119472826D01*
X82327083Y-119506634D01*
X82099343Y-119584818D01*
X82099334Y-119584821D01*
X81887558Y-119699429D01*
X81790698Y-119774819D01*
X81697537Y-119847329D01*
X81697534Y-119847331D01*
X81697534Y-119847332D01*
X81668413Y-119878966D01*
X81534449Y-120024490D01*
X81518808Y-120048431D01*
X81465661Y-120093787D01*
X81396430Y-120103210D01*
X81333094Y-120073707D01*
X81311192Y-120048431D01*
X81295551Y-120024490D01*
X81132463Y-119847329D01*
X80942713Y-119699641D01*
X80942441Y-119699429D01*
X80730665Y-119584821D01*
X80730656Y-119584818D01*
X80502916Y-119506634D01*
X80300312Y-119472826D01*
X80265399Y-119467000D01*
X80241952Y-119467000D01*
X80174913Y-119447315D01*
X80129158Y-119394511D01*
X80119214Y-119325353D01*
X80148239Y-119261797D01*
X80154271Y-119255319D01*
X80197771Y-119211819D01*
X80259094Y-119178334D01*
X80285452Y-119175500D01*
X91303152Y-119175500D01*
X91370191Y-119195185D01*
X91390833Y-119211819D01*
X103149620Y-130970606D01*
X103149649Y-130970637D01*
X103239868Y-131060856D01*
X103279070Y-131087050D01*
X103279071Y-131087050D01*
X103279072Y-131087051D01*
X103342318Y-131129312D01*
X103422811Y-131162652D01*
X103456152Y-131176463D01*
X103516575Y-131188481D01*
X103576997Y-131200500D01*
X130348547Y-131200500D01*
X130415586Y-131220185D01*
X130434404Y-131235032D01*
X130450000Y-131250000D01*
X133599999Y-131250000D01*
X133600000Y-131250000D01*
X133628958Y-131220851D01*
X133690169Y-131187168D01*
X133692693Y-131186637D01*
X133743848Y-131176463D01*
X133743851Y-131176461D01*
X133743854Y-131176461D01*
X133777183Y-131162654D01*
X133777182Y-131162654D01*
X133777188Y-131162652D01*
X133857682Y-131129312D01*
X133920928Y-131087051D01*
X133960129Y-131060858D01*
X134047254Y-130973733D01*
X134047255Y-130973731D01*
X134054321Y-130966665D01*
X134054323Y-130966661D01*
X135945985Y-129075000D01*
X147397520Y-129075000D01*
X147417299Y-129320023D01*
X147417300Y-129320027D01*
X147476128Y-129558701D01*
X147572063Y-129783872D01*
X147572483Y-129784856D01*
X147703867Y-129992622D01*
X147703870Y-129992626D01*
X147866875Y-130176621D01*
X147866877Y-130176623D01*
X148057292Y-130332092D01*
X148057294Y-130332093D01*
X148057301Y-130332098D01*
X148270178Y-130455002D01*
X148270180Y-130455003D01*
X148500028Y-130542173D01*
X148594449Y-130561448D01*
X148740875Y-130591342D01*
X148740880Y-130591342D01*
X148740883Y-130591343D01*
X148814569Y-130594312D01*
X148986498Y-130601242D01*
X148986499Y-130601242D01*
X148986500Y-130601241D01*
X148986505Y-130601242D01*
X149210605Y-130574031D01*
X149230536Y-130571611D01*
X149297090Y-130552332D01*
X149466652Y-130503219D01*
X149688740Y-130397837D01*
X149891048Y-130258194D01*
X150068336Y-130087907D01*
X150216011Y-129891386D01*
X150330251Y-129673721D01*
X150408095Y-129440550D01*
X150438981Y-129250500D01*
X150447526Y-129197920D01*
X150447526Y-129197917D01*
X150447527Y-129197911D01*
X150450000Y-129075000D01*
X150447527Y-128952089D01*
X150447526Y-128952082D01*
X150447526Y-128952079D01*
X150408095Y-128709450D01*
X150408095Y-128709449D01*
X150338170Y-128499999D01*
X150330251Y-128476279D01*
X150330250Y-128476278D01*
X150330250Y-128476276D01*
X150216906Y-128260320D01*
X150216011Y-128258614D01*
X150216008Y-128258610D01*
X150216007Y-128258608D01*
X150068334Y-128062090D01*
X149891053Y-127891810D01*
X149891049Y-127891807D01*
X149688743Y-127752164D01*
X149526122Y-127675000D01*
X149466652Y-127646781D01*
X149466649Y-127646780D01*
X149466646Y-127646779D01*
X149230536Y-127578388D01*
X148986498Y-127548757D01*
X148740886Y-127558656D01*
X148740875Y-127558657D01*
X148500030Y-127607826D01*
X148270178Y-127694997D01*
X148057301Y-127817901D01*
X148057294Y-127817906D01*
X147866879Y-127973374D01*
X147866875Y-127973378D01*
X147703870Y-128157373D01*
X147572481Y-128365147D01*
X147476128Y-128591298D01*
X147417300Y-128829972D01*
X147417299Y-128829976D01*
X147397520Y-129075000D01*
X135945985Y-129075000D01*
X139684167Y-125336819D01*
X139745490Y-125303334D01*
X139771848Y-125300500D01*
X155062836Y-125300500D01*
X155129875Y-125320185D01*
X155175630Y-125372989D01*
X155186126Y-125411246D01*
X155188409Y-125432483D01*
X155238702Y-125567328D01*
X155238706Y-125567335D01*
X155324952Y-125682544D01*
X155324955Y-125682547D01*
X155440164Y-125768793D01*
X155440171Y-125768797D01*
X155575017Y-125819091D01*
X155575016Y-125819091D01*
X155581944Y-125819835D01*
X155634627Y-125825500D01*
X157114546Y-125825499D01*
X157181585Y-125845184D01*
X157202227Y-125861818D01*
X158475681Y-127135272D01*
X158509166Y-127196595D01*
X158512000Y-127222953D01*
X158512000Y-127800001D01*
X158512001Y-127800019D01*
X158522500Y-127902796D01*
X158522501Y-127902799D01*
X158545888Y-127973374D01*
X158577686Y-128069334D01*
X158669788Y-128218656D01*
X158793844Y-128342712D01*
X158943166Y-128434814D01*
X159109703Y-128489999D01*
X159212491Y-128500500D01*
X159837508Y-128500499D01*
X159837516Y-128500498D01*
X159837519Y-128500498D01*
X159893802Y-128494748D01*
X159940297Y-128489999D01*
X160106834Y-128434814D01*
X160256156Y-128342712D01*
X160350175Y-128248692D01*
X160411494Y-128215210D01*
X160481186Y-128220194D01*
X160525534Y-128248695D01*
X160619154Y-128342315D01*
X160768375Y-128434356D01*
X160768380Y-128434358D01*
X160934802Y-128489505D01*
X160934809Y-128489506D01*
X161037519Y-128499999D01*
X161600000Y-128499999D01*
X161662472Y-128499999D01*
X161662486Y-128499998D01*
X161765197Y-128489505D01*
X161931619Y-128434358D01*
X161931624Y-128434356D01*
X162080845Y-128342315D01*
X162204815Y-128218345D01*
X162296856Y-128069124D01*
X162296858Y-128069119D01*
X162352005Y-127902697D01*
X162352006Y-127902690D01*
X162362499Y-127799986D01*
X162362500Y-127799973D01*
X162362500Y-127550000D01*
X161600000Y-127550000D01*
X161600000Y-128499999D01*
X161037519Y-128499999D01*
X161099999Y-128499998D01*
X161100000Y-128499998D01*
X161100000Y-127174000D01*
X161119685Y-127106961D01*
X161172489Y-127061206D01*
X161224000Y-127050000D01*
X162362499Y-127050000D01*
X162362499Y-126800028D01*
X162362498Y-126800013D01*
X162352005Y-126697302D01*
X162296858Y-126530880D01*
X162296856Y-126530875D01*
X162204815Y-126381654D01*
X162080845Y-126257684D01*
X161931624Y-126165643D01*
X161931621Y-126165642D01*
X161831265Y-126132387D01*
X161773821Y-126092614D01*
X161746998Y-126028098D01*
X161759313Y-125959322D01*
X161782585Y-125927004D01*
X162372772Y-125336819D01*
X162434095Y-125303334D01*
X162460453Y-125300500D01*
X163022836Y-125300500D01*
X163089875Y-125320185D01*
X163135630Y-125372989D01*
X163146126Y-125411246D01*
X163148409Y-125432483D01*
X163198702Y-125567328D01*
X163198706Y-125567335D01*
X163284952Y-125682544D01*
X163284955Y-125682547D01*
X163400164Y-125768793D01*
X163400171Y-125768797D01*
X163535017Y-125819091D01*
X163535016Y-125819091D01*
X163541944Y-125819835D01*
X163594627Y-125825500D01*
X165240372Y-125825499D01*
X165299983Y-125819091D01*
X165434831Y-125768796D01*
X165550046Y-125682546D01*
X165636296Y-125567331D01*
X165686591Y-125432483D01*
X165693000Y-125372873D01*
X165692999Y-123977128D01*
X165686591Y-123917517D01*
X165661088Y-123849141D01*
X165636297Y-123782671D01*
X165636293Y-123782664D01*
X165550047Y-123667455D01*
X165550044Y-123667452D01*
X165434835Y-123581206D01*
X165434828Y-123581202D01*
X165299982Y-123530908D01*
X165299983Y-123530908D01*
X165240383Y-123524501D01*
X165240381Y-123524500D01*
X165240373Y-123524500D01*
X165240364Y-123524500D01*
X163594629Y-123524500D01*
X163594623Y-123524501D01*
X163535016Y-123530908D01*
X163400171Y-123581202D01*
X163400164Y-123581206D01*
X163284955Y-123667452D01*
X163284952Y-123667455D01*
X163198706Y-123782664D01*
X163198702Y-123782671D01*
X163148408Y-123917516D01*
X163146125Y-123938757D01*
X163119386Y-124003308D01*
X163061993Y-124043155D01*
X163022836Y-124049500D01*
X162217741Y-124049500D01*
X162217721Y-124049499D01*
X162211607Y-124049499D01*
X162088394Y-124049499D01*
X161987597Y-124069548D01*
X161987592Y-124069548D01*
X161967549Y-124073536D01*
X161967547Y-124073536D01*
X161920397Y-124093067D01*
X161853719Y-124120685D01*
X161853717Y-124120686D01*
X161751266Y-124189141D01*
X161751263Y-124189144D01*
X159877227Y-126063181D01*
X159815904Y-126096666D01*
X159789546Y-126099500D01*
X159260452Y-126099500D01*
X159193413Y-126079815D01*
X159172771Y-126063181D01*
X157769318Y-124659728D01*
X157735833Y-124598405D01*
X157732999Y-124572047D01*
X157732999Y-123977129D01*
X157732998Y-123977123D01*
X157726591Y-123917516D01*
X157676297Y-123782671D01*
X157676293Y-123782664D01*
X157590047Y-123667455D01*
X157590044Y-123667452D01*
X157474835Y-123581206D01*
X157474828Y-123581202D01*
X157339982Y-123530908D01*
X157339983Y-123530908D01*
X157280383Y-123524501D01*
X157280381Y-123524500D01*
X157280373Y-123524500D01*
X157280365Y-123524500D01*
X156242952Y-123524500D01*
X156175913Y-123504815D01*
X156155271Y-123488181D01*
X155710198Y-123043108D01*
X155710178Y-123043086D01*
X155618736Y-122951644D01*
X155618732Y-122951641D01*
X155558781Y-122911583D01*
X155516287Y-122883189D01*
X155516286Y-122883188D01*
X155516283Y-122883186D01*
X155516280Y-122883185D01*
X155435792Y-122849847D01*
X155402453Y-122836037D01*
X155392427Y-122834043D01*
X155342029Y-122824018D01*
X155281610Y-122812000D01*
X155281607Y-122812000D01*
X155281606Y-122812000D01*
X155185848Y-122812000D01*
X155118809Y-122792315D01*
X155080309Y-122753097D01*
X155005212Y-122631344D01*
X154881156Y-122507288D01*
X154878319Y-122505538D01*
X154876783Y-122503830D01*
X154875489Y-122502807D01*
X154875663Y-122502585D01*
X154831596Y-122453594D01*
X154820372Y-122384632D01*
X154848213Y-122320549D01*
X154878317Y-122294462D01*
X154881156Y-122292712D01*
X155005212Y-122168656D01*
X155083739Y-122041341D01*
X155135687Y-121994617D01*
X155165083Y-121984822D01*
X155227992Y-121972309D01*
X155227993Y-121972309D01*
X155249262Y-121968078D01*
X155269952Y-121963963D01*
X155318562Y-121943828D01*
X155383786Y-121916812D01*
X155435009Y-121882584D01*
X155439727Y-121879432D01*
X155447771Y-121874056D01*
X155486233Y-121848358D01*
X155573358Y-121761233D01*
X155573358Y-121761231D01*
X155583566Y-121751024D01*
X155583568Y-121751021D01*
X155972771Y-121361818D01*
X156034094Y-121328333D01*
X156060452Y-121325499D01*
X157280371Y-121325499D01*
X157280372Y-121325499D01*
X157339983Y-121319091D01*
X157474831Y-121268796D01*
X157590046Y-121182546D01*
X157676296Y-121067331D01*
X157726591Y-120932483D01*
X157731068Y-120890842D01*
X157757803Y-120826295D01*
X157815195Y-120786446D01*
X157885020Y-120783951D01*
X157927241Y-120803782D01*
X158072265Y-120909148D01*
X158072270Y-120909151D01*
X158245192Y-120986142D01*
X158245197Y-120986144D01*
X158430354Y-121025500D01*
X158430355Y-121025500D01*
X158619644Y-121025500D01*
X158619646Y-121025500D01*
X158804803Y-120986144D01*
X158977730Y-120909151D01*
X158987223Y-120902254D01*
X158991452Y-120899182D01*
X159057258Y-120875702D01*
X159064337Y-120875500D01*
X163041060Y-120875500D01*
X163108099Y-120895185D01*
X163153854Y-120947989D01*
X163157242Y-120956167D01*
X163198702Y-121067328D01*
X163198706Y-121067335D01*
X163284952Y-121182544D01*
X163284955Y-121182547D01*
X163400164Y-121268793D01*
X163400171Y-121268797D01*
X163535017Y-121319091D01*
X163535016Y-121319091D01*
X163541944Y-121319835D01*
X163594627Y-121325500D01*
X165240372Y-121325499D01*
X165299983Y-121319091D01*
X165434831Y-121268796D01*
X165550046Y-121182546D01*
X165636296Y-121067331D01*
X165686591Y-120932483D01*
X165693000Y-120872873D01*
X165692999Y-119477128D01*
X165686591Y-119417517D01*
X165680956Y-119402410D01*
X165636297Y-119282671D01*
X165636293Y-119282664D01*
X165550047Y-119167455D01*
X165550044Y-119167452D01*
X165434835Y-119081206D01*
X165434828Y-119081202D01*
X165299982Y-119030908D01*
X165299983Y-119030908D01*
X165240383Y-119024501D01*
X165240381Y-119024500D01*
X165240373Y-119024500D01*
X165240364Y-119024500D01*
X163594629Y-119024500D01*
X163594623Y-119024501D01*
X163535016Y-119030908D01*
X163400171Y-119081202D01*
X163400164Y-119081206D01*
X163284955Y-119167452D01*
X163284952Y-119167455D01*
X163198706Y-119282664D01*
X163198702Y-119282671D01*
X163157242Y-119393833D01*
X163115371Y-119449767D01*
X163049907Y-119474184D01*
X163041060Y-119474500D01*
X159201975Y-119474500D01*
X159134936Y-119454815D01*
X159129090Y-119450818D01*
X158977734Y-119340851D01*
X158977729Y-119340848D01*
X158804807Y-119263857D01*
X158804802Y-119263855D01*
X158659001Y-119232865D01*
X158619646Y-119224500D01*
X158430354Y-119224500D01*
X158397897Y-119231398D01*
X158245197Y-119263855D01*
X158245192Y-119263857D01*
X158072270Y-119340848D01*
X158072265Y-119340851D01*
X157913871Y-119455932D01*
X157912951Y-119454666D01*
X157857105Y-119481459D01*
X157787770Y-119472826D01*
X157734110Y-119428078D01*
X157720957Y-119402410D01*
X157676297Y-119282671D01*
X157676293Y-119282664D01*
X157590047Y-119167455D01*
X157590044Y-119167452D01*
X157474835Y-119081206D01*
X157474828Y-119081202D01*
X157339982Y-119030908D01*
X157339983Y-119030908D01*
X157280383Y-119024501D01*
X157280381Y-119024500D01*
X157280373Y-119024500D01*
X157280364Y-119024500D01*
X155634629Y-119024500D01*
X155634623Y-119024501D01*
X155575016Y-119030908D01*
X155440171Y-119081202D01*
X155440164Y-119081206D01*
X155324955Y-119167452D01*
X155324952Y-119167455D01*
X155238706Y-119282664D01*
X155238702Y-119282671D01*
X155188408Y-119417517D01*
X155182772Y-119469948D01*
X155182001Y-119477123D01*
X155182000Y-119477135D01*
X155182000Y-120332046D01*
X155162315Y-120399085D01*
X155145681Y-120419727D01*
X155094819Y-120470589D01*
X155033496Y-120504074D01*
X154963804Y-120499090D01*
X154919457Y-120470589D01*
X154881157Y-120432289D01*
X154881156Y-120432288D01*
X154731834Y-120340186D01*
X154565297Y-120285001D01*
X154565295Y-120285000D01*
X154462510Y-120274500D01*
X153412498Y-120274500D01*
X153412480Y-120274501D01*
X153309703Y-120285000D01*
X153309700Y-120285001D01*
X153143168Y-120340185D01*
X153143163Y-120340187D01*
X152993842Y-120432289D01*
X152869789Y-120556342D01*
X152777687Y-120705663D01*
X152777686Y-120705666D01*
X152722501Y-120872203D01*
X152722501Y-120872204D01*
X152722500Y-120872204D01*
X152712000Y-120974983D01*
X152712000Y-121750001D01*
X152712001Y-121750019D01*
X152722500Y-121852796D01*
X152722501Y-121852799D01*
X152777685Y-122019331D01*
X152777687Y-122019336D01*
X152806161Y-122065500D01*
X152869787Y-122168655D01*
X152869789Y-122168657D01*
X152993846Y-122292714D01*
X152996682Y-122294463D01*
X152998217Y-122296170D01*
X152999511Y-122297193D01*
X152999336Y-122297414D01*
X153043405Y-122346411D01*
X153054626Y-122415374D01*
X153026782Y-122479456D01*
X152996682Y-122505537D01*
X152993846Y-122507285D01*
X152869789Y-122631342D01*
X152777687Y-122780663D01*
X152777685Y-122780668D01*
X152763320Y-122824019D01*
X152722501Y-122947203D01*
X152722501Y-122947204D01*
X152722500Y-122947204D01*
X152712000Y-123049983D01*
X152712000Y-123825001D01*
X152712001Y-123825019D01*
X152720979Y-123912899D01*
X152708209Y-123981592D01*
X152660328Y-124032476D01*
X152597621Y-124049500D01*
X141051607Y-124049500D01*
X140984568Y-124029815D01*
X140938813Y-123977011D01*
X140928869Y-123907853D01*
X140957894Y-123844297D01*
X140963640Y-123838106D01*
X152675000Y-112050000D01*
X152675000Y-111760952D01*
X152694685Y-111693913D01*
X152711315Y-111673274D01*
X156980858Y-107403733D01*
X156996310Y-107380608D01*
X157049922Y-107335803D01*
X157099412Y-107325499D01*
X157317871Y-107325499D01*
X157317872Y-107325499D01*
X157377483Y-107319091D01*
X157512331Y-107268796D01*
X157627546Y-107182546D01*
X157713796Y-107067331D01*
X157764091Y-106932483D01*
X157764091Y-106932482D01*
X157766375Y-106911243D01*
X157793114Y-106846692D01*
X157850507Y-106806845D01*
X157889664Y-106800500D01*
X163060336Y-106800500D01*
X163127375Y-106820185D01*
X163173130Y-106872989D01*
X163183626Y-106911246D01*
X163185909Y-106932483D01*
X163236202Y-107067328D01*
X163236206Y-107067335D01*
X163322452Y-107182544D01*
X163322455Y-107182547D01*
X163437664Y-107268793D01*
X163437671Y-107268797D01*
X163572517Y-107319091D01*
X163572516Y-107319091D01*
X163579444Y-107319835D01*
X163632127Y-107325500D01*
X165277872Y-107325499D01*
X165337483Y-107319091D01*
X165472331Y-107268796D01*
X165587546Y-107182546D01*
X165673796Y-107067331D01*
X165724091Y-106932483D01*
X165730500Y-106872873D01*
X165730499Y-105835452D01*
X165750183Y-105768414D01*
X165766818Y-105747772D01*
X166327827Y-105186764D01*
X166910858Y-104603733D01*
X166979312Y-104501285D01*
X167026463Y-104387451D01*
X167034943Y-104344821D01*
X167050500Y-104266606D01*
X167050500Y-101138394D01*
X167048172Y-101126692D01*
X167026670Y-101018588D01*
X167026463Y-101017548D01*
X166979311Y-100903714D01*
X166979309Y-100903711D01*
X166979307Y-100903707D01*
X166910858Y-100801267D01*
X166910855Y-100801263D01*
X166820637Y-100711045D01*
X166820606Y-100711016D01*
X165790198Y-99680608D01*
X165790178Y-99680586D01*
X165698733Y-99589141D01*
X165647509Y-99554915D01*
X165608423Y-99528798D01*
X165596286Y-99520688D01*
X165512340Y-99485917D01*
X165512338Y-99485915D01*
X165482455Y-99473538D01*
X165482453Y-99473537D01*
X165482452Y-99473537D01*
X165422029Y-99461518D01*
X165361610Y-99449500D01*
X165361607Y-99449500D01*
X165361606Y-99449500D01*
X162499000Y-99449500D01*
X162431961Y-99429815D01*
X162386206Y-99377011D01*
X162375000Y-99325500D01*
X162375000Y-99275000D01*
X161236500Y-99275000D01*
X161169461Y-99255315D01*
X161123706Y-99202511D01*
X161112500Y-99151000D01*
X161112500Y-98899000D01*
X161132185Y-98831961D01*
X161184989Y-98786206D01*
X161236500Y-98775000D01*
X162374999Y-98775000D01*
X162374999Y-98525028D01*
X162374998Y-98525013D01*
X162364505Y-98422302D01*
X162361424Y-98413001D01*
X162359024Y-98343173D01*
X162394757Y-98283132D01*
X162457278Y-98251941D01*
X162479131Y-98250000D01*
X169376000Y-98250000D01*
X169443039Y-98269685D01*
G37*
%TD.AperFunction*%
%TA.AperFunction,Conductor*%
G36*
X84036904Y-121766291D02*
G01*
X84058808Y-121791570D01*
X84074449Y-121815510D01*
X84237537Y-121992671D01*
X84427561Y-122140572D01*
X84639336Y-122255179D01*
X84673732Y-122266987D01*
X84867083Y-122333365D01*
X84867085Y-122333365D01*
X84867087Y-122333366D01*
X85104601Y-122373000D01*
X85104602Y-122373000D01*
X85345398Y-122373000D01*
X85345399Y-122373000D01*
X85575486Y-122334605D01*
X85644850Y-122342987D01*
X85683576Y-122369233D01*
X103602162Y-140287819D01*
X103635647Y-140349142D01*
X103630663Y-140418834D01*
X103588791Y-140474767D01*
X103523327Y-140499184D01*
X103514481Y-140499500D01*
X93290783Y-140499500D01*
X93223744Y-140479815D01*
X93203102Y-140463181D01*
X91461818Y-138721897D01*
X91428333Y-138660574D01*
X91425499Y-138634216D01*
X91425499Y-137852129D01*
X91425498Y-137852123D01*
X91424893Y-137846496D01*
X91419091Y-137792517D01*
X91417810Y-137789083D01*
X91368797Y-137657671D01*
X91368793Y-137657664D01*
X91282547Y-137542455D01*
X91282544Y-137542452D01*
X91167335Y-137456206D01*
X91167328Y-137456202D01*
X91032482Y-137405908D01*
X91032483Y-137405908D01*
X90972883Y-137399501D01*
X90972881Y-137399500D01*
X90972873Y-137399500D01*
X90972864Y-137399500D01*
X89177129Y-137399500D01*
X89177123Y-137399501D01*
X89117516Y-137405908D01*
X88982671Y-137456202D01*
X88982664Y-137456206D01*
X88867455Y-137542452D01*
X88867452Y-137542455D01*
X88781206Y-137657664D01*
X88781203Y-137657669D01*
X88732189Y-137789083D01*
X88690317Y-137845016D01*
X88624853Y-137869433D01*
X88556580Y-137854581D01*
X88528326Y-137833430D01*
X88406402Y-137711506D01*
X88406395Y-137711501D01*
X88212834Y-137575967D01*
X88212830Y-137575965D01*
X88194582Y-137567456D01*
X87998663Y-137476097D01*
X87998659Y-137476096D01*
X87998655Y-137476094D01*
X87770413Y-137414938D01*
X87770403Y-137414936D01*
X87535001Y-137394341D01*
X87534999Y-137394341D01*
X87299596Y-137414936D01*
X87299586Y-137414938D01*
X87199126Y-137441856D01*
X87129276Y-137440193D01*
X87079352Y-137409762D01*
X83346819Y-133677229D01*
X83313334Y-133615906D01*
X83310500Y-133589548D01*
X83310500Y-122307508D01*
X83330185Y-122240469D01*
X83375483Y-122198453D01*
X83430546Y-122168655D01*
X83482439Y-122140572D01*
X83672463Y-121992671D01*
X83835551Y-121815510D01*
X83851190Y-121791571D01*
X83904336Y-121746214D01*
X83973567Y-121736790D01*
X84036904Y-121766291D01*
G37*
%TD.AperFunction*%
%TA.AperFunction,Conductor*%
G36*
X78956904Y-121766291D02*
G01*
X78978808Y-121791570D01*
X78994449Y-121815510D01*
X79157537Y-121992671D01*
X79313908Y-122114379D01*
X79347558Y-122140570D01*
X79347562Y-122140573D01*
X79454517Y-122198453D01*
X79504108Y-122247672D01*
X79519500Y-122307508D01*
X79519500Y-133961611D01*
X79543535Y-134082444D01*
X79543540Y-134082461D01*
X79590685Y-134196281D01*
X79590690Y-134196290D01*
X79610209Y-134225501D01*
X79610210Y-134225502D01*
X79659141Y-134298732D01*
X79659144Y-134298736D01*
X79750586Y-134390178D01*
X79750608Y-134390198D01*
X82668681Y-137308271D01*
X82702166Y-137369594D01*
X82705000Y-137395952D01*
X82705000Y-138316988D01*
X82647993Y-138284075D01*
X82520826Y-138250000D01*
X82389174Y-138250000D01*
X82262007Y-138284075D01*
X82205000Y-138316988D01*
X82205000Y-137419364D01*
X82204999Y-137419364D01*
X81991513Y-137476567D01*
X81991507Y-137476570D01*
X81777422Y-137576399D01*
X81777420Y-137576400D01*
X81583926Y-137711886D01*
X81583920Y-137711891D01*
X81416891Y-137878920D01*
X81416886Y-137878926D01*
X81281400Y-138072420D01*
X81281399Y-138072422D01*
X81181570Y-138286507D01*
X81181567Y-138286513D01*
X81124364Y-138499999D01*
X81124364Y-138500000D01*
X82021988Y-138500000D01*
X81989075Y-138557007D01*
X81955000Y-138684174D01*
X81955000Y-138815826D01*
X81989075Y-138942993D01*
X82021988Y-139000000D01*
X81124364Y-139000000D01*
X81181567Y-139213486D01*
X81181570Y-139213492D01*
X81281399Y-139427578D01*
X81416894Y-139621082D01*
X81583917Y-139788105D01*
X81777421Y-139923600D01*
X81991507Y-140023429D01*
X81991516Y-140023433D01*
X82205000Y-140080634D01*
X82205000Y-139183012D01*
X82262007Y-139215925D01*
X82389174Y-139250000D01*
X82520826Y-139250000D01*
X82647993Y-139215925D01*
X82705000Y-139183012D01*
X82705000Y-140080633D01*
X82918483Y-140023433D01*
X82918492Y-140023429D01*
X83132578Y-139923600D01*
X83326082Y-139788105D01*
X83493105Y-139621082D01*
X83623119Y-139435405D01*
X83677696Y-139391781D01*
X83747195Y-139384588D01*
X83809549Y-139416110D01*
X83826269Y-139435405D01*
X83956505Y-139621401D01*
X84123599Y-139788495D01*
X84220384Y-139856265D01*
X84317165Y-139924032D01*
X84317167Y-139924033D01*
X84317170Y-139924035D01*
X84531337Y-140023903D01*
X84759592Y-140085063D01*
X84947918Y-140101539D01*
X84994999Y-140105659D01*
X84995000Y-140105659D01*
X84995001Y-140105659D01*
X85034234Y-140102226D01*
X85230408Y-140085063D01*
X85458663Y-140023903D01*
X85672830Y-139924035D01*
X85866401Y-139788495D01*
X86033495Y-139621401D01*
X86163425Y-139435842D01*
X86218002Y-139392217D01*
X86287500Y-139385023D01*
X86349855Y-139416546D01*
X86366575Y-139435842D01*
X86496281Y-139621082D01*
X86496505Y-139621401D01*
X86663599Y-139788495D01*
X86760384Y-139856265D01*
X86857165Y-139924032D01*
X86857167Y-139924033D01*
X86857170Y-139924035D01*
X87071337Y-140023903D01*
X87071342Y-140023904D01*
X87071346Y-140023906D01*
X87112185Y-140034848D01*
X87171846Y-140071212D01*
X87202376Y-140134058D01*
X87194082Y-140203434D01*
X87167775Y-140242304D01*
X87021897Y-140388182D01*
X86960577Y-140421666D01*
X86934218Y-140424500D01*
X81690782Y-140424500D01*
X81623743Y-140404815D01*
X81603101Y-140388181D01*
X80061819Y-138846899D01*
X80028334Y-138785576D01*
X80025500Y-138759218D01*
X80025500Y-136952558D01*
X80025499Y-136952556D01*
X79987053Y-136759277D01*
X79987052Y-136759276D01*
X79987051Y-136759267D01*
X79982879Y-136749196D01*
X79954631Y-136680998D01*
X79911632Y-136577188D01*
X79893293Y-136549742D01*
X79802139Y-136413319D01*
X79659686Y-136270866D01*
X79659655Y-136270837D01*
X74169274Y-130780456D01*
X74135789Y-130719133D01*
X74140773Y-130649441D01*
X74182645Y-130593508D01*
X74226033Y-130574031D01*
X74225735Y-130573002D01*
X74339979Y-130539910D01*
X74466652Y-130503219D01*
X74688740Y-130397837D01*
X74891048Y-130258194D01*
X75068336Y-130087907D01*
X75216011Y-129891386D01*
X75330251Y-129673721D01*
X75408095Y-129440550D01*
X75438981Y-129250500D01*
X75447526Y-129197920D01*
X75447526Y-129197917D01*
X75447527Y-129197911D01*
X75450000Y-129075000D01*
X75447527Y-128952089D01*
X75447526Y-128952082D01*
X75447526Y-128952079D01*
X75408095Y-128709450D01*
X75408095Y-128709449D01*
X75338170Y-128499999D01*
X75330251Y-128476279D01*
X75330250Y-128476278D01*
X75330250Y-128476276D01*
X75216906Y-128260320D01*
X75216011Y-128258614D01*
X75216008Y-128258610D01*
X75216007Y-128258608D01*
X75068334Y-128062090D01*
X74891053Y-127891810D01*
X74891049Y-127891807D01*
X74688743Y-127752164D01*
X74526122Y-127675000D01*
X74466652Y-127646781D01*
X74466649Y-127646780D01*
X74466646Y-127646779D01*
X74230536Y-127578388D01*
X73986498Y-127548757D01*
X73740886Y-127558656D01*
X73740875Y-127558657D01*
X73500030Y-127607826D01*
X73270178Y-127694997D01*
X73057301Y-127817901D01*
X73057294Y-127817906D01*
X72866879Y-127973374D01*
X72866875Y-127973378D01*
X72703870Y-128157373D01*
X72572481Y-128365147D01*
X72476128Y-128591297D01*
X72430662Y-128775761D01*
X72395505Y-128836141D01*
X72333286Y-128867929D01*
X72263757Y-128861033D01*
X72222584Y-128833766D01*
X71736819Y-128348001D01*
X71703334Y-128286678D01*
X71700500Y-128260320D01*
X71700500Y-122334026D01*
X71720185Y-122266987D01*
X71772989Y-122221232D01*
X71842147Y-122211288D01*
X71883518Y-122224972D01*
X71939325Y-122255174D01*
X71939331Y-122255176D01*
X71939336Y-122255179D01*
X71973732Y-122266987D01*
X72167083Y-122333365D01*
X72167085Y-122333365D01*
X72167087Y-122333366D01*
X72404601Y-122373000D01*
X72404602Y-122373000D01*
X72645398Y-122373000D01*
X72645399Y-122373000D01*
X72882913Y-122333366D01*
X73110664Y-122255179D01*
X73322439Y-122140572D01*
X73512463Y-121992671D01*
X73675551Y-121815510D01*
X73691190Y-121791571D01*
X73744336Y-121746214D01*
X73813567Y-121736790D01*
X73876904Y-121766291D01*
X73898808Y-121791570D01*
X73914449Y-121815510D01*
X74077537Y-121992671D01*
X74267561Y-122140572D01*
X74479336Y-122255179D01*
X74513732Y-122266987D01*
X74707083Y-122333365D01*
X74707085Y-122333365D01*
X74707087Y-122333366D01*
X74944601Y-122373000D01*
X74944602Y-122373000D01*
X75185398Y-122373000D01*
X75185399Y-122373000D01*
X75422913Y-122333366D01*
X75650664Y-122255179D01*
X75862439Y-122140572D01*
X76052463Y-121992671D01*
X76215551Y-121815510D01*
X76231190Y-121791571D01*
X76284336Y-121746214D01*
X76353567Y-121736790D01*
X76416904Y-121766291D01*
X76438808Y-121791570D01*
X76454449Y-121815510D01*
X76617537Y-121992671D01*
X76807561Y-122140572D01*
X77019336Y-122255179D01*
X77053732Y-122266987D01*
X77247083Y-122333365D01*
X77247085Y-122333365D01*
X77247087Y-122333366D01*
X77484601Y-122373000D01*
X77484602Y-122373000D01*
X77725398Y-122373000D01*
X77725399Y-122373000D01*
X77962913Y-122333366D01*
X78190664Y-122255179D01*
X78402439Y-122140572D01*
X78592463Y-121992671D01*
X78755551Y-121815510D01*
X78771190Y-121791571D01*
X78824336Y-121746214D01*
X78893567Y-121736790D01*
X78956904Y-121766291D01*
G37*
%TD.AperFunction*%
%TA.AperFunction,Conductor*%
G36*
X88184850Y-122342987D02*
G01*
X88223576Y-122369233D01*
X99923453Y-134069111D01*
X99923454Y-134069112D01*
X100038192Y-134145777D01*
X100160134Y-134196286D01*
X100165672Y-134198580D01*
X100165676Y-134198580D01*
X100165677Y-134198581D01*
X100301003Y-134225500D01*
X100301006Y-134225500D01*
X100301007Y-134225500D01*
X116608481Y-134225500D01*
X116675520Y-134245185D01*
X116696162Y-134261819D01*
X116871349Y-134437006D01*
X116904834Y-134498329D01*
X116899850Y-134568021D01*
X116857978Y-134623954D01*
X116792514Y-134648371D01*
X116783668Y-134648687D01*
X115078320Y-134648687D01*
X115078314Y-134648688D01*
X115018707Y-134655095D01*
X114883862Y-134705389D01*
X114883855Y-134705393D01*
X114768646Y-134791639D01*
X114768643Y-134791642D01*
X114682397Y-134906851D01*
X114682393Y-134906858D01*
X114632099Y-135041704D01*
X114625692Y-135101303D01*
X114625692Y-135101310D01*
X114625691Y-135101322D01*
X114625691Y-135524687D01*
X114606006Y-135591726D01*
X114553202Y-135637481D01*
X114501691Y-135648687D01*
X112685989Y-135648687D01*
X112618950Y-135629002D01*
X112580450Y-135589784D01*
X112543903Y-135530531D01*
X112419847Y-135406475D01*
X112270525Y-135314373D01*
X112103988Y-135259188D01*
X112103986Y-135259187D01*
X112001201Y-135248687D01*
X111001189Y-135248687D01*
X111001171Y-135248688D01*
X110898394Y-135259187D01*
X110898391Y-135259188D01*
X110731859Y-135314372D01*
X110731854Y-135314374D01*
X110582533Y-135406476D01*
X110458480Y-135530529D01*
X110366378Y-135679850D01*
X110366377Y-135679853D01*
X110311192Y-135846390D01*
X110311192Y-135846391D01*
X110311191Y-135846391D01*
X110300691Y-135949170D01*
X110300691Y-136749188D01*
X110300692Y-136749197D01*
X110311191Y-136851983D01*
X110311192Y-136851986D01*
X110366376Y-137018518D01*
X110366378Y-137018523D01*
X110384051Y-137047176D01*
X110454987Y-137162182D01*
X110458480Y-137167844D01*
X110552495Y-137261859D01*
X110585980Y-137323182D01*
X110580996Y-137392874D01*
X110552496Y-137437221D01*
X110458873Y-137530844D01*
X110366834Y-137680062D01*
X110366832Y-137680067D01*
X110311685Y-137846489D01*
X110311684Y-137846496D01*
X110301191Y-137949200D01*
X110301191Y-138099187D01*
X112701190Y-138099187D01*
X112701190Y-137949215D01*
X112701189Y-137949200D01*
X112690696Y-137846489D01*
X112635549Y-137680067D01*
X112635547Y-137680062D01*
X112543506Y-137530841D01*
X112449886Y-137437221D01*
X112416401Y-137375898D01*
X112421385Y-137306206D01*
X112449882Y-137261863D01*
X112543903Y-137167843D01*
X112580450Y-137108589D01*
X112632398Y-137061866D01*
X112685989Y-137049687D01*
X114543400Y-137049687D01*
X114610439Y-137069372D01*
X114656194Y-137122176D01*
X114659582Y-137130354D01*
X114682393Y-137191515D01*
X114682397Y-137191522D01*
X114768643Y-137306731D01*
X114768646Y-137306734D01*
X114883855Y-137392980D01*
X114883864Y-137392985D01*
X114964095Y-137422909D01*
X115020029Y-137464780D01*
X115044447Y-137530244D01*
X115029596Y-137598517D01*
X115011993Y-137623073D01*
X114917210Y-137726036D01*
X114790266Y-137920338D01*
X114697033Y-138132886D01*
X114640057Y-138357878D01*
X114640055Y-138357889D01*
X114620891Y-138589180D01*
X114620891Y-138589193D01*
X114640056Y-138820488D01*
X114640056Y-138820491D01*
X114640057Y-138820492D01*
X114648006Y-138851884D01*
X114655934Y-138883189D01*
X114653309Y-138953009D01*
X114623409Y-139001310D01*
X114361538Y-139263182D01*
X114300218Y-139296666D01*
X114273859Y-139299500D01*
X112684283Y-139299500D01*
X112617244Y-139279815D01*
X112571489Y-139227011D01*
X112561545Y-139157853D01*
X112578745Y-139110403D01*
X112635544Y-139018317D01*
X112635549Y-139018306D01*
X112690696Y-138851884D01*
X112690697Y-138851877D01*
X112701190Y-138749173D01*
X112701191Y-138749160D01*
X112701191Y-138599187D01*
X110301192Y-138599187D01*
X110301192Y-138749173D01*
X110311685Y-138851884D01*
X110366832Y-139018306D01*
X110366837Y-139018317D01*
X110423637Y-139110403D01*
X110442078Y-139177795D01*
X110421156Y-139244459D01*
X110367514Y-139289229D01*
X110318099Y-139299500D01*
X104646519Y-139299500D01*
X104579480Y-139279815D01*
X104558838Y-139263181D01*
X87869992Y-122574335D01*
X87836507Y-122513012D01*
X87841491Y-122443320D01*
X87883363Y-122387387D01*
X87937261Y-122364345D01*
X88115486Y-122334605D01*
X88184850Y-122342987D01*
G37*
%TD.AperFunction*%
%TA.AperFunction,Conductor*%
G36*
X81496904Y-121766291D02*
G01*
X81518808Y-121791570D01*
X81534449Y-121815510D01*
X81697537Y-121992671D01*
X81853908Y-122114379D01*
X81887558Y-122140570D01*
X81887562Y-122140573D01*
X81994517Y-122198453D01*
X82044108Y-122247672D01*
X82059500Y-122307508D01*
X82059500Y-133961611D01*
X82083535Y-134082444D01*
X82083540Y-134082461D01*
X82130685Y-134196281D01*
X82130690Y-134196290D01*
X82150209Y-134225501D01*
X82150210Y-134225502D01*
X82199141Y-134298732D01*
X82199144Y-134298736D01*
X82290586Y-134390178D01*
X82290608Y-134390198D01*
X85083070Y-137182660D01*
X85116555Y-137243983D01*
X85111571Y-137313675D01*
X85069699Y-137369608D01*
X85004235Y-137394025D01*
X84995389Y-137394341D01*
X84994999Y-137394341D01*
X84759596Y-137414936D01*
X84759586Y-137414938D01*
X84659126Y-137441856D01*
X84589276Y-137440193D01*
X84539352Y-137409762D01*
X80806819Y-133677229D01*
X80773334Y-133615906D01*
X80770500Y-133589548D01*
X80770500Y-122307508D01*
X80790185Y-122240469D01*
X80835483Y-122198453D01*
X80890546Y-122168655D01*
X80942439Y-122140572D01*
X81132463Y-121992671D01*
X81295551Y-121815510D01*
X81311190Y-121791571D01*
X81364336Y-121746214D01*
X81433567Y-121736790D01*
X81496904Y-121766291D01*
G37*
%TD.AperFunction*%
%TA.AperFunction,Conductor*%
G36*
X92518039Y-83594685D02*
G01*
X92563794Y-83647489D01*
X92575000Y-83699000D01*
X92575000Y-97000000D01*
X97610037Y-97000000D01*
X97677076Y-97019685D01*
X97697718Y-97036319D01*
X100232922Y-99571522D01*
X100266407Y-99632845D01*
X100261423Y-99702537D01*
X100219551Y-99758470D01*
X100206667Y-99766212D01*
X100206961Y-99766721D01*
X100202268Y-99769430D01*
X100015858Y-99899954D01*
X99854954Y-100060858D01*
X99724432Y-100247265D01*
X99724431Y-100247267D01*
X99697382Y-100305275D01*
X99651209Y-100357714D01*
X99584016Y-100376866D01*
X99517135Y-100356650D01*
X99472618Y-100305275D01*
X99472021Y-100303995D01*
X99445568Y-100247266D01*
X99333145Y-100086708D01*
X99315045Y-100060858D01*
X99154141Y-99899954D01*
X98967734Y-99769432D01*
X98967732Y-99769431D01*
X98761497Y-99673261D01*
X98761488Y-99673258D01*
X98541697Y-99614366D01*
X98541693Y-99614365D01*
X98541692Y-99614365D01*
X98541691Y-99614364D01*
X98541686Y-99614364D01*
X98315002Y-99594532D01*
X98314999Y-99594532D01*
X98088313Y-99614364D01*
X98088296Y-99614367D01*
X98019949Y-99632680D01*
X97950099Y-99631016D01*
X97900177Y-99600586D01*
X97320428Y-99020838D01*
X97320425Y-99020834D01*
X97320425Y-99020835D01*
X97313358Y-99013768D01*
X97313358Y-99013767D01*
X97226233Y-98926642D01*
X97226232Y-98926641D01*
X97226231Y-98926640D01*
X97175009Y-98892415D01*
X97131270Y-98863189D01*
X97123786Y-98858188D01*
X97123783Y-98858186D01*
X97123780Y-98858185D01*
X97043292Y-98824847D01*
X97009953Y-98811037D01*
X96999927Y-98809043D01*
X96949529Y-98799018D01*
X96889110Y-98787000D01*
X96889107Y-98787000D01*
X96889106Y-98787000D01*
X93952088Y-98787000D01*
X93885049Y-98767315D01*
X93846549Y-98728097D01*
X93817712Y-98681344D01*
X93693656Y-98557288D01*
X93552442Y-98470187D01*
X93544336Y-98465187D01*
X93544331Y-98465185D01*
X93529743Y-98460351D01*
X93377797Y-98410001D01*
X93377795Y-98410000D01*
X93275010Y-98399500D01*
X92274998Y-98399500D01*
X92274980Y-98399501D01*
X92172203Y-98410000D01*
X92172200Y-98410001D01*
X92005668Y-98465185D01*
X92005663Y-98465187D01*
X91856342Y-98557289D01*
X91732289Y-98681342D01*
X91640187Y-98830663D01*
X91640185Y-98830668D01*
X91617542Y-98899000D01*
X91585001Y-98997203D01*
X91585001Y-98997204D01*
X91585000Y-98997204D01*
X91574500Y-99099983D01*
X91574500Y-99725001D01*
X91574501Y-99725019D01*
X91585000Y-99827796D01*
X91585001Y-99827799D01*
X91640185Y-99994331D01*
X91640187Y-99994336D01*
X91656766Y-100021215D01*
X91732287Y-100143655D01*
X91732289Y-100143657D01*
X91826304Y-100237672D01*
X91859789Y-100298995D01*
X91854805Y-100368687D01*
X91826305Y-100413034D01*
X91732682Y-100506657D01*
X91640643Y-100655875D01*
X91640641Y-100655880D01*
X91585494Y-100822302D01*
X91585493Y-100822309D01*
X91575000Y-100925013D01*
X91575000Y-100987500D01*
X93974999Y-100987500D01*
X93974999Y-100925028D01*
X93974998Y-100925013D01*
X93964505Y-100822302D01*
X93909358Y-100655880D01*
X93909356Y-100655875D01*
X93817315Y-100506654D01*
X93723695Y-100413034D01*
X93690210Y-100351711D01*
X93695194Y-100282019D01*
X93723691Y-100237676D01*
X93817712Y-100143656D01*
X93846549Y-100096902D01*
X93898497Y-100050179D01*
X93952088Y-100038000D01*
X94350500Y-100038000D01*
X94417539Y-100057685D01*
X94463294Y-100110489D01*
X94474500Y-100162000D01*
X94474500Y-101747870D01*
X94474501Y-101747876D01*
X94480908Y-101807483D01*
X94531202Y-101942328D01*
X94531206Y-101942335D01*
X94617452Y-102057544D01*
X94617455Y-102057547D01*
X94732664Y-102143793D01*
X94732671Y-102143797D01*
X94867517Y-102194091D01*
X94867516Y-102194091D01*
X94874444Y-102194835D01*
X94927127Y-102200500D01*
X96622872Y-102200499D01*
X96682483Y-102194091D01*
X96817331Y-102143796D01*
X96932546Y-102057546D01*
X97018796Y-101942331D01*
X97069091Y-101807483D01*
X97072862Y-101772401D01*
X97099599Y-101707855D01*
X97156990Y-101668006D01*
X97226816Y-101665511D01*
X97286905Y-101701163D01*
X97297725Y-101714535D01*
X97311453Y-101734141D01*
X97314956Y-101739143D01*
X97475858Y-101900045D01*
X97475861Y-101900047D01*
X97662266Y-102030568D01*
X97868504Y-102126739D01*
X97868509Y-102126740D01*
X97868511Y-102126741D01*
X97913505Y-102138797D01*
X98088308Y-102185635D01*
X98250230Y-102199801D01*
X98314998Y-102205468D01*
X98315000Y-102205468D01*
X98315002Y-102205468D01*
X98372150Y-102200468D01*
X98541692Y-102185635D01*
X98761496Y-102126739D01*
X98967734Y-102030568D01*
X99154139Y-101900047D01*
X99315047Y-101739139D01*
X99445568Y-101552734D01*
X99472618Y-101494724D01*
X99518790Y-101442285D01*
X99585983Y-101423133D01*
X99652865Y-101443348D01*
X99697382Y-101494725D01*
X99724429Y-101552728D01*
X99724432Y-101552734D01*
X99854954Y-101739141D01*
X100015858Y-101900045D01*
X100015861Y-101900047D01*
X100202266Y-102030568D01*
X100408504Y-102126739D01*
X100408509Y-102126740D01*
X100408511Y-102126741D01*
X100453505Y-102138797D01*
X100628308Y-102185635D01*
X100790230Y-102199801D01*
X100854998Y-102205468D01*
X100855000Y-102205468D01*
X100855002Y-102205468D01*
X100912150Y-102200468D01*
X101081692Y-102185635D01*
X101301496Y-102126739D01*
X101507734Y-102030568D01*
X101694139Y-101900047D01*
X101855047Y-101739139D01*
X101985568Y-101552734D01*
X101985572Y-101552725D01*
X101988276Y-101548043D01*
X101990537Y-101549348D01*
X102029336Y-101505072D01*
X102096484Y-101485760D01*
X102163413Y-101505817D01*
X102183476Y-101522077D01*
X102481846Y-101820447D01*
X102481851Y-101820451D01*
X102481852Y-101820452D01*
X102489407Y-101825500D01*
X102604772Y-101902584D01*
X102650690Y-101921603D01*
X102702423Y-101963291D01*
X102702807Y-101962989D01*
X102704140Y-101964674D01*
X102705092Y-101965442D01*
X102706756Y-101967984D01*
X102707288Y-101968656D01*
X102831344Y-102092712D01*
X102980666Y-102184814D01*
X103147203Y-102239999D01*
X103249991Y-102250500D01*
X104250008Y-102250499D01*
X104250016Y-102250498D01*
X104250019Y-102250498D01*
X104308686Y-102244505D01*
X104352797Y-102239999D01*
X104519334Y-102184814D01*
X104668656Y-102092712D01*
X104792712Y-101968656D01*
X104884814Y-101819334D01*
X104939999Y-101652797D01*
X104950500Y-101550009D01*
X104950500Y-101549986D01*
X110075001Y-101549986D01*
X110085494Y-101652697D01*
X110140641Y-101819119D01*
X110140643Y-101819124D01*
X110232684Y-101968345D01*
X110356654Y-102092315D01*
X110505875Y-102184356D01*
X110505880Y-102184358D01*
X110672302Y-102239505D01*
X110672309Y-102239506D01*
X110775019Y-102249999D01*
X111024999Y-102249999D01*
X111525000Y-102249999D01*
X111774972Y-102249999D01*
X111774986Y-102249998D01*
X111877697Y-102239505D01*
X112044119Y-102184358D01*
X112044124Y-102184356D01*
X112193345Y-102092315D01*
X112317315Y-101968345D01*
X112409356Y-101819124D01*
X112409358Y-101819119D01*
X112464505Y-101652697D01*
X112464506Y-101652690D01*
X112474999Y-101549986D01*
X112475000Y-101549973D01*
X112475000Y-101487500D01*
X111525000Y-101487500D01*
X111525000Y-102249999D01*
X111024999Y-102249999D01*
X111025000Y-102249998D01*
X111025000Y-101487500D01*
X110075001Y-101487500D01*
X110075001Y-101549986D01*
X104950500Y-101549986D01*
X104950499Y-100924992D01*
X104949735Y-100917517D01*
X104939999Y-100822203D01*
X104939998Y-100822200D01*
X104916647Y-100751731D01*
X104884814Y-100655666D01*
X104792712Y-100506344D01*
X104699049Y-100412681D01*
X104665564Y-100351358D01*
X104670548Y-100281666D01*
X104699049Y-100237319D01*
X104724049Y-100212319D01*
X104792712Y-100143656D01*
X104813907Y-100109291D01*
X104831760Y-100086712D01*
X107115776Y-97802697D01*
X107882155Y-97036319D01*
X107943478Y-97002834D01*
X107969836Y-97000000D01*
X115985037Y-97000000D01*
X116052076Y-97019685D01*
X116072718Y-97036319D01*
X118607922Y-99571522D01*
X118641407Y-99632845D01*
X118636423Y-99702537D01*
X118594551Y-99758470D01*
X118581667Y-99766212D01*
X118581961Y-99766721D01*
X118577268Y-99769430D01*
X118390858Y-99899954D01*
X118229954Y-100060858D01*
X118099432Y-100247265D01*
X118099431Y-100247267D01*
X118072382Y-100305275D01*
X118026209Y-100357714D01*
X117959016Y-100376866D01*
X117892135Y-100356650D01*
X117847618Y-100305275D01*
X117847021Y-100303995D01*
X117820568Y-100247266D01*
X117708145Y-100086708D01*
X117690045Y-100060858D01*
X117529141Y-99899954D01*
X117342734Y-99769432D01*
X117342732Y-99769431D01*
X117136497Y-99673261D01*
X117136488Y-99673258D01*
X116916697Y-99614366D01*
X116916693Y-99614365D01*
X116916692Y-99614365D01*
X116916691Y-99614364D01*
X116916686Y-99614364D01*
X116690002Y-99594532D01*
X116689999Y-99594532D01*
X116463313Y-99614364D01*
X116463296Y-99614367D01*
X116394949Y-99632680D01*
X116325099Y-99631016D01*
X116275177Y-99600586D01*
X115695428Y-99020838D01*
X115695425Y-99020834D01*
X115695425Y-99020835D01*
X115688358Y-99013768D01*
X115688358Y-99013767D01*
X115601233Y-98926642D01*
X115601232Y-98926641D01*
X115601231Y-98926640D01*
X115550009Y-98892415D01*
X115506270Y-98863189D01*
X115498786Y-98858188D01*
X115498783Y-98858186D01*
X115498780Y-98858185D01*
X115418292Y-98824847D01*
X115384953Y-98811037D01*
X115374927Y-98809043D01*
X115324529Y-98799018D01*
X115264110Y-98787000D01*
X115264107Y-98787000D01*
X115264106Y-98787000D01*
X112452088Y-98787000D01*
X112385049Y-98767315D01*
X112346549Y-98728097D01*
X112317712Y-98681344D01*
X112193656Y-98557288D01*
X112052442Y-98470187D01*
X112044336Y-98465187D01*
X112044331Y-98465185D01*
X112029743Y-98460351D01*
X111877797Y-98410001D01*
X111877795Y-98410000D01*
X111775010Y-98399500D01*
X110774998Y-98399500D01*
X110774980Y-98399501D01*
X110672203Y-98410000D01*
X110672200Y-98410001D01*
X110505668Y-98465185D01*
X110505663Y-98465187D01*
X110356342Y-98557289D01*
X110232289Y-98681342D01*
X110140187Y-98830663D01*
X110140185Y-98830668D01*
X110117542Y-98899000D01*
X110085001Y-98997203D01*
X110085001Y-98997204D01*
X110085000Y-98997204D01*
X110074500Y-99099983D01*
X110074500Y-99725001D01*
X110074501Y-99725019D01*
X110085000Y-99827796D01*
X110085001Y-99827799D01*
X110140185Y-99994331D01*
X110140187Y-99994336D01*
X110156766Y-100021215D01*
X110232287Y-100143655D01*
X110232289Y-100143657D01*
X110326304Y-100237672D01*
X110359789Y-100298995D01*
X110354805Y-100368687D01*
X110326305Y-100413034D01*
X110232682Y-100506657D01*
X110140643Y-100655875D01*
X110140641Y-100655880D01*
X110085494Y-100822302D01*
X110085493Y-100822309D01*
X110075000Y-100925013D01*
X110075000Y-100987500D01*
X112474999Y-100987500D01*
X112474999Y-100925028D01*
X112474998Y-100925013D01*
X112464505Y-100822302D01*
X112409358Y-100655880D01*
X112409356Y-100655875D01*
X112317315Y-100506654D01*
X112223695Y-100413034D01*
X112190210Y-100351711D01*
X112195194Y-100282019D01*
X112223691Y-100237676D01*
X112317712Y-100143656D01*
X112346549Y-100096902D01*
X112398497Y-100050179D01*
X112452088Y-100038000D01*
X112725500Y-100038000D01*
X112792539Y-100057685D01*
X112838294Y-100110489D01*
X112849500Y-100162000D01*
X112849500Y-101747870D01*
X112849501Y-101747876D01*
X112855908Y-101807483D01*
X112906202Y-101942328D01*
X112906206Y-101942335D01*
X112992452Y-102057544D01*
X112992455Y-102057547D01*
X113107664Y-102143793D01*
X113107671Y-102143797D01*
X113242517Y-102194091D01*
X113242516Y-102194091D01*
X113249444Y-102194835D01*
X113302127Y-102200500D01*
X114997872Y-102200499D01*
X115057483Y-102194091D01*
X115192331Y-102143796D01*
X115307546Y-102057546D01*
X115393796Y-101942331D01*
X115444091Y-101807483D01*
X115447862Y-101772401D01*
X115474599Y-101707855D01*
X115531990Y-101668006D01*
X115601816Y-101665511D01*
X115661905Y-101701163D01*
X115672725Y-101714535D01*
X115686453Y-101734141D01*
X115689956Y-101739143D01*
X115850858Y-101900045D01*
X115850861Y-101900047D01*
X116037266Y-102030568D01*
X116243504Y-102126739D01*
X116243509Y-102126740D01*
X116243511Y-102126741D01*
X116288505Y-102138797D01*
X116463308Y-102185635D01*
X116625230Y-102199801D01*
X116689998Y-102205468D01*
X116690000Y-102205468D01*
X116690002Y-102205468D01*
X116747150Y-102200468D01*
X116916692Y-102185635D01*
X117136496Y-102126739D01*
X117342734Y-102030568D01*
X117529139Y-101900047D01*
X117690047Y-101739139D01*
X117820568Y-101552734D01*
X117847618Y-101494724D01*
X117893790Y-101442285D01*
X117960983Y-101423133D01*
X118027865Y-101443348D01*
X118072382Y-101494725D01*
X118099429Y-101552728D01*
X118099432Y-101552734D01*
X118229954Y-101739141D01*
X118390858Y-101900045D01*
X118390861Y-101900047D01*
X118577266Y-102030568D01*
X118783504Y-102126739D01*
X118783509Y-102126740D01*
X118783511Y-102126741D01*
X118828505Y-102138797D01*
X119003308Y-102185635D01*
X119165230Y-102199801D01*
X119229998Y-102205468D01*
X119230000Y-102205468D01*
X119230002Y-102205468D01*
X119287150Y-102200468D01*
X119456692Y-102185635D01*
X119676496Y-102126739D01*
X119882734Y-102030568D01*
X120069139Y-101900047D01*
X120230047Y-101739139D01*
X120360568Y-101552734D01*
X120360572Y-101552725D01*
X120363276Y-101548043D01*
X120365564Y-101549364D01*
X120404197Y-101505159D01*
X120471319Y-101485758D01*
X120538275Y-101505726D01*
X120558476Y-101522076D01*
X120727316Y-101690916D01*
X120831851Y-101795451D01*
X120831854Y-101795453D01*
X120831855Y-101795454D01*
X120952315Y-101875943D01*
X120988963Y-101913947D01*
X121006473Y-101942335D01*
X121007288Y-101943656D01*
X121131344Y-102067712D01*
X121280666Y-102159814D01*
X121447203Y-102214999D01*
X121549991Y-102225500D01*
X122550008Y-102225499D01*
X122550016Y-102225498D01*
X122550019Y-102225498D01*
X122606302Y-102219748D01*
X122652797Y-102214999D01*
X122819334Y-102159814D01*
X122968656Y-102067712D01*
X123092712Y-101943656D01*
X123184814Y-101794334D01*
X123239999Y-101627797D01*
X123247437Y-101554986D01*
X127795001Y-101554986D01*
X127805494Y-101657697D01*
X127860641Y-101824119D01*
X127860643Y-101824124D01*
X127952684Y-101973345D01*
X128076654Y-102097315D01*
X128225875Y-102189356D01*
X128225880Y-102189358D01*
X128392302Y-102244505D01*
X128392309Y-102244506D01*
X128495019Y-102254999D01*
X128744999Y-102254999D01*
X129245000Y-102254999D01*
X129494972Y-102254999D01*
X129494986Y-102254998D01*
X129597697Y-102244505D01*
X129764119Y-102189358D01*
X129764124Y-102189356D01*
X129913345Y-102097315D01*
X130037315Y-101973345D01*
X130129356Y-101824124D01*
X130129358Y-101824119D01*
X130184505Y-101657697D01*
X130184506Y-101657690D01*
X130194999Y-101554986D01*
X130195000Y-101554973D01*
X130195000Y-101492500D01*
X129245000Y-101492500D01*
X129245000Y-102254999D01*
X128744999Y-102254999D01*
X128745000Y-102254998D01*
X128745000Y-101492500D01*
X127795001Y-101492500D01*
X127795001Y-101554986D01*
X123247437Y-101554986D01*
X123250500Y-101525009D01*
X123250499Y-100899992D01*
X123242552Y-100822200D01*
X123239999Y-100797203D01*
X123239998Y-100797200D01*
X123184814Y-100630666D01*
X123092712Y-100481344D01*
X122999049Y-100387681D01*
X122965564Y-100326358D01*
X122970548Y-100256666D01*
X122999049Y-100212319D01*
X123044368Y-100167000D01*
X123092712Y-100118656D01*
X123184814Y-99969334D01*
X123205639Y-99906485D01*
X123235662Y-99857810D01*
X126057155Y-97036318D01*
X126118478Y-97002834D01*
X126144836Y-97000000D01*
X133665037Y-97000000D01*
X133732076Y-97019685D01*
X133752718Y-97036319D01*
X136282922Y-99566523D01*
X136316407Y-99627846D01*
X136311423Y-99697538D01*
X136269551Y-99753471D01*
X136256657Y-99761195D01*
X136256961Y-99761721D01*
X136252268Y-99764430D01*
X136065858Y-99894954D01*
X135904954Y-100055858D01*
X135774432Y-100242265D01*
X135774431Y-100242267D01*
X135747382Y-100300275D01*
X135701209Y-100352714D01*
X135634016Y-100371866D01*
X135567135Y-100351650D01*
X135522618Y-100300275D01*
X135514105Y-100282019D01*
X135495568Y-100242266D01*
X135386646Y-100086708D01*
X135365045Y-100055858D01*
X135204141Y-99894954D01*
X135017734Y-99764432D01*
X135017732Y-99764431D01*
X134811497Y-99668261D01*
X134811488Y-99668258D01*
X134591697Y-99609366D01*
X134591693Y-99609365D01*
X134591692Y-99609365D01*
X134591691Y-99609364D01*
X134591686Y-99609364D01*
X134365002Y-99589532D01*
X134364999Y-99589532D01*
X134138313Y-99609364D01*
X134138296Y-99609367D01*
X134069949Y-99627680D01*
X134000099Y-99626016D01*
X133950177Y-99595586D01*
X133380428Y-99025838D01*
X133380425Y-99025834D01*
X133380425Y-99025835D01*
X133373358Y-99018768D01*
X133373358Y-99018767D01*
X133286233Y-98931642D01*
X133286232Y-98931641D01*
X133286231Y-98931640D01*
X133235009Y-98897415D01*
X133183787Y-98863189D01*
X133183786Y-98863188D01*
X133183783Y-98863186D01*
X133183780Y-98863185D01*
X133103292Y-98829847D01*
X133069953Y-98816037D01*
X133059927Y-98814043D01*
X133009529Y-98804018D01*
X132949110Y-98792000D01*
X132949107Y-98792000D01*
X132949106Y-98792000D01*
X130172088Y-98792000D01*
X130105049Y-98772315D01*
X130066549Y-98733097D01*
X130063465Y-98728097D01*
X130037712Y-98686344D01*
X129913656Y-98562288D01*
X129764334Y-98470186D01*
X129597797Y-98415001D01*
X129597795Y-98415000D01*
X129495010Y-98404500D01*
X128494998Y-98404500D01*
X128494980Y-98404501D01*
X128392203Y-98415000D01*
X128392200Y-98415001D01*
X128225668Y-98470185D01*
X128225663Y-98470187D01*
X128076342Y-98562289D01*
X127952289Y-98686342D01*
X127860187Y-98835663D01*
X127860185Y-98835668D01*
X127851067Y-98863185D01*
X127805001Y-99002203D01*
X127805001Y-99002204D01*
X127805000Y-99002204D01*
X127794500Y-99104983D01*
X127794500Y-99730001D01*
X127794501Y-99730019D01*
X127805000Y-99832796D01*
X127805001Y-99832799D01*
X127860185Y-99999331D01*
X127860187Y-99999336D01*
X127873682Y-100021215D01*
X127949203Y-100143655D01*
X127952289Y-100148657D01*
X128046304Y-100242672D01*
X128079789Y-100303995D01*
X128074805Y-100373687D01*
X128046305Y-100418034D01*
X127952682Y-100511657D01*
X127860643Y-100660875D01*
X127860641Y-100660880D01*
X127805494Y-100827302D01*
X127805493Y-100827309D01*
X127795000Y-100930013D01*
X127795000Y-100992500D01*
X130194999Y-100992500D01*
X130194999Y-100930028D01*
X130194998Y-100930013D01*
X130184505Y-100827302D01*
X130129358Y-100660880D01*
X130129356Y-100660875D01*
X130037315Y-100511654D01*
X129943695Y-100418034D01*
X129910210Y-100356711D01*
X129915194Y-100287019D01*
X129943691Y-100242676D01*
X130037712Y-100148656D01*
X130066549Y-100101902D01*
X130118497Y-100055179D01*
X130172088Y-100043000D01*
X130400500Y-100043000D01*
X130467539Y-100062685D01*
X130513294Y-100115489D01*
X130524500Y-100167000D01*
X130524500Y-101742870D01*
X130524501Y-101742876D01*
X130530908Y-101802483D01*
X130581202Y-101937328D01*
X130581206Y-101937335D01*
X130667452Y-102052544D01*
X130667455Y-102052547D01*
X130782664Y-102138793D01*
X130782671Y-102138797D01*
X130917517Y-102189091D01*
X130917516Y-102189091D01*
X130920000Y-102189358D01*
X130977127Y-102195500D01*
X132672872Y-102195499D01*
X132732483Y-102189091D01*
X132867331Y-102138796D01*
X132982546Y-102052546D01*
X133068796Y-101937331D01*
X133119091Y-101802483D01*
X133122862Y-101767401D01*
X133149599Y-101702855D01*
X133206990Y-101663006D01*
X133276816Y-101660511D01*
X133336905Y-101696163D01*
X133347726Y-101709536D01*
X133364956Y-101734143D01*
X133525858Y-101895045D01*
X133525861Y-101895047D01*
X133712266Y-102025568D01*
X133918504Y-102121739D01*
X133918509Y-102121740D01*
X133918511Y-102121741D01*
X133937164Y-102126739D01*
X134138308Y-102180635D01*
X134292111Y-102194091D01*
X134364998Y-102200468D01*
X134365000Y-102200468D01*
X134365002Y-102200468D01*
X134437889Y-102194091D01*
X134591692Y-102180635D01*
X134811496Y-102121739D01*
X135017734Y-102025568D01*
X135204139Y-101895047D01*
X135365047Y-101734139D01*
X135495568Y-101547734D01*
X135522618Y-101489724D01*
X135568790Y-101437285D01*
X135635983Y-101418133D01*
X135702865Y-101438348D01*
X135747381Y-101489724D01*
X135752207Y-101500072D01*
X135774429Y-101547728D01*
X135774432Y-101547734D01*
X135904954Y-101734141D01*
X136065858Y-101895045D01*
X136065861Y-101895047D01*
X136252266Y-102025568D01*
X136458504Y-102121739D01*
X136458509Y-102121740D01*
X136458511Y-102121741D01*
X136477164Y-102126739D01*
X136678308Y-102180635D01*
X136832111Y-102194091D01*
X136904998Y-102200468D01*
X136905000Y-102200468D01*
X136905002Y-102200468D01*
X136977889Y-102194091D01*
X137131692Y-102180635D01*
X137351496Y-102121739D01*
X137557734Y-102025568D01*
X137744139Y-101895047D01*
X137905047Y-101734139D01*
X138035568Y-101547734D01*
X138035572Y-101547725D01*
X138038276Y-101543043D01*
X138040537Y-101544348D01*
X138079336Y-101500072D01*
X138146484Y-101480760D01*
X138213413Y-101500817D01*
X138233476Y-101517077D01*
X138363681Y-101647282D01*
X138397166Y-101708605D01*
X138400000Y-101734963D01*
X138400000Y-102424797D01*
X138380315Y-102491836D01*
X138365075Y-102511062D01*
X128425385Y-112774602D01*
X128424629Y-112775376D01*
X126725000Y-114499999D01*
X126725000Y-122320500D01*
X126705315Y-122387539D01*
X126652511Y-122433294D01*
X126601000Y-122444500D01*
X118596578Y-122444500D01*
X118402172Y-122475291D01*
X118341348Y-122495053D01*
X118341348Y-122495054D01*
X118303690Y-122507290D01*
X118214970Y-122536117D01*
X118039594Y-122625476D01*
X117918145Y-122713715D01*
X117880354Y-122741171D01*
X117880351Y-122741174D01*
X116476345Y-124145179D01*
X116415022Y-124178664D01*
X116409075Y-124179807D01*
X116375382Y-124185429D01*
X116140197Y-124266169D01*
X116140188Y-124266172D01*
X115921493Y-124384524D01*
X115725257Y-124537261D01*
X115556835Y-124720216D01*
X115420826Y-124928393D01*
X115320936Y-125156118D01*
X115259892Y-125397175D01*
X115259890Y-125397187D01*
X115239357Y-125644994D01*
X115239357Y-125645005D01*
X115259890Y-125892812D01*
X115259892Y-125892824D01*
X115320936Y-126133881D01*
X115420826Y-126361606D01*
X115548926Y-126557679D01*
X115569114Y-126624568D01*
X115549933Y-126691754D01*
X115497474Y-126737904D01*
X115445117Y-126749500D01*
X113394336Y-126749500D01*
X113327297Y-126729815D01*
X113306655Y-126713181D01*
X113131853Y-126538379D01*
X113098368Y-126477056D01*
X113096245Y-126437445D01*
X113100500Y-126397873D01*
X113100499Y-124702128D01*
X113094091Y-124642517D01*
X113087391Y-124624554D01*
X113043797Y-124507671D01*
X113043793Y-124507664D01*
X112957547Y-124392455D01*
X112957544Y-124392452D01*
X112842335Y-124306206D01*
X112842328Y-124306202D01*
X112707482Y-124255908D01*
X112707483Y-124255908D01*
X112672404Y-124252137D01*
X112607853Y-124225399D01*
X112568005Y-124168006D01*
X112565512Y-124098181D01*
X112601165Y-124038092D01*
X112614539Y-124027272D01*
X112639140Y-124010046D01*
X112800045Y-123849141D01*
X112800047Y-123849139D01*
X112930568Y-123662734D01*
X112934285Y-123654762D01*
X112958982Y-123619490D01*
X114726655Y-121851819D01*
X114787978Y-121818334D01*
X114814336Y-121815500D01*
X115871659Y-121815500D01*
X115930676Y-121830445D01*
X116057636Y-121899152D01*
X116140190Y-121943828D01*
X116375386Y-122024571D01*
X116620665Y-122065500D01*
X116869335Y-122065500D01*
X117114614Y-122024571D01*
X117349810Y-121943828D01*
X117568509Y-121825474D01*
X117764744Y-121672738D01*
X117933164Y-121489785D01*
X118069173Y-121281607D01*
X118169063Y-121053881D01*
X118230108Y-120812821D01*
X118230857Y-120803782D01*
X118250643Y-120565005D01*
X118250643Y-120564994D01*
X118230109Y-120317187D01*
X118230107Y-120317175D01*
X118169063Y-120076118D01*
X118069173Y-119848393D01*
X117933166Y-119640217D01*
X117906427Y-119611171D01*
X117764744Y-119457262D01*
X117568509Y-119304526D01*
X117568507Y-119304525D01*
X117568506Y-119304524D01*
X117349811Y-119186172D01*
X117349802Y-119186169D01*
X117114616Y-119105429D01*
X116869335Y-119064500D01*
X116620665Y-119064500D01*
X116375383Y-119105429D01*
X116140197Y-119186169D01*
X116140183Y-119186175D01*
X115930676Y-119299555D01*
X115871659Y-119314500D01*
X114146578Y-119314500D01*
X113952173Y-119345290D01*
X113764969Y-119406117D01*
X113589594Y-119495476D01*
X113430355Y-119611171D01*
X113149187Y-119892338D01*
X113087864Y-119925822D01*
X113018172Y-119920838D01*
X112962239Y-119878966D01*
X112949128Y-119857069D01*
X112930568Y-119817266D01*
X112800047Y-119630861D01*
X112800045Y-119630858D01*
X112639141Y-119469954D01*
X112452734Y-119339432D01*
X112452732Y-119339431D01*
X112246497Y-119243261D01*
X112246488Y-119243258D01*
X112026697Y-119184366D01*
X112026693Y-119184365D01*
X112026692Y-119184365D01*
X112026691Y-119184364D01*
X112026686Y-119184364D01*
X111800002Y-119164532D01*
X111799998Y-119164532D01*
X111573313Y-119184364D01*
X111573302Y-119184366D01*
X111353511Y-119243258D01*
X111353502Y-119243261D01*
X111147267Y-119339431D01*
X111147265Y-119339432D01*
X110960858Y-119469954D01*
X110799954Y-119630858D01*
X110669432Y-119817265D01*
X110669431Y-119817267D01*
X110573261Y-120023502D01*
X110573258Y-120023511D01*
X110514366Y-120243302D01*
X110514364Y-120243313D01*
X110494532Y-120469998D01*
X110494532Y-120470001D01*
X110514364Y-120696686D01*
X110514366Y-120696697D01*
X110573258Y-120916488D01*
X110573261Y-120916497D01*
X110669431Y-121122732D01*
X110669432Y-121122734D01*
X110799954Y-121309141D01*
X110960858Y-121470045D01*
X110960861Y-121470047D01*
X111147266Y-121600568D01*
X111187062Y-121619125D01*
X111239499Y-121665295D01*
X111258652Y-121732489D01*
X111238437Y-121799370D01*
X111222337Y-121819187D01*
X111190509Y-121851015D01*
X111155242Y-121875712D01*
X111147264Y-121879432D01*
X110960858Y-122009954D01*
X110799954Y-122170858D01*
X110669432Y-122357265D01*
X110669431Y-122357267D01*
X110573261Y-122563502D01*
X110573258Y-122563511D01*
X110514366Y-122783302D01*
X110514364Y-122783313D01*
X110494532Y-123009998D01*
X110494532Y-123010001D01*
X110514364Y-123236686D01*
X110514366Y-123236697D01*
X110573258Y-123456488D01*
X110573261Y-123456497D01*
X110669431Y-123662732D01*
X110669432Y-123662734D01*
X110799954Y-123849141D01*
X110960858Y-124010045D01*
X110985462Y-124027273D01*
X111029087Y-124081849D01*
X111036281Y-124151348D01*
X111004758Y-124213703D01*
X110944529Y-124249117D01*
X110927593Y-124252138D01*
X110892516Y-124255908D01*
X110757671Y-124306202D01*
X110757664Y-124306206D01*
X110642455Y-124392452D01*
X110642452Y-124392455D01*
X110556206Y-124507664D01*
X110556202Y-124507671D01*
X110505908Y-124642517D01*
X110501247Y-124685877D01*
X110499501Y-124702123D01*
X110499500Y-124702135D01*
X110499500Y-126397870D01*
X110499501Y-126397876D01*
X110505908Y-126457483D01*
X110541682Y-126553395D01*
X110549500Y-126596728D01*
X110549500Y-127073422D01*
X110580290Y-127267826D01*
X110641117Y-127455030D01*
X110703972Y-127578388D01*
X110730476Y-127630405D01*
X110846172Y-127789646D01*
X112010354Y-128953828D01*
X112169595Y-129069524D01*
X112252454Y-129111742D01*
X112344969Y-129158882D01*
X112344971Y-129158882D01*
X112344974Y-129158884D01*
X112445318Y-129191487D01*
X112532173Y-129219709D01*
X112726578Y-129250500D01*
X112726583Y-129250500D01*
X119568422Y-129250500D01*
X119762826Y-129219709D01*
X119823416Y-129200022D01*
X119950026Y-129158884D01*
X120125405Y-129069524D01*
X120284646Y-128953828D01*
X122056655Y-127181817D01*
X122117978Y-127148333D01*
X122144336Y-127145499D01*
X122872871Y-127145499D01*
X122872872Y-127145499D01*
X122932483Y-127139091D01*
X123067331Y-127088796D01*
X123182546Y-127002546D01*
X123268796Y-126887331D01*
X123319091Y-126752483D01*
X123325500Y-126692873D01*
X123325499Y-125069499D01*
X123345184Y-125002461D01*
X123397987Y-124956706D01*
X123449499Y-124945500D01*
X126601000Y-124945500D01*
X126668039Y-124965185D01*
X126713794Y-125017989D01*
X126725000Y-125069500D01*
X126725000Y-127675000D01*
X126724999Y-127675000D01*
X128403632Y-129286036D01*
X128438370Y-129346658D01*
X128434818Y-129416438D01*
X128394105Y-129473220D01*
X128329156Y-129498976D01*
X128317771Y-129499500D01*
X104135452Y-129499500D01*
X104068413Y-129479815D01*
X104047771Y-129463181D01*
X92290198Y-117705608D01*
X92290178Y-117705586D01*
X92198733Y-117614141D01*
X92147509Y-117579915D01*
X92106765Y-117552690D01*
X92096286Y-117545688D01*
X92096283Y-117545686D01*
X92096280Y-117545685D01*
X92015792Y-117512347D01*
X91982453Y-117498537D01*
X91972427Y-117496543D01*
X91922029Y-117486518D01*
X91861610Y-117474500D01*
X91861607Y-117474500D01*
X91861606Y-117474500D01*
X77946607Y-117474500D01*
X77823393Y-117474500D01*
X77823389Y-117474500D01*
X77762971Y-117486518D01*
X77719743Y-117495116D01*
X77702546Y-117498537D01*
X77588716Y-117545687D01*
X77588707Y-117545692D01*
X77486268Y-117614140D01*
X77442705Y-117657703D01*
X77399142Y-117701267D01*
X77399139Y-117701270D01*
X75604842Y-119495566D01*
X75543519Y-119529051D01*
X75476899Y-119525167D01*
X75422913Y-119506633D01*
X75219364Y-119472667D01*
X75185399Y-119467000D01*
X74944601Y-119467000D01*
X74909688Y-119472826D01*
X74707083Y-119506634D01*
X74479343Y-119584818D01*
X74479334Y-119584821D01*
X74267558Y-119699429D01*
X74170698Y-119774819D01*
X74077537Y-119847329D01*
X74077534Y-119847331D01*
X74077534Y-119847332D01*
X74048413Y-119878966D01*
X73914449Y-120024490D01*
X73898808Y-120048431D01*
X73845661Y-120093787D01*
X73776430Y-120103210D01*
X73713094Y-120073707D01*
X73691192Y-120048431D01*
X73675551Y-120024490D01*
X73512463Y-119847329D01*
X73322713Y-119699641D01*
X73322441Y-119699429D01*
X73110665Y-119584821D01*
X73110656Y-119584818D01*
X72882916Y-119506634D01*
X72680312Y-119472826D01*
X72645399Y-119467000D01*
X72404601Y-119467000D01*
X72369688Y-119472826D01*
X72167083Y-119506634D01*
X71939343Y-119584818D01*
X71939329Y-119584824D01*
X71883517Y-119615028D01*
X71815189Y-119629623D01*
X71749817Y-119604960D01*
X71708156Y-119548869D01*
X71700500Y-119505973D01*
X71700500Y-107970782D01*
X71720185Y-107903743D01*
X71736819Y-107883101D01*
X72450602Y-107169319D01*
X72511925Y-107135834D01*
X72538283Y-107133000D01*
X72645398Y-107133000D01*
X72645399Y-107133000D01*
X72882913Y-107093366D01*
X73110664Y-107015179D01*
X73322439Y-106900572D01*
X73512463Y-106752671D01*
X73675551Y-106575510D01*
X73691490Y-106551114D01*
X73744633Y-106505758D01*
X73813864Y-106496333D01*
X73849216Y-106512799D01*
X73875880Y-106515564D01*
X74475438Y-105916006D01*
X74502271Y-105980785D01*
X74571764Y-106084789D01*
X74660211Y-106173236D01*
X74764215Y-106242729D01*
X74828991Y-106269560D01*
X74228790Y-106869761D01*
X74228791Y-106869762D01*
X74267832Y-106900149D01*
X74267838Y-106900153D01*
X74479531Y-107014715D01*
X74479545Y-107014721D01*
X74707207Y-107092879D01*
X74944642Y-107132500D01*
X75185358Y-107132500D01*
X75422792Y-107092879D01*
X75650454Y-107014721D01*
X75650468Y-107014715D01*
X75862160Y-106900154D01*
X75862168Y-106900149D01*
X75901207Y-106869762D01*
X75901208Y-106869760D01*
X75301008Y-106269560D01*
X75365785Y-106242729D01*
X75469789Y-106173236D01*
X75558236Y-106084789D01*
X75627729Y-105980785D01*
X75654560Y-105916007D01*
X76254118Y-106515564D01*
X76275094Y-106513388D01*
X76284037Y-106505757D01*
X76353268Y-106496333D01*
X76416604Y-106525834D01*
X76438510Y-106551114D01*
X76454446Y-106575507D01*
X76454448Y-106575509D01*
X76454449Y-106575510D01*
X76617537Y-106752671D01*
X76738336Y-106846692D01*
X76807022Y-106900153D01*
X76807561Y-106900572D01*
X76907793Y-106954815D01*
X77018478Y-107014715D01*
X77019336Y-107015179D01*
X77137598Y-107055778D01*
X77247083Y-107093365D01*
X77247085Y-107093365D01*
X77247087Y-107093366D01*
X77484601Y-107133000D01*
X77484602Y-107133000D01*
X77725398Y-107133000D01*
X77725399Y-107133000D01*
X77962913Y-107093366D01*
X78016897Y-107074832D01*
X78086694Y-107071681D01*
X78144842Y-107104432D01*
X79036016Y-107995606D01*
X79036045Y-107995637D01*
X79126264Y-108085856D01*
X79126267Y-108085858D01*
X79177490Y-108120084D01*
X79228714Y-108154312D01*
X79309207Y-108187652D01*
X79342548Y-108201463D01*
X79402971Y-108213481D01*
X79463393Y-108225500D01*
X79463394Y-108225500D01*
X84614548Y-108225500D01*
X84681587Y-108245185D01*
X84702228Y-108261818D01*
X101064141Y-124623732D01*
X101064142Y-124623733D01*
X101151267Y-124710858D01*
X101165271Y-124720215D01*
X101165274Y-124720217D01*
X101165273Y-124720217D01*
X101253711Y-124779309D01*
X101253714Y-124779311D01*
X101367548Y-124826463D01*
X101488388Y-124850499D01*
X101488392Y-124850500D01*
X101488393Y-124850500D01*
X101488394Y-124850500D01*
X102876598Y-124850500D01*
X102943637Y-124870185D01*
X102989392Y-124922989D01*
X102999336Y-124992147D01*
X102988980Y-125026905D01*
X102953262Y-125103502D01*
X102953258Y-125103511D01*
X102894366Y-125323302D01*
X102894364Y-125323313D01*
X102874532Y-125549998D01*
X102874532Y-125550001D01*
X102894364Y-125776686D01*
X102894366Y-125776697D01*
X102953258Y-125996488D01*
X102953261Y-125996497D01*
X103049431Y-126202732D01*
X103049432Y-126202734D01*
X103179954Y-126389141D01*
X103340858Y-126550045D01*
X103340861Y-126550047D01*
X103527266Y-126680568D01*
X103733504Y-126776739D01*
X103953308Y-126835635D01*
X104115230Y-126849801D01*
X104179998Y-126855468D01*
X104180000Y-126855468D01*
X104180002Y-126855468D01*
X104236673Y-126850509D01*
X104406692Y-126835635D01*
X104626496Y-126776739D01*
X104832734Y-126680568D01*
X105019139Y-126550047D01*
X105180047Y-126389139D01*
X105310568Y-126202734D01*
X105406739Y-125996496D01*
X105465635Y-125776692D01*
X105485468Y-125550000D01*
X105465635Y-125323308D01*
X105406739Y-125103504D01*
X105310568Y-124897266D01*
X105180047Y-124710861D01*
X105180045Y-124710858D01*
X105155064Y-124685877D01*
X105121579Y-124624554D01*
X105126563Y-124554862D01*
X105155061Y-124510518D01*
X106128763Y-123536819D01*
X106190086Y-123503334D01*
X106216444Y-123500500D01*
X106269644Y-123500500D01*
X106269646Y-123500500D01*
X106454803Y-123461144D01*
X106627730Y-123384151D01*
X106780871Y-123272888D01*
X106907533Y-123132216D01*
X107002179Y-122968284D01*
X107060674Y-122788256D01*
X107080460Y-122600000D01*
X107060674Y-122411744D01*
X107002179Y-122231716D01*
X106907533Y-122067784D01*
X106780871Y-121927112D01*
X106766696Y-121916813D01*
X106627734Y-121815851D01*
X106627729Y-121815848D01*
X106454807Y-121738857D01*
X106454802Y-121738855D01*
X106309001Y-121707865D01*
X106269646Y-121699500D01*
X106269645Y-121699500D01*
X106210453Y-121699500D01*
X106143414Y-121679815D01*
X106122772Y-121663181D01*
X105662928Y-121203338D01*
X105662925Y-121203334D01*
X105662925Y-121203335D01*
X105655858Y-121196268D01*
X105655858Y-121196267D01*
X105568733Y-121109142D01*
X105568732Y-121109141D01*
X105568731Y-121109140D01*
X105504487Y-121066214D01*
X105466286Y-121040688D01*
X105466285Y-121040687D01*
X105461437Y-121037448D01*
X105416633Y-120983835D01*
X105407927Y-120914510D01*
X105410555Y-120902254D01*
X105412449Y-120895185D01*
X105465635Y-120696692D01*
X105484820Y-120477409D01*
X105485468Y-120470001D01*
X105485468Y-120469998D01*
X105474111Y-120340186D01*
X105465635Y-120243308D01*
X105406739Y-120023504D01*
X105310568Y-119817266D01*
X105180047Y-119630861D01*
X105180045Y-119630858D01*
X105019141Y-119469954D01*
X104832734Y-119339432D01*
X104832732Y-119339431D01*
X104626497Y-119243261D01*
X104626488Y-119243258D01*
X104406697Y-119184366D01*
X104406693Y-119184365D01*
X104406692Y-119184365D01*
X104406691Y-119184364D01*
X104406686Y-119184364D01*
X104180002Y-119164532D01*
X104179998Y-119164532D01*
X103953313Y-119184364D01*
X103953302Y-119184366D01*
X103733511Y-119243258D01*
X103733502Y-119243261D01*
X103527267Y-119339431D01*
X103527265Y-119339432D01*
X103340866Y-119469948D01*
X103336718Y-119473430D01*
X103335377Y-119471833D01*
X103280760Y-119500165D01*
X103211190Y-119493700D01*
X103169304Y-119466147D01*
X102911818Y-119208661D01*
X102878333Y-119147338D01*
X102875499Y-119120980D01*
X102875499Y-118649998D01*
X102875498Y-118649981D01*
X102864999Y-118547203D01*
X102864998Y-118547200D01*
X102851441Y-118506287D01*
X102809814Y-118380666D01*
X102717712Y-118231344D01*
X102623695Y-118137327D01*
X102590210Y-118076004D01*
X102595194Y-118006312D01*
X102623695Y-117961964D01*
X102717317Y-117868342D01*
X102809356Y-117719124D01*
X102809358Y-117719119D01*
X102864505Y-117552697D01*
X102864506Y-117552690D01*
X102874999Y-117449986D01*
X102875000Y-117449973D01*
X102875000Y-117387500D01*
X100475001Y-117387500D01*
X100475001Y-117449986D01*
X100485494Y-117552697D01*
X100540641Y-117719119D01*
X100540643Y-117719124D01*
X100632684Y-117868345D01*
X100726304Y-117961965D01*
X100759789Y-118023288D01*
X100754805Y-118092980D01*
X100726305Y-118137327D01*
X100632287Y-118231345D01*
X100540187Y-118380663D01*
X100540186Y-118380666D01*
X100485001Y-118547203D01*
X100485001Y-118547204D01*
X100485000Y-118547204D01*
X100474500Y-118649983D01*
X100474500Y-119275001D01*
X100474501Y-119275019D01*
X100485000Y-119377796D01*
X100485001Y-119377799D01*
X100540185Y-119544331D01*
X100540187Y-119544336D01*
X100632289Y-119693657D01*
X100713451Y-119774819D01*
X100746936Y-119836142D01*
X100741952Y-119905834D01*
X100713451Y-119950181D01*
X100657289Y-120006342D01*
X100565187Y-120155663D01*
X100565186Y-120155666D01*
X100531992Y-120255838D01*
X100492219Y-120313283D01*
X100427702Y-120340105D01*
X100358927Y-120327790D01*
X100326605Y-120304514D01*
X96847104Y-116825013D01*
X100475000Y-116825013D01*
X100475000Y-116887500D01*
X101425000Y-116887500D01*
X101925000Y-116887500D01*
X102874999Y-116887500D01*
X102874999Y-116825028D01*
X102874998Y-116825013D01*
X102864505Y-116722302D01*
X102809358Y-116555880D01*
X102809356Y-116555875D01*
X102717315Y-116406654D01*
X102593345Y-116282684D01*
X102444124Y-116190643D01*
X102444119Y-116190641D01*
X102277697Y-116135494D01*
X102277690Y-116135493D01*
X102174986Y-116125000D01*
X101925000Y-116125000D01*
X101925000Y-116887500D01*
X101425000Y-116887500D01*
X101425000Y-116125000D01*
X101175029Y-116125000D01*
X101175012Y-116125001D01*
X101072302Y-116135494D01*
X100905880Y-116190641D01*
X100905875Y-116190643D01*
X100756654Y-116282684D01*
X100632684Y-116406654D01*
X100540643Y-116555875D01*
X100540641Y-116555880D01*
X100485494Y-116722302D01*
X100485493Y-116722309D01*
X100475000Y-116825013D01*
X96847104Y-116825013D01*
X94141826Y-114119735D01*
X91047086Y-111024995D01*
X94774732Y-111024995D01*
X94774732Y-111025004D01*
X94793777Y-111279154D01*
X94819575Y-111392184D01*
X94850492Y-111527637D01*
X94943607Y-111764888D01*
X95071041Y-111985612D01*
X95229950Y-112184877D01*
X95416783Y-112358232D01*
X95627366Y-112501805D01*
X95627371Y-112501807D01*
X95627372Y-112501808D01*
X95627373Y-112501809D01*
X95749328Y-112560538D01*
X95856992Y-112612387D01*
X95856993Y-112612387D01*
X95856996Y-112612389D01*
X96100542Y-112687513D01*
X96352565Y-112725500D01*
X96607435Y-112725500D01*
X96859458Y-112687513D01*
X97103004Y-112612389D01*
X97332634Y-112501805D01*
X97543217Y-112358232D01*
X97596707Y-112308600D01*
X97659238Y-112277433D01*
X97681047Y-112275500D01*
X116855664Y-112275500D01*
X116922703Y-112295185D01*
X116943345Y-112311819D01*
X120538181Y-115906655D01*
X120571666Y-115967978D01*
X120574500Y-115994336D01*
X120574500Y-119698710D01*
X120554815Y-119765749D01*
X120554309Y-119766531D01*
X120500826Y-119848393D01*
X120400936Y-120076118D01*
X120339892Y-120317175D01*
X120339890Y-120317187D01*
X120319357Y-120564994D01*
X120319357Y-120565005D01*
X120339890Y-120812812D01*
X120339892Y-120812824D01*
X120400936Y-121053881D01*
X120500826Y-121281606D01*
X120636833Y-121489782D01*
X120636836Y-121489785D01*
X120805256Y-121672738D01*
X121001491Y-121825474D01*
X121051983Y-121852799D01*
X121220182Y-121943824D01*
X121220190Y-121943828D01*
X121455386Y-122024571D01*
X121700665Y-122065500D01*
X121949335Y-122065500D01*
X122194614Y-122024571D01*
X122429810Y-121943828D01*
X122648509Y-121825474D01*
X122844744Y-121672738D01*
X123013164Y-121489785D01*
X123149173Y-121281607D01*
X123249063Y-121053881D01*
X123310108Y-120812821D01*
X123310857Y-120803782D01*
X123330643Y-120565005D01*
X123330643Y-120564994D01*
X123310109Y-120317187D01*
X123310107Y-120317175D01*
X123249063Y-120076118D01*
X123149173Y-119848393D01*
X123095691Y-119766531D01*
X123075503Y-119699641D01*
X123075500Y-119698710D01*
X123075500Y-115326577D01*
X123044709Y-115132173D01*
X122983882Y-114944969D01*
X122936742Y-114852454D01*
X122894524Y-114769595D01*
X122778829Y-114610355D01*
X119193469Y-111024995D01*
X122714732Y-111024995D01*
X122714732Y-111025004D01*
X122733777Y-111279154D01*
X122759575Y-111392184D01*
X122790492Y-111527637D01*
X122883607Y-111764888D01*
X123011041Y-111985612D01*
X123169950Y-112184877D01*
X123356783Y-112358232D01*
X123567366Y-112501805D01*
X123567371Y-112501807D01*
X123567372Y-112501808D01*
X123567373Y-112501809D01*
X123689328Y-112560538D01*
X123796992Y-112612387D01*
X123796993Y-112612387D01*
X123796996Y-112612389D01*
X124040542Y-112687513D01*
X124292565Y-112725500D01*
X124547435Y-112725500D01*
X124799458Y-112687513D01*
X125043004Y-112612389D01*
X125272634Y-112501805D01*
X125483217Y-112358232D01*
X125670050Y-112184877D01*
X125828959Y-111985612D01*
X125956393Y-111764888D01*
X126049508Y-111527637D01*
X126106222Y-111279157D01*
X126125268Y-111025000D01*
X126119269Y-110944951D01*
X126111663Y-110843459D01*
X126106222Y-110770843D01*
X126049508Y-110522363D01*
X125956393Y-110285112D01*
X125828959Y-110064388D01*
X125670050Y-109865123D01*
X125483217Y-109691768D01*
X125272634Y-109548195D01*
X125272630Y-109548193D01*
X125272627Y-109548191D01*
X125272626Y-109548190D01*
X125043006Y-109437612D01*
X125043008Y-109437612D01*
X124799466Y-109362489D01*
X124799462Y-109362488D01*
X124799458Y-109362487D01*
X124678231Y-109344214D01*
X124547440Y-109324500D01*
X124547435Y-109324500D01*
X124292565Y-109324500D01*
X124292559Y-109324500D01*
X124135609Y-109348157D01*
X124040542Y-109362487D01*
X124040539Y-109362488D01*
X124040533Y-109362489D01*
X123796992Y-109437612D01*
X123567373Y-109548190D01*
X123567372Y-109548191D01*
X123356782Y-109691768D01*
X123169952Y-109865121D01*
X123169950Y-109865123D01*
X123011041Y-110064388D01*
X122883608Y-110285109D01*
X122790492Y-110522362D01*
X122790490Y-110522369D01*
X122733777Y-110770845D01*
X122714732Y-111024995D01*
X119193469Y-111024995D01*
X118239646Y-110071172D01*
X118080405Y-109955476D01*
X117905030Y-109866117D01*
X117717826Y-109805290D01*
X117523422Y-109774500D01*
X117523417Y-109774500D01*
X97681047Y-109774500D01*
X97614008Y-109754815D01*
X97596709Y-109741401D01*
X97543217Y-109691768D01*
X97332634Y-109548195D01*
X97332630Y-109548193D01*
X97332627Y-109548191D01*
X97332626Y-109548190D01*
X97103006Y-109437612D01*
X97103008Y-109437612D01*
X96859466Y-109362489D01*
X96859462Y-109362488D01*
X96859458Y-109362487D01*
X96738231Y-109344214D01*
X96607440Y-109324500D01*
X96607435Y-109324500D01*
X96352565Y-109324500D01*
X96352559Y-109324500D01*
X96195609Y-109348157D01*
X96100542Y-109362487D01*
X96100539Y-109362488D01*
X96100533Y-109362489D01*
X95856992Y-109437612D01*
X95627373Y-109548190D01*
X95627372Y-109548191D01*
X95416782Y-109691768D01*
X95229952Y-109865121D01*
X95229950Y-109865123D01*
X95071041Y-110064388D01*
X94943608Y-110285109D01*
X94850492Y-110522362D01*
X94850490Y-110522369D01*
X94793777Y-110770845D01*
X94774732Y-111024995D01*
X91047086Y-111024995D01*
X87330742Y-107308652D01*
X87297258Y-107247330D01*
X87302242Y-107177638D01*
X87344114Y-107121705D01*
X87409578Y-107097288D01*
X87438828Y-107098662D01*
X87644601Y-107133000D01*
X87644602Y-107133000D01*
X87885398Y-107133000D01*
X87885399Y-107133000D01*
X88122913Y-107093366D01*
X88350664Y-107015179D01*
X88562439Y-106900572D01*
X88752463Y-106752671D01*
X88915551Y-106575510D01*
X88931190Y-106551571D01*
X88984336Y-106506214D01*
X89053567Y-106496790D01*
X89116904Y-106526291D01*
X89138808Y-106551570D01*
X89154449Y-106575510D01*
X89317537Y-106752671D01*
X89438336Y-106846692D01*
X89507022Y-106900153D01*
X89507561Y-106900572D01*
X89607793Y-106954815D01*
X89718478Y-107014715D01*
X89719336Y-107015179D01*
X89837598Y-107055778D01*
X89947083Y-107093365D01*
X89947085Y-107093365D01*
X89947087Y-107093366D01*
X90184601Y-107133000D01*
X90184602Y-107133000D01*
X90425398Y-107133000D01*
X90425399Y-107133000D01*
X90662913Y-107093366D01*
X90890664Y-107015179D01*
X91102439Y-106900572D01*
X91292463Y-106752671D01*
X91455551Y-106575510D01*
X91587255Y-106373922D01*
X91683983Y-106153405D01*
X91743095Y-105919976D01*
X91755654Y-105768414D01*
X91762980Y-105680005D01*
X91762980Y-105679994D01*
X91743095Y-105440027D01*
X91743095Y-105440024D01*
X91683983Y-105206595D01*
X91587255Y-104986078D01*
X91455551Y-104784490D01*
X91292463Y-104607329D01*
X91142020Y-104490235D01*
X91102441Y-104459429D01*
X91102432Y-104459423D01*
X90995482Y-104401544D01*
X90945891Y-104352325D01*
X90930500Y-104292490D01*
X90930500Y-101549986D01*
X91575001Y-101549986D01*
X91585494Y-101652697D01*
X91640641Y-101819119D01*
X91640643Y-101819124D01*
X91732684Y-101968345D01*
X91856654Y-102092315D01*
X92005875Y-102184356D01*
X92005880Y-102184358D01*
X92172302Y-102239505D01*
X92172309Y-102239506D01*
X92275019Y-102249999D01*
X92524999Y-102249999D01*
X93025000Y-102249999D01*
X93274972Y-102249999D01*
X93274986Y-102249998D01*
X93377697Y-102239505D01*
X93544119Y-102184358D01*
X93544124Y-102184356D01*
X93693345Y-102092315D01*
X93817315Y-101968345D01*
X93909356Y-101819124D01*
X93909358Y-101819119D01*
X93964505Y-101652697D01*
X93964506Y-101652690D01*
X93974999Y-101549986D01*
X93975000Y-101549973D01*
X93975000Y-101487500D01*
X93025000Y-101487500D01*
X93025000Y-102249999D01*
X92524999Y-102249999D01*
X92525000Y-102249998D01*
X92525000Y-101487500D01*
X91575001Y-101487500D01*
X91575001Y-101549986D01*
X90930500Y-101549986D01*
X90930500Y-100255895D01*
X90929605Y-100251394D01*
X90925116Y-100228828D01*
X90922365Y-100214999D01*
X90912818Y-100167000D01*
X90906463Y-100135049D01*
X90905292Y-100132224D01*
X90892796Y-100102052D01*
X90892777Y-100102009D01*
X90892768Y-100101987D01*
X90878571Y-100067712D01*
X90859312Y-100021215D01*
X90859310Y-100021212D01*
X90859309Y-100021209D01*
X90826302Y-99971812D01*
X90826301Y-99971810D01*
X90790861Y-99918771D01*
X90790855Y-99918763D01*
X90700637Y-99828545D01*
X90700606Y-99828516D01*
X89508770Y-98636680D01*
X89475285Y-98575357D01*
X89480269Y-98505665D01*
X89522141Y-98449732D01*
X89587605Y-98425315D01*
X89596451Y-98424999D01*
X89649972Y-98424999D01*
X89649986Y-98424998D01*
X89752697Y-98414505D01*
X89919119Y-98359358D01*
X89919124Y-98359356D01*
X90068345Y-98267315D01*
X90192315Y-98143345D01*
X90284356Y-97994124D01*
X90284358Y-97994119D01*
X90339505Y-97827697D01*
X90339506Y-97827690D01*
X90349999Y-97724986D01*
X90350000Y-97724973D01*
X90350000Y-97450000D01*
X89136500Y-97450000D01*
X89069461Y-97430315D01*
X89023706Y-97377511D01*
X89012500Y-97326000D01*
X89012500Y-97074000D01*
X89032185Y-97006961D01*
X89084989Y-96961206D01*
X89136500Y-96950000D01*
X90349999Y-96950000D01*
X90349999Y-96675028D01*
X90349998Y-96675013D01*
X90339505Y-96572302D01*
X90284358Y-96405880D01*
X90284356Y-96405875D01*
X90192315Y-96256654D01*
X90068345Y-96132684D01*
X89919124Y-96040643D01*
X89919119Y-96040641D01*
X89752697Y-95985494D01*
X89752690Y-95985493D01*
X89649986Y-95975000D01*
X89613120Y-95975000D01*
X89546081Y-95955315D01*
X89500326Y-95902511D01*
X89490382Y-95833353D01*
X89519407Y-95769797D01*
X89525439Y-95763319D01*
X89551940Y-95736818D01*
X89613263Y-95703333D01*
X89639621Y-95700499D01*
X90216670Y-95700499D01*
X90216676Y-95700499D01*
X90319465Y-95689999D01*
X90486002Y-95634814D01*
X90635324Y-95542712D01*
X90759380Y-95418656D01*
X90851482Y-95269334D01*
X90906667Y-95102797D01*
X90917168Y-95000009D01*
X90917167Y-94374992D01*
X90906667Y-94272203D01*
X90851482Y-94105666D01*
X90759380Y-93956344D01*
X90665717Y-93862681D01*
X90632232Y-93801358D01*
X90637216Y-93731666D01*
X90665717Y-93687319D01*
X90671010Y-93682026D01*
X90759380Y-93593656D01*
X90851482Y-93444334D01*
X90906667Y-93277797D01*
X90917168Y-93175009D01*
X90917167Y-92549992D01*
X90906667Y-92447203D01*
X90851482Y-92280666D01*
X90759380Y-92131344D01*
X90635324Y-92007288D01*
X90486002Y-91915186D01*
X90427161Y-91895688D01*
X90369719Y-91855916D01*
X90342896Y-91791400D01*
X90342168Y-91777983D01*
X90342168Y-87677515D01*
X90361853Y-87610476D01*
X90414657Y-87564721D01*
X90434067Y-87557742D01*
X90653663Y-87498903D01*
X90867830Y-87399035D01*
X91061401Y-87263495D01*
X91228495Y-87096401D01*
X91364035Y-86902830D01*
X91463903Y-86688663D01*
X91525063Y-86460408D01*
X91545659Y-86225000D01*
X91525063Y-85989592D01*
X91463903Y-85761337D01*
X91364035Y-85547171D01*
X91334137Y-85504471D01*
X91228494Y-85353597D01*
X91061402Y-85186506D01*
X91061395Y-85186501D01*
X90867834Y-85050967D01*
X90867830Y-85050965D01*
X90867828Y-85050964D01*
X90653663Y-84951097D01*
X90653659Y-84951096D01*
X90653655Y-84951094D01*
X90425413Y-84889938D01*
X90425403Y-84889936D01*
X90190001Y-84869341D01*
X90189999Y-84869341D01*
X89954596Y-84889936D01*
X89954586Y-84889938D01*
X89726344Y-84951094D01*
X89726335Y-84951098D01*
X89512171Y-85050964D01*
X89512169Y-85050965D01*
X89318600Y-85186503D01*
X89196673Y-85308430D01*
X89135350Y-85341914D01*
X89065658Y-85336930D01*
X89009725Y-85295058D01*
X88992810Y-85264081D01*
X88943797Y-85132671D01*
X88943793Y-85132664D01*
X88857547Y-85017455D01*
X88857544Y-85017452D01*
X88742335Y-84931206D01*
X88742328Y-84931202D01*
X88607482Y-84880908D01*
X88607483Y-84880908D01*
X88547883Y-84874501D01*
X88547881Y-84874500D01*
X88547873Y-84874500D01*
X88547865Y-84874500D01*
X87341519Y-84874500D01*
X87274480Y-84854815D01*
X87253838Y-84838181D01*
X86846546Y-84430888D01*
X86846545Y-84430887D01*
X86731807Y-84354222D01*
X86604332Y-84301421D01*
X86604322Y-84301418D01*
X86468996Y-84274500D01*
X86468994Y-84274500D01*
X86468993Y-84274500D01*
X82518994Y-84274500D01*
X82381006Y-84274500D01*
X82381004Y-84274500D01*
X82245677Y-84301418D01*
X82245667Y-84301421D01*
X82118192Y-84354222D01*
X82003454Y-84430887D01*
X81596160Y-84838181D01*
X81534837Y-84871666D01*
X81508479Y-84874500D01*
X80302129Y-84874500D01*
X80302123Y-84874501D01*
X80242516Y-84880908D01*
X80107671Y-84931202D01*
X80107664Y-84931206D01*
X79992455Y-85017452D01*
X79992452Y-85017455D01*
X79906206Y-85132664D01*
X79906202Y-85132671D01*
X79855908Y-85267517D01*
X79849501Y-85327116D01*
X79849500Y-85327135D01*
X79849500Y-87122870D01*
X79849501Y-87122876D01*
X79855908Y-87182483D01*
X79906202Y-87317328D01*
X79906206Y-87317335D01*
X79992452Y-87432544D01*
X79992455Y-87432547D01*
X80107664Y-87518793D01*
X80107671Y-87518797D01*
X80118865Y-87522972D01*
X80242517Y-87569091D01*
X80302127Y-87575500D01*
X80375500Y-87575499D01*
X80442538Y-87595183D01*
X80488294Y-87647986D01*
X80499500Y-87699499D01*
X80499500Y-88033480D01*
X80479815Y-88100519D01*
X80463181Y-88121161D01*
X77060888Y-91523453D01*
X77060887Y-91523454D01*
X77029288Y-91570746D01*
X76997831Y-91617826D01*
X76997830Y-91617828D01*
X76984223Y-91638190D01*
X76931421Y-91765667D01*
X76931418Y-91765677D01*
X76904500Y-91901004D01*
X76904500Y-104333078D01*
X76884815Y-104400117D01*
X76839520Y-104442131D01*
X76807567Y-104459423D01*
X76807558Y-104459429D01*
X76673456Y-104563805D01*
X76617537Y-104607329D01*
X76617534Y-104607331D01*
X76617534Y-104607332D01*
X76454450Y-104784488D01*
X76454446Y-104784494D01*
X76438507Y-104808889D01*
X76385359Y-104854244D01*
X76316127Y-104863665D01*
X76280782Y-104847199D01*
X76254117Y-104844434D01*
X75654560Y-105443991D01*
X75627729Y-105379215D01*
X75558236Y-105275211D01*
X75469789Y-105186764D01*
X75365785Y-105117271D01*
X75301007Y-105090438D01*
X75901208Y-104490237D01*
X75901208Y-104490236D01*
X75862166Y-104459849D01*
X75862161Y-104459846D01*
X75650468Y-104345284D01*
X75650454Y-104345278D01*
X75422792Y-104267120D01*
X75185358Y-104227500D01*
X74944642Y-104227500D01*
X74707207Y-104267120D01*
X74479545Y-104345278D01*
X74479531Y-104345284D01*
X74267837Y-104459846D01*
X74267826Y-104459853D01*
X74228791Y-104490235D01*
X74228791Y-104490237D01*
X74828992Y-105090438D01*
X74764215Y-105117271D01*
X74660211Y-105186764D01*
X74571764Y-105275211D01*
X74502271Y-105379215D01*
X74475439Y-105443992D01*
X73875881Y-104844434D01*
X73854900Y-104846610D01*
X73845958Y-104854242D01*
X73776727Y-104863664D01*
X73713392Y-104834162D01*
X73691490Y-104808885D01*
X73675554Y-104784494D01*
X73675552Y-104784492D01*
X73675551Y-104784490D01*
X73512463Y-104607329D01*
X73362020Y-104490235D01*
X73322441Y-104459429D01*
X73110665Y-104344821D01*
X73110656Y-104344818D01*
X72882916Y-104266634D01*
X72704777Y-104236908D01*
X72645399Y-104227000D01*
X72404601Y-104227000D01*
X72357098Y-104234926D01*
X72167083Y-104266634D01*
X71939343Y-104344818D01*
X71939334Y-104344821D01*
X71727558Y-104459429D01*
X71593456Y-104563805D01*
X71537537Y-104607329D01*
X71537534Y-104607331D01*
X71537534Y-104607332D01*
X71374449Y-104784490D01*
X71242743Y-104986081D01*
X71146017Y-105206594D01*
X71086904Y-105440027D01*
X71066882Y-105681649D01*
X71041729Y-105746834D01*
X71030987Y-105759090D01*
X70293746Y-106496333D01*
X70062220Y-106727859D01*
X70062218Y-106727861D01*
X70020782Y-106769297D01*
X69922859Y-106867219D01*
X69813371Y-107031080D01*
X69813364Y-107031093D01*
X69785377Y-107098663D01*
X69778965Y-107114143D01*
X69769582Y-107136796D01*
X69748600Y-107187451D01*
X69738561Y-107211687D01*
X69694720Y-107266090D01*
X69628425Y-107288155D01*
X69560726Y-107270875D01*
X69513116Y-107219738D01*
X69500000Y-107164234D01*
X69500000Y-98075000D01*
X72397520Y-98075000D01*
X72417299Y-98320023D01*
X72417300Y-98320027D01*
X72469738Y-98532775D01*
X72476129Y-98558704D01*
X72483224Y-98575357D01*
X72568283Y-98775000D01*
X72572483Y-98784856D01*
X72703867Y-98992622D01*
X72703870Y-98992626D01*
X72805350Y-99107173D01*
X72866877Y-99176623D01*
X73057292Y-99332092D01*
X73057294Y-99332093D01*
X73057301Y-99332098D01*
X73268093Y-99453798D01*
X73270180Y-99455003D01*
X73500028Y-99542173D01*
X73562444Y-99554915D01*
X73740875Y-99591342D01*
X73740880Y-99591342D01*
X73740883Y-99591343D01*
X73814569Y-99594312D01*
X73986498Y-99601242D01*
X73986499Y-99601242D01*
X73986500Y-99601241D01*
X73986505Y-99601242D01*
X74195673Y-99575844D01*
X74230536Y-99571611D01*
X74297090Y-99552332D01*
X74466652Y-99503219D01*
X74688740Y-99397837D01*
X74891048Y-99258194D01*
X75068336Y-99087907D01*
X75216011Y-98891386D01*
X75330251Y-98673721D01*
X75408095Y-98440550D01*
X75423920Y-98343173D01*
X75447526Y-98197920D01*
X75447526Y-98197917D01*
X75447527Y-98197911D01*
X75450000Y-98075000D01*
X75447527Y-97952089D01*
X75447526Y-97952082D01*
X75447526Y-97952079D01*
X75408095Y-97709450D01*
X75408095Y-97709449D01*
X75330251Y-97476280D01*
X75330250Y-97476276D01*
X75265761Y-97353405D01*
X75216011Y-97258614D01*
X75216008Y-97258610D01*
X75216007Y-97258608D01*
X75068334Y-97062090D01*
X74891053Y-96891810D01*
X74891049Y-96891807D01*
X74688743Y-96752164D01*
X74526181Y-96675028D01*
X74466652Y-96646781D01*
X74466649Y-96646780D01*
X74466646Y-96646779D01*
X74230536Y-96578388D01*
X73986498Y-96548757D01*
X73740886Y-96558656D01*
X73740875Y-96558657D01*
X73500030Y-96607826D01*
X73270178Y-96694997D01*
X73057301Y-96817901D01*
X73057294Y-96817906D01*
X72866879Y-96973374D01*
X72866875Y-96973378D01*
X72703870Y-97157373D01*
X72572481Y-97365147D01*
X72476128Y-97591298D01*
X72417300Y-97829972D01*
X72417299Y-97829976D01*
X72397520Y-98075000D01*
X69500000Y-98075000D01*
X69500000Y-88575059D01*
X71194652Y-88575059D01*
X71194652Y-88575064D01*
X71214028Y-88932430D01*
X71214029Y-88932447D01*
X71271926Y-89285601D01*
X71271932Y-89285627D01*
X71367672Y-89630454D01*
X71367674Y-89630461D01*
X71500142Y-89962932D01*
X71500151Y-89962950D01*
X71667784Y-90279139D01*
X71667787Y-90279144D01*
X71667789Y-90279147D01*
X71748209Y-90397758D01*
X71868634Y-90575371D01*
X71868641Y-90575381D01*
X72048024Y-90786566D01*
X72100332Y-90848148D01*
X72360163Y-91094273D01*
X72360170Y-91094278D01*
X72360172Y-91094280D01*
X72387051Y-91114713D01*
X72645081Y-91310862D01*
X72951747Y-91495377D01*
X72951749Y-91495378D01*
X72951751Y-91495379D01*
X72951755Y-91495381D01*
X73216422Y-91617828D01*
X73276565Y-91645653D01*
X73615726Y-91759930D01*
X73965254Y-91836867D01*
X74321052Y-91875562D01*
X74321058Y-91875562D01*
X74678942Y-91875562D01*
X74678948Y-91875562D01*
X75034746Y-91836867D01*
X75384274Y-91759930D01*
X75723435Y-91645653D01*
X76048253Y-91495377D01*
X76354919Y-91310862D01*
X76639837Y-91094273D01*
X76899668Y-90848148D01*
X77131365Y-90575373D01*
X77332211Y-90279147D01*
X77499853Y-89962942D01*
X77632324Y-89630465D01*
X77728071Y-89285614D01*
X77785972Y-88932433D01*
X77803694Y-88605550D01*
X77805348Y-88575064D01*
X77805348Y-88575059D01*
X77798242Y-88443996D01*
X77785972Y-88217691D01*
X77734913Y-87906247D01*
X77728073Y-87864522D01*
X77728072Y-87864521D01*
X77728071Y-87864510D01*
X77657539Y-87610476D01*
X77632327Y-87519669D01*
X77632325Y-87519662D01*
X77631980Y-87518797D01*
X77584262Y-87399032D01*
X77499857Y-87187191D01*
X77499848Y-87187173D01*
X77451720Y-87096395D01*
X77349101Y-86902834D01*
X77332215Y-86870984D01*
X77332213Y-86870981D01*
X77332211Y-86870977D01*
X77131365Y-86574751D01*
X77131361Y-86574746D01*
X77131358Y-86574742D01*
X76899668Y-86301976D01*
X76852006Y-86256828D01*
X76639837Y-86055851D01*
X76639830Y-86055845D01*
X76639827Y-86055843D01*
X76494254Y-85945182D01*
X76354919Y-85839262D01*
X76048253Y-85654747D01*
X76048252Y-85654746D01*
X76048248Y-85654744D01*
X76048244Y-85654742D01*
X75723447Y-85504476D01*
X75723441Y-85504473D01*
X75723435Y-85504471D01*
X75553854Y-85447332D01*
X75384273Y-85390193D01*
X75034744Y-85313256D01*
X74678949Y-85274562D01*
X74678948Y-85274562D01*
X74321052Y-85274562D01*
X74321050Y-85274562D01*
X73965255Y-85313256D01*
X73615726Y-85390193D01*
X73359970Y-85476368D01*
X73276565Y-85504471D01*
X73276563Y-85504472D01*
X73276552Y-85504476D01*
X72951755Y-85654742D01*
X72951751Y-85654744D01*
X72773918Y-85761743D01*
X72645081Y-85839262D01*
X72578125Y-85890161D01*
X72360172Y-86055843D01*
X72360163Y-86055851D01*
X72100331Y-86301976D01*
X71868641Y-86574742D01*
X71868634Y-86574752D01*
X71667790Y-86870975D01*
X71667784Y-86870984D01*
X71500151Y-87187173D01*
X71500142Y-87187191D01*
X71367674Y-87519662D01*
X71367672Y-87519669D01*
X71271932Y-87864496D01*
X71271926Y-87864522D01*
X71214029Y-88217676D01*
X71214028Y-88217693D01*
X71194652Y-88575059D01*
X69500000Y-88575059D01*
X69500000Y-88554119D01*
X69500275Y-88545871D01*
X69507067Y-88443996D01*
X69542916Y-87906247D01*
X69544619Y-87892446D01*
X69610605Y-87527715D01*
X69611560Y-87522972D01*
X69632282Y-87429725D01*
X69633681Y-87424068D01*
X69647905Y-87371857D01*
X69733740Y-87056783D01*
X69737017Y-87046535D01*
X69773084Y-86948627D01*
X69774840Y-86944133D01*
X69997468Y-86406116D01*
X70003170Y-86394184D01*
X70248081Y-85945182D01*
X70249725Y-85942267D01*
X70286857Y-85878446D01*
X70292667Y-85869389D01*
X70357104Y-85777958D01*
X70361092Y-85772615D01*
X70671494Y-85379439D01*
X70678890Y-85370904D01*
X71146538Y-84878644D01*
X71153741Y-84871652D01*
X71376575Y-84672273D01*
X71379722Y-84669554D01*
X71458835Y-84603471D01*
X71467375Y-84596946D01*
X71815392Y-84354270D01*
X71824452Y-84348521D01*
X72192244Y-84136994D01*
X72201782Y-84132047D01*
X72492524Y-83996963D01*
X72502636Y-83992797D01*
X73105696Y-83775025D01*
X73115794Y-83771860D01*
X73209263Y-83746899D01*
X73261426Y-83732969D01*
X73269101Y-83731179D01*
X73429997Y-83699000D01*
X73794052Y-83626189D01*
X73806024Y-83624397D01*
X74235285Y-83581471D01*
X74236353Y-83581371D01*
X74277800Y-83577757D01*
X74287204Y-83577298D01*
X74499352Y-83575007D01*
X74500691Y-83575000D01*
X92451000Y-83575000D01*
X92518039Y-83594685D01*
G37*
%TD.AperFunction*%
%TA.AperFunction,Conductor*%
G36*
X163127375Y-102320185D02*
G01*
X163173130Y-102372989D01*
X163183626Y-102411246D01*
X163185909Y-102432483D01*
X163236202Y-102567328D01*
X163236206Y-102567335D01*
X163322452Y-102682544D01*
X163322455Y-102682547D01*
X163437664Y-102768793D01*
X163437671Y-102768797D01*
X163572517Y-102819091D01*
X163572516Y-102819091D01*
X163579444Y-102819835D01*
X163632127Y-102825500D01*
X165277872Y-102825499D01*
X165337483Y-102819091D01*
X165472331Y-102768796D01*
X165587546Y-102682546D01*
X165587548Y-102682542D01*
X165587819Y-102682273D01*
X165588159Y-102682087D01*
X165594645Y-102677232D01*
X165595343Y-102678164D01*
X165649142Y-102648788D01*
X165718834Y-102653772D01*
X165774767Y-102695644D01*
X165799184Y-102761108D01*
X165799500Y-102769954D01*
X165799500Y-103894547D01*
X165779815Y-103961586D01*
X165763181Y-103982228D01*
X164757227Y-104988181D01*
X164695904Y-105021666D01*
X164669546Y-105024500D01*
X163632129Y-105024500D01*
X163632123Y-105024501D01*
X163572516Y-105030908D01*
X163437671Y-105081202D01*
X163437664Y-105081206D01*
X163322455Y-105167452D01*
X163322452Y-105167455D01*
X163236206Y-105282664D01*
X163236202Y-105282671D01*
X163185908Y-105417516D01*
X163183625Y-105438757D01*
X163156886Y-105503308D01*
X163099493Y-105543155D01*
X163060336Y-105549500D01*
X159570831Y-105549500D01*
X159503792Y-105529815D01*
X159458037Y-105477011D01*
X159448093Y-105407853D01*
X159452900Y-105387182D01*
X159453436Y-105385529D01*
X159460674Y-105363256D01*
X159480460Y-105175000D01*
X159460674Y-104986744D01*
X159402179Y-104806716D01*
X159307533Y-104642784D01*
X159180871Y-104502112D01*
X159180870Y-104502111D01*
X159027734Y-104390851D01*
X159027729Y-104390848D01*
X158854807Y-104313857D01*
X158854802Y-104313855D01*
X158709001Y-104282865D01*
X158669646Y-104274500D01*
X158669645Y-104274500D01*
X158610453Y-104274500D01*
X158543414Y-104254815D01*
X158522772Y-104238181D01*
X157978247Y-103693656D01*
X157313238Y-103028648D01*
X157279754Y-102967326D01*
X157284738Y-102897634D01*
X157326610Y-102841701D01*
X157372404Y-102820291D01*
X157377478Y-102819091D01*
X157377483Y-102819091D01*
X157512331Y-102768796D01*
X157627546Y-102682546D01*
X157713796Y-102567331D01*
X157764091Y-102432483D01*
X157764917Y-102424797D01*
X157766375Y-102411243D01*
X157793114Y-102346692D01*
X157850507Y-102306845D01*
X157889664Y-102300500D01*
X163060336Y-102300500D01*
X163127375Y-102320185D01*
G37*
%TD.AperFunction*%
%TA.AperFunction,Conductor*%
G36*
X82718418Y-87120417D02*
G01*
X82746673Y-87141569D01*
X82868599Y-87263495D01*
X82965384Y-87331265D01*
X83062165Y-87399032D01*
X83062167Y-87399033D01*
X83062170Y-87399035D01*
X83276337Y-87498903D01*
X83504592Y-87560063D01*
X83644644Y-87572316D01*
X83709710Y-87597767D01*
X83750688Y-87654358D01*
X83757834Y-87695843D01*
X83757834Y-91777983D01*
X83738149Y-91845022D01*
X83685345Y-91890777D01*
X83672844Y-91895686D01*
X83614003Y-91915185D01*
X83614000Y-91915186D01*
X83613997Y-91915187D01*
X83464676Y-92007289D01*
X83340623Y-92131342D01*
X83311785Y-92178097D01*
X83259837Y-92224821D01*
X83206246Y-92237000D01*
X82893756Y-92237000D01*
X82826717Y-92217315D01*
X82788217Y-92178097D01*
X82759380Y-92131344D01*
X82635324Y-92007288D01*
X82486002Y-91915186D01*
X82319465Y-91860001D01*
X82319463Y-91860000D01*
X82216678Y-91849500D01*
X81216666Y-91849500D01*
X81216648Y-91849501D01*
X81113871Y-91860000D01*
X81113868Y-91860001D01*
X80947336Y-91915185D01*
X80947331Y-91915187D01*
X80798010Y-92007289D01*
X80673957Y-92131342D01*
X80581855Y-92280663D01*
X80581854Y-92280666D01*
X80526669Y-92447203D01*
X80526669Y-92447204D01*
X80526668Y-92447204D01*
X80516168Y-92549983D01*
X80516168Y-93175001D01*
X80516169Y-93175019D01*
X80526668Y-93277796D01*
X80526669Y-93277799D01*
X80544912Y-93332852D01*
X80581854Y-93444334D01*
X80620316Y-93506692D01*
X80673957Y-93593657D01*
X80767972Y-93687672D01*
X80801457Y-93748995D01*
X80796473Y-93818687D01*
X80767973Y-93863034D01*
X80674350Y-93956657D01*
X80582311Y-94105875D01*
X80582309Y-94105880D01*
X80527162Y-94272302D01*
X80527161Y-94272309D01*
X80516668Y-94375013D01*
X80516668Y-94437500D01*
X82916667Y-94437500D01*
X82916667Y-94375028D01*
X82916666Y-94375013D01*
X82906173Y-94272302D01*
X82851026Y-94105880D01*
X82851024Y-94105875D01*
X82758983Y-93956654D01*
X82665363Y-93863034D01*
X82631878Y-93801711D01*
X82636862Y-93732019D01*
X82665359Y-93687676D01*
X82759380Y-93593656D01*
X82788217Y-93546902D01*
X82840165Y-93500179D01*
X82893756Y-93488000D01*
X83206246Y-93488000D01*
X83273285Y-93507685D01*
X83311785Y-93546903D01*
X83340623Y-93593657D01*
X83434285Y-93687319D01*
X83467770Y-93748642D01*
X83462786Y-93818334D01*
X83434285Y-93862681D01*
X83340623Y-93956342D01*
X83248521Y-94105663D01*
X83248519Y-94105668D01*
X83245712Y-94114139D01*
X83193335Y-94272203D01*
X83193335Y-94272204D01*
X83193334Y-94272204D01*
X83182834Y-94374983D01*
X83182834Y-95000001D01*
X83182835Y-95000019D01*
X83193334Y-95102796D01*
X83193335Y-95102799D01*
X83219895Y-95182951D01*
X83248520Y-95269334D01*
X83340622Y-95418656D01*
X83464678Y-95542712D01*
X83503098Y-95566409D01*
X83549821Y-95618354D01*
X83562000Y-95671946D01*
X83562000Y-95926652D01*
X83542315Y-95993691D01*
X83503098Y-96032189D01*
X83425835Y-96079845D01*
X83381342Y-96107289D01*
X83257288Y-96231343D01*
X83257283Y-96231349D01*
X83255241Y-96234661D01*
X83253247Y-96236453D01*
X83252807Y-96237011D01*
X83252711Y-96236935D01*
X83203291Y-96281383D01*
X83134328Y-96292602D01*
X83070247Y-96264755D01*
X83044168Y-96234656D01*
X83042319Y-96231659D01*
X83042316Y-96231655D01*
X82918345Y-96107684D01*
X82769124Y-96015643D01*
X82769119Y-96015641D01*
X82602697Y-95960494D01*
X82602690Y-95960493D01*
X82499986Y-95950000D01*
X82362500Y-95950000D01*
X82362500Y-98399999D01*
X82499972Y-98399999D01*
X82499986Y-98399998D01*
X82602697Y-98389505D01*
X82769119Y-98334358D01*
X82769124Y-98334356D01*
X82918345Y-98242315D01*
X83042318Y-98118342D01*
X83044165Y-98115348D01*
X83045969Y-98113724D01*
X83046798Y-98112677D01*
X83046976Y-98112818D01*
X83096110Y-98068621D01*
X83165073Y-98057396D01*
X83229156Y-98085236D01*
X83255243Y-98115341D01*
X83257288Y-98118656D01*
X83381344Y-98242712D01*
X83530666Y-98334814D01*
X83697203Y-98389999D01*
X83799991Y-98400500D01*
X84477047Y-98400499D01*
X84544086Y-98420183D01*
X84564728Y-98436818D01*
X87103181Y-100975271D01*
X87136666Y-101036594D01*
X87139500Y-101062952D01*
X87139500Y-104292490D01*
X87119815Y-104359529D01*
X87074518Y-104401544D01*
X86967567Y-104459423D01*
X86967558Y-104459429D01*
X86833456Y-104563805D01*
X86777537Y-104607329D01*
X86614449Y-104784490D01*
X86598808Y-104808431D01*
X86545661Y-104853787D01*
X86476430Y-104863210D01*
X86413094Y-104833707D01*
X86391192Y-104808431D01*
X86375551Y-104784490D01*
X86212463Y-104607329D01*
X86062020Y-104490235D01*
X86022441Y-104459429D01*
X85810665Y-104344821D01*
X85810656Y-104344818D01*
X85582916Y-104266634D01*
X85404777Y-104236908D01*
X85345399Y-104227000D01*
X85104601Y-104227000D01*
X85057098Y-104234926D01*
X84867083Y-104266634D01*
X84639343Y-104344818D01*
X84639334Y-104344821D01*
X84427558Y-104459429D01*
X84293456Y-104563805D01*
X84237537Y-104607329D01*
X84074449Y-104784490D01*
X84058808Y-104808431D01*
X84005661Y-104853787D01*
X83936430Y-104863210D01*
X83873094Y-104833707D01*
X83851192Y-104808431D01*
X83835551Y-104784490D01*
X83672463Y-104607329D01*
X83522020Y-104490235D01*
X83482441Y-104459429D01*
X83270665Y-104344821D01*
X83270656Y-104344818D01*
X83042916Y-104266634D01*
X82864777Y-104236908D01*
X82805399Y-104227000D01*
X82564601Y-104227000D01*
X82517098Y-104234926D01*
X82327083Y-104266634D01*
X82099343Y-104344818D01*
X82099334Y-104344821D01*
X81887558Y-104459429D01*
X81753456Y-104563805D01*
X81697537Y-104607329D01*
X81534449Y-104784490D01*
X81518808Y-104808431D01*
X81465661Y-104853787D01*
X81396430Y-104863210D01*
X81333094Y-104833707D01*
X81311192Y-104808431D01*
X81295551Y-104784490D01*
X81132463Y-104607329D01*
X80982020Y-104490235D01*
X80942441Y-104459429D01*
X80730665Y-104344821D01*
X80730656Y-104344818D01*
X80502916Y-104266634D01*
X80324777Y-104236908D01*
X80265399Y-104227000D01*
X80024601Y-104227000D01*
X79977098Y-104234926D01*
X79787083Y-104266634D01*
X79559343Y-104344818D01*
X79559334Y-104344821D01*
X79347558Y-104459429D01*
X79213456Y-104563805D01*
X79157537Y-104607329D01*
X78994449Y-104784490D01*
X78978808Y-104808431D01*
X78925661Y-104853787D01*
X78856430Y-104863210D01*
X78793094Y-104833707D01*
X78771192Y-104808431D01*
X78755551Y-104784490D01*
X78592463Y-104607329D01*
X78442020Y-104490235D01*
X78402441Y-104459429D01*
X78402432Y-104459423D01*
X78370480Y-104442131D01*
X78320891Y-104392911D01*
X78305500Y-104333078D01*
X78305500Y-97699986D01*
X81025001Y-97699986D01*
X81035494Y-97802697D01*
X81090641Y-97969119D01*
X81090643Y-97969124D01*
X81182684Y-98118345D01*
X81306654Y-98242315D01*
X81455875Y-98334356D01*
X81455880Y-98334358D01*
X81622302Y-98389505D01*
X81622309Y-98389506D01*
X81725019Y-98399999D01*
X81862499Y-98399999D01*
X81862500Y-98399998D01*
X81862500Y-97425000D01*
X81025001Y-97425000D01*
X81025001Y-97699986D01*
X78305500Y-97699986D01*
X78305500Y-96650013D01*
X81025000Y-96650013D01*
X81025000Y-96925000D01*
X81862500Y-96925000D01*
X81862500Y-95950000D01*
X81725027Y-95950000D01*
X81725012Y-95950001D01*
X81622302Y-95960494D01*
X81455880Y-96015641D01*
X81455875Y-96015643D01*
X81306654Y-96107684D01*
X81182684Y-96231654D01*
X81090643Y-96380875D01*
X81090641Y-96380880D01*
X81035494Y-96547302D01*
X81035493Y-96547309D01*
X81025000Y-96650013D01*
X78305500Y-96650013D01*
X78305500Y-94999986D01*
X80516669Y-94999986D01*
X80527162Y-95102697D01*
X80582309Y-95269119D01*
X80582311Y-95269124D01*
X80674352Y-95418345D01*
X80798322Y-95542315D01*
X80947543Y-95634356D01*
X80947548Y-95634358D01*
X81113970Y-95689505D01*
X81113977Y-95689506D01*
X81216687Y-95699999D01*
X81466667Y-95699999D01*
X81966668Y-95699999D01*
X82216640Y-95699999D01*
X82216654Y-95699998D01*
X82319365Y-95689505D01*
X82485787Y-95634358D01*
X82485792Y-95634356D01*
X82635013Y-95542315D01*
X82758983Y-95418345D01*
X82851024Y-95269124D01*
X82851026Y-95269119D01*
X82906173Y-95102697D01*
X82906174Y-95102690D01*
X82916667Y-94999986D01*
X82916668Y-94999973D01*
X82916668Y-94937500D01*
X81966668Y-94937500D01*
X81966668Y-95699999D01*
X81466667Y-95699999D01*
X81466668Y-95699998D01*
X81466668Y-94937500D01*
X80516669Y-94937500D01*
X80516669Y-94999986D01*
X78305500Y-94999986D01*
X78305500Y-92311519D01*
X78325185Y-92244480D01*
X78341819Y-92223838D01*
X81744112Y-88821545D01*
X81744114Y-88821543D01*
X81820775Y-88706811D01*
X81825131Y-88696296D01*
X81873578Y-88579332D01*
X81873580Y-88579328D01*
X81900500Y-88443994D01*
X81900500Y-88306006D01*
X81900500Y-87699499D01*
X81920185Y-87632460D01*
X81972989Y-87586705D01*
X82024500Y-87575499D01*
X82097871Y-87575499D01*
X82097872Y-87575499D01*
X82157483Y-87569091D01*
X82292331Y-87518796D01*
X82407546Y-87432546D01*
X82493796Y-87317331D01*
X82542810Y-87185916D01*
X82584681Y-87129984D01*
X82650145Y-87105566D01*
X82718418Y-87120417D01*
G37*
%TD.AperFunction*%
%TA.AperFunction,Conductor*%
G36*
X86617870Y-98388710D02*
G01*
X86697203Y-98414999D01*
X86799991Y-98425500D01*
X87477047Y-98425499D01*
X87544086Y-98445183D01*
X87564728Y-98461818D01*
X89643181Y-100540271D01*
X89676666Y-100601594D01*
X89679500Y-100627952D01*
X89679500Y-104292490D01*
X89659815Y-104359529D01*
X89614518Y-104401544D01*
X89507567Y-104459423D01*
X89507558Y-104459429D01*
X89373456Y-104563805D01*
X89317537Y-104607329D01*
X89154449Y-104784490D01*
X89138808Y-104808431D01*
X89085661Y-104853787D01*
X89016430Y-104863210D01*
X88953094Y-104833707D01*
X88931192Y-104808431D01*
X88915551Y-104784490D01*
X88752463Y-104607329D01*
X88602020Y-104490235D01*
X88562441Y-104459429D01*
X88562432Y-104459423D01*
X88455482Y-104401544D01*
X88405891Y-104352325D01*
X88390500Y-104292490D01*
X88390500Y-100690894D01*
X88385837Y-100667452D01*
X88384487Y-100660666D01*
X88378521Y-100630668D01*
X88375163Y-100613783D01*
X88375163Y-100613782D01*
X88366464Y-100570053D01*
X88366463Y-100570052D01*
X88366463Y-100570048D01*
X88350251Y-100530909D01*
X88347596Y-100524500D01*
X88319314Y-100456219D01*
X88319312Y-100456214D01*
X88269915Y-100382288D01*
X88260827Y-100368687D01*
X88250859Y-100353768D01*
X88250855Y-100353763D01*
X88160637Y-100263545D01*
X88160606Y-100263516D01*
X86491188Y-98594098D01*
X86457703Y-98532775D01*
X86462687Y-98463083D01*
X86504559Y-98407150D01*
X86570023Y-98382733D01*
X86617870Y-98388710D01*
G37*
%TD.AperFunction*%
%TA.AperFunction,Conductor*%
G36*
X86125520Y-85695185D02*
G01*
X86146162Y-85711819D01*
X86263181Y-85828838D01*
X86296666Y-85890161D01*
X86299500Y-85916519D01*
X86299500Y-87122870D01*
X86299501Y-87122876D01*
X86305908Y-87182483D01*
X86356202Y-87317328D01*
X86356206Y-87317335D01*
X86442452Y-87432544D01*
X86442455Y-87432547D01*
X86557664Y-87518793D01*
X86557671Y-87518797D01*
X86692517Y-87569091D01*
X86692516Y-87569091D01*
X86699444Y-87569835D01*
X86752127Y-87575500D01*
X88547872Y-87575499D01*
X88607483Y-87569091D01*
X88742331Y-87518796D01*
X88857546Y-87432546D01*
X88867903Y-87418710D01*
X88923834Y-87376842D01*
X88993525Y-87371857D01*
X89054849Y-87405341D01*
X89088334Y-87466664D01*
X89091168Y-87493023D01*
X89091168Y-91777983D01*
X89071483Y-91845022D01*
X89018679Y-91890777D01*
X89006178Y-91895686D01*
X88947337Y-91915185D01*
X88947334Y-91915186D01*
X88947331Y-91915187D01*
X88798010Y-92007289D01*
X88673957Y-92131342D01*
X88645119Y-92178097D01*
X88593171Y-92224821D01*
X88539580Y-92237000D01*
X88227088Y-92237000D01*
X88160049Y-92217315D01*
X88121549Y-92178097D01*
X88092712Y-92131344D01*
X87968656Y-92007288D01*
X87819334Y-91915186D01*
X87652797Y-91860001D01*
X87652795Y-91860000D01*
X87550010Y-91849500D01*
X86549998Y-91849500D01*
X86549980Y-91849501D01*
X86447203Y-91860000D01*
X86447200Y-91860001D01*
X86280668Y-91915185D01*
X86280663Y-91915187D01*
X86131342Y-92007289D01*
X86007289Y-92131342D01*
X85915187Y-92280663D01*
X85915186Y-92280666D01*
X85860001Y-92447203D01*
X85860001Y-92447204D01*
X85860000Y-92447204D01*
X85849500Y-92549983D01*
X85849500Y-93175001D01*
X85849501Y-93175019D01*
X85860000Y-93277796D01*
X85860001Y-93277799D01*
X85878244Y-93332852D01*
X85915186Y-93444334D01*
X85953648Y-93506692D01*
X86007289Y-93593657D01*
X86101304Y-93687672D01*
X86134789Y-93748995D01*
X86129805Y-93818687D01*
X86101305Y-93863034D01*
X86007682Y-93956657D01*
X85915643Y-94105875D01*
X85915641Y-94105880D01*
X85860494Y-94272302D01*
X85860493Y-94272309D01*
X85850000Y-94375013D01*
X85850000Y-94437500D01*
X88249999Y-94437500D01*
X88249999Y-94375028D01*
X88249998Y-94375013D01*
X88239505Y-94272302D01*
X88184358Y-94105880D01*
X88184356Y-94105875D01*
X88092315Y-93956654D01*
X87998695Y-93863034D01*
X87965210Y-93801711D01*
X87970194Y-93732019D01*
X87998691Y-93687676D01*
X88092712Y-93593656D01*
X88121549Y-93546902D01*
X88173497Y-93500179D01*
X88227088Y-93488000D01*
X88539580Y-93488000D01*
X88606619Y-93507685D01*
X88645119Y-93546903D01*
X88673957Y-93593657D01*
X88767619Y-93687319D01*
X88801104Y-93748642D01*
X88796120Y-93818334D01*
X88767619Y-93862681D01*
X88673957Y-93956342D01*
X88581855Y-94105663D01*
X88581853Y-94105668D01*
X88579046Y-94114139D01*
X88526669Y-94272203D01*
X88526669Y-94272204D01*
X88526668Y-94272204D01*
X88516168Y-94374983D01*
X88516168Y-94952046D01*
X88496483Y-95019085D01*
X88479852Y-95039725D01*
X88461681Y-95057895D01*
X88400361Y-95091380D01*
X88330670Y-95086398D01*
X88274735Y-95044528D01*
X88250316Y-94979064D01*
X88250000Y-94970215D01*
X88250000Y-94937500D01*
X87300000Y-94937500D01*
X87300000Y-95699999D01*
X87520216Y-95699999D01*
X87587255Y-95719684D01*
X87633010Y-95772488D01*
X87642954Y-95841646D01*
X87613929Y-95905202D01*
X87607909Y-95911667D01*
X87592925Y-95926652D01*
X87581394Y-95938183D01*
X87520070Y-95971667D01*
X87493714Y-95974500D01*
X86799998Y-95974500D01*
X86799980Y-95974501D01*
X86697203Y-95985000D01*
X86697200Y-95985001D01*
X86530668Y-96040185D01*
X86530663Y-96040187D01*
X86381342Y-96132289D01*
X86257289Y-96256342D01*
X86165187Y-96405663D01*
X86165185Y-96405668D01*
X86165115Y-96405880D01*
X86110001Y-96572203D01*
X86110001Y-96572204D01*
X86110000Y-96572204D01*
X86099500Y-96674983D01*
X86099500Y-97725001D01*
X86099501Y-97725019D01*
X86110000Y-97827796D01*
X86110001Y-97827799D01*
X86136288Y-97907126D01*
X86138690Y-97976954D01*
X86102958Y-98036996D01*
X86040438Y-98068189D01*
X85970978Y-98060628D01*
X85930901Y-98033811D01*
X85311818Y-97414728D01*
X85278333Y-97353405D01*
X85275499Y-97327047D01*
X85275499Y-96649998D01*
X85275498Y-96649981D01*
X85264999Y-96547203D01*
X85264998Y-96547200D01*
X85218167Y-96405875D01*
X85209814Y-96380666D01*
X85117712Y-96231344D01*
X84993656Y-96107288D01*
X84871902Y-96032190D01*
X84825179Y-95980243D01*
X84813000Y-95926652D01*
X84813000Y-95819663D01*
X84832685Y-95752624D01*
X84885489Y-95706869D01*
X84924399Y-95696305D01*
X84931816Y-95695547D01*
X84986131Y-95689999D01*
X85152668Y-95634814D01*
X85301990Y-95542712D01*
X85426046Y-95418656D01*
X85518148Y-95269334D01*
X85573333Y-95102797D01*
X85583834Y-95000009D01*
X85583834Y-94999986D01*
X85850001Y-94999986D01*
X85860494Y-95102697D01*
X85915641Y-95269119D01*
X85915643Y-95269124D01*
X86007684Y-95418345D01*
X86131654Y-95542315D01*
X86280875Y-95634356D01*
X86280880Y-95634358D01*
X86447302Y-95689505D01*
X86447309Y-95689506D01*
X86550019Y-95699999D01*
X86799999Y-95699999D01*
X86800000Y-95699998D01*
X86800000Y-94937500D01*
X85850001Y-94937500D01*
X85850001Y-94999986D01*
X85583834Y-94999986D01*
X85583833Y-94374992D01*
X85573333Y-94272203D01*
X85518148Y-94105666D01*
X85426046Y-93956344D01*
X85332383Y-93862681D01*
X85298898Y-93801358D01*
X85303882Y-93731666D01*
X85332383Y-93687319D01*
X85337676Y-93682026D01*
X85426046Y-93593656D01*
X85518148Y-93444334D01*
X85573333Y-93277797D01*
X85583834Y-93175009D01*
X85583833Y-92549992D01*
X85573333Y-92447203D01*
X85518148Y-92280666D01*
X85426046Y-92131344D01*
X85301990Y-92007288D01*
X85152668Y-91915186D01*
X85093827Y-91895688D01*
X85036385Y-91855916D01*
X85009562Y-91791400D01*
X85008834Y-91777983D01*
X85008834Y-86936075D01*
X85008835Y-86936054D01*
X85008835Y-86806729D01*
X85008835Y-86806728D01*
X85001806Y-86771395D01*
X85008032Y-86701807D01*
X85011036Y-86694810D01*
X85013903Y-86688663D01*
X85075063Y-86460408D01*
X85095659Y-86225000D01*
X85075063Y-85989592D01*
X85034783Y-85839262D01*
X85032728Y-85831593D01*
X85034391Y-85761743D01*
X85073554Y-85703881D01*
X85137782Y-85676377D01*
X85152503Y-85675500D01*
X86058481Y-85675500D01*
X86125520Y-85695185D01*
G37*
%TD.AperFunction*%
%TD*%
M02*
