M48
; DRILL file {KiCad 8.0.5} date 2024-10-31T00:03:10+0100
; FORMAT={-:-/ absolute / inch / decimal}
; #@! TF.CreationDate,2024-10-31T00:03:10+01:00
; #@! TF.GenerationSoftware,Kicad,Pcbnew,8.0.5
; #@! TF.FileFunction,Plated,1,2,PTH
FMAT,2
INCH
; #@! TA.AperFunction,Plated,PTH,ViaDrill
T1C0.0157
; #@! TA.AperFunction,Plated,PTH,ComponentDrill
T2C0.0315
; #@! TA.AperFunction,Plated,PTH,ComponentDrill
T3C0.0354
; #@! TA.AperFunction,Plated,PTH,ComponentDrill
T4C0.0394
; #@! TA.AperFunction,Plated,PTH,ComponentDrill
T5C0.0433
; #@! TA.AperFunction,Plated,PTH,ComponentDrill
T6C0.0472
; #@! TA.AperFunction,Plated,PTH,ComponentDrill
T7C0.0500
; #@! TA.AperFunction,Plated,PTH,ComponentDrill
T8C0.0689
; #@! TA.AperFunction,Plated,PTH,ComponentDrill
T9C0.1260
%
G90
G05
T1
X2.8543Y-5.2717
X2.8693Y-3.6777
X2.9567Y-4.0128
X2.997Y-4.3514
X3.0059Y-4.9695
X3.1939Y-4.9882
X3.1998Y-3.9833
X3.3858Y-4.4872
X3.4055Y-3.5187
X3.4341Y-5.0719
X3.5049Y-3.9921
X3.5984Y-3.8228
X3.811Y-3.8504
X3.814Y-5.4026
X3.8819Y-5.0728
X4.003Y-4.1654
X4.122Y-4.5846
X4.1801Y-4.8268
X4.1959Y-5.378
X4.2756Y-3.873
X4.5974Y-4.1762
X4.9518Y-3.8878
X5.2037Y-4.1752
X5.2437Y-3.8503
X5.3642Y-5.4065
X5.6095Y-5.0431
X5.7411Y-5.4075
X5.8642Y-4.6949
X6.0679Y-5.4035
X6.1152Y-5.1073
X6.2411Y-4.7293
X6.2431Y-4.1407
X6.3179Y-4.0915
X6.3189Y-4.5148
X6.5994Y-3.9281
X6.6033Y-4.1526
T2
X3.7707Y-3.6724
X3.7707Y-3.9724
X3.8707Y-3.6724
X3.8707Y-3.9724
X3.9707Y-3.6724
X3.9707Y-3.9724
X4.1016Y-4.7429
X4.1016Y-4.8429
X4.1016Y-4.9429
X4.4016Y-4.7429
X4.4016Y-4.8429
X4.4016Y-4.9429
X4.4941Y-3.6724
X4.4941Y-3.9724
X4.5941Y-3.6724
X4.5941Y-3.9724
X4.6941Y-3.6724
X4.6941Y-3.9724
X5.19Y-3.6722
X5.19Y-3.9722
X5.29Y-3.6722
X5.29Y-3.9722
X5.39Y-3.6722
X5.39Y-3.9722
T3
X4.568Y-5.3563
X4.568Y-5.4563
X4.9617Y-5.3563
X4.9617Y-5.4563
T4
X3.1969Y-3.3947
X3.2463Y-5.4626
X3.2969Y-3.3947
X3.3463Y-5.4626
X3.4463Y-5.4626
X3.4508Y-3.3947
X3.5463Y-5.4626
X3.5508Y-3.3947
X4.5963Y-4.7467
X4.5963Y-4.9467
X4.7963Y-4.7467
X4.7963Y-4.9467
X5.1624Y-4.6555
X5.1624Y-4.8917
X6.4852Y-4.4193
X6.4852Y-5.128
T5
X4.1929Y-3.437
X4.1929Y-3.537
X4.1929Y-3.637
X4.9016Y-3.437
X4.9016Y-3.537
X4.9016Y-3.637
X5.6102Y-3.437
X5.6102Y-3.537
X5.6102Y-3.637
T6
X3.7984Y-4.3711
X4.8984Y-4.3711
T7
X2.8553Y-4.1606
X2.8553Y-4.7606
X2.9553Y-4.1606
X2.9553Y-4.7606
X3.0553Y-4.1606
X3.0553Y-4.7606
X3.1553Y-4.1606
X3.1553Y-4.7606
X3.2553Y-4.1606
X3.2553Y-4.7606
X3.3553Y-4.1606
X3.3553Y-4.7606
X3.4553Y-4.1606
X3.4553Y-4.7606
X3.5553Y-4.1606
X3.5553Y-4.7606
T8
X3.7756Y-3.4642
X3.9756Y-3.4642
X4.4843Y-3.4642
X4.6843Y-3.4642
X5.1929Y-3.4642
X5.3929Y-3.4642
X5.9024Y-3.4642
X6.1024Y-3.4642
T9
X2.9331Y-3.4872
X2.9331Y-5.4547
X6.4764Y-3.4872
X6.4764Y-5.4547
M30
