%TF.GenerationSoftware,KiCad,Pcbnew,8.0.5*%
%TF.CreationDate,2024-10-31T00:03:13+01:00*%
%TF.ProjectId,HotPlate_Soldering,486f7450-6c61-4746-955f-536f6c646572,rev?*%
%TF.SameCoordinates,Original*%
%TF.FileFunction,Paste,Top*%
%TF.FilePolarity,Positive*%
%FSLAX46Y46*%
G04 Gerber Fmt 4.6, Leading zero omitted, Abs format (unit mm)*
G04 Created by KiCad (PCBNEW 8.0.5) date 2024-10-31 00:03:13*
%MOMM*%
%LPD*%
G01*
G04 APERTURE LIST*
G04 Aperture macros list*
%AMRoundRect*
0 Rectangle with rounded corners*
0 $1 Rounding radius*
0 $2 $3 $4 $5 $6 $7 $8 $9 X,Y pos of 4 corners*
0 Add a 4 corners polygon primitive as box body*
4,1,4,$2,$3,$4,$5,$6,$7,$8,$9,$2,$3,0*
0 Add four circle primitives for the rounded corners*
1,1,$1+$1,$2,$3*
1,1,$1+$1,$4,$5*
1,1,$1+$1,$6,$7*
1,1,$1+$1,$8,$9*
0 Add four rect primitives between the rounded corners*
20,1,$1+$1,$2,$3,$4,$5,0*
20,1,$1+$1,$4,$5,$6,$7,0*
20,1,$1+$1,$6,$7,$8,$9,0*
20,1,$1+$1,$8,$9,$2,$3,0*%
G04 Aperture macros list end*
%ADD10RoundRect,0.250000X-0.450000X0.262500X-0.450000X-0.262500X0.450000X-0.262500X0.450000X0.262500X0*%
%ADD11RoundRect,0.250000X0.450000X-0.262500X0.450000X0.262500X-0.450000X0.262500X-0.450000X-0.262500X0*%
%ADD12RoundRect,0.250000X0.337500X0.475000X-0.337500X0.475000X-0.337500X-0.475000X0.337500X-0.475000X0*%
%ADD13RoundRect,0.250000X-0.262500X-0.450000X0.262500X-0.450000X0.262500X0.450000X-0.262500X0.450000X0*%
%ADD14RoundRect,0.250000X0.475000X-0.337500X0.475000X0.337500X-0.475000X0.337500X-0.475000X-0.337500X0*%
%ADD15RoundRect,0.250000X-0.337500X-0.475000X0.337500X-0.475000X0.337500X0.475000X-0.337500X0.475000X0*%
%ADD16RoundRect,0.250000X0.450000X-0.350000X0.450000X0.350000X-0.450000X0.350000X-0.450000X-0.350000X0*%
%ADD17R,1.550000X1.300000*%
G04 APERTURE END LIST*
D10*
%TO.C,R3*%
X101675000Y-117137500D03*
X101675000Y-118962500D03*
%TD*%
D11*
%TO.C,R2*%
X101700000Y-120737500D03*
X101700000Y-122562500D03*
%TD*%
D12*
%TO.C,C6*%
X87187500Y-97200000D03*
X89262500Y-97200000D03*
%TD*%
D13*
%TO.C,R17*%
X161350000Y-127300000D03*
X159525000Y-127300000D03*
%TD*%
D14*
%TO.C,C2*%
X153937500Y-121362500D03*
X153937500Y-123437500D03*
%TD*%
D15*
%TO.C,C1*%
X84187500Y-97175000D03*
X82112500Y-97175000D03*
%TD*%
D11*
%TO.C,R9*%
X122050000Y-99387500D03*
X122050000Y-101212500D03*
%TD*%
D10*
%TO.C,R6*%
X92775000Y-101237500D03*
X92775000Y-99412500D03*
%TD*%
D11*
%TO.C,R13*%
X139695000Y-99417500D03*
X139695000Y-101242500D03*
%TD*%
D16*
%TO.C,R19*%
X111501191Y-136349187D03*
X111501191Y-138349187D03*
%TD*%
D13*
%TO.C,R21*%
X161362500Y-99025000D03*
X159537500Y-99025000D03*
%TD*%
D17*
%TO.C,SW1*%
X164455000Y-106175000D03*
X156495000Y-106175000D03*
X164455000Y-101675000D03*
X156495000Y-101675000D03*
%TD*%
D16*
%TO.C,R20*%
X121551191Y-138274187D03*
X121551191Y-136274187D03*
%TD*%
D10*
%TO.C,R5*%
X81716668Y-94687500D03*
X81716668Y-92862500D03*
%TD*%
%TO.C,R8*%
X111275000Y-101237500D03*
X111275000Y-99412500D03*
%TD*%
D17*
%TO.C,SW3*%
X164417500Y-124675000D03*
X156457500Y-124675000D03*
X164417500Y-120175000D03*
X156457500Y-120175000D03*
%TD*%
D10*
%TO.C,R11*%
X128995000Y-101242500D03*
X128995000Y-99417500D03*
%TD*%
%TO.C,R4*%
X87050000Y-94687500D03*
X87050000Y-92862500D03*
%TD*%
D11*
%TO.C,R15*%
X89716668Y-92862500D03*
X89716668Y-94687500D03*
%TD*%
D14*
%TO.C,C7*%
X153900000Y-102887500D03*
X153900000Y-104962500D03*
%TD*%
D11*
%TO.C,R7*%
X103750000Y-99412500D03*
X103750000Y-101237500D03*
%TD*%
%TO.C,R16*%
X84383334Y-92862500D03*
X84383334Y-94687500D03*
%TD*%
M02*
